<?xml version="1.0" encoding="UTF-8"?>
<svg id="_內容" data-name="內容" xmlns="http://www.w3.org/2000/svg" viewBox="0 0 17 17">
  <defs>
    <style>
      .cls-1 {
        fill: #fff;
      }
    </style>
  </defs>
  <path class="cls-1" d="M15.55,13.76l-3.4-3.4c.58-.92.91-2.01.91-3.18,0-3.3-2.68-5.98-5.98-5.98S1.1,3.88,1.1,7.18s2.68,5.98,5.98,5.98c1.27,0,2.45-.4,3.42-1.07l3.36,3.36c.23.23.54.35.85.35s.61-.12.85-.35c.47-.47.47-1.22,0-1.69h0ZM7.08,11.22c-2.23,0-4.04-1.81-4.04-4.04s1.81-4.04,4.04-4.04,4.04,1.81,4.04,4.04-1.81,4.04-4.04,4.04h0ZM7.08,11.22"/>
</svg>