<?xml version="1.0" encoding="UTF-8"?>
<svg xmlns="http://www.w3.org/2000/svg" xmlns:xlink="http://www.w3.org/1999/xlink" viewBox="0 0 195 195">
  <defs>
    <style>
      .cls-1 {
        fill: none;
      }

      .cls-2 {
        fill: #ee92ba;
      }

      .cls-3 {
        fill: #ffe100;
      }

      .cls-3, .cls-4, .cls-5, .cls-6 {
        stroke-linejoin: round;
        stroke-width: 2.5px;
      }

      .cls-3, .cls-6 {
        stroke: #231815;
        stroke-linecap: round;
      }

      .cls-4 {
        fill: #008bd5;
      }

      .cls-4, .cls-5 {
        stroke: #000;
      }

      .cls-7 {
        fill: #ed848c;
      }

      .cls-8 {
        opacity: .3;
      }

      .cls-8, .cls-9, .cls-10, .cls-5, .cls-6 {
        fill: #fff;
      }

      .cls-11 {
        fill: #ef8200;
      }

      .cls-12 {
        clip-path: url(#clippath-1);
      }

      .cls-13 {
        clip-path: url(#clippath-2);
      }

      .cls-10 {
        font-family: HeiseiMaruGoStd-W8-83pv-RKSJ-H, 'Heisei Maru Gothic Std';
        font-size: 27.11px;
      }

      .cls-14 {
        fill: #f09aa8;
      }

      .cls-15 {
        fill: #f6c8dd;
      }

      .cls-16 {
        fill: #a9a89f;
      }

      .cls-17 {
        letter-spacing: -.02em;
      }

      .cls-18 {
        fill: #e63556;
      }

      .cls-19 {
        fill: #dd7a8d;
      }

      .cls-20 {
        clip-path: url(#clippath);
      }
    </style>
    <clipPath id="clippath">
      <path class="cls-1" d="M19.07-134.72c0,21.91,2.42,44.41,16.78,58.77,14.36,14.36,36.86,16.79,58.77,16.8,21.91,0,44.41-2.42,58.77-16.78,14.36-14.36,16.79-36.86,16.8-58.77s-2.42-44.41-16.78-58.77c-14.36-14.36-36.86-16.79-58.77-16.8-21.91,0-44.41,2.42-58.77,16.78-14.36,14.36-16.79,36.86-16.8,58.77Z"/>
    </clipPath>
    <clipPath id="clippath-1">
      <path class="cls-1" d="M19.69,85.28c0,21.91,2.42,44.41,16.78,58.77,14.36,14.36,36.86,16.79,58.77,16.8,21.91,0,44.41-2.42,58.77-16.78,14.36-14.36,16.79-36.86,16.8-58.77,0-21.91-2.42-44.41-16.78-58.77s-36.86-16.79-58.77-16.8c-21.91,0-44.41,2.42-58.77,16.78-14.36,14.36-16.79,36.86-16.8,58.77Z"/>
    </clipPath>
    <clipPath id="clippath-2">
      <path class="cls-1" d="M7.64,81.72c0,23.27,3.47,44.01,20,59.26,16.53,15.25,41.76,21,66.99,21,25.23,0,50.48-6.75,67.01-22,16.53-15.25,20-34.97,20-58.24,0-23.27-2.79-47.17-19.32-62.42C145.79,4.07,119.87,1.49,94.65,1.48S43.51,4.06,26.98,19.3C10.44,34.55,7.64,58.45,7.64,81.72Z"/>
    </clipPath>
  </defs>
  <g id="list-pic">
    <g class="cls-20">
      <g>
        <path class="cls-4" d="M75.72-22.38c-2.75-.56-6.34.96-6.51,1.28-2.59-.73-3.34-2.38-3.34-2.38,0,0-1.83,3.02-3.61,8.58-1.05,3.26-1.24,6.81-1.18,8.66.35,10.47,22.12,7.81,25.11,2.17,1.64-3.09,1.7-5.11,1.94-7.7.43-4.77.24-8.68.24-8.68,0,0-3.81,2.4-4.77,2.22-1.45-2.14-3.83-3.32-7.87-4.15Z"/>
        <path class="cls-6" d="M87.92-9.74s-2.02,5.92-6.31,6.94c-1.67-1.1-3.79-4.29-9.72-5.32-6.5-1.13-8.58,2.74-8.58,2.74-.57.31-2.2-3.58-2.09-4.78,0,0-1.42,5.72,1.61,8.64,1.4,1.35,6.7,2.8,12.81,2.86,13.22.14,12.14-9.05,12.27-11.09Z"/>
      </g>
      <path class="cls-3" d="M125.09-42.45v22.73s6.98,6.24,9.73,10.47c2.75,4.23-.53,8.36-6.03,8.57-5.5.21-18.08-3.28-21.36-5.18-3.28-1.9-4.23-4.55-4.23-7.82v-28.76h21.89Z"/>
      <g>
        <path class="cls-4" d="M125.68-20.8s4.37,4.12,6.83,6.51c2.46,2.39,6.33,5.98,6.47,7.1.14,1.12-3.58,4.29-7.94,5.91-4.36,1.62-12.85.76-17.76-.5-5.51-1.4-10.98-4-11.16-6.89-.18-2.88.24-7.24.31-7.45.07-.21,0-.9,0-2.04,0-.8.56-1.34.56-1.34,0,0,1.2,1.48,5.2,2.25,4.01.77,6.96.7,7.17.42.21-.28,1.76-2.59,4.87-3.59,1.7-.55,3.27-1.01,5.45-.38Z"/>
        <path class="cls-5" d="M132.78-7.26c2.41-1.05,5.97-.62,6.13,0,.16.62,1.29,4.92-2.19,7.07-4.64,2.88-13.85,1.73-20.95.32-7.52-1.49-12.74-4.59-13.17-5.44-.43-.85-.54-3.31-.54-3.31,0,0,4.05,3.39,10.61,5.06,7.96,2.03,14.77,2.14,14.77,2.14,0,0,1.81-4.32,5.33-5.85Z"/>
      </g>
    </g>
    <g>
      <path class="cls-19" d="M19.72,96.64c0,21.91,2.42,44.41,16.78,58.77,14.36,14.36,36.86,16.79,58.77,16.8s44.41-2.42,58.77-16.78,16.79-36.86,16.8-58.77c0-21.91-2.42-44.41-16.78-58.77-14.36-14.36-36.86-16.79-58.77-16.8-21.91,0-44.41,2.42-58.77,16.78s-16.79,36.86-16.8,58.77Z"/>
      <path class="cls-14" d="M19.35,85.3c0,21.91,2.42,44.41,16.78,58.77,14.36,14.36,36.86,16.79,58.77,16.8,21.91,0,44.41-2.42,58.77-16.78,14.36-14.36,16.79-36.86,16.8-58.77,0-21.91-2.42-44.41-16.78-58.77-14.36-14.36-36.86-16.79-58.77-16.8-21.91,0-44.41,2.42-58.77,16.78-14.36,14.36-16.79,36.86-16.8,58.77Z"/>
      <circle class="cls-9" cx="95.9" cy="98.51" r="59.56"/>
      <g class="cls-12">
        <path class="cls-8" d="M104.11,16.07c-.2,1.55-.74,2.85-1.67,3.91-1.2,1.36-2.54,2.59-3.84,3.86-.26.25-.57.46-.89.62-1.38.73-2.76,1.44-4.15,2.14-.67.34-1.37.48-2.14.27-.48-.36-.56-.95-.77-1.47-.29-.72-.54-1.46-.87-2.17-.37-.81-.65-1.63-.8-2.51-.25-1.54-.53-3.07-.77-4.61-.07-.45-.04-.92-.06-1.42,1.09-.54,2.2-.73,3.34-.8,1.98-.13,3.94.04,5.89.41,1.43.27,2.86.56,4.28.87.56.12,1.11.28,1.65.45.24.08.45.25.78.44Z"/>
        <path class="cls-8" d="M40.76,68.02c-.33-1.53-.26-2.94.27-4.24.67-1.68,1.53-3.29,2.33-4.92.16-.32.39-.62.63-.89,1.06-1.14,2.12-2.28,3.2-3.41.51-.54,1.13-.91,1.93-.97.57.18.84.71,1.22,1.13.52.58,1,1.2,1.54,1.76.62.63,1.16,1.32,1.59,2.1.75,1.37,1.53,2.72,2.27,4.09.22.4.35.86.53,1.31-.85.87-1.83,1.42-2.88,1.87-1.82.78-3.73,1.28-5.69,1.58-1.44.22-2.88.42-4.32.61-.57.07-1.14.11-1.71.13-.25,0-.5-.08-.89-.15Z"/>
        <path class="cls-8" d="M150.49,90.47c.48-1.36,1.22-2.43,2.26-3.21,1.34-1,2.79-1.85,4.21-2.74.28-.18.6-.3.92-.39,1.38-.39,2.77-.76,4.16-1.13.66-.17,1.33-.17,1.98.17.37.41.32.97.41,1.48.12.71.2,1.43.36,2.12.18.8.27,1.6.23,2.42-.07,1.44-.11,2.87-.2,4.31-.02.42-.14.84-.22,1.29-1.09.28-2.13.23-3.17.08-1.81-.27-3.55-.8-5.24-1.51-1.24-.52-2.47-1.06-3.69-1.61-.48-.22-.95-.46-1.4-.73-.2-.12-.36-.31-.62-.55Z"/>
        <path class="cls-8" d="M38.95,137.52c.2-1.55.74-2.85,1.67-3.91,1.2-1.36,2.54-2.59,3.84-3.86.26-.25.57-.46.89-.62,1.38-.73,2.76-1.44,4.15-2.14.67-.34,1.37-.48,2.14-.27.48.36.56.95.77,1.47.29.72.54,1.46.87,2.17.37.81.65,1.63.8,2.51.25,1.54.53,3.07.77,4.61.07.45.04.92.06,1.42-1.09.54-2.2.73-3.34.8-1.98.13-3.94-.04-5.89-.41-1.43-.27-2.86-.56-4.28-.87-.56-.12-1.11-.28-1.65-.45-.24-.08-.45-.25-.78-.44Z"/>
        <path class="cls-8" d="M71.29,22.57c.33,1.53.26,2.94-.27,4.24-.67,1.68-1.53,3.29-2.33,4.92-.16.32-.39.62-.63.89-1.06,1.14-2.12,2.28-3.2,3.41-.51.54-1.13.91-1.93.97-.57-.18-.84-.71-1.22-1.13-.52-.58-1-1.2-1.54-1.76-.62-.63-1.16-1.32-1.59-2.1-.75-1.37-1.53-2.72-2.27-4.09-.22-.4-.35-.86-.53-1.31.85-.87,1.83-1.42,2.88-1.87,1.82-.78,3.73-1.28,5.69-1.58,1.44-.22,2.88-.42,4.32-.61.57-.07,1.14-.11,1.71-.13.25,0,.5.08.89.15Z"/>
        <path class="cls-8" d="M135.96,137.91c.94-.6,1.9-.91,2.91-.88,1.3.03,2.59.2,3.88.33.26.03.51.1.75.2,1.03.42,2.06.85,3.08,1.29.49.21.89.53,1.13,1.05.03.43-.27.74-.45,1.1-.26.49-.56.97-.79,1.47-.27.58-.6,1.11-1.01,1.59-.73.84-1.44,1.7-2.18,2.54-.22.25-.49.45-.75.68-.8-.35-1.41-.87-1.98-1.47-.98-1.03-1.79-2.18-2.48-3.42-.51-.91-1-1.82-1.49-2.74-.19-.36-.36-.73-.51-1.11-.07-.17-.07-.36-.12-.63Z"/>
        <path class="cls-8" d="M123.3,69.48c-.88-1.29-1.34-2.63-1.35-4.03,0-1.81.18-3.63.3-5.44.03-.36.13-.72.25-1.06.55-1.46,1.11-2.91,1.68-4.36.27-.69.7-1.27,1.42-1.63.6-.05,1.05.34,1.55.59.7.35,1.37.74,2.09,1.05.81.35,1.57.79,2.26,1.35,1.21.98,2.44,1.94,3.64,2.94.35.29.64.66.99,1.02-.46,1.13-1.16,2.01-1.97,2.82-1.4,1.41-2.98,2.59-4.68,3.61-1.25.75-2.51,1.47-3.77,2.19-.5.28-1.01.53-1.53.76-.23.1-.5.11-.88.19Z"/>
        <path class="cls-8" d="M139.29,22.57c.33,1.53.26,2.94-.27,4.24-.67,1.68-1.53,3.29-2.33,4.92-.16.32-.39.62-.63.89-1.06,1.14-2.12,2.28-3.2,3.41-.51.54-1.13.91-1.93.97-.57-.18-.84-.71-1.22-1.13-.52-.58-1-1.2-1.54-1.76-.62-.63-1.16-1.32-1.59-2.1-.75-1.37-1.53-2.72-2.27-4.09-.22-.4-.35-.86-.53-1.31.85-.87,1.83-1.42,2.88-1.87,1.82-.78,3.73-1.28,5.69-1.58,1.44-.22,2.88-.42,4.32-.61.57-.07,1.14-.11,1.71-.13.25,0,.5.08.89.15Z"/>
        <path class="cls-8" d="M144.85,50.27c-1.1-1.11-1.8-2.33-2.07-3.71-.34-1.78-.49-3.6-.7-5.4-.04-.36,0-.73.05-1.09.27-1.53.56-3.07.85-4.59.14-.73.46-1.37,1.09-1.86.58-.16,1.09.14,1.63.29.75.21,1.49.47,2.24.65.87.2,1.69.48,2.47.91,1.37.74,2.75,1.46,4.12,2.22.4.22.75.53,1.16.82-.24,1.19-.77,2.19-1.41,3.13-1.11,1.65-2.45,3.09-3.93,4.4-1.09.96-2.19,1.91-3.31,2.85-.44.37-.9.71-1.37,1.03-.21.14-.47.2-.83.35Z"/>
        <path class="cls-8" d="M152.63,62.31c1.17-.34,2.28-.36,3.32-.02,1.35.43,2.65,1.01,3.96,1.55.26.11.51.27.73.44.95.76,1.89,1.53,2.83,2.31.45.37.77.83.86,1.45-.11.46-.51.7-.81,1.01-.43.43-.88.84-1.29,1.3-.46.52-.97.98-1.55,1.35-1.02.66-2.04,1.34-3.07,1.99-.3.19-.65.32-1,.48-.73-.61-1.21-1.35-1.62-2.15-.71-1.38-1.2-2.84-1.54-4.35-.25-1.11-.49-2.22-.71-3.34-.09-.44-.15-.88-.19-1.32-.02-.2.04-.4.07-.7Z"/>
        <path class="cls-8" d="M160.65,127.92c-1.55.21-2.95.02-4.21-.61-1.62-.81-3.16-1.79-4.72-2.72-.31-.18-.59-.44-.83-.7-1.06-1.15-2.1-2.3-3.13-3.47-.5-.56-.81-1.2-.82-2,.22-.56.78-.78,1.22-1.12.62-.47,1.28-.9,1.87-1.39.68-.57,1.41-1.05,2.22-1.41,1.42-.64,2.83-1.3,4.26-1.93.42-.18.88-.28,1.35-.42.8.91,1.27,1.94,1.63,3.03.63,1.88.97,3.82,1.12,5.8.11,1.45.19,2.9.26,4.36.03.57.02,1.14-.01,1.71-.01.25-.12.5-.22.87Z"/>
        <path class="cls-8" d="M49.07,40.63c-.2,1.55-.74,2.85-1.67,3.91-1.2,1.36-2.54,2.59-3.84,3.86-.26.25-.57.46-.89.62-1.38.73-2.76,1.44-4.15,2.14-.67.34-1.37.48-2.14.27-.48-.36-.56-.95-.77-1.47-.29-.72-.54-1.46-.87-2.17-.37-.81-.65-1.63-.8-2.51-.25-1.54-.53-3.07-.77-4.61-.07-.45-.04-.92-.06-1.42,1.09-.54,2.2-.73,3.34-.8,1.98-.13,3.94.04,5.89.41,1.43.27,2.86.56,4.28.87.56.12,1.11.28,1.65.45.24.08.45.25.78.44Z"/>
        <path class="cls-8" d="M25.47,73.29c1.46-.56,2.86-.71,4.23-.4,1.77.4,3.49,1,5.23,1.53.34.11.67.29.97.49,1.3.86,2.58,1.74,3.86,2.63.61.42,1.07.97,1.26,1.75-.08.59-.57.94-.93,1.38-.5.6-1.03,1.17-1.49,1.8-.53.71-1.12,1.35-1.82,1.89-1.23.96-2.45,1.93-3.69,2.88-.37.28-.79.48-1.22.73-.99-.7-1.69-1.59-2.3-2.56-1.06-1.68-1.84-3.49-2.45-5.37-.44-1.39-.87-2.78-1.28-4.17-.16-.55-.29-1.11-.39-1.67-.05-.25,0-.51.01-.9Z"/>
        <path class="cls-8" d="M30.04,117.73c-.88-1.29-1.35-2.62-1.36-4.03-.01-1.81.17-3.63.3-5.44.02-.36.12-.72.25-1.06.55-1.46,1.11-2.91,1.68-4.36.27-.69.7-1.27,1.42-1.63.6-.05,1.05.34,1.55.59.7.35,1.38.74,2.09,1.04.82.35,1.57.78,2.26,1.34,1.21.98,2.44,1.94,3.64,2.93.35.29.64.66.99,1.02-.45,1.13-1.16,2.01-1.96,2.82-1.39,1.42-2.97,2.59-4.67,3.61-1.25.75-2.51,1.48-3.77,2.2-.5.28-1.01.53-1.53.76-.23.1-.5.11-.88.2Z"/>
      </g>
      <g class="cls-13">
        <g>
          <g>
            <g>
              <path class="cls-16" d="M85.19,142.52c.49.11.81.57.75,1.06-.02.22-.68,4.95-1.54,11.07.69-.73,1.67-1.19,2.76-1.19,2.1,0,3.81,1.7,3.81,3.81s-1.7,3.81-3.81,3.81c-1.47,0-2.74-.83-3.37-2.05-.57,4.09-1.18,8.44-1.73,12.33,4.92.34,10.02.52,13.47.52,3.19,0,7.79-.16,12.35-.45-.47-3.32-.98-6.99-1.48-10.54-.37.12-.77.19-1.18.19-2.1,0-3.81-1.7-3.81-3.81s1.7-3.81,3.81-3.81c.05,0,.09,0,.14,0-.78-5.54-1.35-9.68-1.38-9.88-.05-.5.27-.96.75-1.06,4.06-.9,7.83-4.67,8.92-7.42-.03-.28-.06-.54-.08-.79l-2.26.02c-.42.14-.86.26-1.3.39-4.19,3.43-8.66,5.27-14.7,5.27s-11.22-1.86-14.8-4.79c-.66-.16-1.31-.32-1.93-.5l-2.2.02c-.01.19-.03.39-.04.59,1.2,2.73,4.87,6.32,8.83,7.2ZM96.19,144.43c2.1,0,3.81,1.7,3.81,3.81s-1.7,3.81-3.81,3.81-3.81-1.7-3.81-3.81,1.7-3.81,3.81-3.81ZM96.19,162.49c2.1,0,3.81,1.7,3.81,3.81s-1.7,3.81-3.81,3.81-3.81-1.7-3.81-3.81,1.7-3.81,3.81-3.81Z"/>
              <path class="cls-16" d="M129.65,205.98c-.31-1.43-.69-3.01-1.11-4.69-.19.03-.38.05-.58.05-2.1,0-3.81-1.7-3.81-3.81,0-1.64,1.04-3.03,2.49-3.57-1.2-4.47-2.5-9.04-3.61-12.91-1.09.47-2.48.91-3.97,1.29h0c-4.17,1.07-9.02,1.67-9.47,1.21,0,0,0-.03-.01-.07-1.83-.28-3.23-1.85-3.23-3.76,0-1.53.91-2.85,2.21-3.45-.07-.53-.15-1.08-.23-1.65-2.18.15-4.55.27-7.08.35h0c-1.84.06-3.76.09-5.73.09-4.37,0-8.47-.17-12.07-.4h0s0,0,0,0c-.64-.04-1.25-.08-1.86-.13-.74,5.23-1.27,9.02-1.27,9.02-.27.28-2.19.16-4.6-.21-.37.12-.77.19-1.18.19-.93,0-1.77-.33-2.43-.88-1.54-.35-3.05-.77-4.31-1.23-.33,1.14-.67,2.34-1.02,3.57.12.04.23.08.34.13,1.37.58,2.32,1.93,2.32,3.51s-.96,2.93-2.32,3.51c-.11.05-.23.09-.35.13-.24.07-.49.13-.74.15-.13.01-.26.02-.39.02h0s0,0,0,0c-.31,0-.61-.04-.9-.11-1.34,4.93-2.62,9.84-3.45,13.65-.14.65.16,1.29.73,1.61-.12-.36-.18-.75-.18-1.15,0-.79.24-1.52.65-2.13.07-.1.14-.2.22-.29.16-.19.33-.36.52-.52.66-.54,1.5-.87,2.42-.87h0s0,0,0,0c.13,0,.26,0,.39.02.26.03.5.08.74.15.12.04.24.08.35.13,1.37.58,2.32,1.93,2.32,3.51,0,1.17-.52,2.21-1.35,2.9.64.14,1.34.29,2.08.43,3.37.65,7.75,1.27,13.26,1.66v-1.19c-.53,0-1.03-.11-1.48-.3-.46-.19-.87-.47-1.21-.82-.69-.69-1.11-1.64-1.11-2.69s.43-2,1.11-2.69c.34-.34.75-.62,1.21-.82.46-.19.96-.3,1.48-.3h0s0,0,0,0c.13,0,.26,0,.39.02.64.06,1.23.29,1.74.63.2.14.39.29.56.46.09.09.17.18.25.27.16.19.29.39.41.61.29.54.46,1.16.46,1.81s-.17,1.27-.46,1.81c-.12.22-.25.42-.41.61-.08.09-.16.18-.25.27-.17.17-.36.33-.56.46-.51.34-1.1.57-1.74.63-.13.01-.26.02-.39.02v1.19c2.31.16,4.83.28,7.55.35.42-.16.87-.25,1.35-.25.52,0,1.02.11,1.48.3.54,0,1.09,0,1.64,0,1.44,0,2.83-.02,4.17-.05.55-.01,1.08-.03,1.61-.04v-1.5c-.92,0-1.76-.33-2.42-.87-.19-.16-.36-.33-.52-.52-.08-.09-.15-.19-.22-.29-.41-.61-.65-1.34-.65-2.13s.24-1.52.65-2.13c.07-.1.14-.2.22-.29.16-.19.33-.36.52-.52.66-.54,1.5-.87,2.42-.87h0s0,0,0,0c.13,0,.26,0,.39.02.26.03.5.08.74.15.12.04.24.08.35.13,1.37.58,2.32,1.93,2.32,3.51s-.96,2.93-2.32,3.51c-.11.05-.23.09-.35.13-.24.07-.49.13-.74.15-.13.01-.26.02-.39.02v1.5c7.19-.22,12.85-.84,17.18-1.56-.17-.03-.35-.06-.51-.12-.48-.15-.91-.39-1.29-.7-.19-.16-.36-.33-.52-.52-.08-.09-.15-.19-.22-.29-.41-.61-.65-1.34-.65-2.13s.24-1.52.65-2.13c.07-.1.14-.2.22-.29.16-.19.33-.36.52-.52.38-.31.81-.55,1.29-.7.36-.11.74-.17,1.13-.17v-.2h0s0,0,0,0v.2c.13,0,.26,0,.39.02.64.06,1.23.29,1.74.63,1.01.68,1.68,1.84,1.68,3.16s-.67,2.47-1.68,3.16c-.08.05-.15.1-.23.14.12-.02.23-.05.34-.07,3.69-.74,6.1-1.5,7.41-1.98.7-.26,1.1-.98.94-1.71ZM74.56,201.34c-2.1,0-3.81-1.7-3.81-3.81s1.7-3.81,3.81-3.81,3.81,1.7,3.81,3.81-1.7,3.81-3.81,3.81ZM86.8,190.45c-.12.22-.25.42-.41.61-.08.09-.16.18-.25.27-.17.17-.36.33-.56.46-.51.34-1.1.57-1.74.63-.13.01-.26.02-.39.02h0s0,0,0,0c-.53,0-1.03-.11-1.48-.3-.46-.19-.87-.47-1.21-.82-.69-.69-1.11-1.64-1.11-2.69s.43-2,1.11-2.69c.34-.34.75-.62,1.21-.82.46-.19.96-.3,1.48-.3h0s0,0,0,0c.13,0,.26,0,.39.02.64.06,1.23.29,1.74.63.2.14.39.29.56.46.09.09.17.18.25.27.16.19.29.39.41.61.29.54.46,1.16.46,1.81s-.17,1.27-.46,1.81ZM92.36,201.34c-2.1,0-3.81-1.7-3.81-3.81s1.7-3.81,3.81-3.81,3.81,1.7,3.81,3.81-1.7,3.81-3.81,3.81ZM92.36,183.54c-2.1,0-3.81-1.7-3.81-3.81s1.7-3.81,3.81-3.81,3.81,1.7,3.81,3.81-1.7,3.81-3.81,3.81ZM102.74,192.14c-.11.05-.23.09-.35.13-.24.07-.49.13-.74.15-.13.01-.26.02-.39.02h0s0,0,0,0c-.92,0-1.76-.33-2.42-.87-.19-.16-.36-.33-.52-.52-.08-.09-.15-.19-.22-.29-.41-.61-.65-1.34-.65-2.13s.24-1.52.65-2.13c.07-.1.14-.2.22-.29.16-.19.33-.36.52-.52.66-.54,1.5-.87,2.42-.87h0s0,0,0,0c.13,0,.26,0,.39.02.26.03.5.08.74.15.12.04.24.08.35.13,1.37.58,2.32,1.93,2.32,3.51s-.96,2.93-2.32,3.51ZM110.16,201.34c-2.1,0-3.81-1.7-3.81-3.81s1.7-3.81,3.81-3.81,3.81,1.7,3.81,3.81-1.7,3.81-3.81,3.81ZM121.19,191.79c-.51.34-1.1.57-1.74.63-.13.01-.26.02-.39.02h0s0,0,0,0c-.39,0-.77-.06-1.13-.17-.48-.15-.91-.39-1.29-.7-.19-.16-.36-.33-.52-.52-.08-.09-.15-.19-.22-.29-.41-.61-.65-1.34-.65-2.13s.24-1.52.65-2.13c.07-.1.14-.2.22-.29.16-.19.33-.36.52-.52.38-.31.81-.55,1.29-.7.36-.11.74-.17,1.13-.17h0s0,0,0,0c.13,0,.26,0,.39.02.64.06,1.23.29,1.74.63,1.01.68,1.68,1.84,1.68,3.16s-.67,2.47-1.68,3.16Z"/>
            </g>
            <path class="cls-11" d="M95.53,171.87c-3.45,0-8.56-.18-13.47-.52-.16,1.11-.31,2.19-.45,3.21.6.04,1.22.09,1.86.13h0c3.6.23,7.7.4,12.07.4,1.97,0,3.89-.03,5.73-.09h0c2.52-.08,4.9-.21,7.08-.35-.14-1.02-.29-2.1-.45-3.21-4.56.29-9.17.45-12.35.45Z"/>
            <g>
              <path class="cls-15" d="M118.65,32.64c-2.21-.87-5.13,3.78-6.59,6.22-3.13,5.25-5.21,10.7-6.08,14.16,1.44.43,2.62.84,3.39,1.13,0-.11,0-.18,0-.18.66-.14,1.48-.18,2.28-.09,1.4-2.17,3.22-5.18,4.76-8.12,3.36-6.45,4.46-12.24,2.25-13.12Z"/>
              <path class="cls-15" d="M82.6,28.71c-3.89.02-3.81,9.29-3.37,14.33.34,3.84,1.05,8.09,1.89,11.29,1.86-.65,3.65-1.12,5.28-1.45.13-2.92.24-7.02.2-9.8-.06-4.07-.31-14.39-4-14.37Z"/>
              <path class="cls-15" d="M94.37,107.8c-1.39,0-2.51.75-2.51,1.67s1.13,1.67,2.51,1.67,2.52-.75,2.52-1.67-1.13-1.67-2.52-1.67Z"/>
            </g>
            <g>
              <path class="cls-2" d="M155.16,118.55c-3.77-1.37-5.36-3.13-8.16-6.32-2.94-3.35-3.59-6.66-4.69-9.11-.07,0-.13,0-.2,0,0,0-5.13,8.64-12.12,16.98-.73,1.2-1.52,2.32-2.39,3.35-2.22,2.65-4.93,5.19-8.42,7.33-.88.66-1.76,1.28-2.64,1.82-.46.28-1.97.7-3.48,1.13-.57.21-1.15.42-1.75.61l2.26-.02c.02.25.05.51.08.79-1.09,2.75-4.86,6.52-8.92,7.42-.49.11-.81.57-.75,1.06.02.21.6,4.35,1.38,9.88.32,2.29.68,4.82,1.04,7.41.5,3.55,1.01,7.22,1.48,10.54.16,1.11.31,2.19.45,3.21.08.57.16,1.12.23,1.65.55,3.94.95,6.75,1.01,7.21,0,.04.01.07.01.07.45.46,5.29-.14,9.47-1.21h0c1.49-.38,2.89-.82,3.97-1.29.21-.09.42-.19.6-.28.57-.29.87-.92.77-1.55-.5-2.98-2.19-11.92-5.55-22.93,5.39-3.26,13.4-8.62,22.26-16.31,8-6.95,15.08-15.46,18.83-20.24-1.77-.26-3.1-.59-4.78-1.2Z"/>
              <path class="cls-2" d="M85.19,142.52c-3.96-.88-7.63-4.47-8.83-7.2.02-.21.03-.41.04-.59l2.2-.02c-8.34-2.39-13.62-6.66-17.47-11.25-1.78-2.12-3.27-4.62-4.46-7.42-5.26-6.86-8.85-12.91-8.85-12.91-.07,0-.13,0-.2,0-1.1,2.45-1.75,5.75-4.69,9.11-2.8,3.19-4.39,4.95-8.16,6.32-1.67.61-3.01.93-4.78,1.2,3.75,4.79,10.83,13.3,18.83,20.24,8.86,7.69,16.86,13.05,22.26,16.31-3.36,11.01-5.05,19.95-5.55,22.93-.11.63.2,1.26.77,1.55.44.22.96.44,1.52.65,1.25.46,2.77.88,4.31,1.23,1.23.28,2.48.52,3.61.69,2.4.38,4.33.49,4.6.21,0,0,.53-3.78,1.27-9.02.14-1.02.29-2.09.45-3.21.55-3.89,1.16-8.24,1.73-12.33.21-1.5.42-2.97.61-4.36.86-6.13,1.52-10.85,1.54-11.07.05-.5-.27-.96-.75-1.06Z"/>
              <path class="cls-2" d="M112.64,60.91c1.31,3.71,5.51,13.01,5.74,12.88.27-.16,1.69-3.71,1.69-3.71,0,0,4.86.45,4.37-.26-1.37-1.96-4.61-6.09-6.8-8.87.65.08,1.33.16,2,.24,2.85.31,5.58.5,5.72.38.43-.41,1-7.24.43-7.24-1.37-.01-2.73,0-4.02.05-3.51.12-6.47.4-7.57.51-.47-.57-1.48-.9-2.55-1.01-.79-.08-1.62-.05-2.28.09,0,0,0,.07,0,.18-.77-.29-1.95-.7-3.39-1.13-2.06-.61-4.63-1.25-7.27-1.56-.35-.04-.71-.08-1.06-.11l-.02.83-.17,6.4c.18.56,6.65.87,10.84,1.15-2.75,2.31-7.91,6.68-9.36,8.16-.86.89,4.01,1.13,4.01,1.13,0,0,1.39,3.84,1.61,4.05.21.2,6.65-9.52,8.09-12.18Z"/>
            </g>
            <path class="cls-18" d="M82.54,115.32c-1.26.56-.11,9.14,4.26,14.44.02-.04,1.62-4.61,7.53-4.61,5.32,0,7,3.53,7.4,4.99,4.62-5.26,5.83-14.25,4.58-14.83-1.82-.83-9.99-.97-11.88-.97s-10.05.16-11.89.98ZM96.96,117.95h-5.13s0-3.54,0-3.54h5.22l-.09,3.54Z"/>
            <path class="cls-7" d="M94.32,125.15c-5.91,0-7.51,4.57-7.53,4.61h0s.63.84,1.73,1.77c.02.01.04.03.05.04.19.15.39.31.6.46.04.03.08.06.13.09,1.31.92,3.06,1.76,5.13,1.76,1.69,0,3.17-.58,4.35-1.27.06-.03.11-.07.16-.1.18-.11.34-.22.5-.33.07-.05.14-.1.21-.14.22-.16.43-.32.62-.48.02-.02.04-.04.06-.05.88-.74,1.39-1.37,1.39-1.37,0,0,0,0,0,0-.4-1.45-2.08-4.99-7.4-4.99Z"/>
            <g>
              <path class="cls-9" d="M175.21,104.06c-2.58-.32-8.82,1.21-9.48-.16-.66-1.38,2.57-3.25,5.44-5.32,2.88-2.06,4.25-5.2,1.94-7.16-2.14-1.82-6.01,1.12-8.37,3.14-2.37,2.02-5.62,3.31-6.2,2.2-.58-1.11,5.14-5.83,5.49-9.21.39-3.69-3.83-3.89-5.79-2.09-2.43,2.23-8.37,11.52-10.23,11.34-1.87-.18-2.83-4.4-5.51-5.85-2.68-1.45-4.54.65-4.75,2.64-.2,2,3.1,6.6,4.34,9.08.07.14.14.29.21.45,1.1,2.45,1.75,5.75,4.69,9.11,2.8,3.19,4.39,4.95,8.16,6.32,1.67.61,3.01.93,4.78,1.2,1.67.25,3.72.44,6.81.77,6.35.66,7.72-1.87,5.86-3.84-2.08-2.19-7.1-2.35-7.04-3.49.06-1.13,3.72-2.37,8.72-3.45,4.99-1.08,3.76-5.33.93-5.68Z"/>
              <path class="cls-9" d="M47.42,90.95c-2.68,1.46-3.64,5.67-5.51,5.85-1.87.18-7.8-9.11-10.23-11.34-1.96-1.8-6.17-1.6-5.79,2.09.35,3.38,6.07,8.1,5.49,9.21-.58,1.11-3.83-.18-6.2-2.2-2.36-2.02-6.24-4.96-8.37-3.14-2.31,1.96-.94,5.1,1.94,7.16,2.87,2.07,6.1,3.94,5.44,5.32-.67,1.38-6.9-.15-9.48.16-2.83.34-4.06,4.6.93,5.68,5,1.08,8.66,2.32,8.72,3.45.06,1.13-4.96,1.3-7.04,3.49-1.86,1.97-.49,4.51,5.86,3.84,3.09-.33,5.14-.52,6.81-.77,1.77-.26,3.1-.59,4.78-1.2,3.77-1.37,5.36-3.13,8.16-6.32,2.94-3.35,3.59-6.66,4.69-9.11.07-.15.14-.3.21-.45,1.23-2.49,4.54-7.09,4.34-9.08-.2-2-2.07-4.1-4.75-2.64Z"/>
              <path class="cls-9" d="M92.38,148.24c0,2.1,1.7,3.81,3.81,3.81s3.81-1.7,3.81-3.81-1.7-3.81-3.81-3.81-3.81,1.7-3.81,3.81Z"/>
              <path class="cls-9" d="M99.99,166.3c0-2.1-1.7-3.81-3.81-3.81s-3.81,1.7-3.81,3.81,1.7,3.81,3.81,3.81,3.81-1.7,3.81-3.81Z"/>
              <path class="cls-9" d="M106.4,160.88c-.36-2.59-.72-5.12-1.04-7.41-.05,0-.09,0-.14,0-2.1,0-3.81,1.7-3.81,3.81s1.7,3.81,3.81,3.81c.41,0,.81-.07,1.18-.19Z"/>
              <path class="cls-9" d="M90.97,157.27c0-2.1-1.7-3.81-3.81-3.81-1.09,0-2.07.46-2.76,1.19-.2,1.39-.4,2.86-.61,4.36.63,1.22,1.91,2.05,3.37,2.05,2.1,0,3.81-1.7,3.81-3.81Z"/>
              <path class="cls-9" d="M124.15,197.54c0,2.1,1.7,3.81,3.81,3.81.2,0,.39-.02.58-.05-.57-2.31-1.22-4.8-1.9-7.32-1.45.54-2.49,1.93-2.49,3.57Z"/>
              <path class="cls-9" d="M109.58,183.49c-.06-.46-.46-3.27-1.01-7.21-1.31.6-2.21,1.92-2.21,3.45,0,1.9,1.4,3.48,3.23,3.76Z"/>
              <path class="cls-9" d="M110.16,201.34c2.1,0,3.81-1.7,3.81-3.81s-1.7-3.81-3.81-3.81-3.81,1.7-3.81,3.81,1.7,3.81,3.81,3.81Z"/>
              <path class="cls-9" d="M117.93,185c-.48.15-.91.39-1.29.7-.19.16-.36.33-.52.52-.08.09-.15.19-.22.29-.41.61-.65,1.34-.65,2.13s.24,1.52.65,2.13c.07.1.14.2.22.29.16.19.33.36.52.52.38.31.81.55,1.29.7.36.11.74.17,1.13.17h0s0,0,0,0c.13,0,.26,0,.39-.02.64-.06,1.23-.29,1.74-.63,1.01-.68,1.68-1.84,1.68-3.16s-.67-2.47-1.68-3.16c-.51-.34-1.1-.57-1.74-.63-.13-.01-.26-.02-.39-.02h0s0,0,0,0c-.39,0-.77.06-1.13.17Z"/>
              <path class="cls-9" d="M92.36,175.93c-2.1,0-3.81,1.7-3.81,3.81s1.7,3.81,3.81,3.81,3.81-1.7,3.81-3.81-1.7-3.81-3.81-3.81Z"/>
              <path class="cls-9" d="M101.65,192.42c.26-.03.5-.08.74-.15.12-.04.24-.08.35-.13,1.37-.58,2.32-1.93,2.32-3.51s-.96-2.93-2.32-3.51c-.11-.05-.23-.09-.35-.13-.24-.07-.49-.13-.74-.15-.13-.01-.26-.02-.39-.02h0s0,0,0,0c-.92,0-1.76.33-2.42.87-.19.16-.36.33-.52.52-.08.09-.15.19-.22.29-.41.61-.65,1.34-.65,2.13s.24,1.52.65,2.13c.07.1.14.2.22.29.16.19.33.36.52.52.66.54,1.5.87,2.42.87h0s0,0,0,0c.13,0,.26,0,.39-.02Z"/>
              <path class="cls-9" d="M92.36,193.73c-2.1,0-3.81,1.7-3.81,3.81s1.7,3.81,3.81,3.81,3.81-1.7,3.81-3.81-1.7-3.81-3.81-3.81Z"/>
              <path class="cls-9" d="M70.75,197.54c0,2.1,1.7,3.81,3.81,3.81s3.81-1.7,3.81-3.81-1.7-3.81-3.81-3.81-3.81,1.7-3.81,3.81Z"/>
              <path class="cls-9" d="M83.85,192.42c.64-.06,1.23-.29,1.74-.63.2-.14.39-.29.56-.46.09-.09.17-.18.25-.27.16-.19.29-.39.41-.61.29-.54.46-1.16.46-1.81s-.17-1.27-.46-1.81c-.12-.22-.25-.42-.41-.61-.08-.09-.16-.18-.25-.27-.17-.17-.36-.33-.56-.46-.51-.34-1.1-.57-1.74-.63-.13-.01-.26-.02-.39-.02h0s0,0,0,0c-.53,0-1.03.11-1.48.3-.46.19-.87.47-1.21.82-.69.69-1.11,1.64-1.11,2.69s.43,2,1.11,2.69c.34.34.75.62,1.21.82.46.19.96.3,1.48.3h0s0,0,0,0c.13,0,.26,0,.39-.02Z"/>
              <path class="cls-9" d="M67.14,185.13c-.11-.05-.23-.09-.34-.13-.37,1.32-.75,2.67-1.14,4.05h0s0,0,0,0c-.3,1.08-.6,2.18-.9,3.28.29.07.59.11.9.11h0s0,0,0,0c.13,0,.26,0,.39-.02.26-.03.5-.08.74-.15.12-.04.24-.08.35-.13,1.37-.58,2.32-1.93,2.32-3.51s-.96-2.93-2.32-3.51Z"/>
              <path class="cls-9" d="M112.06,38.86c1.46-2.44,4.38-7.09,6.59-6.22,2.21.87,1.11,6.66-2.25,13.12-1.53,2.94-3.35,5.96-4.76,8.12,1.07.11,2.08.45,2.55,1.01,1.1-.11,4.06-.39,7.57-.51,2.01-3.83,4.18-8.47,5.45-11.97,2.44-6.74,5.12-20.83-4.59-23.16-9.28-2.22-14.24,8.55-17.61,15.87-2.63,5.72-4.85,12.19-6.3,16.34,2.63.31,5.21.95,7.27,1.56.88-3.47,2.95-8.91,6.08-14.16Z"/>
              <path class="cls-9" d="M56.67,116.03c1.18,2.8,2.68,5.3,4.46,7.42,3.85,4.58,9.13,8.86,17.47,11.25.62.18,1.27.34,1.93.5,3.58,2.93,8.59,4.79,14.8,4.79s10.51-1.83,14.7-5.27c.44-.12.87-.25,1.3-.39.6-.19,1.18-.4,1.75-.61,2.28-.85,4.31-1.85,6.12-2.95,3.49-2.14,6.19-4.68,8.42-7.33.86-1.03,1.66-2.15,2.39-3.35,6.75-11.11,7.48-29.13-.81-46.3-2.63-5.46-5.98-9.54-9.56-12.61-.67-.07-1.34-.15-2-.24,2.2,2.78,5.43,6.91,6.8,8.87.5.71-4.37.26-4.37.26,0,0-1.43,3.55-1.69,3.71-.23.14-4.43-9.17-5.74-12.88-1.44,2.66-7.88,12.38-8.09,12.18-.22-.22-1.61-4.05-1.61-4.05,0,0-4.88-.25-4.01-1.13,1.45-1.48,6.61-5.85,9.36-8.16-4.19-.28-10.67-.59-10.84-1.15l.17-6.4c-.8-.07-1.49-.11-2.07-.13-.16-5.01-.65-20.62-.72-22.08-.09-1.75-1.06-16.22-12.7-14.61-9.21,1.27-11.4,11.5-11.37,20.57.01,3.49.47,11.1.76,15.63-1.07-.09-2.22-.07-3.44.1-9.94,1.39-12.67,13.23-8.49,18.76.31.42.68.81,1.08,1.18-.39.71-.78,1.43-1.14,2.19-7.34,15.21-7.6,31.08-2.87,42.23ZM94.37,107.8c1.39,0,2.52.75,2.52,1.67s-1.13,1.67-2.52,1.67-2.51-.75-2.51-1.67,1.13-1.67,2.51-1.67ZM94.42,114.34c1.89,0,10.06.14,11.88.97,1.26.57.04,9.57-4.58,14.83,0,0,0,0,0,0,0,0-.5.63-1.39,1.37-.02.02-.04.04-.06.05-.19.16-.39.32-.62.48-.07.05-.14.1-.21.14-.16.11-.33.22-.5.33-.05.03-.11.07-.16.1-1.18.7-2.66,1.27-4.35,1.27-2.07,0-3.82-.84-5.13-1.76-.04-.03-.08-.06-.13-.09-.21-.15-.41-.31-.6-.46-.02-.01-.04-.03-.05-.04-1.1-.92-1.73-1.76-1.73-1.76h0c-4.37-5.3-5.52-13.89-4.26-14.45,1.83-.81,9.98-.98,11.89-.98ZM82.6,28.71c3.69-.01,3.94,10.31,4,14.37.04,2.77-.08,6.88-.2,9.8-1.63.33-3.41.81-5.28,1.45-.84-3.2-1.55-7.45-1.89-11.29-.44-5.04-.52-14.31,3.37-14.33Z"/>
              <polygon class="cls-9" points="96.96 117.95 97.05 114.41 91.82 114.41 91.83 117.95 96.96 117.95"/>
            </g>
          </g>
          <g>
            <path d="M175.31,103.28c-.3-.04-.61-.05-.95-.05-.99,0-2.17.12-3.34.24-1.17.12-2.33.23-3.22.23-.49,0-.91-.04-1.15-.1-.11-.03-.17-.06-.21-.07,0-.02,0-.08.05-.18.08-.17.29-.45.61-.76.48-.46,1.18-1,1.98-1.57.8-.57,1.69-1.17,2.56-1.8,1-.72,1.85-1.56,2.45-2.48.6-.91.98-1.91.98-2.93,0-.55-.11-1.09-.36-1.61-.24-.51-.61-.98-1.09-1.39-.62-.53-1.39-.77-2.14-.76-1.33.01-2.65.62-3.9,1.38-1.25.77-2.42,1.72-3.36,2.52-.83.71-1.79,1.33-2.67,1.76-.44.22-.86.38-1.23.5-.37.11-.68.16-.89.16-.03,0-.04,0-.06,0,.03-.06.07-.13.12-.21.24-.4.68-.97,1.2-1.6.77-.96,1.72-2.09,2.52-3.26.79-1.18,1.46-2.4,1.6-3.66.02-.19.03-.37.03-.54,0-.57-.1-1.1-.3-1.55-.3-.69-.82-1.21-1.42-1.52-.6-.32-1.27-.45-1.94-.45-1.25,0-2.52.45-3.47,1.31-.68.62-1.49,1.62-2.42,2.8-1.38,1.76-2.98,3.92-4.4,5.62-.71.85-1.37,1.58-1.91,2.07-.27.25-.51.43-.69.54-.09.05-.16.09-.2.1h-.03c-.08,0-.17-.03-.29-.11-.23-.14-.52-.46-.84-.9-.47-.65-.99-1.55-1.62-2.43-.63-.87-1.39-1.75-2.44-2.31-.72-.39-1.43-.58-2.1-.58-1.12,0-2.06.53-2.69,1.26-.64.73-1.02,1.65-1.11,2.58,0,.09-.01.18-.01.26,0,.72.24,1.44.57,2.24.5,1.18,1.25,2.49,1.98,3.74.7,1.19,1.38,2.31,1.81,3.16-.01.02-.02.03-.04.06-.66,1.1-3.59,5.84-7.7,11.33,1.59-4.48,2.43-9.58,2.43-15,0-8.18-1.92-17.11-6.12-25.83-2.24-4.65-5-8.33-7.98-11.25.33.03.65.06.95.08.88.07,1.59.11,2.06.11.14,0,.25,0,.36-.01.06,0,.11-.01.19-.03.04,0,.08-.02.15-.05.06-.03.15-.06.26-.17.14-.14.19-.24.23-.33.08-.16.12-.31.16-.49.15-.6.27-1.52.37-2.54.1-1.01.16-2.1.16-2.97,0-.46-.02-.85-.06-1.19-.03-.17-.05-.32-.13-.5-.04-.09-.09-.2-.21-.32-.06-.06-.14-.13-.25-.18-.11-.05-.24-.09-.37-.09-.28,0-.56,0-.85,0-.63,0-1.26,0-1.87.02,1.84-3.59,3.72-7.67,4.88-10.88,1.14-3.17,2.33-7.86,2.34-12.34,0-2.64-.41-5.22-1.56-7.36-.58-1.07-1.34-2.03-2.33-2.8-.98-.77-2.18-1.35-3.59-1.69-.9-.22-1.77-.32-2.61-.32-2.1,0-3.99.65-5.64,1.71-2.48,1.6-4.45,4.09-6.11,6.79-1.66,2.7-3,5.63-4.15,8.13-1.7,3.7-3.23,7.69-4.49,11.18-.61,1.7-1.16,3.28-1.63,4.64-.15-.02-.31-.03-.46-.04-.22-.02-.43.05-.59.2-.16.14-.26.35-.26.57h0c-.19-.01-.36-.02-.54-.03-.07-2.12-.17-5.46-.28-8.88-.09-2.84-.18-5.74-.26-8.04-.08-2.3-.14-3.99-.16-4.44-.05-.87-.28-4.63-1.82-8.26-.77-1.82-1.88-3.61-3.5-4.97-1.61-1.36-3.75-2.26-6.42-2.26-.59,0-1.21.04-1.85.13-2.42.33-4.43,1.27-6.04,2.63-2.41,2.04-3.9,4.99-4.8,8.25-.9,3.26-1.21,6.86-1.21,10.29,0,.06,0,.12,0,.19,0,2.61.26,7.42.51,11.59.07,1.13.13,2.21.2,3.18-.04,0-.09,0-.13,0-.23,0-.46-.01-.69-.02-.23.02-.46.04-.7.05-.23.02-.47.04-.71.06l-.36.03h-.09s-.02,0-.02,0h-.08s-.04.02-.04.02l-.17.04c-.45.09-.9.19-1.36.28-.46.11-.97.33-1.46.5-1.92.78-3.67,2.05-5.01,3.74-1.34,1.67-2.26,3.69-2.71,5.8-.43,2.11-.42,4.33.17,6.41l.23.78.33.74c.12.24.2.5.35.73l.44.69.22.34.03.04.07.08.06.07.12.14.48.55s.02.02.03.03c-.29.54-.57,1.08-.85,1.65-4.2,8.71-6.12,17.65-6.12,25.83,0,4.3.53,8.4,1.54,12.15-1.42-1.99-2.63-3.8-3.57-5.24-.7-1.07-1.25-1.94-1.62-2.54-.19-.3-.33-.54-.43-.69-.02-.03-.02-.04-.04-.06.58-1.14,1.62-2.79,2.54-4.42.48-.85.92-1.69,1.25-2.48.33-.79.57-1.52.57-2.24,0-.09,0-.17-.01-.26h0c-.1-.93-.47-1.85-1.11-2.58-.63-.73-1.58-1.26-2.69-1.26-.67,0-1.38.19-2.1.58-.79.43-1.42,1.05-1.96,1.7-.8.98-1.41,2.05-1.96,2.85-.27.4-.54.72-.76.93-.22.19-.38.26-.5.28h-.03c-.11-.04-.39-.21-.71-.49-.57-.48-1.3-1.28-2.08-2.22-1.18-1.41-2.49-3.15-3.69-4.71-.6-.78-1.18-1.52-1.71-2.15-.53-.64-1-1.17-1.43-1.56-.94-.86-2.22-1.31-3.47-1.31-.89,0-1.8.24-2.51.84-.35.3-.65.68-.85,1.14-.2.46-.3.98-.3,1.55,0,.18,0,.36.03.54.11.99.55,1.96,1.12,2.9.85,1.41,2,2.78,2.93,3.93.46.57.87,1.08,1.14,1.49.11.17.2.31.26.43-.02,0-.03,0-.06,0-.21,0-.52-.05-.89-.16-1.11-.33-2.66-1.19-3.9-2.26-.94-.8-2.11-1.75-3.36-2.52-1.25-.76-2.56-1.37-3.9-1.38-.75,0-1.52.23-2.14.76-.48.41-.85.88-1.09,1.39-.24.51-.36,1.06-.36,1.61,0,1.02.38,2.01.98,2.93.61.92,1.45,1.76,2.45,2.48h0s0,0,0,0c1.32.95,2.7,1.85,3.71,2.65.5.4.92.77,1.17,1.08.13.15.21.29.26.39.05.1.05.16.05.18-.05.03-.19.08-.41.12-.25.04-.58.06-.95.06-.89,0-2.06-.11-3.22-.23-1.17-.12-2.35-.24-3.34-.24-.34,0-.65.01-.95.05-1.82.23-3.15,1.72-3.16,3.42,0,.82.33,1.67,1.01,2.34.68.68,1.68,1.19,3.01,1.47,2.48.53,4.62,1.11,6.1,1.67.74.28,1.31.56,1.66.79.07.05.13.09.18.14,0,0,0,0-.01,0-.27.13-.73.28-1.26.44-.8.24-1.78.52-2.74.91-.96.39-1.91.89-2.64,1.66h0c-.59.63-.98,1.37-.98,2.18,0,.46.14.93.41,1.33.4.6,1.06,1.04,1.89,1.33.84.29,1.89.45,3.18.45.61,0,1.28-.04,2.01-.11,2.82-.3,4.77-.48,6.39-.71,3.83,4.87,10.79,13.16,18.65,19.99,8.61,7.48,16.42,12.76,21.84,16.07-.16.52-.32,1.04-.47,1.56-1.19,4.03-2.27,8.1-3.21,12.2-.47,2.05-.92,4.1-1.32,6.17l-.29,1.55-.14.78c-.06.25-.1.74,0,1.13.1.4.31.77.6,1.07.15.15.32.28.5.38.11.06.15.08.21.11l.19.09c.21.1.41.18.62.27-.35,1.23-.72,2.52-1.09,3.84-1.91,6.78-4.01,14.51-5.21,20-.04.16-.05.33-.05.49,0,.94.59,1.8,1.5,2.13,1.33.48,3.74,1.24,7.39,1.98-.24,3.85-.56,8.8-.89,13-.17,2.2-.34,4.19-.5,5.7-.08.75-.16,1.39-.23,1.86,0,.04-.01.08-.02.11-.23.05-.45.12-.66.22-1.29.62-2.15,1.39-2.69,2.01-.53.63-.75,1.11-.77,1.16-.11.27-.07.58.11.8.02.02.04.04.06.06-.83.66-1.69,1.33-2.52,1.98-.26.2-.51.4-.76.6-.19-.09-.36-.16-.5-.22-.19-.07-.4-.11-.59-.11-.45,0-.85.16-1.21.36-.55.31-1.06.76-1.58,1.27-.51.51-1.02,1.09-1.51,1.66-.46.54-.94,1.27-1.31,2.13-.37.86-.63,1.85-.63,2.91,0,.04-.03.08-.03.12,0,.01-.04.62-.04,1.45,0,.61.02,1.35.1,2.07.08.72.2,1.43.47,2.04.24.53.63,1.03,1.15,1.51.78.72,1.87,1.42,3.23,2,1.36.58,2.99,1.06,4.86,1.32,2.17.3,4.44.52,6.76.52,2.87,0,5.79-.34,8.6-1.33,2.5-.88,5.12-2.15,7.23-3.32,1.06-.59,1.98-1.15,2.71-1.62.36-.24.68-.46.93-.65.26-.2.46-.36.62-.55.11-.12.16-.23.21-.33.09-.19.15-.38.2-.59.2-.75.35-1.81.47-2.73.12-.91.19-1.65.19-1.65,0-.07,0-.14-.01-.2.15-1.17.24-2.86.31-4.31.07-1.53.1-2.77.1-2.77,0-.31-.17-.59-.45-.72.54-6.5,1.27-16.32,1.79-23.6.94.01,1.9.02,2.89.02,1.18,0,2.33-.01,3.44-.03.41,5.61.93,12.75,1.4,18.7.14,1.76.27,3.42.39,4.9-.27.13-.46.41-.45.72,0,0,.04,1.85.15,3.81.05.98.12,1.99.21,2.82.02.16.03.31.05.46-.01.07-.02.13-.01.2,0,0,.11,1.1.27,2.27.08.59.18,1.19.29,1.7.06.26.11.49.18.7.03.11.07.2.12.31.05.1.1.2.21.33.17.18.36.35.62.55.89.68,2.5,1.68,4.46,2.72,1.95,1.04,4.23,2.11,6.41,2.88,2.81.98,5.73,1.33,8.6,1.33,2.31,0,4.59-.22,6.76-.52,2.49-.35,4.57-1.07,6.13-1.93.78-.43,1.44-.9,1.96-1.38.52-.48.92-.98,1.15-1.51.26-.61.39-1.31.47-2.04.08-.72.1-1.46.1-2.07,0-.83-.04-1.44-.04-1.45,0-.04-.02-.08-.03-.12,0-1.06-.26-2.05-.63-2.91-.37-.86-.84-1.59-1.31-2.14-.65-.76-1.33-1.54-2.03-2.15-.35-.31-.7-.58-1.06-.78-.37-.2-.76-.36-1.21-.36-.19,0-.4.03-.59.11-.15.06-.32.13-.5.22-1.04-.82-2.2-1.71-3.28-2.58.02-.02.04-.04.06-.06.18-.23.22-.54.11-.8-.03-.06-.24-.54-.77-1.16-.53-.63-1.39-1.39-2.69-2.01-.21-.1-.43-.17-.66-.22-.11-.7-.24-1.82-.37-3.19-.44-4.64-.94-12.22-1.28-17.59,3.35-.7,5.58-1.41,6.85-1.87.91-.33,1.5-1.19,1.5-2.13,0-.16-.02-.33-.05-.49-1.31-5.97-3.68-14.59-5.71-21.76-.24-.85-.48-1.68-.71-2.49.03-.02.06-.03.11-.06.18-.1.35-.23.5-.38.29-.3.51-.67.6-1.07.11-.39.07-.88,0-1.13l-.14-.78-.29-1.55c-.4-2.07-.84-4.12-1.32-6.17-.94-4.1-2.02-8.16-3.21-12.2-.15-.52-.31-1.04-.47-1.56,5.41-3.31,13.23-8.59,21.84-16.07,7.86-6.83,14.82-15.13,18.65-19.99,1.62.22,3.57.41,6.39.71.73.08,1.4.11,2.01.11,1.72,0,3.01-.27,3.96-.79.47-.26.85-.59,1.12-.99.27-.4.41-.86.41-1.33,0-.81-.39-1.55-.98-2.18h0c-.62-.66-1.41-1.12-2.22-1.48-1.22-.54-2.52-.88-3.47-1.18-.41-.13-.75-.25-.97-.36,0,0,.01-.01.02-.02.2-.16.56-.38,1.04-.59,1.44-.66,3.92-1.36,6.87-1.99,1.33-.29,2.33-.8,3.01-1.47.68-.67,1.02-1.52,1.01-2.34,0-1.7-1.34-3.19-3.16-3.42ZM124.94,55.11c.09,0,.18,0,.26,0,.01.19.02.43.02.71,0,.97-.09,2.32-.22,3.44-.06.56-.14,1.06-.21,1.42,0,.05-.02.09-.03.13-.46,0-1.24-.05-2.16-.13-1.55-.13-3.51-.33-5.24-.56-.76-.1-1.47-.21-2.08-.32.01-.63.03-1.44.03-2.2,0-.54,0-1.05-.03-1.48,0-.2-.02-.38-.04-.55,1.99-.18,5.76-.47,9.69-.47ZM120.01,65.26c1.19,1.53,2.34,3.04,3.17,4.17-.11,0-.22,0-.34,0-.6,0-1.28-.03-1.8-.07-.26-.02-.49-.03-.65-.05-.16-.01-.25-.02-.25-.02-.35-.03-.68.17-.8.49,0,0-.09.22-.22.55-.2.48-.49,1.19-.77,1.81-.25-.5-.55-1.14-.88-1.86-.86-1.87-1.93-4.28-2.8-6.38-.34-.81-.64-1.57-.9-2.23.39.03.64.05.64.05.21.02.43-.06.59-.2.05-.04.08-.1.12-.16.63.11,1.34.21,2.1.31.85,1.08,1.83,2.33,2.8,3.57ZM101.29,46.51c1.25-3.47,2.76-7.43,4.43-11.06,1.53-3.33,3.38-7.32,5.75-10.43.02-.02.03-.04.05-.07,1.39.13,4.25.63,8.27,2.45,4.1,1.86,7.4,4.18,8.81,5.23-.31,3.5-1.24,7.03-2.14,9.51-1.09,3.02-2.89,6.94-4.66,10.42-.18.36-.36.7-.54,1.05-2.99.12-5.53.34-6.79.46-.02-.01-.03-.03-.05-.04-.43-.34-.95-.55-1.5-.7.17-.27.35-.55.52-.84,1.18-1.91,2.49-4.15,3.64-6.36,1.1-2.12,1.97-4.17,2.57-6.03.59-1.86.92-3.51.92-4.87,0-.75-.1-1.41-.35-1.99-.24-.58-.69-1.08-1.3-1.32-.28-.11-.57-.16-.86-.16-.39,0-.77.09-1.12.24-.61.26-1.17.68-1.7,1.18-.79.75-1.53,1.7-2.2,2.65-.66.95-1.24,1.9-1.68,2.64-1.95,3.26-3.48,6.59-4.59,9.49-.57,1.5-1.03,2.89-1.37,4.1-1.68-.47-3.63-.93-5.65-1.23.45-1.29.95-2.74,1.52-4.3ZM108.94,60.6c.15.22.28.28.39.35.2.11.38.16.6.22.37.09.81.17,1.3.24.07,0,.14.02.21.03-.98,1.64-2.71,4.34-4.27,6.67-.82,1.24-1.6,2.37-2.18,3.19-.08.11-.16.22-.23.32-.17-.43-.36-.93-.54-1.39-.15-.39-.28-.76-.38-1.02-.1-.26-.16-.43-.16-.43-.11-.3-.39-.5-.7-.52,0,0-.06,0-.17,0-.38-.02-1.35-.1-2.19-.23-.2-.03-.39-.07-.56-.11.51-.48,1.19-1.09,1.97-1.77,1.7-1.49,3.83-3.31,5.53-4.75.35-.3.68-.57.98-.83.13,0,.26.02.39.03,0,0,0,.01,0,.02ZM106.94,52.49c.32-1.16.77-2.51,1.33-3.98,1.08-2.82,2.58-6.07,4.47-9.24.66-1.11,1.62-2.66,2.65-3.9.51-.62,1.04-1.16,1.52-1.52.24-.18.47-.31.67-.4.2-.08.37-.12.51-.12.1,0,.19.02.28.05.17.07.3.18.43.48.13.29.22.76.22,1.37,0,1.11-.28,2.64-.85,4.39-.56,1.75-1.4,3.73-2.46,5.78-1.29,2.48-2.79,5.02-4.07,7.04-.14.22-.27.43-.4.63-.15,0-.3-.02-.44-.02-.56,0-1.1.05-1.59.16-.02,0-.04.02-.06.03-.59-.21-1.34-.47-2.2-.74ZM110.38,59.65s0,0,0,0c-.04-1.09-.14-3.72-.19-4.99.19-.02.39-.03.6-.03.71,0,1.47.11,2.03.31.28.1.5.22.64.33.14.11.19.2.21.26,0,0,.02.1.03.22.04.39.05,1.11.05,1.86,0,.78-.01,1.61-.03,2.24,0,.08,0,.17,0,.24-.56-.05-1.32-.13-2.02-.22-.51-.07-.99-.15-1.3-.23ZM98.41,52.23c2.81.31,5.59,1.01,7.73,1.67.98.3,1.81.58,2.46.82.02.55.05,1.36.09,2.19.03.74.06,1.48.08,2.08-1.78-.12-4.05-.25-6.09-.4-1.37-.1-2.63-.21-3.53-.34-.37-.05-.68-.1-.9-.15l.16-5.86ZM72.45,26.95c1.37-.6,4.34-1.69,9.49-2.54,5.03-.83,9.18-.87,10.88-.85.14.41.27.82.38,1.23.67,2.46.81,4.63.84,5.22.02.42.08,2.12.16,4.41.11,3.44.27,8.24.39,12.18.06,1.8.11,3.41.15,4.63-.13,0-.26,0-.37,0h0c-1.18,0-3.78.06-7.14.67.01-.28.02-.57.03-.87.08-2.2.14-4.71.14-6.78,0-.42,0-.82,0-1.19-.03-2.04-.11-5.66-.65-8.83-.28-1.59-.66-3.06-1.27-4.22-.31-.58-.67-1.09-1.15-1.47-.47-.38-1.07-.63-1.72-.63h-.01s0,0,0,0h0c-.47,0-.92.11-1.32.31-.7.36-1.22.96-1.61,1.67-.58,1.07-.92,2.41-1.13,3.88-.21,1.47-.29,3.07-.29,4.63,0,1.7.09,3.35.21,4.7.24,2.73.66,5.65,1.19,8.28.17.85.35,1.67.54,2.44-.14.05-.27.11-.41.16-.1-.08-.2-.16-.31-.24-1.04-.77-2.32-1.51-3.83-2.07-.74-.31-1.56-.5-2.41-.7-.31-.05-.63-.09-.95-.14-.29-4.58-.71-11.63-.72-14.91,0-.06,0-.12,0-.18,0-2.95.25-6.01.9-8.8ZM85.82,44.27c0,2.04-.06,4.54-.14,6.72-.02.43-.03.85-.05,1.25-1.25.28-2.58.62-3.96,1.07-.17-.71-.34-1.45-.49-2.23-.51-2.57-.93-5.45-1.16-8.11-.11-1.31-.2-2.92-.2-4.56,0-2.29.18-4.66.68-6.37.25-.86.58-1.53.94-1.95.18-.21.36-.35.55-.45.19-.09.38-.14.62-.14h0c.27,0,.48.08.73.28.21.17.44.44.65.81.37.64.69,1.57.94,2.63.37,1.59.59,3.49.71,5.27.12,1.78.16,3.45.17,4.61,0,.37,0,.76,0,1.17ZM59.46,68.44l-.27-.62-.19-.66c-.49-1.77-.5-3.72-.1-5.57.38-1.86,1.18-3.63,2.33-5.09,1.14-1.46,2.66-2.57,4.25-3.23.41-.14.76-.33,1.21-.43.46-.1.91-.2,1.36-.29l.17-.04h.02s0,0,0,0h.08s.32-.03.32-.03c.21-.02.43-.04.64-.06.21-.02.42-.04.63-.06.21,0,.42.01.62.02,1.65-.01,3.19.33,4.54.83,1.35.49,2.52,1.15,3.47,1.84.95.69,1.73,1.37,2.35,1.96.63.57,1.11,1.06,1.43,1.38.32.33.5.5.5.5l.02.02c.11.12.29.16.45.09.21-.09.3-.33.21-.54,0,0-.03-.06-.08-.18-.05-.12-.14-.3-.26-.52-.24-.44-.63-1.05-1.23-1.76-.23-.27-.49-.55-.79-.84,6.15-2.19,11.45-2.34,13.23-2.34h0s0,0,0,0c.53,0,1.37.02,2.45.09l-.15,5.65c0,.09,0,.17.04.26.07.22.19.34.28.42.19.15.33.2.48.26.28.1.6.16.99.23,1.36.22,3.59.39,5.86.54.66.04,1.33.09,1.97.13-.49.42-1.01.86-1.55,1.31-1.27,1.08-2.6,2.22-3.74,3.22-1.14,1.01-2.09,1.86-2.63,2.41-.08.08-.16.18-.22.31-.06.12-.11.28-.11.45,0,.24.09.45.2.6.21.27.41.37.62.46.36.16.75.25,1.18.34.83.16,1.77.24,2.34.29.14.37.34.91.55,1.47.19.5.39,1,.55,1.4.08.2.16.38.23.52.03.07.07.14.1.2l.06.1s.05.08.12.15c.08.08.18.15.29.18.1.04.2.05.28.05.26,0,.35-.08.42-.12.13-.08.17-.13.23-.18.1-.1.18-.2.29-.34.4-.5,1.03-1.4,1.8-2.52,1.15-1.68,2.57-3.83,3.77-5.72.53-.83,1.01-1.6,1.41-2.26.72,1.82,1.72,4.16,2.65,6.25.63,1.4,1.22,2.69,1.68,3.63.12.25.23.47.34.67-.01.02-.02.04-.04.06-.15.23-.3.47-.49.7-.17.24-.38.46-.59.68-.42.46-.94.84-1.5,1.2-.29.15-.59.32-.9.45l-.46.16c-.16.06-.29.12-.5.16l-.58.13-.29.06-.22.02-1.12.11c-.37.06-.74,0-1.1,0h-.55s-.53-.1-.53-.1c-.35-.05-.71-.09-1.03-.22-.32-.11-.66-.18-.95-.34-.29-.15-.6-.26-.85-.46-.26-.18-.53-.33-.75-.55-.23-.2-.45-.39-.63-.62-.19-.21-.37-.43-.52-.66-.16-.22-.3-.44-.41-.66-.13-.21-.23-.42-.32-.63-.09-.2-.17-.39-.24-.58-.07-.18-.16-.34-.22-.49-.15-.29-.27-.53-.37-.68-.1-.16-.16-.24-.16-.24-.05-.07-.12-.13-.2-.17-.23-.09-.49.01-.58.24v.03s-.05.1-.08.32c-.02.21-.04.52.01.89.05.38.17.82.39,1.3.08.21.18.43.3.65-.16.14-.38.33-.65.59-.28.27-.59.61-.97.98-.38.37-.85.75-1.38,1.13-.27.17-.56.36-.86.53-.32.15-.62.34-.98.47-.35.13-.69.29-1.08.38-.19.05-.38.11-.57.16-.2.04-.39.07-.59.11-.2.03-.4.08-.6.1-.2.02-.4.03-.6.05-.38.05-.85.04-1.31.03-.84,0-1.77-.13-2.64-.26-.87-.16-1.73-.36-2.53-.65-.79-.3-1.53-.68-2.15-1.15-.62-.46-1.14-1.01-1.52-1.59-.38-.59-.64-1.21-.79-1.82-.32-1.22-.2-2.31-.2-3.07,0-.38,0-.69-.02-.91-.01-.22-.04-.32-.03-.33.1-.15.07-.36-.07-.48-.16-.14-.39-.12-.53.04l-.17.2s-.37.42-.61,1.27c-.12.43-.19.96-.19,1.58,0,.13,0,.26,0,.4-.02,0-.04,0-.05,0h-.04s-.25.09-.68.25c-.22.09-.48.19-.79.32-.31.11-.68.24-1.08.39-.2.07-.41.17-.63.24-.23.06-.46.14-.71.22-.24.08-.5.16-.76.25-.27.07-.55.14-.84.21-1.15.3-2.48.47-3.94.51-1.46.05-3.04-.13-4.64-.54-1.6-.42-3.23-1.11-4.63-2.18-.35-.27-.62-.54-.95-.84l-.47-.55-.12-.14-.06-.07-.02-.03-.17-.28-.35-.56c-.13-.18-.19-.4-.29-.61ZM60.26,74.15c.21-.43.43-.85.65-1.26,1.63,1.21,3.44,1.95,5.19,2.39.43.11.85.19,1.27.27-.27.3-.52.59-.73.86-.25.35-.51.61-.56.89-.03.14-.02.26,0,.36.01.09.04.16.04.16.06.18.21.32.41.35l.29.05s.06,0,.14,0c.09,0,.2-.04.3-.09.11-.05.2-.15.29-.27.09-.12.21-.24.34-.39.45-.48,1.08-1.07,1.76-1.65.53.03,1.05.04,1.55.02,1.58-.06,3.03-.26,4.28-.59.31-.08.61-.16.9-.23.29-.09.56-.2.82-.29.26-.1.51-.19.75-.28.23-.1.45-.22.66-.32.41-.22.78-.4,1.08-.6.3-.2.54-.38.74-.53.14-.1.24-.19.33-.26.03.25.07.5.14.77.17.76.47,1.57.95,2.34.47.77,1.12,1.5,1.9,2.08.77.59,1.66,1.05,2.58,1.41.93.35,1.89.58,2.85.77.98.14,1.91.26,2.91.26.46,0,.9.02,1.42-.04.25-.02.49-.05.74-.07.24-.03.47-.09.7-.13.23-.05.46-.09.69-.14.22-.07.44-.14.66-.2.44-.12.84-.3,1.24-.47.4-.16.76-.39,1.12-.57.35-.21.67-.43.99-.64.6-.45,1.13-.89,1.55-1.33.44-.42.76-.85.99-1.22.07-.12.13-.24.19-.34.14.21.3.41.47.62.21.29.49.54.77.8.27.28.6.49.92.73.32.25.7.41,1.07.6.37.21.78.31,1.18.44.4.15.82.21,1.25.28l.64.1c.21.01.43.02.64.02.43,0,.86.06,1.28,0,.42-.04.84-.09,1.26-.13l.16-.02h.08s.02-.01.02-.01h.08s.04-.02.04-.02l.29-.07.58-.13c.18-.03.41-.12.62-.19.21-.08.42-.16.63-.23.4-.18.76-.38,1.13-.58.69-.46,1.32-.97,1.82-1.53.26-.28.49-.55.69-.84.02-.03.04-.06.07-.1.26.2.51.39.77.6.79.65,1.54,1.34,2.06,1.9.12.14.24.27.34.39.09.12.18.22.29.27.11.05.21.09.3.09.08.02.14,0,.14,0l.29-.05c.18-.03.35-.16.41-.35,0,0,.02-.07.04-.16.02-.1.03-.22,0-.36-.06-.28-.32-.54-.56-.89-.27-.33-.58-.72-.95-1.1-.37-.38-.78-.77-1.22-1.13-.19-.15-.38-.3-.58-.45,0-.02.02-.03.03-.05.27-.54.62-1.35.91-2.04.11-.27.21-.51.3-.72.56.04,1.45.1,2.25.1.46,0,.9-.02,1.27-.07.19-.03.36-.07.57-.16.1-.05.22-.11.34-.25.12-.13.24-.37.24-.61,0-.24-.09-.43-.18-.55-1.11-1.58-3.36-4.49-5.34-7.01-.02-.02-.04-.04-.05-.07,3.28,2.94,6.34,6.79,8.79,11.86,4.1,8.5,5.96,17.21,5.96,25.14,0,9.6-2.73,18.06-7.44,23.66-2.87,3.42-6.53,6.64-11.71,9.02-5.18,2.38-11.91,3.93-20.92,3.93-9.02,0-15.74-1.55-20.92-3.93-5.18-2.38-8.84-5.6-11.71-9.02-4.71-5.6-7.44-14.05-7.44-23.66,0-7.93,1.86-16.64,5.96-25.14ZM103.19,143.68v.11s.13.85.13.85l.23,1.7.47,3.4.52,3.8.41,3,.63,4.53,1.33,9.64c-4.24.25-8.43.39-11.38.39-3.21,0-7.9-.16-12.51-.46l1.47-10.64.48-3.46.36-2.59.58-4.21.47-3.4.23-1.7.12-.85v-.11s.02-.15.02-.15c0-.17-.01-.29-.04-.42-.05-.25-.16-.49-.32-.7-.16-.21-.36-.38-.59-.5-.12-.06-.24-.11-.37-.14l-.22-.05c-.3-.07-.5-.13-.76-.22-.5-.17-.99-.38-1.47-.62-.96-.49-1.85-1.11-2.69-1.8-.84-.69-1.62-1.46-2.31-2.3-.46-.57-.9-1.18-1.23-1.81,1.08.36,2.22.68,3.42.97,3.72,2.99,8.87,4.86,15.16,4.86,3.78,0,7.02-.71,9.94-2.07,1.81-.85,3.5-1.94,5.13-3.27,1.04-.3,2.03-.63,2.99-.99-.33.82-.87,1.6-1.45,2.31-.69.84-1.47,1.61-2.31,2.3-.84.69-1.74,1.31-2.69,1.8-.48.24-.97.45-1.47.62-.26.08-.46.15-.76.22l-.22.05c-.13.03-.25.08-.37.14-.23.12-.44.3-.59.5-.16.21-.27.45-.32.7-.03.12-.04.25-.04.42v.15ZM107.13,172.26l.23,1.65c-3.54.22-7.56.38-11.83.38-4.73,0-9.15-.2-12.95-.46l.23-1.64c4.68.3,9.43.47,12.72.47,3.03,0,7.29-.14,11.6-.4ZM84.33,136.75c3.02.47,6.34.72,10.03.72,4.44,0,8.36-.37,11.84-1.03-.53.3-1.06.59-1.6.84-2.71,1.26-5.68,1.92-9.27,1.92-4.31,0-7.99-.92-11-2.46ZM23.1,119.73c-.68.07-1.3.1-1.85.1-1.55,0-2.6-.26-3.19-.59-.3-.16-.47-.33-.57-.49-.1-.15-.14-.29-.14-.45,0-.27.14-.67.55-1.09.41-.43,1.02-.81,1.72-1.12,1.05-.47,2.29-.8,3.3-1.12.51-.16.96-.31,1.35-.53.2-.11.38-.23.56-.42.17-.18.33-.48.33-.82v-.06s0,0,0,0c-.02-.36-.18-.65-.36-.88-.33-.4-.77-.68-1.31-.97-.82-.42-1.9-.82-3.2-1.21-1.3-.39-2.81-.76-4.47-1.12-1.12-.24-1.82-.64-2.23-1.05-.41-.41-.55-.82-.55-1.22,0-.84.72-1.73,1.77-1.85.21-.03.47-.04.76-.04.87,0,2.02.11,3.19.23,1.17.12,2.36.24,3.38.24.57,0,1.08-.03,1.54-.15.23-.06.46-.14.67-.28.21-.13.43-.33.56-.6h0c.11-.23.16-.48.16-.72,0-.31-.08-.6-.21-.86-.22-.45-.54-.83-.93-1.21-.59-.57-1.34-1.13-2.16-1.72-.82-.58-1.71-1.18-2.55-1.79h0c-.87-.62-1.58-1.34-2.06-2.07-.48-.73-.72-1.44-.72-2.06,0-.33.07-.64.2-.93.14-.29.36-.58.68-.86h0c.32-.27.66-.38,1.12-.38.81-.01,1.94.45,3.07,1.15,1.13.69,2.25,1.6,3.16,2.37.94.8,1.99,1.48,3,1.98.5.25,1,.45,1.47.59.47.14.91.23,1.34.23.29,0,.58-.04.87-.17.29-.12.57-.36.72-.67h0c.1-.19.13-.38.13-.55,0-.42-.15-.72-.32-1.03-.3-.54-.76-1.13-1.29-1.79-.79-.99-1.75-2.12-2.52-3.24-.39-.56-.72-1.12-.97-1.64-.25-.52-.4-1-.44-1.41-.01-.13-.02-.26-.02-.38,0-.38.07-.68.17-.92.16-.35.39-.59.72-.76.32-.17.74-.27,1.2-.27.85,0,1.81.34,2.4.9.53.48,1.34,1.46,2.25,2.61,1.37,1.74,2.97,3.9,4.43,5.65.73.88,1.42,1.65,2.06,2.23.32.29.62.53.93.72.31.18.63.34,1.05.34h.13s0,0,0,0c.38-.04.72-.18,1.01-.37.51-.33.89-.79,1.26-1.3.55-.76,1.05-1.64,1.62-2.43.57-.79,1.2-1.47,1.91-1.85.53-.29.97-.39,1.34-.39.61,0,1.1.27,1.51.72.4.45.67,1.09.73,1.7v.1c.01.32-.15.93-.44,1.62-.44,1.05-1.16,2.32-1.89,3.55-.73,1.23-1.45,2.42-1.93,3.38-.66,1.34-1.1,2.84-1.77,4.42-.66,1.59-1.53,3.26-3.02,4.96l.59.52-.59-.52c-1.4,1.6-2.47,2.8-3.63,3.76-1.16.95-2.39,1.68-4.21,2.35-1.59.58-2.82.88-4.48,1.14-1.66.25-3.74.45-6.92.79ZM66.8,180.07c-.06-.03-.13-.06-.14-.07l-.12-.09c-.07-.07-.13-.17-.16-.28-.03-.12-.03-.17.02-.43l.13-.77.28-1.53c.39-2.05.82-4.09,1.27-6.12.92-4.07,1.96-8.11,3.13-12.11.28-1,.6-2,.9-3l.93-2.99c.31-1,.61-1.99.89-2.99.29-1.01.57-2.02.81-3.05.04-.18-.04-.37-.22-.46-.2-.1-.44-.02-.54.19-.46.95-.89,1.9-1.3,2.87-.39.98-.77,1.96-1.11,2.96-.32.96-.65,1.92-.95,2.89-5.33-3.28-12.93-8.45-21.28-15.71-5.87-5.09-11.26-11.06-15.18-15.75-1.01-1.21-1.93-2.34-2.73-3.34,1.22-.24,2.33-.55,3.6-1.01,1.95-.71,3.39-1.55,4.68-2.61,1.29-1.07,2.41-2.33,3.81-3.93,1.63-1.86,2.59-3.72,3.29-5.4.4-.96.72-1.86,1.03-2.67,1.2,1.92,3.85,6.05,7.36,10.72.26.34.52.68.78,1.03,1.21,2.83,2.73,5.37,4.55,7.54,2.98,3.55,6.84,6.95,12.26,9.44.9.41,1.85.8,2.84,1.16.18,1.12.71,2.1,1.29,3,.67,1,1.47,1.89,2.37,2.69.9.79,1.89,1.48,2.97,2.04.54.28,1.1.52,1.68.72.28.1.63.2.89.26l.19.05h.03s.05.06.05.06l.03.07h0s0,.07,0,.07l-.02.11-.12.85-.24,1.7-.48,3.39-.97,6.78-3.78,26.51c-.22,0-.46,0-.7-.01-.49-.03-1-.07-1.51-.13-1.01-.12-2.03-.28-3.05-.47-2.02-.38-4.04-.85-5.95-1.51-.47-.17-.94-.35-1.38-.55l-.16-.08ZM65.95,235.61s.02-.01.03-.02c.29.05.6.12.91.21.43.13.88.28,1.33.48.14.06.27.12.41.19.62.29,1.24.63,1.85,1,.48.29.95.6,1.39.91.36.25.71.51,1.04.76.42.31.8.61,1.14.89.51.42.93.78,1.22,1.04.15.13.27.24.35.31h0c.36.33.65.66.83.91.02.03.04.06.06.09-.12.08-.25.17-.4.27-.51.34-1.19.75-1.91,1.08-.71.33-1.47.58-2.1.63h-.16c-.18,0-.38-.02-.58-.07-.2-.05-.41-.12-.63-.21-.31-.13-.64-.31-.98-.51-.37-.23-.76-.49-1.15-.77-.42-.3-.85-.62-1.29-.93-.34-.24-.67-.48-1.02-.69-.12-.08-.26-.16-.38-.24-.57-.35-1.18-.71-1.8-1.07-.45-.26-.89-.51-1.32-.75-.06-.03-.12-.06-.18-.1-.19-.11-.38-.21-.56-.31,1.28-1,2.68-2.09,3.91-3.1ZM88.94,246.68c-.08.49-.16.97-.24,1.32-.04.18-.08.33-.12.42l-.03.07c-.06.06-.19.18-.37.31-.77.59-2.35,1.58-4.24,2.58-1.89,1.01-4.11,2.05-6.19,2.78-2.59.91-5.34,1.24-8.08,1.24-2.21,0-4.42-.21-6.54-.51-2.31-.32-4.21-.99-5.58-1.75-.69-.38-1.24-.78-1.65-1.16-.41-.38-.67-.74-.78-.99-.15-.33-.28-.93-.34-1.56-.03-.26-.05-.52-.06-.78,1.54,1.55,4.1,3.08,7.74,3.72,2.3.4,4.52.62,6.72.62,3.22,0,6.38-.48,9.55-1.59,2.95-1.03,5.89-2.68,8.1-4.08.88-.56,1.63-1.07,2.24-1.49-.04.28-.08.57-.12.85ZM89.43,242.08c-.04.61-.09,1.18-.15,1.65-.57.42-1.93,1.4-3.7,2.51-2.1,1.3-4.77,2.77-7.37,3.67-3.01,1.05-5.97,1.5-9.04,1.5-2.09,0-4.23-.21-6.45-.6-2.49-.43-4.39-1.32-5.73-2.28-.67-.48-1.2-.98-1.58-1.45-.31-.38-.53-.73-.66-1.02,0-.04,0-.07,0-.11,0-.8.2-1.59.5-2.3.3-.7.7-1.32,1.06-1.73.63-.74,1.29-1.47,1.87-1.99.29-.26.57-.47.79-.59.22-.13.39-.16.44-.16h.03c.2.08.57.25,1.02.48,1.36.69,3.48,1.9,5,2.86.94.58,1.95,1.41,3.01,2.11.53.35,1.08.67,1.65.91.57.24,1.18.4,1.82.4.09,0,.19,0,.28-.01,1.23-.1,2.43-.63,3.43-1.17.5-.27.95-.55,1.32-.79.37-.24.66-.44.82-.55l-.44-.65.44.65c.15-.1.27-.25.34-.4.07-.16.09-.31.09-.44,0-.27-.08-.46-.16-.65-.13-.28-.31-.55-.54-.83-.23-.28-.51-.58-.83-.87-.48-.44-2.19-1.98-4.34-3.43-1.08-.72-2.27-1.43-3.49-1.96-.97-.42-1.95-.73-2.93-.84.42-.41,1-.86,1.83-1.26.2-.1.52-.17.93-.17.93,0,2.28.34,3.63.93,1.36.58,2.73,1.39,3.79,2.24,1.15.92,2.45,2.19,3.54,3.29.55.55,1.04,1.06,1.45,1.47.2.2.38.38.54.53.16.15.29.26.43.37.13.09.26.13.36.16.11.02.2.03.28.03.31,0,.58-.07.9-.17.56-.17,1.23-.44,1.96-.77,1.1-.5,2.31-1.12,3.31-1.7.25-.14.49-.29.71-.42-.04,1.02-.1,2.37-.18,3.58ZM89.61,231.2c-.16,2.1-.32,4.05-.46,5.73-.34.22-.78.49-1.26.76-.52.3-1.1.6-1.69.89-.5.25-.99.49-1.45.69-.14.06-.27.12-.41.17-.34.14-.66.27-.92.36-.18.06-.34.11-.47.14-.04,0-.06.01-.09.02-.04-.03-.08-.07-.12-.11-.48-.45-1.36-1.37-2.38-2.38-.14-.14-.28-.28-.42-.41-.37-.36-.75-.73-1.14-1.09-.56-.52-1.14-1.03-1.69-1.48-.2-.16-.42-.31-.64-.47-.42-.3-.86-.6-1.32-.87-.71-.42-1.45-.79-2.2-1.11-.14-.06-.28-.12-.42-.17-.5-.2-1-.37-1.5-.51-.58-.16-1.14-.28-1.68-.33.1-.68.2-1.58.3-2.66.36-3.7.76-9.38,1.08-14.32.29.14.64.28,1.06.42.18.06.39.13.6.19.45.13.97.26,1.56.37.94.18,2.06.33,3.39.42.49.03,1.03.05,1.58.07.35,0,.7.02,1.08.02h.03c.78,0,1.5-.03,2.2-.07.55-.03,1.09-.08,1.59-.13,1.22-.13,2.3-.31,3.25-.52.59-.13,1.13-.27,1.62-.41.93-.27,1.69-.55,2.25-.79-.39,5.42-.88,12.02-1.32,17.58ZM70.83,212.31c.04-.55.07-1.08.1-1.6,4.47.81,10.54,1.55,18.45,1.81-1.84.65-4.94,1.43-9.36,1.43h0s-.03,0-.03,0c-3.89,0-6.29-.51-7.69-.98-.7-.24-1.15-.47-1.42-.63-.02-.01-.03-.02-.04-.03ZM136.73,249.42c-.07.64-.19,1.23-.34,1.56-.11.25-.37.61-.78.99-.62.57-1.56,1.19-2.78,1.71-1.22.53-2.72.96-4.46,1.2-2.12.29-4.33.51-6.54.51-2.74,0-5.49-.33-8.08-1.24-2.38-.83-4.94-2.07-6.99-3.21-1.02-.57-1.92-1.11-2.61-1.56-.34-.22-.63-.43-.85-.59-.18-.13-.31-.25-.37-.31-.02-.04-.05-.14-.08-.25-.08-.28-.16-.69-.24-1.14-.07-.41-.13-.85-.19-1.27.6.42,1.36.93,2.24,1.49,2.21,1.4,5.15,3.05,8.1,4.08,3.18,1.11,6.33,1.59,9.55,1.59,2.2,0,4.43-.22,6.72-.62,2.71-.47,4.84-1.45,6.38-2.55.52-.38.98-.77,1.37-1.16-.01.26-.03.52-.06.78ZM129.27,238.57c.06.05.12.1.18.14-.18.1-.37.2-.56.31-.49.27-.99.55-1.5.85-.62.36-1.24.73-1.8,1.07-.13.08-.26.16-.38.24-.34.22-.68.45-1.02.69-.69.49-1.37,1.01-2.02,1.44-.14.09-.28.17-.42.26-.34.2-.67.39-.98.52-.22.09-.43.16-.63.21-.2.05-.4.07-.58.07h-.16c-.84-.07-1.9-.5-2.79-.99-.45-.25-.86-.5-1.21-.73-.15-.1-.28-.19-.4-.27.04-.06.08-.12.14-.19.18-.23.44-.52.76-.81h0c.08-.07.2-.18.35-.31.29-.26.71-.62,1.22-1.04.61-.5,1.36-1.08,2.19-1.65.13-.09.27-.19.4-.28.32-.21.65-.42.99-.63.61-.37,1.23-.71,1.85-1,.13-.06.27-.13.4-.19.45-.2.89-.35,1.33-.48.31-.09.62-.16.91-.21,1.17.97,2.51,2.01,3.75,2.98ZM123.75,232.72c.83.4,1.42.85,1.84,1.26-.98.11-1.96.42-2.93.84-1.83.8-3.6,1.98-5.01,3.04-1.41,1.06-2.47,2.01-2.82,2.34h0c-.43.39-.78.78-1.04,1.15-.13.18-.24.36-.33.55-.08.19-.16.38-.16.65,0,.13.02.28.09.44.07.16.2.31.34.4l.44-.65-.44.65c.16.11.45.31.82.55.55.36,1.29.81,2.1,1.19.82.38,1.72.7,2.64.77.1,0,.19.01.28.01.64,0,1.24-.16,1.82-.4.86-.36,1.66-.9,2.44-1.46.77-.55,1.52-1.13,2.22-1.56,1.02-.64,2.3-1.39,3.44-2.02.57-.32,1.11-.61,1.56-.84.45-.23.82-.4,1.02-.48h0s.03,0,.03,0c.05,0,.21.03.44.16.34.19.78.56,1.24,1.02.46.46.95,1.01,1.42,1.57.35.42.76,1.03,1.06,1.73.3.7.5,1.5.5,2.3,0,.04,0,.07,0,.11-.13.29-.34.64-.66,1.02-1.16,1.4-3.58,3.08-7.31,3.73-2.22.39-4.36.6-6.45.6-3.06,0-6.03-.45-9.04-1.5-2.77-.96-5.63-2.56-7.78-3.92-1.08-.68-1.98-1.3-2.61-1.75-.29-.21-.52-.37-.68-.5-.12-1.03-.22-2.57-.28-3.92-.02-.47-.04-.91-.05-1.31.93.57,2.16,1.24,3.34,1.8.71.34,1.39.64,1.98.86.3.11.57.2.82.27.25.07.48.12.73.12.09,0,.18,0,.28-.03.11-.02.23-.06.36-.16.15-.1.27-.22.43-.37.55-.51,1.41-1.42,2.41-2.41,1-.99,2.12-2.07,3.13-2.87,1.06-.85,2.44-1.66,3.79-2.24,1.35-.58,2.7-.93,3.63-.93.42,0,.74.07.93.16ZM122.16,231.02c-.54.05-1.1.17-1.68.33-.49.14-.99.31-1.5.51-.14.06-.28.11-.42.17-.75.32-1.49.7-2.2,1.12-.46.27-.9.57-1.32.87-.22.15-.43.31-.64.47-.56.45-1.13.96-1.69,1.48-.39.36-.77.73-1.14,1.09-.29.29-.57.57-.84.84-.55.56-1.05,1.07-1.45,1.46-.2.2-.37.36-.5.49-.05.05-.09.08-.12.11-.08-.02-.2-.04-.33-.08-.3-.09-.71-.24-1.16-.43-.2-.08-.4-.17-.61-.26-.41-.18-.83-.39-1.26-.6-.67-.33-1.33-.69-1.92-1.02-.39-.23-.74-.44-1.03-.63-.52-6.14-1.24-15.83-1.78-23.31.56.24,1.32.52,2.25.79.49.14,1.03.28,1.62.41.95.21,2.04.39,3.25.52.51.05,1.04.1,1.59.13.7.04,1.43.07,2.2.07h.01s.02,0,.02,0c.38,0,.73,0,1.08-.02.55-.01,1.08-.03,1.58-.07,1.33-.09,2.45-.24,3.39-.42.59-.11,1.11-.24,1.56-.37.21-.06.41-.12.6-.19.42-.14.77-.29,1.06-.42.19,2.94.41,6.15.63,9.05.18,2.31.36,4.41.52,6.03.08.75.15,1.39.23,1.9ZM120.67,212.31c-.28.18-.8.45-1.66.73-1.43.46-3.78.92-7.49.92h-.03s0,0,0,0c-3.89,0-6.76-.6-8.64-1.19-.28-.09-.53-.17-.77-.26,7.99-.28,14.06-1.06,18.49-1.9.03.55.07,1.11.11,1.7ZM128.88,206.15l.02.15c0,.28-.17.54-.46.65-1.17.43-3.3,1.1-6.51,1.78-.48.09-1.11.22-1.42.29-4.67.9-11.3,1.74-20.23,1.97-.55.03-.89.03-1.32.03-1.12.02-2.28.03-3.48.03-1.01,0-1.99,0-2.95-.02-.58,0-.78.01-1.28-.02-16.99-.38-25.8-2.98-28.73-4.05-.29-.1-.46-.37-.46-.65l.02-.15c1.3-5.9,3.66-14.51,5.69-21.67.19-.67.38-1.33.56-1.97,1.86.62,3.74,1.06,5.64,1.43,1.05.2,2.09.37,3.16.5.53.06,1.07.12,1.62.15.28.01.56.02.86.02.15,0,.31-.01.49-.04.09-.01.18-.03.31-.06.13-.05.26-.04.57-.32.13-.11.22-.27.24-.45v-.05s1.15-8.29,1.15-8.29c3.85.27,8.35.47,13.17.47,4.36,0,8.45-.17,12.04-.4l1.13,8.22v.05c.03.17.11.33.25.45.31.28.44.27.57.32.13.04.22.05.31.06.18.02.34.03.49.04.3,0,.58,0,.86-.02.55-.03,1.09-.09,1.62-.15,1.07-.13,2.11-.3,3.16-.5,2.09-.41,4.16-.89,6.2-1.61.12-.04.24-.09.37-.14.37,1.29.76,2.65,1.15,4.05,1.91,6.77,4,14.49,5.19,19.91ZM140.59,139.39c-7.96,6.92-15.24,11.94-20.53,15.24-.26.16-.51.31-.75.47-.3-.97-.62-1.93-.95-2.89-.35-.99-.73-1.98-1.11-2.96-.41-.97-.84-1.93-1.3-2.87-.08-.17-.27-.26-.46-.22-.22.05-.35.27-.3.49.24,1.03.52,2.04.81,3.05.28,1.01.59,2,.89,2.99l.93,2.99c.3,1,.61,1.99.9,3,1.16,4.01,2.21,8.05,3.13,12.11.46,2.03.89,4.07,1.27,6.12l.28,1.53.13.77c.05.26.04.3.02.43-.03.11-.09.2-.16.28l-.12.09s-.08.04-.14.07l-.16.08c-.43.2-.9.38-1.38.55-1.91.66-3.93,1.13-5.95,1.51-1.01.19-2.03.35-3.05.47-.51.06-1.01.11-1.51.13-.24.01-.48.02-.7.01l-3.78-26.51-.97-6.78-.48-3.39-.24-1.7-.12-.85-.02-.11v-.06s0,0,0,0l.03-.07.05-.05h.03s.19-.06.19-.06c.26-.06.6-.16.89-.26.58-.2,1.14-.44,1.68-.72,1.08-.55,2.07-1.25,2.97-2.04.9-.79,1.7-1.69,2.37-2.69.65-1,1.22-2.09,1.34-3.37.15-.04.3-.09.45-.13.46-.14.89-.27,1.25-.39.18-.06.35-.12.5-.19.15-.06.28-.12.42-.21h0c.89-.55,1.78-1.17,2.66-1.83,3.56-2.19,6.33-4.79,8.58-7.48.87-1.04,1.68-2.17,2.41-3.38,1.46-1.74,2.84-3.5,4.11-5.19,3.51-4.67,6.16-8.8,7.36-10.72.31.81.62,1.71,1.03,2.67.7,1.68,1.66,3.54,3.29,5.4,1.4,1.6,2.52,2.86,3.81,3.93,1.28,1.07,2.73,1.9,4.68,2.61,1.27.46,2.38.77,3.6,1.01-3.89,4.89-10.52,12.68-17.9,19.09ZM176.34,107.92c-.41.41-1.11.81-2.23,1.05-2.52.55-4.71,1.13-6.32,1.74-.81.31-1.47.62-1.99.96-.26.18-.48.36-.67.59-.18.23-.34.52-.36.88v.06c0,.22.06.43.16.6.19.31.43.47.67.62.42.24.92.4,1.48.58.84.26,1.82.53,2.72.88.9.35,1.71.8,2.22,1.33.4.43.55.83.55,1.09,0,.16-.04.29-.14.45-.15.23-.48.5-1.1.72-.62.22-1.5.36-2.66.36-.55,0-1.17-.03-1.85-.1-3.18-.33-5.26-.53-6.92-.79-1.66-.26-2.89-.56-4.48-1.14-1.82-.66-3.06-1.39-4.21-2.35-1.15-.95-2.23-2.16-3.63-3.76l-.59.52.59-.52c-1.49-1.7-2.36-3.38-3.02-4.96-.66-1.59-1.1-3.09-1.77-4.42-.63-1.27-1.72-2.97-2.64-4.61-.46-.82-.88-1.62-1.17-2.32-.3-.69-.45-1.3-.45-1.62v-.1c.06-.6.33-1.25.73-1.7.41-.45.9-.72,1.51-.72.38,0,.82.1,1.35.39.55.3,1.04.76,1.49,1.31.69.83,1.27,1.86,1.88,2.75.31.44.63.86,1.01,1.2.38.34.85.62,1.42.68h0s.13,0,.13,0c.28,0,.51-.08.73-.17.4-.19.77-.47,1.17-.82.69-.62,1.45-1.47,2.25-2.44,1.2-1.45,2.49-3.17,3.67-4.69.59-.76,1.14-1.47,1.64-2.06.49-.6.93-1.08,1.26-1.38.59-.55,1.55-.9,2.4-.9.61,0,1.15.17,1.5.47.18.15.32.33.42.56.1.24.17.53.17.92,0,.12,0,.24-.02.38-.06.61-.39,1.41-.9,2.25-.75,1.26-1.87,2.59-2.8,3.75-.47.58-.89,1.11-1.22,1.6-.16.24-.3.48-.41.71-.11.24-.2.48-.2.8,0,.17.03.37.13.55.16.31.44.54.72.67.29.13.58.16.87.17.43,0,.87-.09,1.34-.23,1.4-.43,3.05-1.37,4.47-2.57.91-.78,2.03-1.68,3.16-2.38,1.13-.7,2.26-1.16,3.07-1.15.46,0,.8.11,1.12.38.33.28.54.57.68.86.14.3.2.6.2.93,0,.61-.24,1.33-.72,2.06-.48.72-1.19,1.45-2.06,2.07h0c-1.29.93-2.67,1.83-3.77,2.7-.55.44-1.03.86-1.41,1.31-.19.23-.35.46-.47.72-.12.26-.21.54-.21.86,0,.24.06.49.16.72h0c.13.27.34.47.56.61.33.2.67.29,1.03.35.37.06.76.08,1.19.08,1.02,0,2.21-.12,3.38-.24,1.17-.12,2.32-.23,3.19-.23.29,0,.55.01.76.04,1.06.12,1.78,1.01,1.77,1.85,0,.4-.14.81-.55,1.22Z"/>
            <polygon points="171.63 99.22 171.63 99.22 171.63 99.22 171.63 99.22"/>
            <polygon points="164.78 113.14 164.78 113.14 164.78 113.14 164.78 113.14"/>
            <polygon points="142.8 102.32 142.8 102.32 142.8 102.32 142.8 102.32"/>
            <polygon points="16.31 90.81 16.31 90.81 16.31 90.81 16.31 90.81"/>
            <polygon points="47.12 102.32 47.12 102.32 47.12 102.32 47.12 102.32"/>
            <path d="M63.34,93.22c.39.07.79.12,1.14.13-.45,2.2-.56,4.3-.49,6.1.03.95.12,1.82.22,2.58.1.77.24,1.43.4,1.96.17.53.34.93.49,1.2.14.27.23.4.23.4.07.11.19.18.32.19.23.02.44-.16.45-.39v-.02s.01-.16,0-.45c-.01-.29-.04-.7-.09-1.23-.11-1.04-.38-2.5-.4-4.29-.04-1.78.13-3.87.63-6.03.5-2.15,1.34-4.4,2.71-6.23.67-.92,1.47-1.73,2.38-2.3.45-.28.95-.53,1.41-.67.12-.04.21-.08.35-.11l.43-.09c.2-.05.5-.07.74-.1.5-.03.99,0,1.46.08.46.09.9.25,1.31.45.61.31,1.14.73,1.59,1.2-.33-.07-.67-.12-1.02-.12-.98,0-1.91.39-2.7,1.04-1.18.98-2.11,2.51-2.81,4.44-.69,1.93-1.13,4.28-1.25,6.9-.02.4-.03.8-.03,1.2,0,3.03.52,5.74,1.52,7.78.5,1.02,1.13,1.87,1.91,2.49.78.62,1.72.98,2.74.98,1.03,0,2-.42,2.81-1.09,1.23-1.02,2.18-2.61,2.86-4.56.67-1.95,1.06-4.27,1.06-6.76,0-3.52-.36-6.5-1.28-8.71-.03-.06-.06-.12-.09-.18-.13-.5-.34-1.06-.64-1.67-.34-.71-.79-1.5-1.41-2.29-.62-.78-1.44-1.57-2.51-2.14-.53-.28-1.12-.5-1.74-.63-.62-.12-1.27-.17-1.91-.13-.33.03-.62.05-.99.13l-.43.09c-.15.03-.33.1-.49.14-.67.21-1.26.49-1.84.85-1.15.71-2.11,1.67-2.89,2.73-1.4,1.91-2.25,4.09-2.79,6.19-.35-.02-.79-.05-1.23-.09-.48-.04-.97-.11-1.32-.19-.18-.03-.32-.09-.43-.09-.11,0-.2.05-.2.05h-.02c-.18.11-.26.33-.18.52,0,0,.04.08.13.16.1.07.26.12.44.2.38.14.89.3,1.41.41ZM76.48,96.87c-1.12,0-2.03-1.74-2.03-3.89s.91-3.89,2.03-3.89,2.04,1.74,2.04,3.89-.91,3.89-2.04,3.89Z"/>
            <path d="M109.42,109.22c.81.68,1.78,1.1,2.81,1.09,1.02,0,1.96-.36,2.73-.98,1.17-.93,2-2.38,2.57-4.14.57-1.77.86-3.86.86-6.13,0-.39,0-.79-.03-1.19-.16-3.49-.89-6.49-2.02-8.69-.57-1.1-1.24-2-2.03-2.65-.79-.65-1.71-1.04-2.7-1.04-.35,0-.69.05-1.02.12.45-.47.98-.89,1.59-1.2.41-.2.84-.35,1.31-.45.47-.08.96-.11,1.46-.08.24.02.53.05.74.1l.43.09c.14.03.23.08.35.11.46.14.96.38,1.41.67.91.57,1.72,1.37,2.38,2.3,1.37,1.83,2.21,4.09,2.71,6.23.5,2.16.67,4.25.63,6.03-.01,1.79-.29,3.25-.4,4.29-.05.52-.07.94-.09,1.23,0,.29,0,.45,0,.45v.02c.01.13.08.25.19.32.2.13.46.07.59-.12,0,0,.09-.14.23-.4.14-.27.32-.67.49-1.2.16-.53.3-1.19.4-1.96.1-.77.19-1.63.22-2.58.07-1.8-.05-3.9-.49-6.1.34-.02.74-.06,1.14-.14.52-.11,1.03-.27,1.41-.41.19-.07.35-.12.44-.19.1-.07.14-.15.14-.15v-.03c.09-.18,0-.4-.18-.48h-.02s-.08-.04-.19-.04c-.11,0-.25.06-.43.09-.36.08-.84.15-1.32.19-.44.04-.88.07-1.23.08-.54-2.1-1.39-4.29-2.79-6.2-.78-1.06-1.74-2.02-2.89-2.73-.58-.36-1.16-.64-1.84-.85-.16-.05-.35-.11-.49-.14l-.43-.09c-.37-.07-.66-.09-.99-.13-.65-.04-1.29.01-1.91.13-.62.13-1.21.35-1.74.63-1.07.57-1.88,1.36-2.51,2.14-.62.79-1.07,1.58-1.41,2.29-.29.6-.49,1.15-.63,1.63-.27.61-.5,1.29-.68,2.02-.49,1.94-.69,4.27-.69,6.91,0,3.32.68,6.33,1.83,8.58.58,1.12,1.27,2.06,2.09,2.74ZM110.82,89.1c1.12,0,2.03,1.74,2.03,3.89s-.91,3.89-2.03,3.89-2.04-1.74-2.04-3.89.91-3.89,2.04-3.89Z"/>
            <path d="M92.64,111.58c.51.23,1.1.35,1.73.35.84,0,1.61-.22,2.22-.62.3-.2.57-.46.77-.77.2-.31.32-.68.32-1.07,0-.39-.12-.77-.32-1.07-.3-.47-.74-.8-1.25-1.03-.51-.23-1.1-.35-1.73-.35-.84,0-1.61.22-2.22.62-.3.2-.57.46-.77.77-.2.31-.32.68-.32,1.07,0,.39.12.77.32,1.07.3.47.74.8,1.25,1.03ZM92.72,109.24c.08-.14.28-.31.57-.44.29-.13.67-.22,1.08-.22.55,0,1.04.16,1.34.36.15.1.25.21.31.3.06.09.07.16.07.23,0,.07-.02.14-.07.23-.08.14-.28.31-.57.44-.29.13-.67.22-1.08.22-.55,0-1.04-.16-1.34-.36-.15-.1-.25-.21-.31-.3-.06-.09-.07-.16-.07-.23,0-.07.02-.14.07-.23Z"/>
            <path d="M123.74,116.41c.06-.06.08-.15.08-.15h0c.02-.1-.01-.2-.1-.26,0,0-.07-.05-.17-.05-.1,0-.21.06-.35.12-.28.13-.63.34-.96.57-.32.25-.6.53-.81.75-.1.11-.2.19-.23.28-.03.09-.01.18-.01.18.02.09.1.16.2.18h.01s.08.01.17-.02c.08-.04.15-.13.25-.22.2-.19.49-.44.79-.65.29-.23.59-.44.83-.56.12-.07.23-.1.29-.16Z"/>
            <path d="M125.24,118.17c-.1,0-.21.06-.35.12-.28.13-.63.34-.96.57-.32.25-.6.53-.81.75-.1.11-.2.19-.23.28-.03.09-.01.18-.01.18.02.09.1.16.2.18h.01s.08.01.17-.02c.08-.04.15-.13.25-.22.2-.19.49-.44.79-.65.29-.23.59-.44.83-.56.12-.07.23-.1.29-.16.06-.06.08-.15.08-.15h0c.02-.1-.01-.2-.1-.26,0,0-.07-.05-.17-.05Z"/>
            <path d="M70.89,117.93s-.08-.06-.19-.15c-.06-.05-.13-.1-.21-.16-.24-.18-.58-.4-.93-.59-.36-.17-.75-.31-1.05-.39-.12-.03-.22-.05-.3-.05-.07-.01-.13-.04-.2-.05-.14-.02-.28.08-.3.22s.08.28.22.3c.08.01.17.04.25.06.06.02.12.03.19.05.26.08.6.22.93.4.34.16.66.35.89.5.08.05.14.09.2.13.05.03.09.07.12.09l.05.04c.11.09.28.08.37-.04.09-.11.08-.28-.04-.37h0Z"/>
            <path d="M69.66,120.41s-.08-.06-.19-.15c-.06-.05-.12-.1-.21-.16-.24-.18-.58-.4-.93-.59-.36-.17-.75-.31-1.05-.39-.12-.03-.22-.05-.3-.05-.07-.01-.13-.04-.2-.05-.14-.02-.28.08-.3.22s.08.28.22.3c.08.01.17.04.25.06.06.02.12.03.19.05.26.08.6.22.92.4.34.16.66.35.89.5.08.05.14.09.2.13.05.03.09.07.12.09l.05.04c.11.09.28.08.37-.04.09-.11.08-.28-.04-.37h0Z"/>
            <polygon points="125.89 62.14 125.89 62.14 125.89 62.14 125.89 62.14"/>
            <polygon points="106.19 114.43 106.19 114.43 106.19 114.43 106.19 114.43"/>
            <path d="M81.98,114.82c-.31.26-.48.61-.57.94-.09.33-.12.64-.13.96,0,.12,0,.24,0,.36,0,1.25.24,2.9.74,4.73.74,2.73,2.06,5.83,4.07,8.33,1.01,1.25,2.2,2.35,3.58,3.16,1.39.81,2.98,1.32,4.74,1.39h.06c2.36-.09,4.4-.96,6.07-2.26,2.51-1.96,4.24-4.85,5.37-7.71,1.13-2.87,1.65-5.69,1.65-7.62,0-.43-.03-.82-.08-1.17h0c-.06-.36-.23-.67-.44-.93-.22-.25-.5-.45-.84-.56-.68-.22-1.59-.36-2.66-.48-3.18-.35-7.67-.4-9.11-.4-.98,0-3.38.06-5.8.2-1.21.07-2.42.16-3.46.27-.52.05-1,.11-1.42.18-.42.07-.77.14-1.08.23-.26.08-.5.21-.7.38ZM98.42,131.94c-1.18.68-2.5,1.09-3.99,1.16-1.98-.08-3.66-.81-5.12-1.95-.57-.44-1.1-.96-1.59-1.52.21-.41.61-1.07,1.28-1.72,1.04-1,2.66-1.97,5.33-1.98h0c1.37,0,2.45.29,3.32.7,1.3.63,2.15,1.56,2.68,2.36.25.38.43.73.54.98-.74.78-1.55,1.45-2.45,1.96ZM94.42,115.13c.39,0,1.04,0,1.82.02l-.05,2.01h-3.57s0-2,0-2c.79-.02,1.43-.03,1.81-.03ZM82.85,116.79c.01-.36.06-.61.11-.7l.05-.08s.05-.04.13-.06c.18-.06.48-.12.86-.18,1.33-.21,3.54-.37,5.61-.48.49-.02.97-.05,1.43-.06v2.73c0,.44.35.79.79.79h5.13c.43,0,.78-.34.79-.77l.07-2.78c.7.02,1.43.05,2.18.08,1.17.06,2.35.14,3.36.25,1.01.11,1.88.26,2.34.41h0s.13.1.13.1l.08.15c.04.23.06.54.06.91,0,1.1-.21,2.68-.67,4.39-.63,2.38-1.75,5.02-3.34,7.17-.26-.46-.61-.99-1.1-1.53-.62-.69-1.45-1.38-2.53-1.9-1.08-.52-2.41-.86-4-.86h-.02c-1.58,0-2.9.31-3.98.79-1.63.72-2.7,1.8-3.35,2.69-.12.16-.21.31-.31.45-.92-1.31-1.68-2.78-2.26-4.25-.53-1.35-.93-2.69-1.19-3.9-.26-1.21-.38-2.28-.38-3.07,0-.1,0-.2,0-.3Z"/>
          </g>
        </g>
      </g>
    </g>
  </g>
  <g id="list-type">
    <g>
      <g>
        <path class="cls-19" d="M20.51,187.47c-3.93,0-7.25-3.22-7.25-7.03,0-1.89.7-3.02,1.5-4.33.93-1.53,1.32-4.18,1.32-9.15v-5.53c0-5.2,2.87-8.06,8.06-8.06h12.2c1.07,0,3.9,0,5.98,2.08,2.08,2.08,2.08,4.92,2.08,5.98v16.78c0,5.92-3.33,8.93-9.89,8.93-4.44,0-6.68-1.51-7.78-3.3-1.96,3.15-4.73,3.63-6.23,3.63Z"/>
        <path class="cls-19" d="M50.55,187.72c-4.03,0-6.95-2.75-6.95-6.55v-5.17c-3.07-.61-5.18-3.28-5.18-6.79,0-2.07.73-3.85,1.95-5.09-.58-.87-1.17-2.21-1.16-4.07,0-3.98,2.72-6.87,6.46-6.87h9.57c1.11,0,2.12.25,3.01.7.56-.12,1.15-.19,1.77-.19.51,0,1.01.04,1.48.13,1.18-.91,2.73-1.43,4.48-1.43,4.03,0,6.96,2.76,6.96,6.57v19.58c0,5.85-3.19,8.82-9.47,8.82h0c-1.23,0-2.76,0-4.31-.6-1.1-.43-2.02-1.1-2.72-1.94-1.2,1.79-3.32,2.9-5.88,2.9Z"/>
        <path class="cls-19" d="M81.89,182.56v5c-5.49,0-7.63-2.19-8.32-4.61h-1.65c-3.59,0-6.3-2.84-6.3-6.6,0-1.39.37-2.65,1.01-3.69-.2-.63-.3-1.31-.3-2.03v-2.14c0-1.76.6-3.34,1.64-4.56-.17-3.53-.17-3.61-.17-3.82,0-5.34,4.4-6.42,6.05-6.83.14-.03.33-.09.56-.16,1.89-.54,2.82-.78,3.79-.78.75,0,1.47.14,2.14.39.39-.08.79-.12,1.19-.12.62,0,1.17.08,1.68.21.58-.2,1.24-.32,2-.32,1.01,0,1.96.24,2.8.67.16-.01.31-.02.48-.02h3.55c3.82,0,6.82,2.97,6.82,6.76,0,.15,0,.22-.15,3.83.95,1.15,1.56,2.77,1.56,4.96v1.92c0,.7-.1,1.36-.28,1.97.53.84,1.02,2.08,1.02,3.75,0,3.82-2.64,6.6-6.27,6.6h-4.73c-1.18,2.97-3.98,4.61-8.1,4.61,0,0,0-5,0-5Z"/>
        <path class="cls-19" d="M103.38,187.18c-4.71,0-7.52-2.81-7.52-7.52v-6.48c0-.11,0-.23,0-.34-.52-.4-1-.89-1.4-1.46-.85-1.22-1.32-2.75-1.32-4.33,0-1.34.33-2.49.98-3.44-.52-.89-.9-2.07-.9-3.61,0-3.87,2.66-6.68,6.33-6.68h8.27c.46,0,1.3,0,2.26.23.55-.15,1.14-.23,1.75-.23h8.11c.94,0,3.43,0,5.36,1.92,1.92,1.92,1.92,4.42,1.92,5.36v5.91c0,2.54-.7,4.55-2,5.95.02.24.02.48.02.72v6.48c0,4.71-2.81,7.52-7.52,7.52h-14.34Z"/>
        <path class="cls-19" d="M131.63,187.67c-1.18,0-3.14-.17-4.81-1.09-.09,0-.17,0-.26,0-3.61,0-6.9-3.22-6.9-6.76,0-1.45.51-2.9,1.41-3.97,0,0,0,0,0-.01-.17-.85-.17-1.56-.17-1.93v-1.33c0-.15,0-.3,0-.45-.76-1.09-1.2-2.45-1.2-3.97,0-1.55.46-2.94,1.26-4.04,0-.24,0-.44,0-.6v-3.39c0-4.56,2.72-7.28,7.28-7.28h8.13c2.29,0,4.12.69,5.37,1.95,1.48-1.33,2.85-2.44,5.29-2.44,3.79,0,7.11,3.3,7.11,7.06,0,1.24-.42,2.44-1.12,3.56.94,1.2,1.5,2.7,1.5,4.3,0,1.03-.28,2.01-.77,2.94,1.05,1.25,1.69,2.84,1.69,4.52,0,5.78-9.76,12.84-14.57,12.84h0c-1.51,0-2.9-.51-4.05-1.38-1.16.87-2.83,1.46-5.19,1.46h0Z"/>
        <path class="cls-19" d="M157.6,187.03c-4.71,0-7.52-2.81-7.52-7.52v-6.89c-1.85-1.16-3.03-3.28-3.03-5.8,0-1.81.57-3.4,1.56-4.58-.08-.44-.12-.91-.12-1.39,0-3.87,2.65-6.68,6.3-6.68h4.82c1.29-1.11,3.05-1.76,5.08-1.76,2.21,0,3.9.7,5.1,1.76h4.8c1.95,0,3.73.85,4.9,2.32.65.82,1.42,2.23,1.42,4.34,0,.5-.04.98-.13,1.44.97,1.18,1.54,2.75,1.54,4.55,0,2.57-1.23,4.73-3.15,5.87v6.82c0,4.71-2.81,7.52-7.52,7.52h-14.05Z"/>
      </g>
      <path class="cls-14" d="M181.83,156.02c.05-.39.08-.79.08-1.2,0-2.39-.89-4.02-1.64-4.96-1.36-1.71-3.44-2.7-5.69-2.7h-4.42c-1.43-1.12-3.32-1.76-5.48-1.76s-4.03.64-5.46,1.76h-4.44c-.83,0-1.61.14-2.35.38-1.46-1.33-3.37-2.17-5.4-2.17-2.41,0-3.95.98-5.29,2.11-1.38-1.05-3.2-1.62-5.37-1.62h-8.13c-1.79,0-3.33.4-4.59,1.12-1.58-.65-3.07-.66-3.7-.66h-8.11c-.61,0-1.2.07-1.76.21-.99-.21-1.82-.21-2.25-.21h-8.27c-1.3,0-2.51.32-3.55.9-1.16-.67-2.52-1.06-3.99-1.06h-3.55c-.09,0-.18,0-.27,0-.91-.42-1.93-.66-3.01-.66-.76,0-1.44.11-2.04.28-.5-.11-1.05-.17-1.64-.17-.38,0-.75.03-1.11.09-.7-.23-1.45-.36-2.23-.36-1.09,0-2.12.26-4.06.81-.22.06-.4.11-.52.15-.55.14-1.46.37-2.45.82-1.37-1.09-3.16-1.73-5.17-1.73-1.79,0-3.4.51-4.7,1.38-.41-.05-.83-.08-1.26-.08-.57,0-1.13.05-1.66.14-.94-.43-1.99-.66-3.11-.66h-9.57c-1.61,0-3.08.49-4.27,1.34-2.01-1.13-4.13-1.15-5.05-1.15h-12.2c-5.76,0-9.06,3.3-9.06,9.06v5.53c0,5.91-.6,7.68-1.17,8.62-.81,1.32-1.65,2.68-1.65,4.86,0,4.43,3.7,8.03,8.25,8.03,1.52,0,4.14-.42,6.26-2.96,1.41,1.49,3.78,2.64,7.75,2.64,4.67,0,7.37-1.51,8.92-3.49,1.28,2.45,3.92,4.06,7.1,4.06,2.41,0,4.5-.92,5.94-2.42.66.58,1.43,1.06,2.3,1.4,1.72.67,3.42.67,4.67.67h0c2.86,0,7.14-.7,9.22-4.42h.17c.95,2.35,3.34,4.61,9.03,4.61v-6s0,6,0,6c4.23,0,7.28-1.66,8.74-4.61h4.08c.35,0,.69-.03,1.03-.08,1.3,2.73,3.99,4.31,7.64,4.31,0,0,14.34,0,14.34,0,2.11,0,3.89-.53,5.27-1.5,1.08.57,2.3.9,3.56.9h.05c1.9.95,4.02,1.09,5.02,1.09h0c2.25,0,3.94-.49,5.19-1.25,1.19.74,2.57,1.17,4.05,1.17h0c2.55,0,6.26-1.74,9.42-4.25,1.4,2.34,3.94,3.68,7.31,3.68,0,0,14.05,0,14.05,0,2,0,8.52-.61,8.52-8.52v-6.27c1.93-1.37,3.15-3.69,3.15-6.42,0-1.84-.55-3.49-1.49-4.79Z"/>
      <text class="cls-10" transform="translate(16.17 174.38)"><tspan class="cls-17" x="0" y="0"></tspan><tspan x="26.57" y="0"></tspan></text>
    </g>
  </g>
</svg>