<?xml version="1.0" encoding="UTF-8"?>
<svg xmlns="http://www.w3.org/2000/svg" xmlns:xlink="http://www.w3.org/1999/xlink" viewBox="0 0 195 195">
  <defs>
    <style>
      .cls-1 {
        fill: none;
      }

      .cls-2 {
        fill: #f9dbe8;
      }

      .cls-3 {
        fill: #ed848c;
      }

      .cls-4 {
        opacity: .3;
      }

      .cls-4, .cls-5 {
        fill: #fff;
      }

      .cls-6 {
        fill: #51bfb7;
      }

      .cls-7 {
        fill: #dfdfcf;
      }

      .cls-8 {
        clip-path: url(#clippath-1);
      }

      .cls-9 {
        fill: #fdebc7;
      }

      .cls-10 {
        fill: #231815;
      }

      .cls-11 {
        fill: #3e99c6;
      }

      .cls-12 {
        fill: #a42f8b;
      }

      .cls-13 {
        fill: #784600;
      }

      .cls-14 {
        fill: #eaa5c7;
      }

      .cls-15 {
        fill: #e63556;
      }

      .cls-16 {
        fill: #56ace2;
      }

      .cls-17 {
        fill: #baa0ca;
      }

      .cls-18 {
        clip-path: url(#clippath);
      }
    </style>
    <clipPath id="clippath">
      <path class="cls-1" d="M22.69,85.28c0,21.91,2.42,44.41,16.78,58.77,14.36,14.36,36.86,16.79,58.77,16.8s44.41-2.42,58.77-16.78c14.36-14.36,16.79-36.86,16.8-58.77,0-21.91-2.42-44.41-16.78-58.77s-36.86-16.79-58.77-16.8c-21.91,0-44.41,2.42-58.77,16.78-14.36,14.36-16.79,36.86-16.8,58.77Z"/>
    </clipPath>
    <clipPath id="clippath-1">
      <path class="cls-1" d="M21.98,85.33c0,21.91,2.42,44.41,16.78,58.77,14.36,14.36,36.86,16.79,58.77,16.8,21.91,0,44.41-2.42,58.77-16.78,14.36-14.36,16.79-36.86,16.8-58.77,0-21.91-2.42-44.41-16.78-58.77-14.36-14.36-36.86-16.79-58.77-16.8-21.91,0-44.41,2.42-58.77,16.78-14.36,14.36-16.79,36.86-16.8,58.77Z"/>
    </clipPath>
  </defs>
  <g id="list-pic">
    <g>
      <path class="cls-11" d="M21.98,95.67c0,21.91,2.42,44.41,16.78,58.77,14.36,14.36,36.86,16.79,58.77,16.8,21.91,0,44.41-2.42,58.77-16.78,14.36-14.36,16.79-36.86,16.8-58.77s-2.42-44.41-16.78-58.77c-14.36-14.36-36.86-16.79-58.77-16.8-21.91,0-44.41,2.42-58.77,16.78-14.36,14.36-16.79,36.86-16.8,58.77Z"/>
      <path class="cls-16" d="M21.6,84.33c0,21.91,2.42,44.41,16.78,58.77,14.36,14.36,36.86,16.79,58.77,16.8,21.91,0,44.41-2.42,58.77-16.78,14.36-14.36,16.79-36.86,16.8-58.77,0-21.91-2.42-44.41-16.78-58.77-14.36-14.36-36.86-16.79-58.77-16.8-21.91,0-44.41,2.42-58.77,16.78-14.36,14.36-16.79,36.86-16.8,58.77Z"/>
      <circle class="cls-5" cx="98.15" cy="97.54" r="59.56"/>
      <g class="cls-18">
        <path class="cls-4" d="M107.11,16.07c-.2,1.55-.74,2.85-1.67,3.91-1.2,1.36-2.54,2.59-3.84,3.86-.26.25-.57.46-.89.62-1.38.73-2.76,1.44-4.15,2.14-.67.34-1.37.48-2.14.27-.48-.36-.56-.95-.77-1.47-.29-.72-.54-1.46-.87-2.17-.37-.81-.65-1.63-.8-2.51-.25-1.54-.53-3.07-.77-4.61-.07-.45-.04-.92-.06-1.42,1.09-.54,2.2-.73,3.34-.8,1.98-.13,3.94.04,5.89.41,1.43.27,2.86.56,4.28.87.56.12,1.11.28,1.65.45.24.08.45.25.78.44Z"/>
        <path class="cls-4" d="M43.76,68.02c-.33-1.53-.26-2.94.27-4.24.67-1.68,1.53-3.29,2.33-4.92.16-.32.39-.62.63-.89,1.06-1.14,2.12-2.28,3.2-3.41.51-.54,1.13-.91,1.93-.97.57.18.84.71,1.22,1.13.52.58,1,1.2,1.54,1.76.62.63,1.16,1.32,1.59,2.1.75,1.37,1.53,2.72,2.27,4.09.22.4.35.86.53,1.31-.85.87-1.83,1.42-2.88,1.87-1.82.78-3.73,1.28-5.69,1.58-1.44.22-2.88.42-4.32.61-.57.07-1.14.11-1.71.13-.25,0-.5-.08-.89-.15Z"/>
        <path class="cls-4" d="M153.49,90.47c.48-1.36,1.22-2.43,2.26-3.21,1.34-1,2.79-1.85,4.21-2.74.28-.18.6-.3.92-.39,1.38-.39,2.77-.76,4.16-1.13.66-.17,1.33-.17,1.98.17.37.41.32.97.41,1.48.12.71.2,1.43.36,2.12.18.8.27,1.6.23,2.42-.07,1.44-.11,2.87-.2,4.31-.02.42-.14.84-.22,1.29-1.09.28-2.13.23-3.17.08-1.81-.27-3.55-.8-5.24-1.51-1.24-.52-2.47-1.06-3.69-1.61-.48-.22-.95-.46-1.4-.73-.2-.12-.36-.31-.62-.55Z"/>
        <path class="cls-4" d="M41.95,137.52c.2-1.55.74-2.85,1.67-3.91,1.2-1.36,2.54-2.59,3.84-3.86.26-.25.57-.46.89-.62,1.38-.73,2.76-1.44,4.15-2.14.67-.34,1.37-.48,2.14-.27.48.36.56.95.77,1.47.29.72.54,1.46.87,2.17.37.81.65,1.63.8,2.51.25,1.54.53,3.07.77,4.61.07.45.04.92.06,1.42-1.09.54-2.2.73-3.34.8-1.98.13-3.94-.04-5.89-.41-1.43-.27-2.86-.56-4.28-.87-.56-.12-1.11-.28-1.65-.45-.24-.08-.45-.25-.78-.44Z"/>
        <path class="cls-4" d="M74.29,22.57c.33,1.53.26,2.94-.27,4.24-.67,1.68-1.53,3.29-2.33,4.92-.16.32-.39.62-.63.89-1.06,1.14-2.12,2.28-3.2,3.41-.51.54-1.13.91-1.93.97-.57-.18-.84-.71-1.22-1.13-.52-.58-1-1.2-1.54-1.76-.62-.63-1.16-1.32-1.59-2.1-.75-1.37-1.53-2.72-2.27-4.09-.22-.4-.35-.86-.53-1.31.85-.87,1.83-1.42,2.88-1.87,1.82-.78,3.73-1.28,5.69-1.58,1.44-.22,2.88-.42,4.32-.61.57-.07,1.14-.11,1.71-.13.25,0,.5.08.89.15Z"/>
        <path class="cls-4" d="M138.96,137.91c.94-.6,1.9-.91,2.91-.88,1.3.03,2.59.2,3.88.33.26.03.51.1.75.2,1.03.42,2.06.85,3.08,1.29.49.21.89.53,1.13,1.05.03.43-.27.74-.45,1.1-.26.49-.56.97-.79,1.47-.27.58-.6,1.11-1.01,1.59-.73.84-1.44,1.7-2.18,2.54-.22.25-.49.45-.75.68-.8-.35-1.41-.87-1.98-1.47-.98-1.03-1.79-2.18-2.48-3.42-.51-.91-1-1.82-1.49-2.74-.19-.36-.36-.73-.51-1.11-.07-.17-.07-.36-.12-.63Z"/>
        <path class="cls-4" d="M126.3,69.48c-.88-1.29-1.34-2.63-1.35-4.03,0-1.81.18-3.63.3-5.44.03-.36.13-.72.25-1.06.55-1.46,1.11-2.91,1.68-4.36.27-.69.7-1.27,1.42-1.63.6-.05,1.05.34,1.55.59.7.35,1.37.74,2.09,1.05.81.35,1.57.79,2.26,1.35,1.21.98,2.44,1.94,3.64,2.94.35.29.64.66.99,1.02-.46,1.13-1.16,2.01-1.97,2.82-1.4,1.41-2.98,2.59-4.68,3.61-1.25.75-2.51,1.47-3.77,2.19-.5.28-1.01.53-1.53.76-.23.1-.5.11-.88.19Z"/>
        <path class="cls-4" d="M142.29,22.57c.33,1.53.26,2.94-.27,4.24-.67,1.68-1.53,3.29-2.33,4.92-.16.32-.39.62-.63.89-1.06,1.14-2.12,2.28-3.2,3.41-.51.54-1.13.91-1.93.97-.57-.18-.84-.71-1.22-1.13-.52-.58-1-1.2-1.54-1.76-.62-.63-1.16-1.32-1.59-2.1-.75-1.37-1.53-2.72-2.27-4.09-.22-.4-.35-.86-.53-1.31.85-.87,1.83-1.42,2.88-1.87,1.82-.78,3.73-1.28,5.69-1.58,1.44-.22,2.88-.42,4.32-.61.57-.07,1.14-.11,1.71-.13.25,0,.5.08.89.15Z"/>
        <path class="cls-4" d="M147.85,50.27c-1.1-1.11-1.8-2.33-2.07-3.71-.34-1.78-.49-3.6-.7-5.4-.04-.36,0-.73.05-1.09.27-1.53.56-3.07.85-4.59.14-.73.46-1.37,1.09-1.86.58-.16,1.09.14,1.63.29.75.21,1.49.47,2.24.65.87.2,1.69.48,2.47.91,1.37.74,2.75,1.46,4.12,2.22.4.22.75.53,1.16.82-.24,1.19-.77,2.19-1.41,3.13-1.11,1.65-2.45,3.09-3.93,4.4-1.09.96-2.19,1.91-3.31,2.85-.44.37-.9.71-1.37,1.03-.21.14-.47.2-.83.35Z"/>
        <path class="cls-4" d="M155.63,62.31c1.17-.34,2.28-.36,3.32-.02,1.35.43,2.65,1.01,3.96,1.55.26.11.51.27.73.44.95.76,1.89,1.53,2.83,2.31.45.37.77.83.86,1.45-.11.46-.51.7-.81,1.01-.43.43-.88.84-1.29,1.3-.46.52-.97.98-1.55,1.35-1.02.66-2.04,1.34-3.07,1.99-.3.19-.65.32-1,.48-.73-.61-1.21-1.35-1.62-2.15-.71-1.38-1.2-2.84-1.54-4.35-.25-1.11-.49-2.22-.71-3.34-.09-.44-.15-.88-.19-1.32-.02-.2.04-.4.07-.7Z"/>
        <path class="cls-4" d="M163.65,127.92c-1.55.21-2.95.02-4.21-.61-1.62-.81-3.16-1.79-4.72-2.72-.31-.18-.59-.44-.83-.7-1.06-1.15-2.1-2.3-3.13-3.47-.5-.56-.81-1.2-.82-2,.22-.56.78-.78,1.22-1.12.62-.47,1.28-.9,1.87-1.39.68-.57,1.41-1.05,2.22-1.41,1.42-.64,2.83-1.3,4.26-1.93.42-.18.88-.28,1.35-.42.8.91,1.27,1.94,1.63,3.03.63,1.88.97,3.82,1.12,5.8.11,1.45.19,2.9.26,4.36.03.57.02,1.14-.01,1.71-.01.25-.12.5-.22.87Z"/>
        <path class="cls-4" d="M52.07,40.63c-.2,1.55-.74,2.85-1.67,3.91-1.2,1.36-2.54,2.59-3.84,3.86-.26.25-.57.46-.89.62-1.38.73-2.76,1.44-4.15,2.14-.67.34-1.37.48-2.14.27-.48-.36-.56-.95-.77-1.47-.29-.72-.54-1.46-.87-2.17-.37-.81-.65-1.63-.8-2.51-.25-1.54-.53-3.07-.77-4.61-.07-.45-.04-.92-.06-1.42,1.09-.54,2.2-.73,3.34-.8,1.98-.13,3.94.04,5.89.41,1.43.27,2.86.56,4.28.87.56.12,1.11.28,1.65.45.24.08.45.25.78.44Z"/>
        <path class="cls-4" d="M28.47,73.29c1.46-.56,2.86-.71,4.23-.4,1.77.4,3.49,1,5.23,1.53.34.11.67.29.97.49,1.3.86,2.58,1.74,3.86,2.63.61.42,1.07.97,1.26,1.75-.08.59-.57.94-.93,1.38-.5.6-1.03,1.17-1.49,1.8-.53.71-1.12,1.35-1.82,1.89-1.23.96-2.45,1.93-3.69,2.88-.37.28-.79.48-1.22.73-.99-.7-1.69-1.59-2.3-2.56-1.06-1.68-1.84-3.49-2.45-5.37-.44-1.39-.87-2.78-1.28-4.17-.16-.55-.29-1.11-.39-1.67-.05-.25,0-.51.01-.9Z"/>
        <path class="cls-4" d="M33.04,117.73c-.88-1.29-1.35-2.62-1.36-4.03-.01-1.81.17-3.63.3-5.44.02-.36.12-.72.25-1.06.55-1.46,1.11-2.91,1.68-4.36.27-.69.7-1.27,1.42-1.63.6-.05,1.05.34,1.55.59.7.35,1.38.74,2.09,1.04.82.35,1.57.78,2.26,1.34,1.21.98,2.44,1.94,3.64,2.93.35.29.64.66.99,1.02-.45,1.13-1.16,2.01-1.96,2.82-1.39,1.42-2.97,2.59-4.67,3.61-1.25.75-2.51,1.48-3.77,2.2-.5.28-1.01.53-1.53.76-.23.1-.5.11-.88.2Z"/>
      </g>
      <g class="cls-8">
        <g>
          <path class="cls-14" d="M121.01,162.43c.14,2.52.25,5.56.32,8.53,1.42-.74,2.74-1.58,3.95-2.52-.61-1.19-1.62-4.39-2.67-7.85-.51.64-1.04,1.26-1.59,1.84"/>
          <path class="cls-14" d="M136.73,127.59c-1.19,2.99-2.29,6.41-3.46,9.98,1.59,4.21,2.89,8.53,4,12.77,2.24-5.91,3.78-11.82,5.61-16.3,3.69-9.01,14.34-5.73,13.42-15.37-.51-5.34-14.7-3.35-19.57,8.92"/>
          <path class="cls-14" d="M57.86,165.04c-3.79,6.15-3.38,15.35,1.5,19.14,1.98,1.54,3.54,1.69,4.48,1.13.58.14,1.3.21,2.27.18,1.57-.05,2.18-.88,2.03-2.2.39-.12.73-.34.97-.67.5-.68.68-1.18.51-1.71.03-.03.06-.06.08-.09,1.08-1.48.65-2.08-1.43-4.07.27-1.2.53-2.58.84-4.16.28-1.45.41-2.62.43-3.6-2.9-.39-8.89-1.85-11.7-3.95"/>
          <path class="cls-14" d="M126.68,169.08c-.1.94-.13,2.06-.05,3.45.09,1.55.16,2.91.25,4.11-2.48,1.79-3.03,2.31-2.15,3.96.05.1.12.19.19.28-.14.45-.02.93.33,1.6.21.39.55.67.96.83-.35,1.3.14,2.22,1.7,2.49.97.17,1.71.2,2.31.13.85.59,2.34.61,4.44-.53,5.52-2.97,7.09-11.78,4.37-18.37-3.02,1.61-9.68,2.18-12.35,2.05"/>
          <path class="cls-7" d="M116.74,112.79c.04.24.04.47.02.66-3.07,5.22,0,14.13,2.46,15.05,1.23.92,1.92,24.34,2.98,29.33.02.31-.03.6-.16.87.19.63.38,1.25.56,1.87,1.05,3.47,2.07,6.66,2.67,7.85.11.22.21.38.3.45.11.1.52.16,1.12.19,2.67.13,9.33-.44,12.35-2.05,1.06-.57,1.67-1.26,1.5-2.09-.9-4.5-1.94-9.48-3.27-14.59-1.1-4.24-2.41-8.56-4-12.77-3.65-9.66-8.8-18.72-16.52-24.78"/>
          <path class="cls-7" d="M73.14,157.31c1.06-4.99,2.45-27.58,3.68-28.5,2.23-.84,4.97-8.5,3.16-13.82-14.64,12.4-21.37,41.66-23.5,47.09-.42,1.08.19,2.07,1.37,2.96,2.8,2.1,8.79,3.56,11.7,3.95.62.08,1.1.12,1.38.1.46-.03,1.52-2.7,2.73-6.05.12-1.56.23-2.94.33-3.98-.57-.49-.9-1.09-.85-1.74"/>
          <path class="cls-14" d="M92.8,115.91c.27.38.44.76.51,1.11,3.43.42,6.93.41,10.29-.06.12-.34.31-.69.57-1.05.86-1.21,5.78-4.6,9.29-5.16.13-.02.24-.03.36-.04-.03-.02-.07-.04-.1-.06-5,1.28-10.65,2.06-17.18,2.06-4.45,0-8.4-.32-11.96-.88-.14.08-.29.15-.43.23,2.82.72,7.38,2.08,8.64,3.85"/>
          <path class="cls-6" d="M120.85,159.95s-.06.03-.09.05c.04,1.47.04,2.5-.01,2.92-.45,3.67-46.09,1.9-46.39.3-.06-.29-.02-1.71.07-3.83-.16-.11-.31-.22-.44-.34-.1,1.05-.21,2.42-.33,3.98-.48,6.42-.99,15.98-.7,18.6.06.53,1.18.97,2.91,1.32,5.08,1.03,15.38,1.33,19.26,1.18.41-.02.76-.04,1.01-.06.79-.08.49-8.77.99-8.86.47-.09.34,9.02.82,9.04.17,0,.65.02,1.36.05,3.85.15,14.47.52,19.3-.41,1.44-.27,2.37-.66,2.45-1.2.34-1.55.37-6.53.26-11.73-.06-2.97-.18-6.01-.32-8.53-.05-.9-.1-1.74-.15-2.48"/>
          <path class="cls-7" d="M106.62,162c-2.46,0-4.61-.31-4.3-4.3.31-4,.62-32.26.31-34.72-.18-1.4.55-2.6,1.37-3.65-.59-.44-.79-1.32-.4-2.36-3.36.47-6.86.48-10.29.06.24,1.08-.35,1.97-1.21,2.37.8,1.04,1.48,2.21,1.31,3.58-.31,2.46-1.23,28.36-1.54,34.19-.21,4-1.84,4.3-4.3,4.3-2.46,0-7.5-.71-9.95-1.01-1.22-.15-2.36-.53-3.18-1.07-.1,2.13-.13,3.54-.07,3.83.3,1.59,45.94,3.37,46.39-.3.05-.42.05-1.45.01-2.92-.81.49-1.89.84-3.05.99-2.46.31-8.64,1.01-11.1,1.01"/>
          <path class="cls-9" d="M96.94,89.22c13.79,0,19.16,13.5,18.34,21.01h0c6.75-1.92,12.26-4.74,17.07-7.75,3.36-2.1-.19-2.52-1.55-2.52,0-.04.02-.08.02-.13,2.11-1.26,5.45-4.1,5.22-4.92-.23-.81-1.52-1.03-4.32-.42,0-.04.01-.07.02-.11-1.53.7-3.71-.08-4.53-4.57-.03-.16.1-.31.19-.22,1.35,1.21,3.61,1.95,5-10.67,1.25-11.3-4.42-22.91-14.15-28.57-8.57,17.24-26.13,20.16-26.86,19.51-.56-.5,4.5-5.53,7.38-9.25-.03,0-.07,0-.1-.01-7.08,5.41-18.9,6.74-19.12,5.95-.19-.67,4.71-5.96,8.14-9.92-6.58,2.86-17.09,4.1-15.18,3.03,1.6-.9,5.46-7.1,7.84-11.73-13.04,3.96-21.14,17.68-19.68,30.97,1.39,12.61,3.65,11.87,5,10.67.1-.09.22.07.19.22-.82,4.49-3,5.26-4.53,4.57,0,.04.01.07.02.11-2.8-.61-4.09-.39-4.32.42-.23.82,3.11,3.66,5.22,4.92,0,.04.01.08.02.13-1.36,0-4.91.42-1.55,2.52,5.12,3.2,10.65,6.2,17.92,8.12h0c-1.03-7.49,4.28-21.37,18.3-21.37M117.24,78.19c1.47,0,2.44,1.44,2.45,3.23,0,1.78-.97,3.23-2.45,3.23-1.47,0-2.44-1.44-2.44-3.23,0-1.79.97-3.23,2.44-3.23M80.26,78.18c1.47,0,2.44,1.44,2.44,3.23,0,1.78-.98,3.23-2.44,3.23-1.47,0-2.44-1.44-2.45-3.23,0-1.79.97-3.22,2.45-3.23"/>
          <path class="cls-13" d="M98.85,92.41c1.05-2.52-5.39-2.6-4.6-.21.63,1.89,4.03,1.58,4.6.21"/>
          <path class="cls-15" d="M103.18,107.15c1.35-2,2.33-4.88,2.64-8.73-3.16-.02-13.45.18-16.72.27,0,3.5.84,6.29,2.16,8.31,2.85-3.5,8.51-3.37,11.92.15"/>
          <path class="cls-3" d="M91.26,106.99c3.04,4.66,8.58,5.1,11.92.15-3.41-3.52-9.06-3.65-11.92-.15"/>
          <path class="cls-14" d="M65.87,89.81c.03-.16-.1-.31-.19-.22-1.35,1.21-3.61,1.94-5-10.67-1.46-13.3,6.64-27.01,19.68-30.97-2.37,4.63-6.24,10.83-7.84,11.73-1.91,1.07,8.6-.17,15.18-3.03-3.44,3.96-8.33,9.25-8.14,9.92.22.78,12.04-.54,19.12-5.96.03,0,.07,0,.1.01-2.89,3.72-7.94,8.74-7.38,9.25.73.65,18.28-2.28,26.86-19.51,9.73,5.66,15.4,17.27,14.15,28.57-1.39,12.61-3.65,11.87-5,10.67-.09-.09-.22.07-.19.22.82,4.49,3,5.26,4.53,4.57.48-.22.9-.58,1.2-1.02,4.19-6.05,7.29-19.52,4.41-32.4,5.04-12.36,4.6-38.04,1.55-41.36-4.42-4.81-21.65,4.14-28.82,11.05-4.09-1.15-8.52-1.81-13.18-1.89-5.3,0-9.98.59-14.12,1.66-7.31-6.88-24.21-15.59-28.59-10.83-3.05,3.32-3.5,29,1.54,41.36-2.88,12.88.22,26.34,4.4,32.4.29.44.71.81,1.2,1.02,1.53.69,3.7-.08,4.53-4.57M131.21,28.13c3.44-.46,1.5,12.69-.49,18.17-2.83-3.74-6.56-7.05-11.37-9.63,2.26-3.28,7.29-7.93,11.87-8.53M61.9,28.12c4.57.61,9.61,5.25,11.87,8.54-4.81,2.58-8.54,5.89-11.38,9.63-1.99-5.48-3.93-18.63-.49-18.17"/>
          <path class="cls-12" d="M76.82,128.81c-1.23.92-2.62,23.51-3.68,28.5-.06.66.27,1.25.84,1.74.14.12.28.23.44.34.83.54,1.97.92,3.18,1.07,2.46.31,7.5,1.01,9.96,1.01,2.46,0,4.09-.3,4.3-4.3.31-5.84,1.23-31.74,1.54-34.19.17-1.37-.51-2.54-1.31-3.58.87-.4,1.45-1.29,1.21-2.37-.08-.35-.24-.73-.51-1.11-1.26-1.77-5.82-3.13-8.64-3.85-.61-.15-1.14-.28-1.54-.37-2.23-.52-3.95.84-3.34,2.99.16.06.4.17.7.3,0,0,0,0,0,.01,1.81,5.32-.93,12.98-3.16,13.82"/>
          <path class="cls-12" d="M104.17,115.91c-.26.36-.44.71-.57,1.05-.4,1.05-.19,1.92.4,2.36-.82,1.06-1.55,2.26-1.37,3.65.31,2.46,0,30.72-.31,34.72-.31,3.99,1.84,4.3,4.3,4.3s8.64-.71,11.1-1.01c1.15-.14,2.23-.49,3.05-.99.03-.02.06-.03.09-.05.55-.35.97-.77,1.18-1.23.12-.27.18-.57.16-.87-1.06-4.99-1.74-28.41-2.97-29.33-2.46-.92-5.53-9.83-2.45-15.05.02-.19.02-.42-.02-.66-.16-1.02-.96-2.24-2.93-2.08-.12.01-.23.02-.36.04-3.51.56-8.43,3.95-9.29,5.16"/>
          <path class="cls-5" d="M86.03,209.62c3.03-3.04,6.97-3.97,9.13-3.1-.2-4.64,0-15.95-.03-22.38-3.88.15-14.19-.14-19.26-1.18-.3,7.58-.14,17.8-.27,22.11,3.16-.55,7.62,1.31,10.43,4.55"/>
          <path class="cls-5" d="M99.53,206.6s.01-.04.02-.05c2.15-.92,6.15,0,9.22,3.07,2.77-3.2,7.17-5.06,10.32-4.57-.18-3.96-.14-13.6-.47-21.16-4.83.92-15.45.56-19.3.41.04,6.5.38,17.73.22,22.28v.02"/>
          <path class="cls-5" d="M78.65,110.59h0c1.86.49,3.83.91,5.94,1.24,3.56.56,7.51.88,11.96.88,6.53,0,12.18-.78,17.17-2.06.53-.13,1.05-.27,1.57-.42h0c.82-7.52-4.55-21.01-18.34-21.01-14.02,0-19.33,13.88-18.3,21.37M98.84,92.41c-.57,1.37-3.97,1.68-4.6-.21-.79-2.39,5.65-2.3,4.6.21M105.82,98.42c-.31,3.84-1.3,6.72-2.64,8.73-3.34,4.95-8.88,4.5-11.92-.15-1.32-2.02-2.17-4.81-2.16-8.31,3.28-.09,13.56-.28,16.72-.27"/>
          <path class="cls-5" d="M80.26,84.64c1.47,0,2.44-1.44,2.44-3.23s-.97-3.23-2.44-3.23c-1.47,0-2.44,1.44-2.45,3.23,0,1.78.97,3.23,2.45,3.23"/>
          <path class="cls-5" d="M117.24,84.64c1.47,0,2.44-1.44,2.45-3.23,0-1.79-.97-3.23-2.45-3.23-1.47,0-2.44,1.45-2.44,3.23s.98,3.23,2.44,3.23"/>
          <path class="cls-2" d="M73.77,36.66c-2.26-3.28-7.29-7.93-11.87-8.54-3.44-.46-1.5,12.69.49,18.17,2.84-3.74,6.57-7.05,11.38-9.63"/>
          <path class="cls-2" d="M130.71,46.3c1.99-5.48,3.94-18.63.49-18.17-4.57.61-9.61,5.25-11.87,8.53,4.81,2.59,8.54,5.9,11.37,9.64"/>
          <path class="cls-17" d="M94.69,189.1c0-1.31.01-2.55.01-3.69-7.84.4-14.55.43-19.35.09-.03,1.2-.06,2.43-.07,3.68,2.46.17,5.15.23,7.84.23,4.22,0,8.41-.16,11.57-.32"/>
          <path class="cls-17" d="M95.08,196.19c0-1.22.01-2.46.02-3.69-7.88.41-14.62.43-19.43.08,0,1.25-.01,2.49-.02,3.68,2.47.17,5.18.24,7.89.24,4.2,0,8.37-.16,11.53-.31"/>
          <path class="cls-17" d="M118.35,189.21c-.03-1.24-.07-2.48-.11-3.68-4.85.32-11.55.28-19.36-.14.01,1.14.03,2.38.05,3.69,3.19.17,7.51.33,11.87.33,2.58,0,5.17-.06,7.55-.21"/>
          <path class="cls-17" d="M118.48,196.29c-.02-1.19-.03-2.43-.06-3.68-4.84.33-11.57.3-19.43-.12.02,1.23.04,2.47.06,3.7,3.18.16,7.44.33,11.75.33,2.63,0,5.26-.06,7.67-.22"/>
          <rect class="cls-5" x="75.09" y="149.4" width="12.67" height="3.07" transform="translate(-76.92 85.07) rotate(-39.07)"/>
          <rect class="cls-5" x="111.84" y="144.6" width="3.07" height="12.67" transform="translate(-75.26 143.73) rotate(-50.9)"/>
          <path class="cls-10" d="M151.92,115.12c-5.5,0-12.73,4.19-15.91,12.19-.97,2.44-1.87,5.15-2.82,8.01-3.57-8.8-8.57-17.21-15.76-22.95-.12-.47-.34-.95-.71-1.38-.08-.09-.18-.19-.29-.29,6.8-2.04,12.08-4.91,16.34-7.57.56-.35,2.06-1.29,1.72-2.48-.2-.68-.91-1.04-1.69-1.24.03-.02.06-.04.07-.05.29-.2.55-.39.78-.57.45-.35.74-.61.74-.61.66-.57,1.3-1.15,1.89-1.9.07-.1.15-.2.22-.31.04-.06.07-.11.11-.18.05-.09.1-.19.13-.28.17-.39.12-.82-.09-1.18-.19-.36-.62-.64-.88-.74-.29-.12-.56-.16-.82-.19,0,0-.46-.06-1.06-.01-.01,0-.03,0-.04,0,.69-1.05,1.25-2.14,1.76-3.26,1.16-2.6,1.97-5.32,2.55-8.08.58-2.76.93-5.56,1.05-8.37.13-2.81.03-5.64-.32-8.43-.18-1.43-.42-2.86-.73-4.27.35-.86.58-1.59.63-1.75.18-.51.33-1,.46-1.42.25-.84.39-1.42.39-1.42.66-2.6,1.12-5.24,1.47-7.89.35-2.65.57-5.31.71-7.97.13-2.66.17-5.33.1-7.99-.08-2.67-.24-5.34-.65-8-.22-1.34-.46-2.67-.97-4.02-.13-.34-.29-.68-.51-1.02-.11-.17-.26-.37-.41-.5-.14-.15-.29-.28-.45-.4-.64-.49-1.38-.78-2.1-.93-1.46-.31-2.88-.19-4.24.03-1.36.23-2.67.59-3.96,1.02-2.56.86-5.01,1.98-7.38,3.23-2.37,1.26-4.65,2.66-6.84,4.21,0,0-.49.34-1.19.87-.35.27-.75.58-1.17.93-.17.14-1.23.95-2.16,1.89-4.1-1.12-8.47-1.77-12.99-1.85-5.28,0-9.9.58-13.95,1.59-.87-.83-1.76-1.52-1.91-1.64-.41-.35-.82-.66-1.16-.93-.7-.53-1.19-.87-1.19-.87-2.19-1.55-4.47-2.95-6.84-4.21-2.37-1.25-4.81-2.37-7.38-3.24-1.28-.43-2.59-.79-3.96-1.02-1.36-.22-2.77-.34-4.23-.03-.73.15-1.47.44-2.11.93-.16.12-.31.25-.45.4-.14.13-.3.34-.4.5-.22.35-.38.69-.51,1.02-.51,1.35-.76,2.68-.97,4.02-.4,2.67-.57,5.34-.65,8-.07,2.67-.03,5.33.1,7.99.13,2.66.36,5.32.71,7.97.35,2.65.81,5.29,1.47,7.89,0,0,.14.58.39,1.43.13.42.28.91.46,1.42.05.15.28.89.63,1.75-.31,1.41-.55,2.83-.73,4.26-.35,2.8-.44,5.62-.32,8.43.12,2.81.47,5.62,1.05,8.38.59,2.76,1.39,5.48,2.55,8.08.5,1.12,1.07,2.21,1.76,3.26-.01,0-.03,0-.04,0-.6-.05-1.06.01-1.06.01-.26.03-.52.08-.82.19-.27.1-.7.38-.88.74-.22.35-.27.79-.1,1.18.04.1.09.19.13.28.04.07.07.12.11.18.07.11.15.21.22.31.59.75,1.23,1.33,1.89,1.9,0,0,.29.26.74.6.23.17.49.37.77.57.02,0,.04.03.07.05-.78.2-1.5.56-1.7,1.24-.34,1.2,1.15,2.13,1.72,2.48,5.05,3.16,10.92,6.44,19.11,8.44-.17.14-.33.29-.47.47-.58.77-.73,1.78-.42,2.84.02.09.07.16.12.24-11.77,10.66-18.2,31.62-21.4,42.04-.64,2.08-1.14,3.73-1.5,4.63-.25.63-.37,1.6.42,2.69.19.25.41.5.67.73,0,0-.01.02-.01.03-.29.51-.54,1.02-.74,1.45-.39.88-.58,1.51-.58,1.51-.93,2.78-1.23,5.77-.81,8.69.21,1.46.61,2.9,1.27,4.25.65,1.35,1.58,2.61,2.78,3.57.59.47,1.23.9,1.95,1.22.72.32,1.56.56,2.49.42.25-.04.5-.11.73-.22.48.09,1.04.15,1.71.15.15,0,.32,0,.48,0,1.62-.05,2.3-.81,2.59-1.44.15-.32.22-.68.23-1.05.31-.18.58-.41.8-.71.56-.77.79-1.39.72-1.99,1.21-1.77.54-2.79-1.33-4.61.08-.38.16-.77.24-1.15.27-1.4.58-2.77.79-4.24,0,0,.08-.49.13-1.26.29.02.52.03.68.02.48-.03.86-.3,1.57-1.87-.34,5.61-.59,11.65-.35,13.74.07.6.42,1.26,2.88,1.85-.16,4.53-.18,9.87-.19,14.32,0,2.56,0,4.89-.04,6.56-1.34.38-2.39,1.17-3.01,2.34-.29.54-.63,1.04-.98,1.53-.2.11-.41.22-.61.35-1.81,1.21-2.63,2.29-3.29,3.16-.37.49-.66.87-1.05,1.16-.69.5-1.38.98-2.05,1.45-.34.23-.67.46-1,.69-1.13.79-1.87,2.17-2.28,3.19h0c-.97,2.39-1.41,5.91-.21,8.43.64,1.33,1.68,2.25,3.01,2.65,3.07.92,6.54,1.39,10.31,1.39h0c6.39,0,13.07-1.41,17.01-3.6,1.54-.86,2.65-1.35,3.45-1.71,2.36-1.05,2.54-1.34,2.78-4.43.03-.35.05-.74.07-1.13.24-4.36.1-10.22-1.03-13.61-.01-.03-.04-.06-.06-.09-.12-2.99-.08-8.39-.04-13.62.02-2.79.04-5.5.03-7.73.11,0,.22-.02.32-.02.39-.04.66-.23.84-.73.15.72.4.89.87.91.1,0,.31.01.62.02.02,2.2.07,4.83.12,7.54.1,5.4.2,10.98.1,13.9-1.08,3.41-1.22,9.15-.98,13.44.02.39.04.78.07,1.13.24,3.1.42,3.39,2.78,4.44.8.36,1.91.85,3.45,1.71,3.94,2.19,10.61,3.6,17.01,3.61,3.78,0,7.25-.47,10.32-1.39,1.33-.4,2.38-1.32,3.01-2.64,1.2-2.52.76-6.04-.21-8.43h0c-.42-1.02-1.15-2.4-2.28-3.2-.32-.23-.66-.46-1-.69-.67-.46-1.36-.94-2.06-1.45h0c-.39-.29-.68-.68-1.05-1.16-.66-.87-1.48-1.95-3.31-3.18-.19-.12-.39-.23-.59-.33-.35-.49-.69-.99-.98-1.53-.65-1.2-1.73-2.01-3.13-2.37-.06-1.68-.09-4.12-.13-6.8-.06-4.07-.12-8.88-.3-13.13,1.85-.45,2.32-1.05,2.41-1.66.33-1.52.38-6.32.28-11.45,1.06-.58,2.06-1.22,3.01-1.91.14.11.39.19.74.25-.04.71-.03,1.17-.03,1.17,0,1.48.13,2.88.2,4.31.02.34.04.69.07,1.04-2.3,1.68-3.16,2.59-2.02,4.72.01.02.03.03.03.05-.05.52.1,1.1.49,1.82.19.35.45.64.77.87-.04.37-.02.74.08,1.08.2.66.77,1.51,2.36,1.78.71.12,1.31.18,1.85.18.14,0,.25-.02.38-.02.21.12.44.2.66.27.91.23,1.75.09,2.51-.12.76-.23,1.44-.54,2.1-.92,1.34-.77,2.45-1.87,3.3-3.12.85-1.24,1.46-2.63,1.86-4.05.81-2.85.88-5.86.31-8.74,0,0-.11-.64-.39-1.57-.11-.34-.24-.73-.4-1.12,1.31-.9,1.44-1.88,1.31-2.57-.81-4.03-1.81-9.04-3.21-14.44,1.06-2.81,1.96-5.59,2.79-8.18.92-2.85,1.78-5.55,2.72-7.83,1.58-3.86,4.48-5.29,7.3-6.67,3.31-1.63,6.73-3.31,6.18-9.07-.2-2.15-2.17-3.48-5.14-3.48M150.2,126.29c-2.92,1.44-6.24,3.07-8.04,7.46-.96,2.34-1.83,5.06-2.76,7.95-.63,1.97-1.29,4.02-2.02,6.08-.93-3.34-2.01-6.79-3.31-10.22.08-.25.16-.49.24-.74,1.06-3.22,2.06-6.26,3.12-8.95,2.89-7.29,9.61-11.22,14.48-11.22.8,0,3.43.15,3.61,2.09.45,4.7-1.98,5.89-5.33,7.54M139.39,165.88c-2.36,2.05-11.81,2.72-13.35,2.38-.58-.91-2.05-5.7-3.2-9.52.1-.31.14-.63.12-.96,0-.03,0-.06-.02-.09-.45-2.14-.85-8-1.24-13.67-.88-12.8-1.22-15.51-2.02-16.12-.04-.03-.08-.04-.12-.06-.04-.57-.16-2.35-.44-3.8-.08-.43-.17-.78-.27-1.09-.11-.29-.2-.48-.29-.64-.18-.3-.34-.39-.47-.36-.14.03-.25.17-.3.52-.02.17-.03.41-.02.68,0,.26,0,.61.02,1.04.02.54.06,1.12.1,1.67-.25-.47-.49-1.01-.72-1.65-.98-2.76-1.51-6.98.07-10.02,14.86,12.55,19.82,37.36,22.53,50.9.02.1.08.38-.39.79M134.51,184.59c-.56.32-1.17.6-1.76.77-.59.17-1.19.24-1.66.11-.46-.13-.75-.41-.87-.86-.09-.32-.07-.69.04-1.07.17-.03.33-.07.49-.14.5-.21.87-.58,1.13-.94.48-.68.7-1.38.87-2.07l.51-.48c.28-.27.58-.58.87-.96.29-.38.58-.83.69-1.4.13-.61-.08-1.18-.31-1.47-.21-.26-.36-.39-.5-.51-.28-.22-.46-.24-.58-.17-.12.07-.18.25-.11.59.03.16.12.41.2.64.05.2.06.36-.03.59-.07.2-.23.44-.43.68,0-.32.01-.65,0-.99.02-.3-.01-2.42-.38-4.05-.38-1.73-.74-2.12-1.01-2.09-.3.04-.46.57-.34,2.27.11,1.6.23,3.59.21,3.87,0,.55-.03,1.07-.08,1.51-.07.88-.21,1.44-.21,1.44-.14.63-.34,1.25-.65,1.67-.15.21-.32.35-.48.42-.16.06-.32.08-.56.02-.48-.1-.79-.38-1.05-.89-.25-.51-.42-1.16-.53-1.82-.23-1.33-.32-2.74-.41-4.15-.07-1.41-.19-2.85-.2-4.21,0,0,0-.41.03-1.04.13,0,.25,0,.38,0,3.09,0,7.98-.65,10.82-1.8.1.29.19.58.26.84.25.85.35,1.44.35,1.44.52,2.64.45,5.42-.28,7.99-.72,2.56-2.2,4.96-4.43,6.24M126.93,184.34c-.12-.41.04-1.08.53-1.95.13.17.28.34.46.5.22.19.48.34.75.46-.12.53-.13,1.11.02,1.68,0,.03.02.06.03.09-.21-.02-.43-.06-.67-.09-.64-.11-1.02-.34-1.12-.68M125.9,181.98c-.37-.7-.43-.96.65-1.84.04.18.08.36.13.54-.3.43-.57.86-.79,1.3M126.26,178.37c-.43.32-.81.62-1.12.91.07-.3.39-.63,1.09-1.18.01.09.02.18.03.27M120.31,182.52c-.17.19-1.58,1.22-11.96,1.21-4.14,0-8.03-.16-9.69-.23-.05,0-.1,0-.15,0-.1-.82-.17-2.61-.22-3.88-.17-4.49-.2-5.18-1.16-5.18-.05,0-.1,0-.14.01-.83.15-.85.8-.98,4.39-.05,1.41-.14,3.68-.32,4.49-.66.04-1.66.07-2.88.07-8.88,0-18.06-.94-19.1-1.95-.25-2.58.19-11.1.63-17.33.08.03.15.07.23.1.17.05.22.06.33.09.19.05.37.09.56.12.37.07.73.13,1.09.18,2.86.39,5.68.57,8.52.75,2.83.17,5.67.28,8.5.37,2.83.08,5.67.12,8.51.12,2.84,0,5.68-.04,8.52-.18,1.42-.07,2.85-.15,4.27-.29,1.43-.14,2.85-.3,4.31-.67.37-.1.74-.21,1.12-.38,0,0,.01,0,.02,0,.31,6.7.46,15.83-.01,18.2M118.17,197.65c.04,2.62.07,4.9.12,6.56-.09,0-.16-.01-.25-.01-3.12,0-6.77,1.71-9.31,4.33-2.17-1.92-4.9-3.09-7.3-3.09-.39,0-.75.03-1.09.09.05-3.12-.04-8.12-.13-12.98-.05-2.68-.09-5.28-.11-7.45,2,.07,5.06.17,8.28.17,4.5,0,7.51-.18,9.52-.48.17,4.17.23,8.87.29,12.86M126.24,212.28c-4.28-.69-8.01.72-13.07,5.05-.26.22-.59.33-.97.33-.96,0-1.98-.66-2.46-1.58.21.19.43.37.69.53.33.21.69.31,1.07.31,1.44,0,2.64-1.49,3.02-2.89.41-1.48-.02-2.78-1.17-3.46-.15-.09-.3-.16-.45-.21,1.74-1.2,3.74-1.88,5.76-1.88,1.75,0,3.45.5,5.03,1.46,1.29.86,2,1.63,2.54,2.33M110.17,213.17c.23-.8,1.02-1.46,1.76-1.46.23,0,.44.06.64.18.71.43.6,1.27.48,1.74-.28,1.01-1.05,1.76-1.54,1.76-.09,0-.17-.02-.26-.08-.92-.58-1.3-1.34-1.07-2.14M118.67,206.95c-3.23,0-6.44,1.49-8.79,4.02-.32.26-.59.59-.81.95-1.63,2.13-1.15,3.92-.72,4.8.72,1.46,2.3,2.47,3.85,2.47.76,0,1.44-.24,1.98-.7,4.01-3.44,6.94-4.84,10.09-4.84,1.21,0,2.46.22,3.81.66.68.5,1.36.96,1.99,1.4.34.23.67.46.99.68.39.27.77.71,1.11,1.27-.31-.02-.61-.03-.93-.03-4.98,0-10.18,2.75-13.65,7.2-.11,0-.21,0-.31,0h0c-5,0-8.67-1.74-11.9-3.28-2.05-.98-4-1.9-6.09-2.33-.17-3.84-.04-9,.88-12.09.37-.11.79-.16,1.25-.16,1.75,0,4.45.84,6.8,3.19.15.15.36.23.57.22.21,0,.41-.1.55-.26,2.24-2.58,5.81-4.39,8.69-4.39,1.13,0,2.61.3,3.44,1.6-.92-.25-1.86-.38-2.81-.38M133.04,226.1c-.45.94-1.15,1.56-2.07,1.84-2.93.88-6.25,1.32-9.87,1.32-6.15,0-12.53-1.34-16.26-3.41-1.61-.89-2.74-1.4-3.57-1.77q-1.68-.75-1.87-3.15s0-.07,0-.1c1.77.43,3.51,1.25,5.34,2.12,3.38,1.61,7.21,3.43,12.56,3.43h0c.24,0,.48,0,.72-.01.23,0,.45-.12.59-.31,3.19-4.25,8.04-6.89,12.65-6.89.58,0,1.15.06,1.7.15.85,2.36.9,5.1.1,6.78M95.5,219.22c-2.09.42-4.04,1.35-6.09,2.33-3.3,1.57-7.04,3.34-12.21,3.28-3.47-4.45-8.67-7.21-13.65-7.21-.31,0-.62.01-.93.03.35-.56.73-1,1.12-1.27.32-.22.65-.45.99-.68.64-.44,1.31-.9,1.99-1.4,1.35-.44,2.6-.66,3.81-.66,3.15,0,6.08,1.4,10.09,4.85.53.46,1.22.7,1.98.7,1.55,0,3.14-1.02,3.85-2.47.43-.88.91-2.67-.73-4.81-2.39-3.11-5.98-4.96-9.59-4.97-.95,0-1.89.13-2.81.38.83-1.3,2.31-1.6,3.44-1.6,2.88,0,6.45,1.81,8.69,4.39.14.16.34.26.55.26.21,0,.42-.07.57-.22,2.35-2.35,5.06-3.19,6.8-3.19.46,0,.89.06,1.25.16.91,3.09,1.05,8.25.87,12.09M93.53,224.07c-.83.37-1.97.88-3.57,1.77-3.73,2.07-10.11,3.41-16.26,3.41h0c-3.62,0-6.95-.45-9.87-1.32-.92-.28-1.62-.89-2.07-1.84-.81-1.69-.75-4.42.1-6.78.55-.09,1.11-.15,1.69-.15,4.61,0,9.46,2.64,12.65,6.9.14.19.36.3.59.31.24,0,.48.01.72.01,5.35,0,9.18-1.82,12.56-3.43,1.83-.87,3.56-1.69,5.34-2.12,0,.03,0,.07,0,.11q-.19,2.4-1.87,3.15M68.55,212.27c.55-.69,1.25-1.46,2.52-2.31,1.61-.98,3.31-1.48,5.06-1.48,2.15,0,4.29.76,6.1,2.12-.28.06-.54.17-.79.32-1.14.69-1.58,1.98-1.17,3.46.39,1.4,1.58,2.89,3.02,2.89.37,0,.71-.1,1.04-.29-.5.42-1.13.68-1.73.68-.39,0-.72-.11-.98-.33-4.26-3.65-7.58-5.21-11.09-5.21-.65,0-1.3.05-1.97.16M84.61,213.51c.23.8-.15,1.56-1.07,2.14-.09.06-.17.08-.26.08-.5,0-1.26-.75-1.54-1.76-.13-.46-.24-1.31.48-1.73.2-.12.41-.18.64-.18.74,0,1.53.65,1.76,1.46M94.34,192.58c-.03,4.83-.06,9.81.02,12.93-.31-.05-.64-.08-.99-.08-2.4,0-5.14,1.17-7.3,3.09-2.55-2.61-6.19-4.33-9.31-4.33-.13,0-.24.02-.37.02.03-1.64.03-3.83.04-6.32,0-4.36.02-9.57.17-14.02,1.01.17,2.25.33,3.79.48,4.34.42,9.41.58,12.42.58.57,0,1.09,0,1.55-.01,0,2.21-.01,4.89-.03,7.66M67.29,184.19c-.15.33-.55.5-1.21.52-.15,0-.3,0-.43,0-.1,0-.19,0-.28,0,0-.02.02-.04.03-.07.22-.54.29-1.1.24-1.64.27-.08.54-.19.77-.34.23-.15.43-.32.6-.51.38.95.45,1.65.27,2.04M68,180.53c.06-.13.11-.26.16-.39.9.96.86,1.24.46,1.81-.16-.47-.38-.95-.62-1.42M68.69,178.43s.02-.09.03-.13c.35.37.57.65.68.87-.21-.23-.45-.48-.71-.74M67.84,175.02c-.28,1.38-.57,2.77-.98,4.05-.2.64-.45,1.25-.77,1.73-.33.47-.68.71-1.16.74-.24.02-.4-.02-.55-.11-.15-.09-.29-.25-.41-.48-.24-.46-.37-1.1-.42-1.74,0,0-.05-.57,0-1.46.01-.44.06-.96.12-1.51.02-.28.41-2.23.74-3.8.35-1.67.25-2.22-.03-2.29-.28-.08-.69.26-1.29,1.93-.59,1.56-.9,3.66-.93,3.95-.05.34-.09.67-.12.98-.16-.27-.29-.53-.34-.73-.05-.24-.03-.4.05-.59.11-.21.24-.44.29-.6.12-.33.09-.51-.03-.6-.11-.09-.29-.09-.59.09-.16.1-.32.2-.57.43-.27.25-.56.79-.52,1.41.03.57.26,1.06.48,1.47.24.42.49.77.73,1.08.17.21.31.39.45.56.07.7.2,1.43.58,2.16.21.4.53.8.99,1.09.15.09.32.16.49.21.05.37.02.74-.11,1.04-.18.43-.51.69-.98.77-.47.08-1.05-.05-1.6-.31-.56-.25-1.1-.61-1.61-1.01-2-1.6-3.1-4.2-3.48-6.83-.38-2.65-.1-5.41.74-7.96,0,0,.18-.57.53-1.38.15-.36.34-.77.55-1.19,2.92,1.83,7.72,3.03,10.64,3.5-.05.75-.13,1.25-.13,1.25-.19,1.34-.51,2.75-.77,4.14M57.43,163.58c-.41-.56-.34-.94-.23-1.21.37-.96.89-2.63,1.54-4.75,3.14-10.26,9.46-30.84,20.83-41.24.57,2.75.04,5.91-.75,8.16-.44,1.23-.94,2.15-1.39,2.75.07-.75.15-1.67.19-2.48.02-.42.03-.77.04-1.04,0-.27,0-.51-.02-.68-.04-.35-.15-.49-.29-.52-.14-.03-.29.06-.48.36-.09.15-.19.35-.3.63-.11.3-.19.65-.28,1.08-.32,1.62-.45,3.66-.48,3.95l-.67,1.02c-.5,1.87-.41,5.95-1.3,15.14-.52,5.34-1.01,10.38-1.44,12.4,0,.03,0,.06-.01.1-.07.77.23,1.49.81,2.11-.09.97-.19,2.17-.29,3.52-.91,2.52-1.8,4.81-2.25,5.46-2.2-.05-11.27-2.09-13.22-4.75M78.56,109.76c-7.36-1.98-12.75-5.01-17.43-7.93-.59-.37-.85-.63-.97-.76.33-.16,1.14-.34,2.11-.34.07,0,.13-.01.2-.03.19.07.37.12.53.14.19.02.32.02.44,0,.23-.04.34-.14.39-.27.05-.13.04-.28-.11-.46-.07-.09-.18-.19-.31-.29-.11-.1-.26-.21-.46-.35l-1.85-1.3-.7-.57-.69-.57c-.61-.53-1.22-1.1-1.67-1.67-.05-.07-.11-.14-.15-.21l-.05-.09.07-.04c.1-.04.25-.07.41-.09,0,0,.29-.04.79-.01.25,0,.55.03.87.07.13.01.93.19,1.74.32.01,0,.03.01.04.01.11.02.23.04.34.05.04,0,.08.01.12.02,1.01.13,1.36-.04,1.43-.31,0,0,0,0,0,0,.25-.12.48-.25.68-.42.98-.8,1.47-1.86,1.83-2.88l.12-.39c.06-.21.13-.47.19-.7.12-.48.21-.97.11-1.26-.07-.11-.1-.23-.19-.33-.05-.06-.12-.12-.2-.17l-.11-.06c-.06-.03-.14-.05-.28-.07-.14,0-.35,0-.64.22-.21.19-.39.32-.58.39-.02.01-.04.02-.08.03h-.01s-.02,0-.03,0c-.02,0-.03,0-.05,0-.06,0-.11-.01-.18-.05-.15-.08-.35-.29-.52-.55-.31-.48-.56-1.1-.76-1.72-.21-.62-.37-1.28-.52-1.94-.3-1.32-.52-2.67-.7-4.03-.18-1.36-.36-2.73-.42-4.07-.06-1.35-.03-2.7.11-4.05.26-2.69.91-5.34,1.89-7.86.99-2.52,2.32-4.9,3.95-7.06,1.63-2.15,3.57-4.08,5.75-5.66,1.78-1.3,3.73-2.36,5.79-3.16l-.61,1.08-.85,1.47c-.79,1.33-1.61,2.65-2.47,3.92-.44.63-.88,1.26-1.35,1.85-.27.32-.34.46-1.01,1.11-.16.14-.33.27-.55.42-.12.07-.17.14-.22.21l-.08.11s-.03.06-.04.09c-.11.25-.08.36-.07.43,0,.04.01.11.07.25.05.11.1.17.16.24.12.13.31.24.6.3.29.06.66.06,1.04.05.19,0,.38-.02.58-.03l.45-.04c.8-.08,1.59-.19,2.37-.31,1.57-.25,3.12-.57,4.65-.95,0,0,.68-.16,1.68-.45.5-.15,1.07-.32,1.68-.53.05-.02.16-.05.32-.1l-.51.58-2.78,3.17c-.46.53-.92,1.07-1.36,1.62l-.25.32c-.07-.04-.11-.07-.11-.07-1.22-.72-2.54-1.33-4.01-1.61,0,0-.32-.07-.81-.11-.25-.02-.53-.02-.83,0-.14,0-1.27,0-2.05.4-.42.2-.63.4-.74.56-.11.17-.11.31-.05.44.05.13.15.24.34.29.2.05.47.04.84-.01.7-.11,1.56-.2,1.68-.2.24.01.47.02.67.05.4.04.66.1.66.1,1.2.23,2.37.75,3.47,1.41l-.07.1c-.09.15-.19.29-.26.44-.15.29-.22.58-.17.8,0,.06.02.12.04.18l.02.05s.03.03.04.04l.05.09c.05.12.15.19.25.26.21.14.54.21.87.24.17.02.34.02.52.02h.2s.14,0,.14,0c.56-.02,1.11-.07,1.65-.14.38.13.6.07.73-.09,0,0,0,0,0,0,1.35-.19,2.68-.46,3.99-.78,2.73-.69,5.41-1.62,7.95-2.89l-.2.23c-.96,1.1-1.94,2.19-2.9,3.33-.24.29-.48.58-.71.88-.07.09-.35.46-.53.75-.18.3-.32.61-.33.86-.01.13,0,.24.04.36.01.06.04.12.09.18l.03.04s.01.03.02.05l.06.07c.16.16.38.29.71.32.32.04.69.01,1.05-.02l.37-.04.29-.04c3.02-.51,5.83-1.56,8.52-2.86,2.69-1.31,5.22-2.94,7.53-4.84,2.31-1.9,4.38-4.09,6.16-6.49,0,0,.4-.53.95-1.34.27-.41.57-.89.88-1.41.11-.18.71-1.13,1.26-2.23.53.33,1.05.67,1.55,1.04,2.18,1.58,4.12,3.51,5.75,5.66,1.63,2.15,2.96,4.54,3.95,7.06.99,2.52,1.63,5.17,1.89,7.86.13,1.34.17,2.7.11,4.05-.06,1.34-.24,2.7-.42,4.07-.19,1.36-.41,2.71-.71,4.03-.15.66-.32,1.31-.53,1.94-.2.62-.45,1.23-.76,1.72-.15.24-.33.44-.48.53-.15.08-.2.09-.36.05-.15-.04-.38-.19-.59-.38l-.02-.02-.06-.05s-.08-.05-.13-.08c-.14-.09-.45-.12-.62-.06-.4.15-.47.34-.57.5-.18.41-.05.69-.06.72l.11.54c.17.71.38,1.43.71,2.13.33.69.77,1.39,1.45,1.93.2.16.43.3.68.42,0,0,0,0,0,0,.07.27.42.44,1.43.31.03,0,.07-.01.1-.02.12,0,.24-.02.36-.05.02,0,.03-.01.05-.02.81-.13,1.6-.31,1.73-.32.32-.03.61-.06.87-.07.5-.02.79.01.79.01.16.02.31.05.41.09l.08.04h0s-.05.09-.05.09c-.04.07-.09.14-.15.21-.45.57-1.06,1.14-1.67,1.67l-.69.57-.71.57-1.84,1.3c-.19.14-.35.26-.46.35-.13.1-.24.2-.31.29-.14.18-.16.33-.11.46.05.13.16.23.39.27.12.02.25.02.44,0,.16-.02.34-.08.53-.14.06.02.13.03.19.03.97,0,1.79.18,2.12.34-.11.14-.38.39-.97.76-4.29,2.68-9.65,5.58-16.61,7.59-5.27,1.52-11.46,2.52-18.8,2.52-7.15,0-13.01-.85-17.98-2.18M71.28,37.21c-2.4,1.5-4.64,3.27-6.63,5.29-.69.71-1.34,1.45-1.97,2.22-1.46-4.9-2.62-13.35-1.34-15.52.19-.32.33-.32.4-.32.02,0,.05,0,.07,0,3.74.5,8.27,4.17,10.83,7.53h-.02c-.81.46-1.34.8-1.34.8M57.49,57.45c.83-2.59,1.94-5.09,3.32-7.43,1.38-2.34,3.04-4.51,4.94-6.44,1.9-1.93,4.04-3.63,6.35-5.06,0,0,.51-.32,1.28-.77.39-.22.83-.48,1.32-.74.24-.14,2.02-.97,3.44-1.65,1.5-.73,1.87-1.12,1.76-1.39-.1-.25-.61-.37-2.26.14-1.55.48-3.36,1.43-3.61,1.57-2.46-3.31-7.32-7.71-12.01-8.33-.09-.01-.19-.02-.27-.02-.5,0-1.2.18-1.72,1.07-1.73,2.93-.17,12.8,1.52,17.75-.73.99-1.42,2.01-2.05,3.07-1.44,2.44-2.59,5.05-3.46,7.74-.15.46-.28.93-.41,1.4-.11-.35-.21-.69-.29-.99l-.37-1.38c-.64-2.53-1.09-5.11-1.43-7.71-.34-2.6-.56-5.22-.7-7.84-.13-2.62-.17-5.25-.1-7.88.08-2.62.24-5.25.63-7.81.2-1.27.45-2.56.88-3.69.11-.28.23-.54.37-.75.08-.11.12-.18.22-.27.09-.1.19-.18.29-.26.41-.31.93-.53,1.5-.65,1.14-.24,2.41-.16,3.65.05,1.25.21,2.5.55,3.72.96,2.45.83,4.84,1.92,7.14,3.14,2.31,1.23,4.54,2.6,6.68,4.1l1.16.84,1.15.87c.21.16,1.64,1.38,2.76,2.34,1.18,1.03,1.67,1.23,1.87,1.03.17-.17.15-.59-.61-1.58,3.74-.87,7.96-1.37,12.75-1.36,4.13.07,8.13.63,11.89,1.6-.59.82-.6,1.19-.44,1.35.21.2.7,0,1.87-1.03,1.12-.97,2.55-2.18,2.76-2.34l1.16-.86,1.16-.84c2.13-1.5,4.37-2.87,6.67-4.1,2.31-1.22,4.69-2.31,7.14-3.13,1.23-.41,2.47-.75,3.72-.96,1.24-.2,2.52-.29,3.66-.05.57.12,1.08.34,1.5.65.1.08.2.16.29.26.1.09.14.15.22.27.14.21.26.47.37.75.43,1.13.68,2.42.88,3.69.39,2.56.55,5.19.63,7.81.07,2.62.03,5.25-.1,7.87-.13,2.62-.36,5.24-.7,7.84-.34,2.6-.8,5.18-1.44,7.71l-.37,1.38c-.08.3-.18.64-.29,1-.13-.47-.26-.94-.41-1.4-.87-2.69-2.01-5.3-3.46-7.74-.62-1.06-1.32-2.08-2.05-3.08,1.69-4.95,3.25-14.82,1.53-17.75-.52-.89-1.22-1.07-1.72-1.07-.09,0-.18,0-.27.02-4.69.62-9.55,5.02-12.01,8.33-.26-.14-2.07-1.09-3.61-1.57-1.65-.51-2.16-.4-2.26-.15-.11.26.26.66,1.76,1.39,1.41.68,3.2,1.51,3.44,1.65.48.26.93.51,1.32.74.77.45,1.28.77,1.28.77,2.31,1.43,4.45,3.13,6.35,5.07,1.9,1.94,3.56,4.1,4.93,6.44,1.38,2.34,2.48,4.84,3.32,7.43.83,2.59,1.41,5.27,1.74,7.98.33,2.71.43,5.45.31,8.18-.12,2.73-.46,5.45-1.02,8.12-.57,2.67-1.35,5.3-2.45,7.77-.55,1.23-1.19,2.43-1.94,3.5-.3.41-.76.72-1.22.81-.47.09-.92-.04-1.33-.36-.68-.55-1.13-1.5-1.43-2.52.48.11,1.08,0,1.46-.27.44-.29.71-.64.93-.98.44-.69.7-1.38.93-2.07.23-.69.41-1.39.56-2.08.31-1.39.54-2.77.73-4.16.18-1.38.37-2.77.43-4.21.06-1.42.03-2.85-.11-4.27-.28-2.83-.95-5.62-1.99-8.27-1.04-2.65-2.44-5.15-4.15-7.42-1.72-2.27-3.76-4.3-6.07-5.98-.59-.43-1.19-.83-1.82-1.21,0-.02.02-.04.02-.06.65-1.71.57-2.25.32-2.36-.26-.12-.69.25-1.53,1.79-.8,1.45-1.81,3.26-1.97,3.5-.31.49-.61.94-.88,1.33-.53.77-.91,1.28-.91,1.28-1.71,2.3-3.69,4.4-5.91,6.22-2.21,1.83-4.64,3.39-7.22,4.65-2.57,1.24-5.32,2.25-8.08,2.72l-.43.06.1-.14c.21-.28.44-.55.67-.83.92-1.11,1.9-2.2,2.87-3.3l1.06-1.22c.31-.37.67-.8,1.04-1.26.18-.24,1.63-1.82,2.45-3.42.21-.43.36-.82.42-1.19.04-.33.04-.54.03-.73-.03-.36-.13-.52-.26-.55-.14-.03-.3.05-.5.35-.1.14-.21.38-.32.62-.11.2-.28.48-.52.82-.35.5-.77,1.06-1.16,1.56-.59.46-1.07.8-1.19.88-.46.29-.9.56-1.29.78-.77.44-1.32.71-1.31.71-2.43,1.23-5.05,2.15-7.71,2.81-1.33.33-2.68.6-4.04.79-.67.09-1.35.16-2.01.18h-.19s.34-.45.34-.45l.64-.8c.44-.53.89-1.06,1.34-1.59l2.76-3.15,1.02-1.15,1.01-1.19c.18-.22,1.57-1.7,2.49-3.05.5-.72.74-1.25.83-1.57.1-.34.05-.51-.06-.59-.11-.08-.29-.07-.58.13-.29.21-.66.58-1.24,1.19-.71.76-1.51,1.69-2.04,2.3-1.32.51-2.62.96-2.85,1.03-.59.18-1.15.34-1.64.47l-1.64.43c-1.5.37-3.01.68-4.53.92-.76.12-1.52.23-2.27.3l-.14.02c.05-.06.36-.42.55-.66.51-.63.97-1.28,1.42-1.94.9-1.31,1.73-2.65,2.53-4.01,0,0,.36-.6.86-1.5.25-.46.53-.98.82-1.54.15-.28,1.28-2.27,1.89-4,.34-.93.43-1.57.44-1.94.01-.39-.08-.55-.21-.6-.13-.05-.3.03-.53.34-.24.32-.5.85-.93,1.67l-1.15,2.24-.15.04c-2.72.88-5.29,2.2-7.6,3.87-2.31,1.68-4.35,3.71-6.07,5.97-1.72,2.27-3.12,4.78-4.15,7.42-1.04,2.65-1.72,5.44-1.99,8.27-.14,1.42-.18,2.84-.11,4.27.06,1.44.25,2.82.43,4.21.19,1.39.41,2.78.73,4.16.16.69.34,1.38.56,2.08.23.69.49,1.39.93,2.07.25.37.55.77,1.08,1.07.26.14.59.24.92.23.08,0,.16,0,.24-.02.04,0,.08-.01.12-.02h.04s-.11.34-.11.34c-.29.87-.73,1.69-1.32,2.16-.41.32-.87.45-1.33.36-.46-.08-.92-.39-1.22-.81-.74-1.07-1.39-2.27-1.93-3.5-1.1-2.47-1.88-5.1-2.45-7.77-.56-2.67-.9-5.39-1.02-8.12-.12-2.73-.02-5.47.31-8.18.33-2.71.91-5.39,1.74-7.98M127.99,89.73s0-.03,0,0M128.46,42.51c-1.99-2.02-4.23-3.8-6.63-5.29,0,0-.53-.34-1.34-.79,0,0-.01,0-.02,0,2.56-3.35,7.09-7.02,10.84-7.52.02,0,.05,0,.07,0,.07,0,.21,0,.39.32,1.28,2.18.13,10.62-1.34,15.52-.63-.76-1.28-1.51-1.97-2.22M126.91,90.17h0s0,0,0,0h0ZM115.73,124.72c.38,1.09,1.42,3.61,2.97,4.4.53,1.34,1.07,9.21,1.47,15,.4,5.94.79,11.55,1.26,13.83.04.99-1.65,2.01-3.8,2.28-2.79.35-8.68,1.01-11.01,1.01-1.43,0-2.43-.12-2.98-.72-.47-.51-.66-1.43-.55-2.75.3-3.89.64-32.25.31-34.87-.12-.93.28-1.78.85-2.59.24.07.49.11.76.11.17,0,.34-.02.52-.04,1.19-.2,3.97-1.81,7.77-4.06.67-.4,1.33-.79,1.91-1.13-.94,3.17-.42,6.85.53,9.55M110.53,164.14c-2.81.13-5.63.17-8.45.17-2.82,0-5.64-.04-8.47-.13-2.82-.08-5.64-.2-8.45-.36-2.81-.17-5.64-.36-8.39-.74-.34-.05-.68-.1-1.01-.17-.16-.03-.33-.06-.48-.1l-.18-.05v-.3s.02-1.04.02-1.04c0-.27.02-.54.03-.81.69.28,1.49.49,2.36.59l1.27.16c2.65.34,6.65.86,8.78.86,2.63,0,4.82-.38,5.07-5.03.11-2.17.31-6.97.53-12.53.36-8.95.81-20.09,1-21.61.17-1.34-.33-2.49-.99-3.48.26-.23.49-.51.65-.82.14-.28.23-.58.28-.89,1.38.14,2.77.22,4.16.22,1.49,0,2.94-.08,4.36-.24-.02.48.07.93.27,1.32.03.06.07.12.11.19-.74,1.05-1.32,2.27-1.14,3.71.31,2.46-.03,30.88-.32,34.56-.14,1.79.18,3.07.96,3.91,1.04,1.12,2.66,1.21,4.11,1.21,2.4,0,8.37-.67,11.2-1.02.81-.1,1.55-.28,2.2-.53v.66s0,.51,0,.51l-.02.36s0,0-.02.01c-.06.05-.18.11-.3.17-.26.12-.57.21-.88.3-1.29.33-2.68.49-4.07.63-1.39.13-2.79.22-4.2.29M77.33,129.43c1.52-.78,2.55-3.29,2.93-4.38.84-2.37,1.39-5.69.85-8.69.22.1.44.21.68.32,4.02,1.89,7.44,3.46,8.73,3.68.17.03.35.04.53.04.26,0,.51-.04.76-.1.56.81.95,1.65.84,2.58-.2,1.58-.63,12.29-1.01,21.73-.22,5.56-.42,10.36-.53,12.52-.18,3.42-1.28,3.57-3.53,3.57-2.04,0-5.98-.51-8.59-.85l-1.27-.16c-2.15-.27-3.84-1.29-3.81-2.28.45-2.14.94-7.18,1.46-12.52.58-5.99,1.38-14.14,1.97-15.47M93.42,115.46c-.55-.77-1.63-1.51-3.22-2.22,2,.15,4.11.23,6.34.23,3.71,0,7.13-.25,10.3-.69-1.61,1.03-2.88,2.08-3.31,2.68-.19.26-.34.53-.47.79-1.55.2-3.16.3-4.8.3h0c-1.47,0-2.93-.09-4.38-.25-.12-.29-.27-.57-.47-.85M116,112.97c-.71.36-1.86,1.04-3.49,2.01-2.48,1.47-6.24,3.7-7.24,3.87-.09.01-.18.02-.26.02-.25,0-.57-.07-.74-.39-.2-.39-.17-1.15.53-2.12.76-1.06,5.51-4.32,8.79-4.84.21-.03.41-.05.59-.05.61,0,1.09.18,1.4.54.25.28.38.64.42.96M121.65,160.34s.04-.04.06-.05c.02.05.03.1.05.15-.03.04-.06.08-.09.11,0-.07-.01-.14-.02-.21M82.44,112.44c7.22,1.67,9.19,3.17,9.73,3.92.45.63.55,1.21.3,1.71-.28.55-1,.89-1.69.78-1.18-.2-5.65-2.3-8.33-3.56-1.06-.5-1.94-.91-2.5-1.16-.07-.46.02-.85.25-1.15.41-.54,1.29-.76,2.25-.54M121.79,162.74c.17-.18.34-.37.5-.55.93,3.02,1.56,4.9,2.03,6.01-.72.53-1.47,1.02-2.26,1.48-.06-2.42-.15-4.84-.26-6.94"/>
          <path class="cls-10" d="M112.24,66.56c.65-.38,1.36-.96,1.47-1.03l.6-.38.59-.37c1.08-.64,2.21-1.16,3.38-1.36,0,0,.26-.05.64-.08.19-.02.41-.03.64-.03.12,0,.95.11,1.63.22.37.05.63.06.82,0,.19-.05.29-.16.34-.29.05-.13.05-.28-.05-.44-.1-.16-.3-.36-.7-.55-.75-.39-1.83-.43-1.98-.43-.29-.02-.57-.02-.81-.01-.48.02-.79.09-.79.09-1.44.25-2.73.86-3.91,1.56,0,0-.26.15-.63.41-.18.13-.39.28-.61.44-.11.08-.94.61-1.46,1.2-.56.62-.54.96-.37,1.17.18.22.52.27,1.21-.13"/>
          <path class="cls-10" d="M86.68,84.82c0-.76-.1-1.49-.25-2.19-.07-.39-.16-.77-.26-1.1-.2-.66-.44-1.15-.5-1.27-.21-.48-.45-.92-.67-1.28-.45-.73-.84-1.16-.84-1.16-1.67-2.01-3.94-3.42-6.38-4.19-2.44-.76-5.15-.92-7.67-.01,0,0-.56.18-1.33.63-.16.09-.33.21-.5.33-.03,0-.06-.03-.09-.03h-.08s-.04,0-.12-.02c-.12-.02-.31-.07-.55-.17-.24-.09-.51-.24-.79-.42-.07-.05-.34-.26-.65-.58-.31-.32-.66-.74-.96-1.15-.61-.87-.93-1.14-1.2-1.02-.13.05-.23.18-.25.43-.02.25.03.67.29,1.25.24.55.64,1.12,1.04,1.53.39.41.76.67.85.74.35.27.72.48,1.05.63.02.01.04.01.06.02-.1.11-.2.23-.3.36-.44.57-.85,1.35-1.05,2.09-.11.39-.15.72-.17.98-.01.26,0,.45.02.6.05.3.16.43.29.46.14.03.29-.04.47-.29.19-.26.36-.7.64-1.3.27-.58.62-1.19.98-1.64.35-.45.68-.75.77-.83.33-.28.67-.51.99-.68.62-.35,1.09-.5,1.09-.51,2.01-.74,4.33-.64,6.45-.02-3.28.72-6.94,3.63-6.95,9.15,0,4.7,4.29,8.98,9.01,8.98,3.62,0,7.52-2.61,7.53-8.34M80.26,78.18c1.47,0,2.44,1.44,2.44,3.23,0,1.78-.98,3.23-2.44,3.23-1.47,0-2.44-1.44-2.45-3.23,0-1.79.97-3.22,2.45-3.23"/>
          <path class="cls-10" d="M113.94,93.16c4.72,0,9.01-4.28,9.01-8.98,0-5.53-3.67-8.44-6.94-9.15,2.12-.62,4.44-.71,6.45.02,0,0,.47.16,1.09.51.31.17.65.4.99.68.08.07.41.37.76.83.36.45.71,1.06.98,1.64.29.61.46,1.05.64,1.31.18.25.34.32.47.29.14-.03.25-.16.3-.46.02-.15.04-.35.02-.6-.02-.27-.06-.59-.17-.98-.2-.74-.61-1.52-1.05-2.09-.1-.13-.2-.25-.3-.36.02,0,.04-.01.06-.02.34-.16.71-.37,1.05-.64.09-.06.46-.32.85-.73.4-.41.8-.98,1.05-1.53.26-.59.31-1.01.29-1.26-.03-.25-.12-.38-.25-.43-.28-.12-.6.15-1.2,1.02-.3.4-.65.83-.96,1.15-.31.32-.58.53-.65.58-.28.19-.55.34-.78.43-.23.1-.43.15-.55.17-.07,0-.07,0-.12.01h-.08s-.06.02-.09.03c-.17-.12-.34-.24-.5-.33-.76-.45-1.33-.62-1.33-.63-2.51-.91-5.22-.74-7.67.01-2.45.77-4.71,2.18-6.38,4.19,0,0-.38.43-.83,1.16-.23.37-.47.8-.67,1.28-.05.12-.29.61-.5,1.27-.11.33-.2.71-.26,1.09-.16.7-.25,1.43-.25,2.2,0,5.73,3.9,8.34,7.52,8.34M117.24,84.64c-1.47,0-2.44-1.44-2.44-3.23s.97-3.23,2.44-3.23c1.47,0,2.44,1.44,2.45,3.23,0,1.78-.97,3.23-2.45,3.23"/>
          <path class="cls-10" d="M90.61,107.42c1.67,2.56,4.11,4.03,6.7,4.03h0c2.51,0,4.82-1.37,6.5-3.87h0c1.54-2.29,2.47-5.35,2.77-9.09.02-.21-.05-.42-.2-.58-.15-.16-.35-.25-.56-.25h-.4c-1.69,0-4.77.04-7.88.09v-3.57s-.02,0-.02,0c.88-.2,1.7-.68,2.03-1.47.27-.64.22-1.29-.13-1.81-.5-.75-1.59-1.2-2.91-1.2-1.24,0-2.29.41-2.78,1.09-.34.47-.42,1.06-.22,1.65.33,1.01,1.27,1.67,2.49,1.82v3.51c-2.84.05-5.51.11-6.94.15-.42.01-.75.35-.75.76,0,3.41.79,6.43,2.29,8.73M97.31,109.91c-1.89,0-3.72-1.03-5.07-2.85,1.18-1.2,2.81-1.85,4.64-1.85,1.92,0,3.81.73,5.28,2.03-1.34,1.73-3.04,2.67-4.85,2.67h0ZM103.01,105.94c-1.72-1.45-3.91-2.27-6.13-2.27-2.09,0-4.03.75-5.47,2.06-.92-1.75-1.45-3.9-1.54-6.3,3.6-.09,11.56-.23,15.1-.25-.3,2.67-.97,4.97-1.97,6.75M94.99,91.69c.16-.23.74-.46,1.53-.46.84,0,1.47.26,1.63.51.03.04.08.13-.01.37-.13.31-.81.64-1.61.64-.62,0-1.35-.21-1.55-.8-.06-.17-.01-.23.01-.27"/>
        </g>
      </g>
    </g>
  </g>
  <g id="list-type">
    <g>
      <g>
        <path class="cls-11" d="M61.78,189.68c-5.68,0-8.85-1.9-9.45-5.65-2.22.89-5.35,2.01-7.04,2.01-3.78,0-6.74-3.26-6.74-7.42,0-2.77,1.14-4.75,3.41-5.92v-3.72c-1.83-1.18-2.97-3.32-2.97-5.91,0-4.56,3.27-6.94,6.5-6.94h5.87c1.09-.86,2.47-1.36,4.03-1.36h12.29c3.78,0,6.53,2.92,6.53,6.95,0,2-.68,3.73-1.83,4.96.49.92.85,2.12.85,3.65,0,1.73-.62,7.58-1.02,10.09-1.03,6.58-4.05,9.26-10.41,9.26h0Z"/>
        <path class="cls-11" d="M77.89,189.91c-1.28,0-2.48-.33-3.5-.91-.55.12-1.08.16-1.57.16h0c-4.08,0-7.15-3.06-7.15-7.11,0-1.77.6-2.96,1.28-4.13.73-1.33,1.1-2.86,1.1-7.37v-3.5c0-5.19,2.82-8.05,7.94-8.05h.94c.74-2.91,3.38-4.89,6.8-4.89,1.4,0,2.69.35,3.76.97h5.21c3.42,0,6.03,2.6,6.24,6.12,1.18,1.29,1.81,3.12,1.81,5.38v2.42c0,1.42-.43,2.72-1.18,3.77-.03.8-.19,1.56-.44,2.27,1.36,1.31,2,3.11,2,4.85,0,2.1-.79,5.09-2.55,7.03-2.18,2.32-5.07,2.58-7.05,2.58h-3.11c-2.21,0-3.89-.57-5.13-1.46-1.7,1.19-3.6,1.87-5.39,1.87Z"/>
        <path class="cls-11" d="M109.71,189.79c-2.48,0-4.06-1-4.99-1.94-.87-.83-1.96-2.38-1.96-4.95v-6.35s-2.48,0-2.48,0c-2.36,0-3.91-.96-4.79-1.77-.91-.81-2.06-2.4-2.06-5.09,0-2.76,1.18-4.34,2.23-5.21.88-.74,2.37-1.57,4.62-1.57h2.38v-1.75c0-1.78.71-3.48,2-4.79.04-.04.08-.08.11-.11,1.23-1.17,2.86-1.76,4.84-1.76,2.27,0,3.75.83,4.65,1.66.31.26.59.55.84.86h6.1c2.6,0,4.14,1.09,5,2.09,1.05,1.18,1.58,2.72,1.58,4.58,0,.64-.06,1.24-.18,1.79.83,1.11,1.25,2.53,1.25,4.23s-.48,3.19-1.42,4.36c-.46.58-1,1.06-1.6,1.45.75,1.01,1.2,2.2,1.31,3.47.01.14.02.29.02.43,0,1.92-.63,3.3-1.28,4.2-1.23,1.95-3.32,3.09-5.68,3.09-1.37,0-2.71-.4-3.99-1.2-.38,1.02-.94,1.77-1.48,2.3-.81.83-2.41,1.99-5.02,1.99h0Z"/>
        <path class="cls-11" d="M127.46,189.61c-3.89,0-7.18-3.4-7.18-7.42,0-3.16,1.73-4.62,3.08-5.66-.51-.35-.97-.78-1.36-1.28-.66-.85-1.46-2.32-1.45-4.5,0-2.33.93-4.29,2.44-5.52-.61-.87-1.13-2.04-1.13-3.59,0-3.85,3.5-7.36,7.34-7.36,1.36,0,2.43.37,3.37.94.77-.34,1.64-.52,2.57-.52h12.13c3.87,0,6.91,2.87,6.91,6.53,0,.88-.19,1.79-.55,2.66.77,1.19,1.18,2.7,1.18,4.48v8.75c0,.29-.01.63-.05,1,.81,1.15,1.27,2.61,1.27,4.27,0,2.89-1.65,6.42-6.31,6.89-.06,0-.16.02-.22.02-1.59.1-3.04.15-4.57.15-5.65,0-9.65-.3-12.74-1.64-1.37,1.06-2.92,1.8-4.73,1.8Z"/>
      </g>
      <path class="cls-16" d="M155.79,171.82c.02-.27.02-.51.02-.7v-8.75c0-1.77-.37-3.31-1.07-4.57.29-.84.45-1.71.45-2.56,0-4.15-3.55-7.53-7.91-7.53h-12.13c-.88,0-1.72.15-2.49.43-.97-.51-2.09-.85-3.45-.85-2.41,0-4.66,1.16-6.21,2.92-.55-.11-1.14-.19-1.8-.19h-5.64c-.2-.21-.41-.42-.63-.61-1.05-.95-2.74-1.91-5.31-1.91-2.8,0-4.56,1.11-5.53,2.04-.05.04-.09.09-.14.13-1.48,1.5-2.29,3.45-2.29,5.49v.75h-1c-.22-.4-.47-.77-.75-1.11-.38-3.89-3.35-6.72-7.21-6.72h-4.94c-1.17-.63-2.55-.97-4.03-.97-3.55,0-6.42,1.97-7.53,4.89h-.21c-.55,0-1.06.04-1.57.1-1.21-2.61-3.71-4.32-6.74-4.32h-12.29c-1.63,0-3.12.5-4.32,1.36h-5.57c-4.34,0-7.5,3.34-7.5,7.94,0,2.75,1.13,5.04,2.97,6.44v2.58c-2.26,1.36-3.41,3.54-3.41,6.53,0,4.72,3.4,8.42,7.74,8.42,1.6,0,4.19-.84,6.33-1.65,1.37,4.3,6.09,5.29,10.16,5.29h0c2.84,0,5.08-.53,6.82-1.63,1.21.7,2.64,1.1,4.21,1.11h0c.4,0,.87-.03,1.39-.12,1.1.56,2.34.87,3.67.87,1.83,0,3.73-.61,5.46-1.69,1.5.86,3.28,1.27,5.06,1.27h3.11c2.17,0,5.33-.29,7.72-2.83.02-.03.05-.05.07-.08,1.22-1.35,2.02-3.15,2.44-4.87v.18c0,2.95,1.28,4.74,2.3,5.7.97.95,2.78,2.18,5.65,2.19h0c2.3,0,4.34-.83,5.78-2.34.37-.38.79-.89,1.17-1.56,1.14.54,2.33.81,3.54.81.37,0,.72-.03,1.08-.08,1.51,1.81,3.74,2.98,6.18,2.98,1.87,0,3.47-.67,4.88-1.66,3.46,1.35,7.63,1.5,12.59,1.5,1.55,0,3.02-.05,4.63-.15.07,0,.19-.02.26-.02,4.98-.5,7.21-4.32,7.21-7.88,0-1.75-.45-3.31-1.25-4.57Z"/>
      <g>
        <path class="cls-5" d="M51.02,158.99v9.72c.63-.36,1.09-.53,1.55-.53,1.06,0,1.88,1,1.88,2.3,0,.86-.41,1.33-1.72,1.94-2.7,1.25-6.62,2.61-7.44,2.61-.98,0-1.74-1.08-1.74-2.42s.33-1.58,2.15-1.94c.19-.03.6-.14,1.25-.33v-11.36s-1.47,0-1.47,0c-.98,0-1.5-.69-1.5-1.92,0-1.25.52-1.94,1.5-1.94h6.6c.98,0,1.53.7,1.53,1.95,0,1.22-.54,1.92-1.53,1.92h-1.06ZM61.59,157.66c-.16.67-1.09,3.92-1.09,4.08,0,.22.16.31.52.31h4.69c1.74,0,2.51.7,2.51,2.28,0,1.33-.57,6.92-.96,9.3-.65,4.17-1.61,5.05-5.48,5.05-3.6,0-4.55-.42-4.55-2.03,0-1.42.65-2.28,1.74-2.28.44,0,2.4.25,2.81.25.71,0,.98-.17,1.14-.78.54-1.86.98-6.69.98-7.55,0-.44-.05-.47-.63-.47h-4.8c-.95,0-1.44-.14-1.85-.53-.41-.39-.63-.92-.63-1.44,0-.36.06-.72.16-1.06.46-1.67,1.04-3.53,1.39-5.14h-2.18c-.98,0-1.53-.69-1.53-1.94,0-1.25.54-1.94,1.53-1.94h12.29c.98,0,1.53.7,1.53,1.95,0,1.25-.55,1.94-1.53,1.94h-6.08Z"/>
        <path class="cls-5" d="M78.87,165.63c-.46,0-1.31,0-1.31-1.47,0-1.03.46-1.53,1.5-1.56.98-.03,1.8-.03,2.56-.05v-.97h-4.28c-.27,0-.33.06-.33.33,0,5.03,0,10.72-1.88,14.44-.65,1.28-1.34,1.81-2.32,1.81-1.31,0-2.15-.83-2.15-2.11,0-.5.11-.78.63-1.67,1.31-2.36,1.74-4.75,1.75-9.83v-3.5c0-2.42.63-3.05,2.94-3.05h5.72s0-3.28,0-3.28c0-1.03.74-1.61,2.02-1.61.93,0,1.63.39,1.83.97h7.14c.79,0,1.25.58,1.25,1.58,0,1.03-.44,1.61-1.25,1.61h-7s0,.72,0,.72h7.52c1.96,0,2.53.58,2.53,2.58v2.42c0,1-.71,1.58-1.94,1.58-1.23,0-1.91-.56-1.93-1.58v-1.08c0-.28-.05-.33-.33-.33h-6.08s0,.86,0,.86c.68,0,3.71-.11,4.33-.11.9,0,1.31.47,1.31,1.47,0,1-.52,1.5-1.64,1.53-3.11.08-3.73.11-4.01.11v.44c0,.44.05.47.9.47h3.16c1.09,0,1.2-.05,1.69-.97.25-.5.49-.61,1.06-.61,1.25,0,2.29.75,2.29,1.67,0,1.78-1.74,3.06-4.17,3.05h-5.34c-3.27,0-3.46-1.03-3.43-2.28v-1.67c-1.96.05-2.34.05-2.7.08h-.05ZM83.72,171.72c0,4.47-3.87,7.19-5.83,7.19-1.17,0-2.04-.89-2.04-2.14,0-1.14.41-1.33,1.96-2.05,1.17-.56,1.8-1.56,1.96-3.17.14-1.39.6-1.83,1.91-1.83,1.47,0,2.04.58,2.04,2ZM89.34,174.19c0,.53.08.61.54.61h1.04c.76,0,1.01-.31,1.12-1.36.11-.97.57-1.33,1.77-1.33,1.53,0,2.32.61,2.32,1.78,0,1.25-.57,2.92-1.25,3.67-.63.67-1.61.94-3.35.94h-3.11c-2.15,0-3.02-.75-3.02-2.53v-4.53c0-1.03.71-1.61,1.96-1.61s1.99.58,1.99,1.61v2.75Z"/>
        <path class="cls-5" d="M109.61,153.5c.64,0,1.09.14,1.34.41.39.29.59.71.59,1.26v.85h9.66c.62,0,1.04.13,1.23.38.23.24.35.67.35,1.29,0,.58-.09,1-.27,1.26-.25.31-.69.46-1.31.46h-9.66s0,2.51,0,2.51h10.52c.66,0,1.14.14,1.42.41.25.22.38.67.38,1.37,0,.57-.11.98-.32,1.23-.32.42-.81.63-1.48.63h-10.57c.11.27.16.63.16,1.07v1.48c.04-.05.06-.09.08-.11.3-.33.74-.49,1.31-.49.54,0,1.14.18,1.82.55,2.61,1.39,4.72,2.67,6.33,3.86.59.4.91.9.96,1.5,0,.6-.14,1.07-.43,1.39-.32.6-.83.9-1.53.9-.45,0-.92-.16-1.42-.49-2.09-1.6-4.3-3.11-6.62-4.51-.23-.11-.4-.21-.51-.3v6.51c0,.64-.15,1.09-.46,1.37-.3.35-.79.52-1.47.52-.7,0-1.2-.17-1.5-.52-.3-.24-.46-.69-.46-1.37v-10.28c0-.47.08-.83.24-1.07h-7.73c-.61,0-1.08-.16-1.42-.47-.29-.25-.43-.72-.43-1.39,0-.69.14-1.15.43-1.37.3-.27.78-.41,1.42-.41h7.38s0-6.75,0-6.75c0-.47.19-.9.56-1.29.27-.25.73-.38,1.39-.38Z"/>
        <path class="cls-5" d="M137.9,172.22c0,.92-.65,1.47-1.72,1.47-.22,0-.44-.03-.76-.08,2.02.81,3.52.97,8.23.97,1.53,0,2.7-.03,3.51-.08.9-.06,1.64-.08,2.07-.08,1.25,0,1.8.61,1.8,1.97,0,1.78-1.31,1.86-1.85,1.92-1.31.08-2.67.14-4.25.14-8.26,0-11.17-.67-13.33-3.11-1.58,1.86-3.03,3.28-4.14,3.28s-2.18-1.17-2.18-2.42c0-.78.11-.92,1.31-1.83.9-.72,1.88-1.69,2.51-2.5v-4.58c0-.47-.14-.61-.57-.61h-1.47c-.95,0-1.5-.69-1.5-1.92,0-1.22.54-1.92,1.5-1.92h3.49c1.93,0,2.53.61,2.53,2.58v6.22c.43.64,1.01,1.22,1.5,1.5-.16-.19-.3-.58-.3-.92v-10.05c0-1.69.68-2.31,2.51-2.3h1.94c-1.53-.86-1.69-.97-1.69-1.5,0-.58.33-1.19.87-1.53h-2.75c-.76,0-1.23-.58-1.23-1.56,0-1.03.44-1.58,1.23-1.58h12.13c1.06,0,1.91.67,1.91,1.53,0,.5-.3,1.14-.74,1.64-.74.83-2.37,2.17-3.62,3h2.37c2.02,0,2.62.58,2.62,2.5v8.75c0,2.86-1.5,2.86-3.05,2.86-1.96,0-2.59-.42-2.59-1.7,0-1.03.6-1.5.95-1.5.11,0,.65.06.76.06.14,0,.25-.14.25-.39v-.94h-2.34v2.44c0,.92-.63,1.44-1.8,1.44-1.12,0-1.77-.53-1.77-1.44v-2.44h-2.32v2.72ZM131.69,154.89c1.44,1.31,2.04,2.17,2.04,2.97,0,1.03-1.25,2.33-2.26,2.33-.63,0-.95-.19-1.58-.97-.44-.56-1.01-1.14-1.99-2.03-.65-.61-1.04-.92-1.04-1.55,0-1.11,1.25-2.36,2.34-2.36.6,0,.98.25,2.48,1.61ZM137.9,167.17h2.32v-1.08h-2.32v1.08ZM138.47,162.75c-.57,0-.57.11-.57,1.06h2.32v-1.05h-1.74ZM139.54,156.84c.65.36,1.31.89,1.99,1.33.74-.44,1.2-.86,1.83-1.33h-3.82ZM146.13,166.09h-2.34v1.08h2.34v-1.08ZM146.13,163.81c0-.94,0-1.06-.57-1.06h-1.77v1.06h2.34Z"/>
      </g>
    </g>
  </g>
</svg>