<?xml version="1.0" encoding="UTF-8"?>
<svg xmlns="http://www.w3.org/2000/svg" xmlns:xlink="http://www.w3.org/1999/xlink" viewBox="0 0 195 195">
  <defs>
    <style>
      .cls-1 {
        fill: none;
      }

      .cls-2 {
        fill: #595753;
      }

      .cls-3 {
        fill: #55b779;
      }

      .cls-4 {
        fill: #00469b;
      }

      .cls-5 {
        fill: #009fe8;
      }

      .cls-6 {
        fill: #ed848c;
      }

      .cls-7 {
        fill: #fff000;
      }

      .cls-8 {
        opacity: .3;
      }

      .cls-8, .cls-9, .cls-10 {
        fill: #fff;
      }

      .cls-11 {
        fill: #ef8200;
      }

      .cls-12 {
        fill: #f2a8c8;
      }

      .cls-13 {
        clip-path: url(#clippath-1);
      }

      .cls-14 {
        clip-path: url(#clippath-2);
      }

      .cls-15 {
        fill: #a42f8b;
      }

      .cls-10 {
        font-family: HeiseiMaruGoStd-W8-83pv-RKSJ-H, 'Heisei Maru Gothic Std';
        font-size: 27.11px;
      }

      .cls-16 {
        fill: #e63556;
      }

      .cls-17 {
        fill: #4aaf64;
      }

      .cls-18 {
        fill: #e50012;
      }

      .cls-19 {
        fill: #75cc92;
      }

      .cls-20 {
        clip-path: url(#clippath);
      }
    </style>
    <clipPath id="clippath">
      <path class="cls-1" d="M19.98-124.67c0,21.91,2.42,44.41,16.78,58.77,14.36,14.36,36.86,16.79,58.77,16.8,21.91,0,44.41-2.42,58.77-16.78,14.36-14.36,16.79-36.86,16.8-58.77,0-21.91-2.42-44.41-16.78-58.77-14.36-14.36-36.86-16.79-58.77-16.8-21.91,0-44.41,2.42-58.77,16.78-14.36,14.36-16.79,36.86-16.8,58.77Z"/>
    </clipPath>
    <clipPath id="clippath-1">
      <path class="cls-1" d="M20.69,85.28c0,21.91,2.42,44.41,16.78,58.77,14.36,14.36,36.86,16.79,58.77,16.8s44.41-2.42,58.77-16.78c14.36-14.36,16.79-36.86,16.8-58.77,0-21.91-2.42-44.41-16.78-58.77s-36.86-16.79-58.77-16.8c-21.91,0-44.41,2.42-58.77,16.78-14.36,14.36-16.79,36.86-16.8,58.77Z"/>
    </clipPath>
    <clipPath id="clippath-2">
      <path class="cls-1" d="M12.32,85.36c0,21.91,2.71,44.41,18.76,58.77,16.05,14.36,41.21,16.79,65.7,16.8,24.49,0,49.65-2.42,65.7-16.78s18.77-36.86,18.77-58.77c0-21.91-2.71-44.41-18.76-58.77-16.05-14.36-41.21-16.79-65.7-16.8-24.49,0-49.65,2.42-65.7,16.78-16.05,14.36-18.77,36.86-18.77,58.77Z"/>
    </clipPath>
  </defs>
  <g id="list-pic">
    <g class="cls-20">
      <g>
        <g>
          <g>
            <g>
              <path class="cls-9" d="M73.33-28.59s-4.25,19.01-6.34,22.69c-2.58,4.53-7.18,13.83-2.24,18.9,5.11,5.25,19.81,4.73,21.59-2.47,1.56-6.31.98-12.3,1.34-15.04.36-2.74,5.28-20.12,5.28-20.12,0,0-14.57-3.86-19.62-3.98Z"/>
              <path class="cls-1" d="M73.33-28.59s-4.25,19.01-6.34,22.69c-2.58,4.53-7.18,13.83-2.24,18.9,5.11,5.25,19.81,4.73,21.59-2.47,1.56-6.31.98-12.3,1.34-15.04.36-2.74,5.28-20.12,5.28-20.12,0,0-14.57-3.86-19.62-3.98Z"/>
            </g>
            <g>
              <path class="cls-15" d="M87.52-2.67l-.2,1.84c-.45.39-.43-1.49-6.28-2.84-5.95-1.37-10.62-.06-11.55-.27-.93-.21-2.4-2.86-1.81-3.94,0,0-2.19,3.84-3.62,6.14-2.3,3.72-4.21,7.93-4.36,11.79-.12,2.93-.64,7.57,7.11,9.95,7.74,2.38,18.04,1.37,20.36-2.74,1.35-2.38.49-7.27.89-10.82.4-3.54.08-11-.54-9.11Z"/>
              <path class="cls-9" d="M64.36,14.88s4.52-3.72,12.81-2.33c8.29,1.39,8.17,4.31,8.99,4.37.82.07,1.44-1.54,1.77-2.92,0,0,.71,4.42-1.38,6.21-1.25,1.06-6,2.67-14.48,1.69-5.46-.63-10.82-3.58-11.98-6.89-.41-1.17-.55-2.36-.53-3.13.04-1.4.1-2.62.17-2.34,1.2,4.73,4.64,5.34,4.64,5.34Z"/>
              <path class="cls-15" d="M66.66-.17c1.36-.86,6.63-1.74,10.98-1.18,4.93.63,8.99,2.32,9.93,3.81.94,1.49.89,6.05.75,6.6-.14.55-.43,1.29-1.81-.14-1.64-1.7-4.83-3.35-10.09-3.95-5.25-.6-11.53,1.12-12.53,1.45-1,.32,1.39-5.7,2.77-6.58Z"/>
              <path class="cls-12" d="M85.45,5.55c.8,1.29,1.86,1.86,2.79,1.29.93-.57,1.03-2.2.3-3.53-.84-1.54-2.27-1.72-3.2-1.15-.93.57-.69,2.11.11,3.4Z"/>
              <path class="cls-12" d="M68.09,3.43c-1.38.83-2.68.81-3.3-.23-.62-1.04,0-2.65,1.38-3.48,1.38-.83,3.01-.56,3.63.49.62,1.04-.33,2.4-1.71,3.23Z"/>
            </g>
          </g>
          <g>
            <g>
              <path class="cls-9" d="M120.41-30.33s-.57,24.06-.43,28.33c.14,4.26,7.5,9.16,9.76,11.61,2.26,2.45,4.38,7.73-4.32,8.31-8.71.58-21.38-4.15-23.69-5.5-2.31-1.35-1.45-13.37-1.3-15.55.14-2.18.27-22.8.27-22.8,0,0,6.93-6.91,19.71-4.4Z"/>
              <path class="cls-1" d="M120.41-30.33s-.57,24.06-.43,28.33c.14,4.26,7.5,9.16,9.76,11.61,2.26,2.45,4.38,7.73-4.32,8.31-8.71.58-21.38-4.15-23.69-5.5-2.31-1.35-1.45-13.37-1.3-15.55.14-2.18.27-22.8.27-22.8,0,0,6.93-6.91,19.71-4.4Z"/>
            </g>
            <g>
              <path class="cls-15" d="M127.19,4.51c-1.44-1.51-2.28-2.44-2.93-3.21-1.38-1.63-1.88-3.77-4.61-3.85-2.73-.08-6.03.99-8.35,2.7-1.63,1.2-1.85,1.92-2.93,1.03-1.08-.89-4.04-2.56-6.45-2.54-2.4.02-2.76,2.14-2.74,3.95.03,1.8-.54,9.61-.16,10.13s7.71,3.81,9.77,4.6c2.06.8,7.07,2.13,12.81,1.72,5.74-.41,12.59-1.34,13.22-3.13.63-1.79-.25-6.08-2.62-7.59-2.37-1.51-4.03-2.8-5.02-3.83Z"/>
              <path class="cls-15" d="M129.05,6.14s-2.84-1.58-5.7-.74c-2.85.84-4.84,1.8-6.88,3.35-2.05,1.55-3.06,3.83-5.33,2.16-2.27-1.67-2.51-3.57-1.89-4.93.62-1.36,4.3-5.4,9.87-5.61,4.7-.17,6.16,1.11,7.47,2.33.95.89,2.82,2.93,2.46,3.44Z"/>
              <path class="cls-9" d="M134.58,11.84c-.33-.54-4.05-1.03-7.12-.11-3.07.92-7.6,4.8-8.61,6.08-1.01,1.28-7.05-.49-10.63-1.8-3.59-1.31-8.59-3.85-9.3-4.35,0,0-.08,3.06.28,3.73.55,1.03,5.53,3.52,9.17,4.83,3.4,1.22,12.74,2.76,18.54,2.29,6.54-.53,7.38-1.96,8.05-4.1.62-1.94.36-5.32-.38-6.57Z"/>
              <path class="cls-12" d="M110.34,5.49c-.63,1.4-.19,2.96.99,3.49,1.18.53,2.64-.17,3.27-1.57s.19-2.96-.99-3.49c-1.18-.53-2.64.17-3.27,1.57Z"/>
            </g>
          </g>
        </g>
        <path d="M157.19-39.17s.03-.04.05-.06c.43-.68.46-1.41.35-2.04-.26-1.29-1.07-2.21-1.9-2.92-.85-.71-1.79-1.22-2.75-1.65-.97-.43-1.93-.73-2.89-1.04-.96-.31-1.94-.57-2.92-.82-.64-.15-1.29-.28-1.94-.4.37-1.15.05-2.3-.26-2.85-.07-.15-7.54-15.16-11.84-22.78-4.94-8.76-10.1-14.43-13.56-17.64.04-.1.07-.2.09-.31.11-.68-.26-1.63-1.08-2.83,4.16-.75,8.23-1.91,12.19-3.49.49-.19,1-.39,1.51-.58,3.37-1.28,6.54-2.48,5.86-4.58-.23-.71-.8-1.08-1.47-1.24.37-.2.78-.41,1.24-.65,2.12-1.09,3.14-2.19,3.02-3.27-.08-.7-.62-1.26-1.46-1.48-.42-.11-.89-.12-1.39-.09.04-.05.09-.1.13-.15,2.95-3.81,4.92-8.26,6.19-12.84,1.26-4.59,1.82-9.35,1.76-14.09-.02-1.44-.11-2.87-.26-4.3.16-.31.32-.63.46-.95l.5-1.21c.35-.8.63-1.63.92-2.45,1.15-3.29,2.03-6.65,2.77-10.04.74-3.39,1.32-6.8,1.75-10.24.43-3.43.71-6.93.65-10.41-.06-1.75-.11-3.54-.75-5.36-.17-.45-.39-.9-.67-1.33-.3-.42-.65-.81-1.08-1.12-.85-.62-1.85-.92-2.79-1.02-1.89-.2-3.65.08-5.38.4-.86.17-1.71.37-2.56.58-.84.22-1.69.47-2.53.72-3.33,1.07-6.54,2.48-9.6,4.13-2.31,1.26-4.6,2.58-6.66,4.22-4.1-1.7-8.57-2.87-13.29-3.35-4.72-.48-9.33-.24-13.69.6-1.69-2.02-3.67-3.77-5.68-5.47-2.67-2.23-5.53-4.26-8.58-5.98-.77-.41-1.55-.83-2.33-1.21-.78-.38-1.58-.74-2.39-1.09-1.63-.67-3.3-1.3-5.19-1.48-.94-.09-1.98,0-2.94.44-.48.22-.91.53-1.28.88-.37.36-.67.76-.93,1.17-.99,1.66-1.4,3.4-1.81,5.1-.77,3.4-1.19,6.88-1.46,10.33-.27,3.46-.38,6.92-.35,10.39.04,3.47.23,6.93.69,10.39.12.86.23,1.73.41,2.58l.24,1.29c.07.34.17.68.26,1.02-.44,1.37-.81,2.76-1.12,4.16-.69,3.13-1.09,6.32-1.18,9.53-.63-.14-1.31-.11-1.99.1-1.32.41-2.5,1.67-3.64,2.88-.82.87-1.95,2.05-2.41,1.99,0,0-.09-.04-.27-.24-.97-1.09-2.32-4.35-3.4-6.97-.78-1.89-1.46-3.52-2-4.46-.9-1.56-2.54-2.46-4.09-2.24-1.34.19-2.36,1.19-2.73,2.67-.35,1.38.53,3.7,1.38,5.95.43,1.13,1,2.65.98,3.11-.22.3-.41.34-.67.26-.47-.39-2.12-2.65-3.12-4.01-.59-.81-1.15-1.57-1.52-2.04-1.48-1.88-3.74-4.18-6.32-2.53-3.18,2.04-.74,6,.06,7.3.55.9,1.14,1.83,1.7,2.72.85,1.35,1.86,2.96,2.3,3.76-.09-.03-.18-.08-.3-.13-.16-.07-.46-.22-.85-.41-3.35-1.64-5.78-2.76-6.72-2.91-1.59-.26-3.14.6-3.69,2.05-.5,1.33-.15,3.31,2.35,4.88.74.47,1.44.9,2.08,1.3,2.33,1.45,4.02,2.49,4.68,3.21.01.01.02.02.03.03-.39.03-.99.03-1.47.02-1.71-.02-3.85-.05-5.31.91-1.19.78-1.76,2.04-1.46,3.2.27,1.05,1.48,2.86,6.52,3.23,2.12.15,3.72.34,5.01.49,1.51.18,2.69.31,3.91.31.52,0,1.06-.03,1.63-.09,4.6,6.15,19.22,25.31,34.19,40.39-.64,5.02-1.42,11.93-1.89,16.18-.49-.29-.95-.61-1.37-.96-2.99-2.47-4.27-6.49-5.73-13.51-1.8-8.66-4.84-14.12-9.87-17.7-1.93-1.38-4.15-2.49-6.77-3.41-.82-.29-1.71-.36-2.56-.2-1.78.33-3.26,1.59-3.85,3.29-.46,1.31-.35,2.77.3,4.01.6,1.13,1.59,1.99,2.79,2.41,3.52,1.23,6.08,2.79,7.95,6.73.85,1.8,1.56,4.06,2.15,6.92.82,3.93,1.8,8.07,3.49,11.68.63,1.34,1.34,2.58,2.12,3.69,2.73,3.87,6.58,6.52,11.73,8.09.13.35.36.66.67.87,0,0,0,0,0,0-.64,2.65-1.59,6.06-2.44,9.14-.52,1.89-1.01,3.66-1.38,5.06-.25.94.3,1.94,1.27,2.34.11.05.24.1.38.15-.98,4.2-3.19,13.44-4.83,18.09-.09.06-.17.14-.23.24-.02.04-2.2,3.85-3.6,6.12-2.59,4.17-4.05,7.94-4.39,11.23-.17.37-.19,1.13-.24,2.75-.03,1.02.19,2.29.57,3.4,1.23,3.51,6.65,6.69,12.59,7.38,1.89.22,3.6.31,5.12.31,5.71,0,8.91-1.31,9.92-2.17,2.26-1.93,1.73-6.22,1.64-6.82.06-1.03.05-2.14.03-3.29,0-.21,0-.43,0-.64.21-.28.3-.61.34-.78.07-.26.12-1.15.09-2.23.79-.95.85-2.61.06-4.06-.07-.12-.14-.23-.21-.34,0-.73-.01-1.43-.03-2.03-.1-2.75-.3-3.68-.62-4.04.02-.35.05-.67.08-.94.12-.95.82-3.73,1.67-6.94,0-.01,0-.03.01-.04,1.07-4.05,2.38-8.75,3.08-11.25,2.12-.1,2.65-.59,2.8-1.04l2.3-6.18.24,4.83c.04.75.58,1.39,1.31,1.55.04,0,.09.02.13.03-.04,5.56-.14,18.57-.25,20.25v.21c-.06.62-.09,1.21-.12,1.79,0,0-.01,0-.02.01-.77.78-1.13,2.02-1.1,3.78,0,.59-.05,1.95-.12,3.38-.15,3.33-.2,5.05-.15,6-.02,1.11,0,3.07.37,3.75.8,1.49,6.73,4.15,9.58,5.17,3.08,1.11,10.68,2.42,16.45,2.42.85,0,1.65-.03,2.4-.09,6.36-.52,7.82-1.84,8.7-4.61.65-2.04.44-5.56-.41-7.09-.51-1.55-1.4-3.03-2.67-3.84-1.06-.67-2-1.32-2.81-1.93-.18-1.05-1.48-2.48-2.7-3.62-.66-.61-1.39-1.29-2.61-1.8-.19-.26-.37-.52-.54-.78-.73-1.11-1.56-2.33-3.24-2.74-.03-3.97.16-13.86.3-20.55,1.89-.6,2.58-1.24,2.7-1.37.13-.13.2-.3.21-.48.13-2.84-.16-9.83-.42-15.85.04-.08.08-.16.1-.24.05-.15.08-.31.09-.46,0-.07,0-.17,0-.21v-.12s-.03-.5-.03-.5l-.03-1.01v-.65c.65-.91.56-2.04.52-2.72-.01-.14-.02-.28-.02-.4,0-.06-.14-2.3-.34-5.45,1.69,3.54,3.17,6.68,4.08,8.62.7,1.49.99,2.1,1.06,2.24l.09.17c.62,1.14,1.03,1.68,1.83,1.76,0,.09,0,.17,0,.26.05,1.08.18,2.15.4,3.21.11.53.26,1.06.42,1.58l.26.75c.07.2.13.43.2.67.26.96.41,2.08,1.14,3.18.36.54.97,1.03,1.64,1.24.67.2,1.29.23,2,.07.7-.17,1.35-.68,1.7-1.24.37-.56.56-1.14.7-1.69.14-.55.22-1.09.3-1.6.04-.25.08-.5.13-.72,0-.02,0-.04.01-.06.09.06.19.13.29.2l1.27.92c.87.61,1.79,1.19,2.79,1.65.99.47,2.08.82,3.19.97,1.11.14,2.28.17,3.49-.34.57-.25,1.2-.77,1.44-1.5.17-.02.33-.04.5-.07.56-.13,1.13-.34,1.66-.74.42-.32.8-.82.96-1.39.51-.09,1.07-.28,1.54-.73.13-.14.26-.3.36-.46.08-.17.18-.35.23-.52.11-.35.13-.69.13-1.01-.03-.3-.05-.6-.16-.96-.06-.16-.13-.32-.21-.46ZM73.53-45.84v.14c-4.58-1.48-8.01-3.9-10.45-7.37-.74-1.05-1.39-2.18-1.99-3.46-1.62-3.47-2.59-7.51-3.38-11.35-.62-2.98-1.36-5.35-2.26-7.25-2.09-4.39-5.03-6.17-8.8-7.49-.85-.3-1.55-.9-1.97-1.7-.47-.89-.54-1.89-.21-2.83.42-1.2,1.46-2.09,2.72-2.32.6-.11,1.23-.06,1.81.14,2.49.87,4.58,1.92,6.4,3.22,4.7,3.35,7.56,8.52,9.27,16.79,1.53,7.36,2.91,11.6,6.24,14.36.64.53,1.36,1,2.14,1.42-.15,1.36-.24,2.2-.24,2.24,0,.12-.03.26-.04.4-.1.86-.27,2.27.87,3.35l-.11,1.73ZM139.04-108.38c.27.07.37.19.37.21,0,0-.03.67-2.22,1.8-2.9,1.49-4.06,2.23-4.11,2.26-.31.2-.43.59-.28.92.15.33.52.51.87.42,1.24-.33,2.86-.38,3.01.07.25.75-3.28,2.09-4.97,2.73-.52.2-1.04.39-1.53.59-9.74,3.88-20.19,5.21-31.07,3.96-10.89-.97-20.86-4.38-29.62-10.14-.44-.29-.91-.59-1.38-.89-1.53-.97-4.72-2.99-4.32-3.68.07-.12.25-.17.51-.17.61,0,1.64.3,2.45.71.33.16.72.07.94-.23.21-.3.18-.71-.09-.96-.04-.04-1.03-1-3.57-3.04-1.92-1.54-1.82-2.2-1.82-2.21,0-.02.13-.11.41-.13.36-.02.9.13,1.48.3,1,.28,2.25.64,3.54.37,2.1-.44,3.51-4.26,3.7-5,.06-.23.18-.69-.2-1.02-.21-.18-.53-.23-.79-.13-.17.07-.29.18-.42.31-.15.14-.43.41-.62.39-.15-.02-.41-.23-.72-.77-.85-1.47-1.6-7.31-.89-13.49.81-7.08,4.18-16.78,15.6-22.75,1.43-.75,2.9-1.33,4.38-1.79-.6.87-1.21,1.74-1.85,2.59-.98,1.3-2.02,2.55-3.11,3.76-.55.6-1.11,1.19-1.68,1.78l-.87.89c-.15.16-.29.3-.47.54-.05.08-.1.11-.19.35,0,.02-.02.08-.03.14,0,.07-.02.09,0,.2,0,.11.04.23.09.32.06.11.15.21.26.28.07.05.04.02.06.04l.03.02.06.03s.07.03.09.04c.2.07.32.08.44.11.93.13,1.74.13,2.59.13.84,0,1.68-.03,2.51-.07.84-.05,1.67-.11,2.5-.2.84-.09,1.69-.21,2.51-.36.96-.17,1.91-.36,2.86-.57-.67.62-1.34,1.23-2.03,1.84-1.27,1.12-2.57,2.21-3.87,3.31-.79-.62-1.66-1.14-2.58-1.59-.96-.41-1.98-.73-3.04-.85-.54-.03-1.07-.07-1.61,0-.53.03-1.1.09-1.49.61,0,.01-.02.02-.03.04-.14.22-.07.52.16.65l.07.04c.29.17.51.21.74.21.22-.03.43-.05.65-.04.43-.04.87.03,1.31.07.86.16,1.72.41,2.54.8.71.32,1.38.72,2.04,1.15-.06.05-.11.1-.17.16-.1.1-.19.19-.31.35-.03.04-.07.09-.11.17-.03.08-.13.17-.12.54,0,.08.04.21.1.33.04.07.07.11.06.09v.02s.06.06.06.06c.04.05.09.11.14.15.38.32.69.41.96.49,1.1.27,2.05.24,3.02.22,1.91-.09,3.76-.37,5.61-.67.91-.16,1.85-.31,2.78-.55.93-.23,1.84-.52,2.74-.87.68-.26,1.34-.57,1.99-.9-1.18,1.29-2.44,2.5-3.73,3.73-.41.39-.81.76-1.23,1.26-.11.13-.22.26-.34.5-.05.14-.18.29-.11.74.02.1.08.23.14.32.03.04.06.08.1.12.07.09.13.13.19.18.25.18.45.25.63.3.19.06.35.09.52.12,1.3.17,2.44-.01,3.59-.22,2.27-.45,4.41-1.22,6.49-2.1,2.08-.9,4.09-1.88,6.04-3.07,1.93-1.2,3.75-2.58,5.42-4.11,1.67-1.53,3.23-3.17,4.64-4.93.63-.8,1.23-1.62,1.78-2.47,0,0,.02.01.03.02,9.98,8.15,11.33,18.33,10.7,25.43-.55,6.2-2.46,11.77-3.59,13.03-.41.46-.71.62-.86.61-.18-.01-.41-.33-.53-.5-.11-.15-.2-.29-.35-.39-.23-.16-.55-.17-.8-.04-.44.25-.41.73-.4.97.04.76.65,4.78,2.62,5.64,1.2.52,2.5.43,3.54.35.6-.04,1.16-.08,1.51,0ZM104.09-87.07c.09.2.2.42.35.64-.56.58-1.06,1.4-1.13,2.5-.14,1.98-.04,36.43.11,37.23.02.1.03.22.04.37.08.92.29,3.37,2.87,3.49.26.01.59.03.96.05,1.29.08,3.2.19,5.42.19,2.66,0,5.75-.17,8.71-.76.23-.05.43-.11.62-.17l.02.66.02.52v.17s0,.02,0,.03c0,.02-.02.03-.03.04,0,0-.01,0-.02.01,0,0,0,0-.02,0l-.12.03c-.31.07-.63.13-.95.19-.65.12-1.31.21-1.97.29-1.32.16-2.66.27-4,.35-5.36.31-10.77.19-16.15-.09-5.39-.28-10.77-.72-16.08-1.56-1.33-.21-2.65-.45-3.95-.73-.65-.14-1.3-.29-1.94-.46-.32-.09-.64-.17-.95-.27l-.46-.14-.23-.08s-.03-.02-.05-.02c-.06-.04-.1-.12-.1-.17l.06-1,.06-.93s.04.02.06.02c5.35,1.91,11.22,2.43,14.05,2.69.37.03.7.06.96.09.13.01.26.02.39.02,2.29,0,2.59-2.26,2.7-3.14.02-.14.03-.27.06-.36.3-1.34,1.92-36.1,1.74-37.57-.09-.71-.38-1.33-.75-1.83.17-.22.32-.47.44-.77.76-1.84-.58-3.37-1.48-3.98-.26-.17-1.41-.96-2.83-2.06,2.58,1.17,5.39,1.99,8.27,2.37,2.17.29,4.36.4,6.48.37-.89.65-1.93,2-1.18,3.75ZM93.46-88.09c-.17.4-.37.65-.62.74-.31.12-.79.02-1.4-.28-3.3-1.63-7.93-4.53-10.15-7.37-.9-1.15-1.71-2.56-2.16-3.76,1.84.77,3.72,1.45,5.63,2.04,2.76,3.02,7.2,6.07,7.75,6.44.15.1,1.43,1.01.94,2.19ZM98.98-92.67c-2.98-.39-5.89-1.28-8.51-2.56,2.76.59,5.59,1.02,8.49,1.28,2.69.31,5.35.46,7.99.46.94,0,1.87-.02,2.79-.06-.63.37-1.26.75-1.87,1.12-2.85.22-5.92.15-8.89-.24ZM106.29-89.72l.68-.41c1.73-1.06,4.47-2.73,6.21-3.64,1.25-.12,2.49-.28,3.73-.47.99,1.3,1.24,2.02,1.26,2.26-.95.54-7.87,3.84-10.6,4.99-1.12.47-1.69.29-2.1-.68-.52-1.2.69-1.97.83-2.06ZM57.19-123.36c.13-.21.25-.41.36-.58.2-.29.62-.85,1.12-1.49.71-.94,1.4-1.85,2.02-2.7.51,3.62,1.5,7.19,3.13,10.5.03.06.06.12.09.17-.48-.12-.95-.21-1.38-.19-.07,0-.14.02-.21.02-1.79-1.91-3.52-3.84-5.12-5.75ZM62.96-145.27c.49-2.25,1.15-4.46,1.97-6.6.84-2.14,1.8-4.22,3.07-6.13.31-.48.6-.98.93-1.45l1.03-1.37.52-.69c.18-.22.38-.43.56-.65l1.14-1.29c1.6-1.63,3.28-3.21,5.14-4.56,1.85-1.36,3.81-2.57,5.85-3.64,2.05-1.04,4.19-1.96,6.37-2.62h.03c.18-.06.3-.25.26-.45-.04-.21-.24-.34-.45-.3-1.77.35-3.46.89-5.11,1.55-1.46-2.08-4.82-6.28-9.92-9.12-.99-.55-1.76-.45-2.23-.27-.71.27-1.28.93-1.59,1.86-.97,2.84-1.65,8.04.29,16.83l-.91,1.03c-.2.23-.4.44-.59.68l-.54.71-1.08,1.43c-.34.49-.65,1-.97,1.5-1.32,1.97-2.33,4.14-3.2,6.34-.15-.79-.26-1.59-.36-2.39-.43-3.37-.6-6.79-.62-10.2-.02-3.42.11-6.84.4-10.24.29-3.41.72-6.77,1.49-10.09.38-1.63.8-3.29,1.58-4.6.4-.65.89-1.15,1.5-1.44.61-.28,1.34-.37,2.11-.3,1.55.13,3.15.7,4.7,1.33.78.32,1.55.67,2.32,1.04.76.37,1.51.76,2.26,1.16,2.95,1.65,5.75,3.6,8.37,5.77,2.63,2.16,5.02,4.59,7.6,6.84h.01c.13.12.32.14.46.04.18-.12.22-.35.11-.53-.17-.25-.34-.49-.52-.73,2.53-.44,5.13-.68,7.8-.68,1.56,0,3.13.08,4.72.24,4.31.44,8.39,1.46,12.17,2.95-.22.2-.44.4-.65.61-.12.12-.15.31-.06.46.1.18.34.25.52.14h.01c2.97-1.7,5.81-3.59,8.82-5.18,3-1.6,6.14-2.94,9.36-3.96.81-.23,1.62-.47,2.44-.68.82-.21,1.65-.39,2.48-.55,1.65-.31,3.33-.54,4.88-.36.77.09,1.47.33,2.01.72.54.4.92,1,1.18,1.71.5,1.44.58,3.15.62,4.83.08,3.4-.17,6.78-.58,10.18-.41,3.39-.97,6.77-1.67,10.11-.71,3.34-1.56,6.65-2.66,9.87-.26.76-.53,1.52-.83,2.26-.41-2.32-.97-4.65-1.86-6.85-.22-.56-.41-1.12-.65-1.67l-.77-1.62-.38-.81c-.14-.27-.29-.52-.44-.78l-.68-1.19c3.68-8.22,4.05-13.45,3.68-16.43-.12-.97-.54-1.73-1.18-2.14-.43-.27-1.16-.53-2.24-.19-5.57,1.75-9.71,5.19-11.55,6.93-1.48-.98-3.04-1.85-4.69-2.55-.18-.07-.39,0-.48.17-.1.18-.03.41.15.51h.02c2,1.1,3.92,2.44,5.71,3.87,1.78,1.46,3.46,3.04,4.99,4.75,1.56,1.69,2.88,3.57,4.12,5.5l.85,1.49c.14.25.29.49.42.75l.37.78.73,1.55c.23.53.41,1.07.62,1.6.86,2.13,1.39,4.36,1.78,6.62.38,2.26.57,4.56.6,6.87.05,4.6-.51,9.23-1.73,13.66-1.23,4.42-3.14,8.68-5.93,12.27-.32.42-.66.82-1.01,1.22-.45-.02-.9-.1-1.31-.28-.66-.29-1.19-1.69-1.49-2.87.08.02.17.03.26.04.68.04,1.36-.32,2.06-1.1,1.47-1.64,3.41-7.61,3.96-13.89.93-10.55-3.06-20.03-11.24-26.71-.06-.05-.12-.1-.19-.15.37-.65.73-1.3,1.04-1.99.07-.16.03-.35-.12-.46-.17-.13-.41-.09-.53.08v.02s-.02,0-.02,0c-.02.03-.04.06-.06.09-2.6,3.48-5.29,6.92-8.51,9.81-1.62,1.46-3.37,2.78-5.21,3.92-1.85,1.11-3.85,2.08-5.85,2.94-2.01.84-4.08,1.57-6.18,1.97-.97.18-1.98.3-2.86.21.25-.25.52-.52.8-.78,2.6-2.41,5.21-5.02,7.22-8.08.92-.85,1.72-1.82,2.18-3.05.05-.13.03-.28-.07-.39-.14-.16-.38-.17-.54-.03l-.04.03c-1.34,1.18-2.55,2.49-3.99,3.53-1.44,1.05-3.02,1.89-4.7,2.51-.84.31-1.69.57-2.56.78-.86.22-1.75.35-2.67.5-1.81.28-3.63.53-5.41.6-.71.03-1.45.03-2.08-.06.16-.15.33-.29.5-.44,1.39-1.2,2.81-2.41,4.19-3.66,1.38-1.24,2.74-2.54,4.05-3.84,1.31-1.29,2.76-2.64,3.47-4.47.05-.13.03-.29-.07-.4-.14-.16-.39-.18-.55-.03h0c-1.29,1.16-2.39,2.39-3.63,3.58-1.8.43-3.6.83-5.4,1.17-.8.15-1.59.26-2.39.35-.81.09-1.62.15-2.43.2-.81.05-1.62.08-2.43.08-.46,0-.93,0-1.38-.02l.43-.44c.58-.6,1.15-1.21,1.71-1.83,1.12-1.24,2.18-2.54,3.18-3.88,2.01-2.67,3.77-5.54,4.99-8.66.01-.03.02-.06.02-.1,0-.03,0-.05,0-.08-.01-.11-.07-.22-.17-.28-.18-.12-.41-.07-.53.11-.79,1.21-1.57,2.41-2.36,3.6-2.13.53-4.28,1.3-6.36,2.38-9.36,4.89-15.18,13.38-16.39,23.9-.72,6.26-.02,12.5,1.09,14.4.53.9,1.11,1.39,1.79,1.49.09.01.18.02.26.02-.52,1.09-1.32,2.36-2.03,2.51-.44.09-.89.08-1.34.01-.26-.46-.51-.92-.75-1.39-1.8-3.65-2.8-7.67-3.21-11.75.39-.62.7-1.16.85-1.57.42-1.14.12-2.44-.78-3.39-.09-.1-.19-.18-.29-.27.05-3.34.44-6.69,1.15-9.96ZM71.93-180.51c.17-.49.43-.84.72-.95.08-.03.16-.05.26-.05.21,0,.45.08.72.23,4.6,2.56,7.77,6.38,9.24,8.42-.08.04-.16.07-.24.1-2.17.98-4.21,2.21-6.15,3.59-1.59,1.09-3.04,2.38-4.41,3.73-1.7-8.32-.85-12.97-.13-15.08ZM139.72-158.55c-1.08-1.6-2.23-3.15-3.57-4.54-1.62-1.74-3.38-3.36-5.3-4.76-.07-.05-.14-.1-.22-.15,1.85-1.7,5.73-4.81,10.75-6.39.43-.14.77-.13,1,.02.26.17.45.56.51,1.07.28,2.21.17,6.93-3.17,14.74ZM35.55-113.43c-1.3-.15-2.92-.34-5.08-.49-3.49-.25-4.97-1.26-5.19-2.12-.17-.65.32-1.24.84-1.58.9-.59,2.35-.67,3.68-.67.27,0,.54,0,.8,0,1.64.02,2.94.04,3.13-1.04.13-.73-.41-1.32-.59-1.51-.8-.86-2.46-1.89-4.99-3.46-.64-.4-1.34-.83-2.08-1.29-1.48-.93-2.13-2.09-1.75-3.1.3-.79,1.17-1.26,2.06-1.12.92.15,4.84,2.06,6.31,2.78.41.2.72.35.88.42.68.32,1.55.62,2.16.19.2-.14.52-.48.45-1.15-.05-.51-.6-1.43-2.72-4.81-.56-.88-1.14-1.81-1.69-2.7-2.19-3.57-1.43-4.7-.52-5.28.61-.39,1.75-1.12,4.35,2.19.35.45.91,1.2,1.49,2,2.59,3.54,3.26,4.34,3.78,4.51,1,.34,1.91.01,2.5-.9.47-.73.05-1.93-.88-4.38-.66-1.74-1.56-4.13-1.33-5.06.23-.91.76-1.46,1.5-1.57.96-.13,2,.48,2.6,1.52.49.85,1.18,2.52,1.91,4.28,1.24,3,2.53,6.11,3.66,7.39.38.43.76.67,1.15.72,1.27.17,2.4-1.04,3.72-2.44.96-1.02,2.06-2.18,3.01-2.48,1.24-.39,2.02.25,2.3.54.51.53.68,1.24.46,1.85-.43,1.17-2.66,4.09-3.99,5.84-.53.69-.94,1.23-1.16,1.55-.23.34-.46.73-.71,1.17-.96,1.67-2.42,4.2-6.24,6.82-3.21,2.2-4.86,3.14-8.31,3.55-1.9.22-3.26.07-5.52-.19ZM42.6-111.97c2.9-.53,4.69-1.59,7.62-3.6,3.49-2.39,5.13-4.7,6.18-6.44,1.45,1.7,2.99,3.43,4.59,5.14-.08.12-.15.24-.19.38-.33,1.04.44,2.32,2.3,3.82.4.32.76.62,1.09.88-.69.03-1.32.27-1.69.92-1.09,1.92,1.78,3.74,4.82,5.67.47.29.93.59,1.36.87,2.79,1.83,5.7,3.43,8.71,4.8.41,2.38,2.43,5.04,2.74,5.43.11.14.24.29.36.43.08,1.09.41,6.03-.47,9.55-.37,1.48-1.13,2.87-1.87,3.97.15-1.33.29-2.66.39-3.99.01-.18-.11-.36-.29-.4-.21-.05-.41.07-.46.28-.51,2.07-.93,4.15-1.3,6.23-.15.17-.25.27-.26.27-.08.08-.15.18-.18.3-.15.46-.4,2.05-.69,4.23-14.13-14.38-27.8-32.15-32.75-38.76ZM74.24-50.75c.02-.16.04-.32.05-.46.09-1.27,2.51-23.05,3.12-25.61.64-.67,3.19-3.51,4.04-6.92.68-2.75.69-6.18.61-8.3,2.55,2.3,6.06,4.43,8.72,5.75.65.33,1.24.49,1.77.49.22,0,.42-.04.62-.09.24.33.44.72.49,1.15.21,1.74-1.52,35.71-1.72,37.06-.03.13-.05.3-.08.5-.18,1.36-.43,1.94-1.47,1.84-.27-.03-.6-.06-.98-.09-2.76-.25-8.51-.77-13.68-2.61-1.73-.62-1.62-1.58-1.49-2.69ZM86.06,19.64c-.84.72-5.19,2.53-13.91,1.51-5.33-.62-10.33-3.43-11.37-6.4-.24-.7-.38-1.39-.45-1.97,1.62,2.38,3.77,2.8,3.89,2.82.22.04.43-.02.6-.16.04-.04,4.39-3.49,12.22-2.18,5.96,1,7.31,2.75,7.95,3.59.28.37.57.75,1.1.79.43.03.77-.11,1.08-.38-.16.94-.49,1.83-1.12,2.37ZM87.18,13.9c-.33,1.34-.72,2.01-.9,2.21-.04-.05-.08-.1-.12-.15-.76-.99-2.34-3.05-8.88-4.15-7.38-1.24-11.88,1.42-13.08,2.26-.76-.25-2.8-1.23-3.71-4.52.25-3.13,1.65-6.78,4.2-10.9.77-1.24,1.76-2.92,2.51-4.22,0,.02.02.05.03.07.41.93,1.21,2.08,2.09,2.28.38.09.95.03,1.87-.08,2.07-.23,5.53-.61,9.68.35,3.87.89,4.99,1.99,5.47,2.45.16.16.59.58,1.09.44.02.42.04.87.05,1.33-1.72-1.49-5.47-2.81-9.75-3.36-3.3-.42-7.25-.06-9.68.6-.77-.04-1.56.15-2.27.57-1.46.87-2.22,2.47-1.91,3.8-.69,1.57-1.15,3.16-.86,3.78.2.42.65.61,1.1.47.06-.02,6.68-2.04,12.22-1.41,5.9.67,8.57,2.62,9.64,3.73.35.37.78.75,1.24.94,0,.1,0,.21,0,.31.02,1.09.03,2.2-.03,3.21ZM69.05,1.53c-.26.45-.75.91-1.35,1.27-.56.33-1.1.5-1.52.48-.35-.02-.59-.16-.77-.46-.37-.62.03-1.81,1.13-2.46.42-.25.87-.38,1.31-.38.1,0,.2,0,.3.02.46.07.81.28,1,.59.15.25.11.56-.11.94ZM87.6,8.88s0,.02,0,.02c-.12-.08-.3-.23-.55-.49-2.08-2.15-5.82-3.63-10.54-4.17-.78-.09-1.58-.13-2.39-.13-3.75,0-7.63.82-9.61,1.36.09-.31.22-.7.38-1.11.35.24.77.38,1.24.41.05,0,.1,0,.15,0,.68,0,1.44-.24,2.2-.69.82-.49,1.48-1.12,1.87-1.8.5-.85.53-1.72.1-2.45-.05-.09-.13-.17-.19-.25,2.09-.34,4.82-.51,7.3-.19,3.11.4,5.79,1.23,7.51,2.08-.03.02-.07.03-.1.05-1.22.76-1.27,2.57-.13,4.42h0c.75,1.21,1.72,1.86,2.67,1.86.06,0,.11,0,.17-.01,0,.54-.02.94-.05,1.09ZM87.85,6.21c-.77.48-1.61-.79-1.77-1.05h0c-.63-1.02-.79-2.11-.35-2.38.2-.12.43-.19.67-.19.11,0,.23.01.34.04.45.12.85.47,1.15,1.02.58,1.06.45,2.24-.04,2.55ZM86.94-4.59c-.06.48-.1,1.05-.12,1.7-.02.05-.03.1-.03.15l-.07.61c-.83-.64-2.38-1.53-5.51-2.25-4.39-1.01-8.15-.6-10.17-.38-.57.06-1.22.13-1.37.11-.21-.07-.8-.73-1.17-1.67-.11-.29-.16-.51-.18-.7,1.72-4.4,4.13-14.41,5.2-19.02,2.69.95,7.36,2.33,13.48,3.06,1.93.23,3.44.34,4.63.38-1.34,4.78-4.39,15.83-4.68,18.02ZM134,12.31c.58,1.11.82,4.13.26,5.88-.54,1.71-.97,3.06-7.41,3.58-5.67.46-14.82-1.02-18.23-2.25-3.93-1.42-8.35-3.76-8.77-4.47-.11-.24-.18-1.13-.2-2.11,1.89,1.01,5.51,2.75,8.3,3.77,3.68,1.35,10.07,3.34,11.47,1.56,1-1.27,5.38-4.97,8.24-5.83,2.65-.79,5.7-.45,6.33-.13ZM126.08,3.25c.5.46,1.02,1.02,1.43,1.52-1.55-.44-3.04-.47-4.38-.07-2.96.88-5.03,1.88-7.12,3.47-.55.42-1.02.88-1.45,1.29-1.34,1.3-1.86,1.71-3,.87-.42-.31-.77-.63-1.05-.96.15.11.31.21.49.29.36.16.75.24,1.14.24.44,0,.89-.1,1.33-.31.77-.37,1.41-1.04,1.79-1.87.8-1.77.19-3.77-1.36-4.47-.22-.1-.45-.17-.69-.2,1.53-.99,3.53-1.83,5.92-1.92.28-.01.55-.02.81-.02,3.82,0,4.99,1.09,6.13,2.14ZM111.01,5.79c.46-1.02,1.49-1.56,2.29-1.2.8.36,1.08,1.49.62,2.51-.23.52-.61.92-1.07,1.14-.42.2-.85.22-1.21.05-.8-.36-1.08-1.49-.62-2.51ZM122.28-.21c-.88-.13-1.93-.19-3.19-.14-5.94.22-9.84,4.56-10.52,6.04-.34.75-1.2,3.38,2.13,5.83.72.53,1.35.74,1.93.74,1.19,0,2.13-.9,2.98-1.73.41-.4.83-.81,1.31-1.17,1.96-1.49,3.83-2.4,6.64-3.23,1.47-.44,3.22-.21,5.06.65.02,0,.03,0,.04.02.88.68,1.93,1.41,3.15,2.18.59.38,1.08.97,1.45,1.65-1.69-.27-4.12-.16-6.01.41-3.19.95-7.86,4.91-8.98,6.33-.47.48-4.14.03-9.8-2.03-3.25-1.19-7.6-3.35-8.84-4.08,0-1.4.1-3.65.17-5.17.07-1.52.13-2.83.12-3.47-.02-1.33.21-2.24.68-2.72.31-.31.74-.47,1.32-.47.01,0,.02,0,.03,0,2.16,0,4.93,1.54,5.93,2.37,1.3,1.08,2.1.41,2.95-.29.24-.2.53-.44.89-.71,2.18-1.61,5.35-2.64,7.88-2.56,1.36.04,2.01.67,2.66,1.59ZM119.22-3.28c-2.79.03-6.02,1.11-8.36,2.84-.39.29-.7.55-.96.76-.27.22-.6.5-.7.52,0,0-.1-.02-.36-.23-1.08-.89-4.16-2.71-6.88-2.71-.02,0-.03,0-.05,0-.29,0-.57.04-.83.1.02-.29.03-.58.05-.88v-.21c.13-1.72.23-14.37.27-20.08,1.93.3,5.03.6,9.67.6.3,0,.61,0,.93,0,3.33-.03,5.75-.34,7.5-.73-.14,6.6-.32,15.99-.29,20.02ZM122.44-25.96c-.7.47-3.38,1.84-10.45,1.9-6.68.06-10.31-.51-11.87-.86-.08-.02-.14-.09-.15-.17l-.33-6.62h0c-.03-.53-.41-.96-.94-1.04-.06,0-.12-.01-.18-.01-.46,0-.87.28-1.04.73l-2.86,7.7c-.34.14-1.89.54-7.46-.13-7.64-.91-12.95-2.84-14.88-3.63-.24-.1-.46-.36-.4-.59.37-1.39.85-3.15,1.37-5.04.84-3.02,1.76-6.37,2.41-9.02.25.07.51.15.76.22.67.17,1.34.34,2.01.48,1.34.3,2.69.54,4.04.76,5.39.87,10.83,1.33,16.26,1.63,5.43.26,10.88.36,16.34.03,1.36-.09,2.73-.2,4.1-.37.68-.09,1.37-.18,2.05-.31.27-.05.54-.11.82-.17.23,5.36.48,11.69.4,14.51ZM121.12-44.81c-5.24,1.06-10.99.71-13.75.54-.38-.02-.71-.04-.98-.06-1.08-.05-1.34-.76-1.46-2.14-.02-.2-.03-.37-.05-.47-.13-1.28-.21-35.08-.09-36.9.05-.71.39-1.24.77-1.63.29.13.61.21.99.21.45,0,.97-.11,1.58-.36,1.82-.77,6.15-2.79,8.79-4.08-.27,2.03-.53,5.32.03,8.16.69,3.54,3.14,6.76,3.71,7.48.49,2.57,1.93,25.08,1.96,26.38,0,.15.02.3.03.47.09,1.27.07,2.07-1.53,2.39ZM132.02-42.03c-.77.21-1.02.21-1.08.18-.13-.07-.38-.53-.63-.99l-.09-.17c-.06-.12-.49-1.02-1.03-2.17-1.75-3.72-3.72-7.9-5.68-11.94-.09-1.3-.18-2.66-.27-4.02-.02-.37-.03-.74-.05-1.11-.04-.68-.1-1.35-.17-2.01-.37-5.04-.74-9.49-.96-10.32-.03-.1-.08-.2-.15-.28,0,0-.05-.06-.14-.17-.33-2.48-.73-4.95-1.24-7.4-.04-.18-.2-.31-.39-.3-.21,0-.37.19-.36.4.06,1.6.18,3.2.32,4.8-.69-1.22-1.39-2.73-1.69-4.28-.59-3.01-.16-6.73.11-8.47,3.38,3.14,8.43,8.68,13.29,17.29,4.28,7.59,11.73,22.57,11.81,22.74.03.06.73,1.39-.29,2.46-1.5,1.56-4.29,3.86-11.31,5.78ZM147.16-43.42s.04.07.08.11c.05.04.1.07.15.11.1.07.21.13.32.2.21.12.43.22.66.32l1.36.52c.9.36,1.78.75,2.63,1.19.84.44,1.67.92,2.36,1.48.34.28.65.58.86.89.11.15.18.3.23.44.04.11.05.31.07.5,0,.36-.06.6-.2.74-.09.09-.25.17-.45.23-.11-.27-.25-.49-.39-.68-.38-.49-.8-.84-1.23-1.16-.85-.63-1.73-1.12-2.62-1.56-.89-.45-1.8-.85-2.71-1.23-.92-.36-1.8-.83-2.89-.74-.09,0-.19.05-.26.12-.16.16-.17.42,0,.59h0c.74.76,1.67,1.02,2.54,1.43.88.39,1.74.8,2.58,1.25.83.45,1.65.92,2.36,1.46.35.27.68.56.89.84.1.14.17.27.18.34l.03.22c0,.07,0,.14,0,.21-.03.25-.15.46-.4.66-.25.2-.6.35-.99.44-.06.01-.13.02-.19.03-.09-.2-.2-.38-.31-.53-.75-1-1.63-1.61-2.51-2.23-1.77-1.2-3.61-2.23-5.68-2.77-.15-.04-.31.01-.41.15-.12.17-.09.41.09.54h0c1.68,1.22,3.49,2.18,5.14,3.31.8.57,1.63,1.21,2.11,1.88.25.37.25.47.17.79-.08.24-.28.45-.64.61-.71.31-1.7.33-2.63.19-.94-.14-1.85-.43-2.73-.86-.88-.42-1.71-.95-2.53-1.53l-1.24-.92c-.22-.16-.43-.32-.72-.49-.08-.04-.15-.09-.26-.13-.11-.04-.22-.1-.49-.12-.54,0-.85.31-1.01.53-.3.45-.33.74-.41,1.03-.06.29-.11.55-.15.81-.08.51-.16,1-.28,1.45-.12.45-.26.87-.47,1.17-.2.31-.43.48-.73.56-.3.09-.75.07-1.07-.03-.32-.1-.57-.29-.79-.6-.45-.63-.65-1.62-.91-2.64-.07-.26-.14-.53-.24-.82l-.26-.71c-.15-.46-.28-.94-.39-1.42-.21-.96-.34-1.95-.39-2.94,0-.14,0-.27-.01-.41,0,0,0,0,0,0,7.22-1.97,10.24-4.39,11.88-6.07.82.14,1.64.31,2.46.51.94.24,1.88.51,2.81.81.93.31,1.86.61,2.71,1,.85.39,1.67.85,2.34,1.42.67.56,1.19,1.27,1.32,1.96.03.12.03.24.03.35-.07-.06-.14-.12-.21-.18-.85-.68-1.76-1.17-2.68-1.62-.92-.44-1.86-.83-2.8-1.17-.48-.17-.95-.35-1.43-.48-.25-.06-.5-.11-.75-.13-.13,0-.26-.02-.4-.01-.07,0-.14,0-.21.01l-.28.03c-.21,0-.39.16-.39.36,0,.21.16.39.36.39Z"/>
      </g>
    </g>
    <g>
      <path class="cls-17" d="M20.92,96.69c0,21.91,2.42,44.41,16.78,58.77,14.36,14.36,36.86,16.79,58.77,16.8,21.91,0,44.41-2.42,58.77-16.78,14.36-14.36,16.79-36.86,16.8-58.77,0-21.91-2.42-44.41-16.78-58.77-14.36-14.36-36.86-16.79-58.77-16.8-21.91,0-44.41,2.42-58.77,16.78s-16.79,36.86-16.8,58.77Z"/>
      <path class="cls-19" d="M20.55,85.36c0,21.91,2.42,44.41,16.78,58.77,14.36,14.36,36.86,16.79,58.77,16.8s44.41-2.42,58.77-16.78c14.36-14.36,16.79-36.86,16.8-58.77s-2.42-44.41-16.78-58.77c-14.36-14.36-36.86-16.79-58.77-16.8-21.91,0-44.41,2.42-58.77,16.78-14.36,14.36-16.79,36.86-16.8,58.77Z"/>
      <circle class="cls-9" cx="97.1" cy="98.57" r="59.56"/>
      <g class="cls-13">
        <path class="cls-8" d="M105.11,16.07c-.2,1.55-.74,2.85-1.67,3.91-1.2,1.36-2.54,2.59-3.84,3.86-.26.25-.57.46-.89.62-1.38.73-2.76,1.44-4.15,2.14-.67.34-1.37.48-2.14.27-.48-.36-.56-.95-.77-1.47-.29-.72-.54-1.46-.87-2.17-.37-.81-.65-1.63-.8-2.51-.25-1.54-.53-3.07-.77-4.61-.07-.45-.04-.92-.06-1.42,1.09-.54,2.2-.73,3.34-.8,1.98-.13,3.94.04,5.89.41,1.43.27,2.86.56,4.28.87.56.12,1.11.28,1.65.45.24.08.45.25.78.44Z"/>
        <path class="cls-8" d="M41.76,68.02c-.33-1.53-.26-2.94.27-4.24.67-1.68,1.53-3.29,2.33-4.92.16-.32.39-.62.63-.89,1.06-1.14,2.12-2.28,3.2-3.41.51-.54,1.13-.91,1.93-.97.57.18.84.71,1.22,1.13.52.58,1,1.2,1.54,1.76.62.63,1.16,1.32,1.59,2.1.75,1.37,1.53,2.72,2.27,4.09.22.4.35.86.53,1.31-.85.87-1.83,1.42-2.88,1.87-1.82.78-3.73,1.28-5.69,1.58-1.44.22-2.88.42-4.32.61-.57.07-1.14.11-1.71.13-.25,0-.5-.08-.89-.15Z"/>
        <path class="cls-8" d="M151.49,90.47c.48-1.36,1.22-2.43,2.26-3.21,1.34-1,2.79-1.85,4.21-2.74.28-.18.6-.3.92-.39,1.38-.39,2.77-.76,4.16-1.13.66-.17,1.33-.17,1.98.17.37.41.32.97.41,1.48.12.71.2,1.43.36,2.12.18.8.27,1.6.23,2.42-.07,1.44-.11,2.87-.2,4.31-.02.42-.14.84-.22,1.29-1.09.28-2.13.23-3.17.08-1.81-.27-3.55-.8-5.24-1.51-1.24-.52-2.47-1.06-3.69-1.61-.48-.22-.95-.46-1.4-.73-.2-.12-.36-.31-.62-.55Z"/>
        <path class="cls-8" d="M39.95,137.52c.2-1.55.74-2.85,1.67-3.91,1.2-1.36,2.54-2.59,3.84-3.86.26-.25.57-.46.89-.62,1.38-.73,2.76-1.44,4.15-2.14.67-.34,1.37-.48,2.14-.27.48.36.56.95.77,1.47.29.72.54,1.46.87,2.17.37.81.65,1.63.8,2.51.25,1.54.53,3.07.77,4.61.07.45.04.92.06,1.42-1.09.54-2.2.73-3.34.8-1.98.13-3.94-.04-5.89-.41-1.43-.27-2.86-.56-4.28-.87-.56-.12-1.11-.28-1.65-.45-.24-.08-.45-.25-.78-.44Z"/>
        <path class="cls-8" d="M72.29,22.57c.33,1.53.26,2.94-.27,4.24-.67,1.68-1.53,3.29-2.33,4.92-.16.32-.39.62-.63.89-1.06,1.14-2.12,2.28-3.2,3.41-.51.54-1.13.91-1.93.97-.57-.18-.84-.71-1.22-1.13-.52-.58-1-1.2-1.54-1.76-.62-.63-1.16-1.32-1.59-2.1-.75-1.37-1.53-2.72-2.27-4.09-.22-.4-.35-.86-.53-1.31.85-.87,1.83-1.42,2.88-1.87,1.82-.78,3.73-1.28,5.69-1.58,1.44-.22,2.88-.42,4.32-.61.57-.07,1.14-.11,1.71-.13.25,0,.5.08.89.15Z"/>
        <path class="cls-8" d="M136.96,137.91c.94-.6,1.9-.91,2.91-.88,1.3.03,2.59.2,3.88.33.26.03.51.1.75.2,1.03.42,2.06.85,3.08,1.29.49.21.89.53,1.13,1.05.03.43-.27.74-.45,1.1-.26.49-.56.97-.79,1.47-.27.58-.6,1.11-1.01,1.59-.73.84-1.44,1.7-2.18,2.54-.22.25-.49.45-.75.68-.8-.35-1.41-.87-1.98-1.47-.98-1.03-1.79-2.18-2.48-3.42-.51-.91-1-1.82-1.49-2.74-.19-.36-.36-.73-.51-1.11-.07-.17-.07-.36-.12-.63Z"/>
        <path class="cls-8" d="M124.3,69.48c-.88-1.29-1.34-2.63-1.35-4.03,0-1.81.18-3.63.3-5.44.03-.36.13-.72.25-1.06.55-1.46,1.11-2.91,1.68-4.36.27-.69.7-1.27,1.42-1.63.6-.05,1.05.34,1.55.59.7.35,1.37.74,2.09,1.05.81.35,1.57.79,2.26,1.35,1.21.98,2.44,1.94,3.64,2.94.35.29.64.66.99,1.02-.46,1.13-1.16,2.01-1.97,2.82-1.4,1.41-2.98,2.59-4.68,3.61-1.25.75-2.51,1.47-3.77,2.19-.5.28-1.01.53-1.53.76-.23.1-.5.11-.88.19Z"/>
        <path class="cls-8" d="M140.29,22.57c.33,1.53.26,2.94-.27,4.24-.67,1.68-1.53,3.29-2.33,4.92-.16.32-.39.62-.63.89-1.06,1.14-2.12,2.28-3.2,3.41-.51.54-1.13.91-1.93.97-.57-.18-.84-.71-1.22-1.13-.52-.58-1-1.2-1.54-1.76-.62-.63-1.16-1.32-1.59-2.1-.75-1.37-1.53-2.72-2.27-4.09-.22-.4-.35-.86-.53-1.31.85-.87,1.83-1.42,2.88-1.87,1.82-.78,3.73-1.28,5.69-1.58,1.44-.22,2.88-.42,4.32-.61.57-.07,1.14-.11,1.71-.13.25,0,.5.08.89.15Z"/>
        <path class="cls-8" d="M145.85,50.27c-1.1-1.11-1.8-2.33-2.07-3.71-.34-1.78-.49-3.6-.7-5.4-.04-.36,0-.73.05-1.09.27-1.53.56-3.07.85-4.59.14-.73.46-1.37,1.09-1.86.58-.16,1.09.14,1.63.29.75.21,1.49.47,2.24.65.87.2,1.69.48,2.47.91,1.37.74,2.75,1.46,4.12,2.22.4.22.75.53,1.16.82-.24,1.19-.77,2.19-1.41,3.13-1.11,1.65-2.45,3.09-3.93,4.4-1.09.96-2.19,1.91-3.31,2.85-.44.37-.9.71-1.37,1.03-.21.14-.47.2-.83.35Z"/>
        <path class="cls-8" d="M153.63,62.31c1.17-.34,2.28-.36,3.32-.02,1.35.43,2.65,1.01,3.96,1.55.26.11.51.27.73.44.95.76,1.89,1.53,2.83,2.31.45.37.77.83.86,1.45-.11.46-.51.7-.81,1.01-.43.43-.88.84-1.29,1.3-.46.52-.97.98-1.55,1.35-1.02.66-2.04,1.34-3.07,1.99-.3.19-.65.32-1,.48-.73-.61-1.21-1.35-1.62-2.15-.71-1.38-1.2-2.84-1.54-4.35-.25-1.11-.49-2.22-.71-3.34-.09-.44-.15-.88-.19-1.32-.02-.2.04-.4.07-.7Z"/>
        <path class="cls-8" d="M161.65,127.92c-1.55.21-2.95.02-4.21-.61-1.62-.81-3.16-1.79-4.72-2.72-.31-.18-.59-.44-.83-.7-1.06-1.15-2.1-2.3-3.13-3.47-.5-.56-.81-1.2-.82-2,.22-.56.78-.78,1.22-1.12.62-.47,1.28-.9,1.87-1.39.68-.57,1.41-1.05,2.22-1.41,1.42-.64,2.83-1.3,4.26-1.93.42-.18.88-.28,1.35-.42.8.91,1.27,1.94,1.63,3.03.63,1.88.97,3.82,1.12,5.8.11,1.45.19,2.9.26,4.36.03.57.02,1.14-.01,1.71-.01.25-.12.5-.22.87Z"/>
        <path class="cls-8" d="M50.07,40.63c-.2,1.55-.74,2.85-1.67,3.91-1.2,1.36-2.54,2.59-3.84,3.86-.26.25-.57.46-.89.62-1.38.73-2.76,1.44-4.15,2.14-.67.34-1.37.48-2.14.27-.48-.36-.56-.95-.77-1.47-.29-.72-.54-1.46-.87-2.17-.37-.81-.65-1.63-.8-2.51-.25-1.54-.53-3.07-.77-4.61-.07-.45-.04-.92-.06-1.42,1.09-.54,2.2-.73,3.34-.8,1.98-.13,3.94.04,5.89.41,1.43.27,2.86.56,4.28.87.56.12,1.11.28,1.65.45.24.08.45.25.78.44Z"/>
        <path class="cls-8" d="M26.47,73.29c1.46-.56,2.86-.71,4.23-.4,1.77.4,3.49,1,5.23,1.53.34.11.67.29.97.49,1.3.86,2.58,1.74,3.86,2.63.61.42,1.07.97,1.26,1.75-.08.59-.57.94-.93,1.38-.5.6-1.03,1.17-1.49,1.8-.53.71-1.12,1.35-1.82,1.89-1.23.96-2.45,1.93-3.69,2.88-.37.28-.79.48-1.22.73-.99-.7-1.69-1.59-2.3-2.56-1.06-1.68-1.84-3.49-2.45-5.37-.44-1.39-.87-2.78-1.28-4.17-.16-.55-.29-1.11-.39-1.67-.05-.25,0-.51.01-.9Z"/>
        <path class="cls-8" d="M31.04,117.73c-.88-1.29-1.35-2.62-1.36-4.03-.01-1.81.17-3.63.3-5.44.02-.36.12-.72.25-1.06.55-1.46,1.11-2.91,1.68-4.36.27-.69.7-1.27,1.42-1.63.6-.05,1.05.34,1.55.59.7.35,1.38.74,2.09,1.04.82.35,1.57.78,2.26,1.34,1.21.98,2.44,1.94,3.64,2.93.35.29.64.66.99,1.02-.45,1.13-1.16,2.01-1.96,2.82-1.39,1.42-2.97,2.59-4.67,3.61-1.25.75-2.51,1.48-3.77,2.2-.5.28-1.01.53-1.53.76-.23.1-.5.11-.88.2Z"/>
      </g>
      <g class="cls-14">
        <g>
          <g>
            <path class="cls-16" d="M89.23,93.26c1.34-2.43,3.66-4.03,6.3-4.03,2.59,0,4.88,1.56,6.23,3.92,0,0-.07.36-.21.93-.56,1.09-1.2,2.04-1.9,2.81,2.92-3.24,4.81-9.68,4.72-15.84,0-.5-.03-1-.06-1.47,0,0-5.62,3.16-8.94,3.16s-8.5-3.15-8.5-3.15c-.04.47-.08.96-.11,1.47-.25,4.75.83,9.68,2.72,13.18-.17-.59-.26-.96-.26-.96Z"/>
            <path class="cls-6" d="M101.76,93.15c-1.35-2.36-3.64-3.92-6.23-3.92-2.64,0-4.96,1.6-6.3,4.03,0,0,.09.37.26.96h0s0,0,0,0c.1.18.2.36.3.53h0c.61,1.04,1.3,1.93,2.05,2.62,0,0,0,0,0,0,.1.09.2.17.3.26.04.03.07.06.11.09.09.07.17.13.26.2.05.04.1.08.16.11.08.06.16.11.24.16.06.04.12.08.19.11.08.04.15.09.23.13.07.04.14.07.21.11.07.03.14.07.22.1.08.03.16.06.23.09.07.03.14.05.21.07.09.03.17.05.26.07.06.02.13.03.19.05.1.02.2.04.3.05.05,0,.11.02.16.02.16.02.31.03.47.03h0s0,0,0,0c.15,0,.31,0,.46-.03.05,0,.1-.02.16-.02.1-.01.2-.03.29-.05.06-.01.12-.03.19-.05.08-.02.17-.04.25-.07.07-.02.13-.05.2-.07.08-.03.15-.06.23-.09.07-.03.14-.07.21-.1.07-.03.14-.07.21-.11.07-.04.15-.08.22-.13.06-.04.13-.08.19-.12.08-.05.15-.1.22-.15.06-.04.12-.09.17-.13.08-.06.16-.12.23-.19.05-.04.1-.09.15-.13.08-.07.16-.15.25-.22.04-.04.08-.08.12-.12.09-.09.18-.18.27-.27.02-.03.05-.05.07-.08.69-.77,1.33-1.72,1.9-2.81.14-.57.21-.93.21-.93Z"/>
            <g>
              <path class="cls-7" d="M127.48,60.17c4.32-7.86,1.56-15.93,1.56-15.93-.57.98-2.81,4.2-7.57,7.42,1.97,3.45,3.09,7.41,3.68,11.39.96-.89,1.76-1.84,2.33-2.87Z"/>
              <path class="cls-7" d="M95.58,63.2c-6.99,0-11.98,5.61-12.66,17.25-.65,11.14,5.04,23.07,12.65,23.07,7.36,0,12.84-11.91,12.66-23.07-.18-11.16-5.66-17.25-12.65-17.25ZM99.65,96.89s-.05.05-.07.08c-.09.1-.18.18-.27.27-.04.04-.08.08-.12.12-.08.08-.16.15-.25.22-.05.04-.1.09-.15.13-.08.06-.16.13-.23.19-.06.04-.11.09-.17.13-.07.05-.15.11-.22.15-.06.04-.13.08-.19.12-.07.04-.14.09-.22.13-.07.04-.14.07-.21.11-.07.03-.14.07-.21.1-.08.03-.15.06-.23.09-.07.03-.13.05-.2.07-.08.03-.17.05-.25.07-.06.02-.12.04-.19.05-.1.02-.19.04-.29.05-.05,0-.1.02-.16.02-.15.02-.3.03-.46.03,0,0,0,0,0,0-.16,0-.31,0-.47-.03-.05,0-.11-.02-.16-.02-.1-.01-.2-.03-.3-.05-.06-.01-.13-.03-.19-.05-.09-.02-.17-.04-.26-.07-.07-.02-.14-.05-.21-.07-.08-.03-.16-.06-.23-.09-.07-.03-.15-.06-.22-.1-.07-.03-.14-.07-.21-.11-.08-.04-.15-.08-.23-.13-.06-.04-.13-.08-.19-.11-.08-.05-.16-.1-.24-.16-.05-.04-.1-.08-.16-.11-.09-.06-.17-.13-.26-.2-.04-.03-.07-.06-.11-.09-.1-.08-.2-.17-.3-.26,0,0,0,0,0,0-.75-.69-1.44-1.58-2.05-2.62h0c-.1-.17-.2-.35-.3-.53,0,0,0,0,0,0h0c-1.89-3.49-2.97-8.42-2.72-13.18.02-.5.06-.99.11-1.47,0,0,5.19,3.15,8.5,3.15s8.94-3.16,8.94-3.16c.03.48.05.97.06,1.47.09,6.15-1.8,12.59-4.72,15.84Z"/>
              <path class="cls-7" d="M125.59,140.18c.56,2.34,1.18,4.92,1.67,7.1,1.42,1.06,2.78,2.04,4.06,2.95.47.19.94.37,1.42.52,6.37,2.04,12.7-1.72,14.12-3.55l-21.26-7.03Z"/>
            </g>
            <g>
              <path class="cls-5" d="M127.87,72.42c5.11-8.35,3.63-15.23,3.63-15.23-.52.89-2.35,3.71-6.24,6.66.52,3.96.52,7.91.33,11.37.89-.88,1.67-1.81,2.27-2.79Z"/>
              <path class="cls-5" d="M131.31,150.23c-1.28-.91-2.64-1.9-4.06-2.95.45,1.98.79,3.62.91,4.4.36,2.54.46,3.62-.78,4.61,6,3.8,12.31,1.9,14.16.74,0,0-4.24-2.54-10.24-6.79Z"/>
            </g>
            <g>
              <path class="cls-11" d="M85.78,167.13c-.31-.54-.73-1.03-1.27-1.39-1.62-1.09-3.17-1.31-5.34-1.46.14-.96.34-1.89.54-2.71-1.17-.05-2.11-.14-2.55-.3-.51-.18-1.63-.71-3.02-1.38-.36,1.5-.58,2.84-.71,3.94-2.58-.28-4.96-.59-8.41-.78-4.01-.21-8.55.3-10.8,2.54-2.42,2.41-1.84,6.3,2.69,7.13.35,1.2,1.39,2.12,2.83,2.41,3.25.65,5.51-1.76,7.02-2.19,1.31-.37,6.73-1.48,11.62-.81,3.1.43,4.48,2.25,7.03,2.21,1.89-.03,3.27-1.42,3.24-3.57-.03-1.39-.76-2.81-2.87-3.64Z"/>
              <path class="cls-11" d="M137.28,165.81c-2.22-2.27-6.76-2.85-10.77-2.7-3.46.13-5.84.41-8.42.66-.1-1.01-.28-2.21-.57-3.57-1.24.4-2.35.74-3.15.97-.44.13-1.35.27-2.49.43.17.78.34,1.65.46,2.55-2.17.11-3.73.32-5.37,1.38-.54.35-.97.84-1.29,1.37-2.12.8-2.88,2.21-2.93,3.6-.07,2.15,1.29,3.56,3.18,3.61,2.55.08,3.95-1.72,7.07-2.11,4.9-.6,10.31.59,11.61.98,1.51.45,3.73,2.89,6.99,2.29,1.45-.27,2.5-1.17,2.87-2.36,4.54-.76,5.19-4.65,2.8-7.09Z"/>
            </g>
            <path class="cls-2" d="M95.81,142.09c-15.99-.28-24.97-1.96-29.7-3.33-1.28,4.16-2.87,9.52-3.15,11.24-.43,2.75-.44,3.45,1.13,4.55,1.15.8,6.47,3.6,10.03,5.35,1.39.68,2.51,1.2,3.02,1.38.44.16,1.38.25,2.55.3,3.66.15,9.65-.16,10.33-.37.9-.27,4.81-7.54,5.12-8.05.3.52,5.29,8.94,6.19,9.23.69.22,6.84-.29,10.54-.78,1.14-.15,2.05-.3,2.49-.43.8-.23,1.91-.57,3.15-.97,3.62-1.18,8.32-2.86,9.52-3.66.12-.08.24-.17.34-.25,1.23-.99,1.14-2.07.78-4.61-.11-.78-.46-2.42-.91-4.4-.49-2.17-1.1-4.75-1.67-7.1-.13-.55-.26-1.09-.39-1.61-4.12,1.4-12.64,3.23-29.38,3.52Z"/>
            <g>
              <path class="cls-3" d="M177.55,80.55c-2.1-8.21-10.78-9.56-10.78-9.56,3.74-4.8,3.27-19.29-5.47-21.39-8.73-2.1-13.91,9.51-16.09,13.59-4.61,8.65-10.9,16.53-15.27,22.05-3.44,4.34-6.28,8.74-8.1,11.75.51,2.54,2.37,11.93,4.02,21.21.07,0,.12-.01.13-.02l.3,2.42c.27,1.53.53,3.05.77,4.51.04,0,.06,0,.06,0l.21,1.69c.25,1.54.47,3,.67,4.34,2.98,1.53,6.18,2.45,9.58,2.25,6.63-.39,7.2-6.05,7.2-6.05,1.34,2.05,6.43,5.53,12.73.13,6.79-5.81,3.29-11.7,3.29-11.7.96.26,8.73,1.75,12.09-7.22,3.62-9.65-4.89-14.06-4.89-14.06,4.7-1.05,11.78-5.17,9.53-13.95Z"/>
              <path class="cls-3" d="M125.6,75.21c.19-3.46.18-7.41-.33-11.37-.03-.27-.07-.54-.11-.8-.59-3.98-1.71-7.93-3.68-11.39,0-.01-.02-.03-.02-.04-.58-1.01-1.23-1.98-1.97-2.9-1.61-2-3.32-3.62-5.06-4.95-7.9-6.05-16.43-5.93-19.03-5.93-3.17,0-15.17-.18-24.08,10.88-8.33,10.34-6.24,27.83-5.3,34.74.42,3.1,1.35,8.13,3.61,13.21,3.44,3.86,7.7,6.35,11.78,7.96.04-.38.08-.71.11-.97.06-.41.41-.72.82-.71,4.63.17,9.25,2.29,11.25,3.32.39-.48,1.22-.74,2.21-.73,1.26,0,1.92.26,2.23,1.13,2.32-1.09,6.24-2.64,10.18-2.79.41-.02.77.3.82.71,0,.06.02.13.03.19,4.02-1.55,8.31-3.94,11.88-7.63,2.41-5.23,3.4-10.49,3.83-13.68.27-2,.64-4.9.82-8.25ZM75.93,82.85c-4.85,0-7.44-6.41-7-14.46.43-7.97,3.3-14.45,7.17-14.45s6.84,6.47,6.84,14.46-3.14,14.46-7,14.45ZM95.57,103.52c-7.61,0-13.3-11.93-12.65-23.07.68-11.64,5.67-17.25,12.66-17.25,6.99,0,12.47,6.09,12.65,17.25.18,11.16-5.3,23.07-12.66,23.07ZM115.33,82.86c-3.87,0-7-6.47-7-14.46s2.97-14.45,6.84-14.45c3.87,0,6.73,6.49,7.16,14.46.44,8.05-2.16,14.46-7,14.45Z"/>
              <path class="cls-3" d="M46.22,63.17c-2.17-4.08-7.35-15.69-16.08-13.59-8.73,2.1-9.22,16.59-5.47,21.39,0,0-8.68,1.35-10.78,9.56-2.25,8.78,4.83,12.9,9.53,13.95,0,0-8.51,4.41-4.9,14.06,3.36,8.97,11.13,7.48,12.09,7.22,0,0-3.5,5.89,3.29,11.7,6.31,5.4,11.39,1.92,12.73-.13,0,0,.57,5.66,7.2,6.05,2.98.18,5.81-.51,8.47-1.71,2.02-11.29,6.66-32.11,7.25-34.74-1.82-3-4.65-7.38-8.07-11.7-4.36-5.53-10.66-13.41-15.26-22.06Z"/>
            </g>
            <g>
              <path class="cls-4" d="M95.97,134.17c21.46.45,31.78-2.38,31.88-2.4l.47,1.66c-.09-.71-.19-1.47-.31-2.27-.19-1.34-.42-2.81-.67-4.34l.22,1.73c-.16.02-14.83,1.83-29.54,1.83-.99,0-1.97,0-2.95-.03-19.28-.35-31.26-2.81-31.76-2.91l.71-3.38c.12.02,12.19,2.5,31.11,2.84,14.9.26,30.8-1.63,31.94-1.77-.24-1.46-.5-2.98-.77-4.51l.12,1.01c-.15.02-13.92,1.69-27.94,1.69-.9,0-1.79,0-2.69-.02-17.66-.29-30.57-2.9-30.7-2.93l.69-3.38c.13.03,12.75,2.57,30.06,2.86,13.98.24,28.57-1.45,30.02-1.62-1.66-9.28-3.52-18.67-4.02-21.21-.09-.43-.13-.67-.13-.67-.25.28-.51.55-.77.82-3.57,3.69-7.86,6.08-11.88,7.63.27,1.92.91,5.67-.62,10.44-.11.33-.41.56-.75.56-1.23.02-3.14,0-10.36-2.65-1.06.31-3.08.33-3.88-.4-.11-.1-.19-.24-.26-.42-5.68,3.51-8.86,3.9-10.08,3.88-.34,0-.65-.23-.75-.56-1.36-4.24-1.19-8.66-.95-11-4.08-1.61-8.34-4.11-11.78-7.96,0,0,0,0,0,0,0,0-.02.1-.06.28-.59,2.63-5.23,23.45-7.25,34.74-.06.36-.13.71-.18,1.05l.36-1.7c.13.03,13.17,2.72,33.49,3.14Z"/>
              <path class="cls-4" d="M128.52,135.16c-1.63.42-10.59,2.52-27.93,2.51-1.5,0-3.07-.02-4.7-.05-20.15-.42-32.93-2.97-34.06-3.2-.1.61-.18,1.17-.25,1.67-.07.53.2,1.04.68,1.26.7.34,1.93.84,3.84,1.39,4.73,1.37,13.72,3.05,29.7,3.33,16.74-.29,25.27-2.12,29.38-3.52,1.39-.47,2.28-.89,2.81-1.19.42-.23.66-.69.62-1.17-.03-.33-.06-.68-.1-1.05Z"/>
            </g>
            <g>
              <path class="cls-18" d="M123.51,34.33c-.63,1.15-3.01,5.51-9.09,9.44,1.74,1.33,3.45,2.96,5.06,4.95.74.91,1.38,1.88,1.97,2.9.36-.46.68-.94.94-1.43,4.41-8.2,1.12-15.85,1.12-15.85Z"/>
              <path class="cls-18" d="M109.04,104.58c-.06-.41-.41-.72-.82-.71-3.94.14-7.87,1.69-10.18,2.79-.31-.87-.97-1.13-2.23-1.13-.99,0-1.82.26-2.21.73-2-1.03-6.62-3.15-11.25-3.32-.41-.01-.77.3-.82.71-.04.26-.08.59-.11.97-.24,2.34-.4,6.76.95,11,.11.33.41.56.75.56,1.22.02,4.41-.37,10.08-3.88.07.17.15.32.26.42.8.72,2.83.7,3.88.4,7.22,2.65,9.13,2.67,10.36,2.65.34,0,.65-.24.75-.56,1.53-4.77.89-8.51.62-10.44,0-.06-.02-.13-.03-.19ZM92.96,110.45c-4.18-.08-11.42.03-11.56.04v-3.09c1.16-.03,8.63.76,11.69,1.08-.07.62-.13,1.32-.13,1.97ZM109.03,111.42c-.13-.01-6.47-.56-10.7-.81.02-.68.01-1.4-.02-2.05,3.41-.12,9.88-.33,10.94-.23l-.22,3.09Z"/>
            </g>
            <g>
              <path class="cls-9" d="M75.93,82.85c3.87,0,7-6.47,7-14.45s-2.97-14.46-6.84-14.46-6.73,6.48-7.17,14.45c-.44,8.05,2.15,14.46,7,14.46Z"/>
              <path class="cls-9" d="M115.33,82.86c4.85,0,7.44-6.41,7-14.45-.43-7.97-3.3-14.46-7.16-14.46-3.87,0-6.84,6.47-6.84,14.45s3.13,14.46,7,14.46Z"/>
              <path class="cls-9" d="M98.48,123.3c14.02,0,27.79-1.67,27.94-1.69l-.12-1.01-.3-2.42s-.06,0-.13.02c-1.46.17-16.04,1.86-30.02,1.62-17.31-.28-29.94-2.83-30.06-2.86l-.69,3.38c.13.03,13.04,2.64,30.7,2.93.89.01,1.79.02,2.69.02Z"/>
              <path class="cls-9" d="M98.02,130.37c14.71,0,29.38-1.81,29.54-1.83l-.22-1.73-.21-1.69s-.03,0-.06,0c-1.14.14-17.04,2.03-31.94,1.77-18.92-.34-30.99-2.82-31.11-2.84l-.71,3.38c.5.1,12.47,2.57,31.76,2.91.98.02,1.97.03,2.95.03Z"/>
              <path class="cls-9" d="M128.32,133.42l-.47-1.66c-.1.03-10.42,2.85-31.88,2.4-20.32-.43-33.36-3.11-33.49-3.14l-.36,1.7-.35,1.69s.04,0,.07.01c1.13.23,13.91,2.78,34.06,3.2,1.63.03,3.19.05,4.7.05,17.34,0,26.3-2.09,27.93-2.51.14-.04.24-.06.27-.07l-.47-1.67Z"/>
              <path class="cls-9" d="M81.4,107.4v3.09c.14,0,7.38-.11,11.56-.04,0-.65.06-1.35.13-1.97-3.06-.33-10.53-1.11-11.69-1.08Z"/>
              <path class="cls-9" d="M98.33,110.61c4.23.25,10.57.79,10.7.81l.22-3.09c-1.06-.1-7.53.11-10.94.23.04.65.05,1.38.02,2.05Z"/>
            </g>
          </g>
          <g>
            <path d="M178.18,80.39c-.55-2.15-1.54-3.87-2.71-5.22-1.75-2.03-3.9-3.22-5.6-3.92-.81-.33-1.51-.54-2.03-.68.5-.86.9-1.87,1.2-2.99.39-1.5.6-3.19.6-4.92,0-2.88-.57-5.91-1.87-8.43-.65-1.26-1.49-2.39-2.54-3.31-1.05-.91-2.31-1.6-3.78-1.95-.76-.18-1.51-.27-2.23-.27-2.02,0-3.84.69-5.43,1.74-2.38,1.59-4.29,4.01-5.8,6.37-1.51,2.36-2.62,4.69-3.36,6.07-4.57,8.58-10.84,16.43-15.21,21.96-2.57,3.25-4.8,6.52-6.54,9.23,1.48-4.13,2.17-7.97,2.52-10.52.27-1.96.62-4.78.81-8.05.85-.85,1.6-1.76,2.19-2.74,3.31-5.4,3.93-10.23,3.93-13.06,0-1.64-.21-2.62-.21-2.65-.06-.26-.27-.46-.53-.51-.27-.04-.53.08-.67.31-.33.56-1.25,1.99-2.97,3.75.02-.04.05-.08.07-.12,1.96-3.57,2.51-7.18,2.51-10.09,0-3.72-.89-6.32-.9-6.37-.08-.24-.3-.41-.55-.44-.25-.03-.5.1-.63.32-.25.43-.89,1.4-2.01,2.63-.75.82-1.71,1.77-2.92,2.76,1.36-2.98,1.79-5.85,1.79-8.27,0-4.09-1.21-6.91-1.23-6.96-.1-.23-.32-.38-.57-.39-.25-.01-.48.12-.6.34-.26.48-.8,1.47-1.78,2.76-1.32,1.75-3.45,4.02-6.71,6.2-2.88-2.13-5.83-3.49-8.54-4.33-4.51-1.41-8.37-1.45-10.18-1.45-.12,0-.23,0-.32,0s-.21,0-.33,0c-1.82,0-5.68.04-10.19,1.45-4.51,1.41-9.68,4.2-14.08,9.67-2.57,3.19-4.16,7.02-5.12,10.99-.95,3.97-1.27,8.08-1.27,11.87,0,5.08.57,9.59.94,12.37.29,2.13.82,5.16,1.84,8.5-1.49-2.24-3.26-4.73-5.21-7.21-4.36-5.52-10.63-13.38-15.2-21.96-.49-.92-1.15-2.27-1.98-3.76-1.25-2.24-2.88-4.81-4.95-6.85-1.04-1.02-2.18-1.91-3.46-2.55-1.27-.64-2.68-1.03-4.19-1.03-.72,0-1.46.09-2.23.27-1.47.35-2.73,1.04-3.78,1.95-1.57,1.37-2.67,3.23-3.38,5.28-.71,2.05-1.03,4.29-1.03,6.45,0,1.74.21,3.42.6,4.92.29,1.12.69,2.13,1.19,2.99-.9.24-2.32.7-3.85,1.56-1.27.71-2.61,1.69-3.78,3.04-1.17,1.35-2.16,3.07-2.71,5.22-.31,1.2-.45,2.33-.45,3.38,0,1.74.39,3.29,1.05,4.62.99,2,2.56,3.51,4.26,4.6,1.22.78,2.51,1.36,3.74,1.76-.53.39-1.17.93-1.81,1.62-1.52,1.63-3.07,4.16-3.07,7.6,0,1.46.28,3.07.94,4.82,1.24,3.31,3.1,5.32,5.04,6.46,1.94,1.15,3.92,1.43,5.41,1.43.44,0,.84-.03,1.19-.06-.24.71-.48,1.72-.48,2.93,0,1.18.23,2.55.9,3.99.67,1.44,1.78,2.96,3.52,4.44,2.57,2.21,5.03,3.04,7.16,3.04,1.63,0,3.04-.48,4.15-1.13.6-.35,1.1-.74,1.52-1.14.18.54.46,1.18.9,1.85.53.8,1.29,1.62,2.37,2.26,1.08.64,2.47,1.1,4.22,1.2.33.02.65.03.97.03,2.34,0,4.57-.5,6.69-1.33-.21,1.25-.39,2.35-.52,3.27-.01.09-.02.17-.02.25,0,.71.41,1.37,1.07,1.69.66.31,1.72.75,3.31,1.24-.12.4-.25.82-.38,1.23-.57,1.89-1.16,3.87-1.63,5.57-.48,1.7-.84,3.1-.97,3.91-.15.96-.26,1.68-.26,2.32,0,.3.02.59.09.86.09.41.28.79.56,1.11.27.33.61.6,1.02.89.23.16.56.36.99.61,1.49.86,4.12,2.26,6.59,3.51.7.36,1.39.7,2.03,1.02-.12.55-.22,1.1-.32,1.66-.07.41-.13.82-.18,1.23-2.33-.26-4.61-.54-7.79-.71-.55-.03-1.11-.05-1.67-.05-1.82,0-3.67.16-5.34.59-1.67.42-3.19,1.1-4.28,2.19-1.03,1.02-1.6,2.32-1.6,3.61,0,1.08.41,2.16,1.25,3,.71.72,1.71,1.26,2.98,1.55.09.21.19.41.3.61.28.41.62.81,1.04,1.1.4.31.87.52,1.34.68l.36.1.09.02h.05s.02.02.02.02h.06s.16.04.16.04c.22.03.41.07.7.08,1.04.06,2.02-.14,2.94-.51.92-.36,1.75-.87,2.53-1.31.4-.22.74-.41,1.1-.5.44-.11.86-.2,1.32-.29.9-.17,1.81-.31,2.73-.41,1.83-.22,3.68-.31,5.48-.22.9.06,1.8.13,2.6.33.81.2,1.58.53,2.37.91.79.37,1.63.79,2.58.98.93.19,1.94.19,2.85-.2.91-.38,1.62-1.15,1.97-1.99.18-.42.28-.85.33-1.27.05-.41.04-.85-.02-1.22-.13-.88-.49-1.6-.99-2.18-.5-.57-1.09-.96-1.65-1.24-.14-.07-.27-.13-.4-.18-.34-.54-.79-1.03-1.35-1.41-1.36-.92-2.72-1.27-4.27-1.45-.21-.02-.44-.05-.66-.06.05-.26.1-.51.15-.76.05-.23.12-.45.17-.68.51.01,1.05.02,1.6.02,1.76,0,3.67-.06,5.22-.14.77-.04,1.46-.09,1.99-.13.27-.02.49-.05.68-.07.19-.03.32-.05.47-.09.21-.07.32-.16.44-.26.21-.19.4-.42.63-.71.38-.51.83-1.19,1.29-1.94.7-1.13,1.43-2.41,2.02-3.45.21-.37.4-.71.56-1.01.55.91,1.41,2.33,2.31,3.75.7,1.11,1.42,2.21,2.04,3.07.31.43.58.79.83,1.08.12.14.24.26.35.37.06.05.12.1.19.15.07.05.15.09.26.13.16.05.27.06.43.07.15.01.32.01.51.01,1.35,0,4.01-.2,6.56-.46.93-.09,1.85-.2,2.68-.3.03.15.07.3.1.45.05.26.1.51.14.77-.22.02-.45.03-.66.05-1.55.15-2.92.49-4.29,1.38-.57.37-1.02.86-1.37,1.39-.13.05-.27.11-.41.18-.57.28-1.17.65-1.67,1.22-.51.57-.88,1.29-1.02,2.16-.06.37-.08.81-.03,1.22.04.42.13.86.31,1.28.34.84,1.03,1.63,1.94,2.02.91.4,1.91.42,2.85.25.95-.17,1.8-.58,2.59-.94.8-.37,1.57-.69,2.38-.88.8-.18,1.71-.25,2.6-.29,1.8-.07,3.65.05,5.47.3.92.12,1.83.27,2.73.45.46.09.88.19,1.32.31.13.03.18.06.27.09.08.02.17.08.26.12.18.09.37.19.56.31.77.46,1.6.98,2.51,1.35.91.38,1.9.59,2.93.55.28,0,.48-.04.7-.07l.16-.02h.06s.02-.02.02-.02h.05s.09-.03.09-.03l.36-.09c.48-.15.95-.36,1.35-.66.42-.28.76-.67,1.05-1.08.12-.2.22-.4.31-.61,1.29-.28,2.31-.81,3.03-1.53.85-.84,1.27-1.93,1.27-3.02,0-1.27-.55-2.55-1.55-3.57-1.12-1.15-2.7-1.86-4.45-2.3-1.75-.44-3.69-.61-5.57-.61-.42,0-.83,0-1.24.02-3.18.12-5.46.37-7.8.6-.05-.41-.1-.82-.16-1.23-.06-.4-.13-.81-.2-1.21,1.03-.34,2.12-.71,3.18-1.08,1.29-.46,2.54-.92,3.57-1.34.52-.21.98-.41,1.37-.6.39-.19.71-.35.96-.52,0,0,0,0,.01,0,2.66,1.58,5.38,2.13,7.74,2.13,1.54,0,2.94-.23,4.09-.54,1.15-.32,2.05-.71,2.65-1.08.19-.12.31-.33.31-.56,0-.23-.12-.44-.32-.55,0,0-.05-.03-.15-.09-.63-.38-3.22-1.98-6.92-4.5.59.08,1.18.12,1.76.12,2.57,0,4.94-.7,6.83-1.58.94-.44,1.77-.93,2.44-1.41.67-.48,1.18-.95,1.53-1.39.13-.17.17-.39.11-.59-.06-.2-.22-.36-.42-.43l-20.91-6.91c-.06-.23-.11-.46-.17-.69,1.11-.4,1.86-.77,2.35-1.04.59-.33.96-.96.96-1.63,0-.05,0-.11,0-.16-.09-1.08-.25-2.4-.45-3.89,2.45,1.12,5.07,1.81,7.83,1.82.32,0,.65,0,.97-.03,1.75-.1,3.14-.56,4.22-1.2,1.62-.96,2.52-2.32,3.01-3.43.11-.24.19-.47.27-.69.42.4.92.79,1.52,1.14,1.11.65,2.52,1.13,4.15,1.13,2.12,0,4.58-.82,7.16-3.03,1.73-1.48,2.84-3,3.52-4.44.67-1.44.9-2.81.9-3.99,0-1.21-.24-2.21-.48-2.93.34.04.74.06,1.19.06,1.49,0,3.47-.29,5.41-1.43,1.94-1.14,3.8-3.15,5.04-6.46.66-1.76.94-3.37.94-4.82,0-3.44-1.55-5.97-3.07-7.6-.64-.69-1.28-1.23-1.81-1.62,1.79-.58,3.74-1.54,5.38-2.99,1.04-.92,1.96-2.03,2.62-3.36.66-1.33,1.05-2.87,1.05-4.62,0-1.05-.14-2.18-.45-3.38ZM131.04,59.05c0,.2.01.42.01.66,0,2.64-.57,7.21-3.73,12.38-.29.47-.62.93-.99,1.38.02-.75.04-1.51.04-2.29,0-2.26-.12-4.64-.41-7.04,2.47-1.92,4.1-3.78,5.08-5.09ZM127.43,47.41c.55-.61,1-1.16,1.34-1.62.23,1.06.48,2.67.48,4.6,0,2.75-.52,6.13-2.35,9.46-.34.63-.79,1.23-1.32,1.82-.14-.8-.3-1.59-.49-2.38-.62-2.58-1.52-5.11-2.77-7.44,2.26-1.58,3.93-3.15,5.11-4.45ZM117.6,42.27c2.08-1.69,3.56-3.35,4.6-4.71.48-.63.85-1.19,1.15-1.67.32,1.14.69,2.94.69,5.13,0,2.57-.51,5.66-2.22,8.85-.1.19-.21.37-.33.55-.46-.73-.95-1.44-1.5-2.11-1.42-1.77-2.92-3.25-4.46-4.5.74-.51,1.44-1.02,2.07-1.54ZM66.66,83.36c-.37-2.76-.93-7.21-.93-12.2,0-3.72.31-7.74,1.23-11.57.49-2.02,1.15-3.99,2.01-5.84.09.02.19.02.28-.03h.02s.27-.15.57-.48c.15-.17.31-.39.48-.64.18-.25.38-.54.62-.84.24-.3.5-.62.79-.94.29-.32.61-.65.95-.96.17-.16.34-.32.53-.47.18-.16.37-.31.57-.44.2-.14.39-.29.6-.4.21-.12.41-.26.62-.34.21-.1.38-.21.65-.29l.37-.13.09-.03h.02s0,0,0,0h.02s.17-.04.17-.04c.45-.12.9-.18,1.32-.18.21.01.42,0,.61.05.1.02.19.03.29.05.09.03.18.06.27.09.35.11.65.3.92.49.25.21.47.42.64.65.17.22.3.42.44.58.14.16.25.28.34.37.08.07.15.12.15.12.04.03.08.06.13.08.21.07.43-.04.5-.25v-.02s.03-.07.03-.23c0-.15-.02-.36-.09-.61-.08-.25-.22-.53-.44-.82-.21-.3-.49-.61-.84-.91-.36-.29-.79-.57-1.29-.75-.13-.04-.25-.09-.38-.14-.13-.03-.27-.06-.4-.08-.27-.07-.55-.07-.84-.09-.57,0-1.14.07-1.69.2l-.21.05h-.03s-.01,0-.01,0l-.05.02-.05.02-.09.03-.37.13c-.24.07-.52.21-.79.34-.28.13-.51.28-.76.43-.18.1-.35.22-.51.34,3.92-4.27,8.29-6.55,12.18-7.77,4.32-1.35,8.02-1.39,9.8-1.39.12,0,.22,0,.33,0s.21,0,.32,0c1.78,0,5.48.04,9.8,1.39,3.59,1.12,7.58,3.15,11.26,6.81l-.13-.07-.36-.13-.36-.13-.07-.02h-.03s-.05-.02-.05-.02l-.1-.02-.2-.05c-.27-.06-.54-.13-.82-.14-.28-.03-.55-.06-.83-.03-.14,0-.28.02-.41.02-.14.02-.27.05-.4.08-.27.04-.52.14-.77.23-.25.08-.46.23-.68.34-.2.14-.4.27-.56.42-.33.3-.61.61-.8.91-.21.29-.34.57-.41.81-.07.25-.08.45-.07.6,0,.16.03.23.03.23v.02s.08.12.08.12c.14.16.39.18.56.04,0,0,.06-.05.14-.12.09-.08.2-.21.33-.36.13-.15.25-.36.41-.57.15-.22.36-.43.61-.64.12-.1.26-.19.4-.28.16-.06.3-.17.47-.21.17-.06.34-.12.53-.14.09-.01.19-.04.29-.05.1,0,.2,0,.3,0,.2-.02.41.01.63.03.21,0,.43.07.65.12l.17.04.08.02h.04s0,.01,0,.01l.34.13.36.13.28.15.28.14c.09.06.19.13.28.19.19.12.38.25.55.41.18.14.35.29.5.46.16.16.32.32.46.5.58.68,1.04,1.4,1.4,2.04.17.32.32.62.45.9.12.27.23.51.35.69.23.37.46.55.46.55l.02.02s.08.05.14.07c.21.06.43-.06.48-.27,0,0,.01-.06.02-.13.87,1.86,1.54,3.84,2.03,5.88.92,3.83,1.23,7.85,1.23,11.57,0,4.99-.56,9.44-.93,12.2-.42,3.14-1.4,8.29-3.74,13.41-3.28,3.36-7.19,5.62-10.92,7.13-.07-.12-.16-.23-.26-.32-.25-.23-.59-.37-.96-.37h-.06c-3.2.12-6.32,1.11-8.67,2.07-.43.17-.83.35-1.2.52-.27-.37-.66-.63-1.09-.76-.43-.13-.89-.17-1.42-.18h0s-.02,0-.02,0c-.69,0-1.34.11-1.88.35-.15.07-.29.15-.43.25-.65-.32-1.48-.71-2.45-1.11-2.34-.96-5.47-1.95-8.67-2.07h-.05c-.37,0-.71.14-.96.37-.25.23-.43.54-.48.9,0,.04-.01.09-.02.13-3.74-1.58-7.56-3.93-10.68-7.4-2.19-4.96-3.11-9.89-3.52-12.93ZM107.68,115.12h-.07c-.58,0-1.72-.12-3.44-.52-1.43-.34-3.28-.87-5.56-1.7.06-.14.11-.29.15-.44.07-.29.12-.63.15-.99,1.69.11,3.55.25,5.2.39,1.34.11,2.55.22,3.42.3.4.04.72.07.96.09-.15.87-.36,1.79-.67,2.76-.02.06-.08.11-.15.11h0ZM98.8,107.02c.44-.2.91-.4,1.43-.61,2.23-.9,5.15-1.78,8.01-1.89h0s0,0,0,0l.09.04.06.11c.1.73.26,1.72.34,2.93-.65-.03-1.86-.07-3.51-.07s-3.86.04-6.34.18c-.02-.17-.04-.34-.06-.48-.01-.08-.02-.14-.03-.21ZM98.98,110.17c0-.1,0-.19,0-.29,0-.29,0-.58-.02-.87,2.45-.14,4.58-.18,6.26-.18,1.25,0,2.25.02,2.93.05.25,0,.45.02.62.02,0,.01,0,.03,0,.04,0,.62-.03,1.3-.1,2-1.35-.13-5.91-.55-9.69-.79ZM97.69,109.88c0,.68-.03,1.35-.11,1.85-.04.25-.08.46-.13.58-.01.04-.02.06-.03.08-.04.02-.09.04-.16.07-.33.12-.93.21-1.53.21-.4,0-.81-.04-1.14-.12-.33-.08-.59-.2-.7-.31,0,0-.04-.04-.07-.12-.06-.13-.12-.35-.15-.63-.04-.28-.05-.61-.05-.95,0-.74.07-1.56.16-2.26.09-.69.19-1.26.23-1.45.02-.06.04-.12.11-.19.1-.11.3-.23.6-.32.29-.09.67-.14,1.08-.14h0c.63,0,1.03.08,1.23.19.1.06.17.12.24.21.07.09.13.22.19.42.02.07.05.22.08.41.08.58.15,1.54.14,2.47ZM82.17,111.35c1.44-.03,4.71-.1,7.8-.1.81,0,1.61,0,2.36.02.02.25.05.5.09.73,0,0,0,0,0,.01-5.2,3.14-8.13,3.52-9.23,3.52h-.08c-.06,0-.13-.05-.15-.11-.44-1.36-.71-2.74-.87-4.07.02,0,.04,0,.07,0ZM81.98,110.05c-.05-.71-.08-1.4-.08-2.04,1.34.04,5.28.2,10.49.9-.03.34-.06.7-.07,1.05-.75-.01-1.54-.02-2.35-.02-3.24,0-6.65.07-7.99.1ZM81.92,106.71c.05-1.29.16-2.33.25-2.97l.06-.11.09-.04h0c2.96.11,5.97,1.05,8.22,1.98.85.35,1.59.69,2.19.99-.05.21-.12.58-.19,1.06-5.29-.71-9.27-.87-10.63-.91ZM61.72,131.22c-2.22.96-4.54,1.55-6.96,1.55-.3,0-.6,0-.9-.03-1.57-.09-2.74-.49-3.63-1.02-1.34-.79-2.07-1.9-2.48-2.83-.2-.46-.33-.88-.39-1.17-.03-.15-.06-.26-.07-.34v-.08s-.01-.02-.01-.02h0c-.03-.27-.23-.5-.49-.57-.27-.07-.55.04-.7.28-.34.52-1.03,1.22-1.96,1.76-.94.55-2.12.95-3.49.95-1.78,0-3.91-.67-6.31-2.72-1.61-1.38-2.59-2.74-3.18-4-.59-1.26-.78-2.43-.78-3.44,0-1.04.21-1.91.42-2.52.1-.3.21-.54.28-.7.04-.08.07-.14.09-.17l.02-.04h0s0,0,0,0c.13-.23.12-.52-.04-.73-.16-.21-.43-.3-.69-.23-.21.06-1.02.23-2.09.23-1.33,0-3.07-.26-4.74-1.25-1.68-1-3.32-2.72-4.48-5.8-.61-1.63-.85-3.08-.85-4.37,0-3.03,1.35-5.23,2.72-6.71.69-.74,1.37-1.29,1.89-1.65.26-.18.47-.31.61-.4.07-.04.13-.08.17-.1l.04-.02h0s0,0,0,0c.24-.13.38-.39.35-.66-.03-.27-.24-.49-.5-.55-1.95-.44-4.35-1.44-6.22-3.09-.94-.83-1.74-1.81-2.31-2.97-.57-1.16-.91-2.49-.91-4.04,0-.94.13-1.96.41-3.06.5-1.95,1.38-3.48,2.43-4.69,1.57-1.82,3.53-2.92,5.11-3.56.79-.32,1.47-.53,1.96-.65.24-.06.44-.1.57-.13.06-.01.11-.02.15-.03h.03s0,0,0,0c.23-.04.42-.19.51-.4.08-.21.05-.46-.09-.64-.63-.8-1.16-1.97-1.52-3.35-.36-1.38-.56-2.96-.56-4.59,0-2.71.55-5.56,1.73-7.83.59-1.14,1.33-2.14,2.24-2.92.9-.78,1.97-1.36,3.23-1.66.67-.16,1.31-.23,1.92-.23,1.72,0,3.28.58,4.71,1.53,2.14,1.42,3.96,3.7,5.42,5.99,1.46,2.29,2.55,4.56,3.31,5.98,4.64,8.72,10.96,16.63,15.33,22.16,3.02,3.82,5.58,7.68,7.38,10.59.18.28.34.55.5.82-.42,1.86-1.86,8.34-3.41,15.66-1.35,6.37-2.79,13.36-3.72,18.52ZM69.78,156.95c-1.22-.64-2.39-1.26-3.33-1.78-.47-.26-.89-.5-1.23-.7-.34-.2-.6-.36-.75-.46-.48-.33-.75-.59-.89-.83-.07-.12-.12-.24-.16-.39-.04-.15-.05-.33-.05-.56,0-.49.09-1.17.24-2.12.11-.67.46-2.08.93-3.76.58-2.06,1.32-4.56,2.01-6.79,2.78.76,6.82,1.58,12.54,2.21-.09.24-.17.52-.24.86-.09.38-.19.81-.29,1.27-.44,1.86-1,4.35-1.54,6.84-.25,1.25-.51,2.5-.75,3.67-.12.59-.22,1.16-.32,1.7-.05.27-.09.54-.14.8-.02.13-.04.27-.06.4-.02.13-.03.24-.04.37-.05.52-.07.97-.06,1.38,0,.33.02.62.06.87-1.56-.74-3.82-1.87-5.92-2.97ZM80.46,165.05c1.25.14,2.22.38,3.2.93-.03,0-.05,0-.08,0-.43-.04-.81-.05-1.14-.04-.33,0-.61.02-.84.04-.45.05-.69.08-.69.08-.13.02-.25.12-.28.27-.04.18.08.36.26.4h.02s.23.05.66.12c.22.03.48.07.79.12.31.05.66.1,1.05.19.77.15,1.71.36,2.63.81.45.23.9.53,1.25.94.34.39.58.93.66,1.46.04.33.05.62,0,.93-.03.31-.11.61-.23.89-.24.56-.68,1.02-1.26,1.27-.58.24-1.32.26-2.04.11-.73-.14-1.45-.5-2.25-.89-.8-.39-1.67-.79-2.63-1.03-.96-.24-1.9-.32-2.85-.39-1.9-.11-3.83-.03-5.73.19-.95.11-1.9.26-2.84.45-.46.09-.95.2-1.41.32-.1.02-.27.08-.4.13-.15.05-.25.11-.38.16-.24.11-.45.23-.66.35-.82.48-1.56.94-2.34,1.24-.76.32-1.58.46-2.3.43-.16,0-.4-.04-.61-.06l-.16-.02h.02s-.02,0-.02,0h-.03s-.07-.03-.07-.03l-.27-.07c-.34-.12-.67-.26-.94-.47-.29-.19-.5-.45-.69-.72-.15-.28-.3-.57-.34-.89-.12-.63.02-1.28.3-1.87.08-.14.16-.29.24-.43.09-.13.18-.25.27-.38.09-.13.23-.27.35-.4l.09-.1.04-.05.02-.03v.02s0,0,0,0l.17-.15c.91-.83,2.09-1.26,3.14-1.53,1.06-.26,2.02-.39,2.81-.49.79-.1,1.43-.17,1.86-.21.43-.05.66-.07.66-.07.14-.02.26-.11.29-.25.04-.18-.07-.36-.25-.41,0,0-.24-.06-.69-.12-.45-.06-1.11-.12-1.96-.11-.85.02-1.88.12-3.05.41-1.15.3-2.51.74-3.71,1.81-.95.85-2,2.28-1.99,3.98-.78-.26-1.36-.62-1.78-1.04-.6-.61-.87-1.32-.87-2.08,0-.9.4-1.88,1.22-2.69.85-.85,2.15-1.47,3.68-1.85,1.53-.39,3.29-.55,5.02-.55.54,0,1.08.02,1.6.04,3.14.17,5.38.44,7.72.7-.04.4-.07.81-.05,1.22.02.42.08.84.25,1.27.04.09.1.16.2.2.18.07.39-.01.46-.2h0c.32-.8.37-1.59.45-2.39.09-.8.21-1.59.36-2.38.08-.42.17-.84.26-1.26.03.01.05.03.08.04.99.48,1.76.83,2.22.99.25.09.53.14.86.19.31.04.68.08,1.07.1-.03.16-.07.31-.1.47-.13.69-.24,1.39-.32,2.1-.02.18-.03.35-.04.53-.02.18,0,.36,0,.54.02.36.08.72.22,1.08.03.08.1.16.18.2.18.08.39,0,.47-.18v-.02c.17-.34.23-.66.31-.99.06-.31.11-.62.14-.92.25.02.49.04.72.07ZM107.57,161.42c-2.22.21-4.4.36-5.48.36-.18,0-.32,0-.42-.01-.04,0-.06,0-.08,0-.03-.02-.06-.06-.11-.1-.15-.15-.36-.41-.6-.73-.85-1.14-2.09-3.07-3.14-4.76-1.05-1.69-1.91-3.14-2.02-3.34-.12-.2-.33-.32-.56-.32-.23,0-.44.12-.56.31-.05.09-.14.25-.28.5-.48.87-1.49,2.7-2.48,4.33-.49.81-.98,1.58-1.37,2.14-.2.28-.38.51-.51.66-.06.07-.12.12-.15.15-.05,0-.14.02-.25.04-.58.07-1.76.16-3.16.22-1.4.06-3.03.11-4.53.11-1.05,0-2.05-.02-2.85-.07-.4-.03-.76-.06-1.04-.1-.28-.04-.5-.09-.6-.13-.12-.04-.3-.12-.52-.21.02-.12.05-.26.06-.43.03-.27.02-.59.03-.96,0-.37.03-.79.09-1.22.01-.1.04-.23.05-.35.02-.12.04-.23.07-.35.05-.25.1-.51.16-.77.11-.53.23-1.1.36-1.68.25-1.17.52-2.41.78-3.65.52-2.49,1.04-4.99,1.41-6.86.09-.47.18-.9.26-1.28.08-.38.14-.71.15-1,0,0,0,0,0-.01,4.25.43,9.37.74,15.52.85h.02c6.12-.11,11.14-.42,15.26-.84,0,.03-.09.35-.05.87.02.27.08.59.17.95.08.36.18.77.28,1.21.41,1.78.96,4.15,1.51,6.52.28,1.18.56,2.36.82,3.47.13.55.25,1.08.36,1.59.11.51.2.96.24,1.38.04.42.06.82.06,1.17,0,.35,0,.66.02.92.02.18.04.32.07.45-.12.04-.25.07-.36.11-.16.05-.46.11-.83.17-1.3.23-3.58.5-5.8.71ZM118.57,166.84c.18-.42.24-.84.27-1.26.02-.41,0-.82-.04-1.22,2.35-.23,4.59-.47,7.73-.59.39-.02.79-.02,1.19-.02,1.8,0,3.64.17,5.25.57,1.61.4,2.97,1.05,3.84,1.95.79.81,1.18,1.77,1.18,2.66,0,.77-.28,1.49-.88,2.1-.42.42-1.02.78-1.81,1.03.04-1.7-1-3.15-1.93-4.01-1.19-1.09-2.54-1.55-3.69-1.86-1.16-.31-2.2-.42-3.04-.46-.85-.02-1.51.02-1.96.08-.45.06-.69.11-.69.11-.13.03-.24.14-.26.29-.02.19.11.35.29.38,0,0,.23.03.66.08.43.05,1.06.13,1.86.24.79.11,1.75.26,2.8.54,1.04.29,2.22.73,3.12,1.58l.17.15h.01s-.01,0-.01,0l.02.03.04.05.09.1c.11.13.25.28.34.41.09.13.17.25.26.38.08.14.15.29.23.43.28.59.41,1.25.28,1.87-.04.32-.2.6-.35.89-.2.26-.41.52-.7.7-.28.2-.61.34-.95.45l-.27.06-.07.02h-.03s-.02.01-.02.01h.02s-.16.02-.16.02c-.21.03-.45.07-.61.06-.73.02-1.54-.13-2.3-.46-.77-.32-1.5-.79-2.32-1.28-.2-.12-.42-.25-.66-.36-.13-.06-.23-.12-.38-.17-.13-.05-.3-.11-.4-.13-.46-.13-.95-.25-1.41-.34-.94-.2-1.88-.36-2.83-.49-1.9-.24-3.83-.35-5.73-.27-.95.05-1.89.12-2.86.35-.96.23-1.84.61-2.65.99-.81.37-1.54.72-2.27.86-.72.14-1.46.12-2.04-.14-.58-.25-1.01-.72-1.25-1.29-.12-.28-.19-.58-.22-.89-.04-.32-.03-.6.02-.93.09-.52.33-1.06.69-1.45.35-.4.8-.69,1.26-.92.93-.44,1.87-.63,2.64-.77.39-.08.74-.13,1.05-.17.31-.05.57-.09.79-.11.43-.06.66-.1.66-.1h.02c.13-.03.24-.14.27-.28.03-.18-.09-.36-.28-.39,0,0-.24-.04-.69-.09-.23-.03-.5-.05-.83-.06-.33-.02-.71,0-1.14.02-.03,0-.05,0-.08,0,.99-.54,1.96-.76,3.21-.89.23-.02.48-.04.73-.06.03.31.08.62.13.93.08.33.13.66.29,1v.02c.05.08.11.15.21.19.18.07.39-.02.46-.2.14-.35.21-.71.23-1.07,0-.18.03-.36,0-.54,0-.18-.02-.36-.04-.53-.07-.71-.17-1.41-.29-2.1-.02-.13-.05-.25-.07-.38.33-.05.63-.09.9-.14.39-.07.71-.13.96-.2.65-.18,1.49-.44,2.43-.74.07.33.13.66.19.99.14.79.24,1.59.32,2.38.07.8.11,1.59.42,2.39h0c.03.1.1.17.19.21.18.08.39,0,.47-.19ZM140.2,156.96c-.37.15-.81.3-1.3.43-1.05.29-2.33.49-3.75.49-2.06,0-4.4-.44-6.73-1.74.09-.12.18-.25.25-.39.28-.52.37-1.09.37-1.72,0-.69-.11-1.47-.25-2.46-.08-.58-.28-1.54-.54-2.75,5.53,4.05,10.02,6.93,11.94,8.12ZM145.64,147.49c-.17.14-.36.29-.57.45-.9.65-2.15,1.34-3.62,1.87-1.46.53-3.14.89-4.88.89-1.19,0-2.42-.17-3.64-.56-.44-.14-.87-.3-1.3-.48-1.2-.85-2.47-1.77-3.79-2.76-.4-1.77-.88-3.8-1.34-5.73l19.15,6.33ZM126.84,148.4c.34,1.52.59,2.76.68,3.36.14.98.24,1.72.23,2.27,0,.51-.07.83-.22,1.11-.15.27-.39.54-.85.84-.15.1-.43.26-.79.42-1.27.6-3.52,1.45-5.79,2.23-1.57.55-3.15,1.06-4.43,1.46,0,0,0,0,0-.01.07-.27.1-.61.11-1,.01-.39,0-.83-.03-1.32-.03-.48-.12-1.01-.22-1.53-.1-.53-.21-1.07-.33-1.63-.25-1.12-.52-2.31-.79-3.5-.57-2.37-1.17-4.74-1.63-6.5-.12-.44-.22-.85-.32-1.21-.09-.36-.18-.67-.29-.92-.15-.33-.3-.55-.38-.66,6.21-.67,10.29-1.59,12.92-2.42.29,1.21.6,2.51.91,3.81.43,1.84.86,3.66,1.2,5.19ZM127.69,136.81c-1.95,1.09-9.55,4.24-31.87,4.62-22.39-.39-30.95-3.56-33.26-4.66-.2-.1-.32-.3-.32-.51v-.08s0,0,0,0c.07-.49.15-1.04.25-1.63.16-1.01.36-2.15.59-3.4.21-1.13.44-2.35.68-3.63.21-1.09.43-2.23.67-3.39.25-1.23.5-2.48.76-3.76.23-1.12.47-2.25.7-3.38.28-1.35.57-2.69.85-4.01.92-4.34,1.8-8.39,2.46-11.35.33-1.48.59-2.69.78-3.53,0-.04.02-.07.02-.11,3.23,3.31,7.04,5.54,10.73,7.05-.07.78-.12,1.72-.12,2.78,0,2.32.24,5.18,1.14,7.99.19.59.73,1,1.36,1.02h0s.1,0,.1,0c1.39,0,4.51-.47,9.8-3.65,0,0,0,.01.01.02.36.32.81.5,1.27.61.46.11.96.16,1.44.16.48,0,.96-.04,1.37-.13.07-.01.12-.03.18-.05,2.73,1.02,4.92,1.67,6.59,2.07,1.79.42,3,.56,3.73.56h.1s0,0,0,0c.63-.01,1.17-.42,1.36-1.01.78-2.44,1.02-4.63,1.02-6.46,0-1.54-.17-2.82-.3-3.76.08-.03.16-.06.24-.09,3.84-1.56,7.88-3.91,11.3-7.41,0,.02,0,.05.01.07.59,2.95,2.06,10.46,3.48,18.29.13.74.27,1.49.4,2.23.2,1.14.4,2.28.6,3.41.21,1.19.41,2.37.6,3.51.2,1.18.38,2.32.55,3.41.18,1.15.34,2.24.48,3.26.18,1.28.33,2.45.43,3.45.04.33.07.65.09.95v.05c0,.21-.1.39-.29.49ZM176.41,87.81c-.86,1.73-2.24,3.08-3.8,4.08-1.55,1-3.28,1.64-4.74,1.97-.27.06-.47.28-.5.55-.04.27.1.54.35.66h0s1.43.77,2.78,2.24c1.35,1.48,2.65,3.66,2.65,6.65,0,1.29-.24,2.74-.85,4.37-1.16,3.08-2.8,4.8-4.48,5.8-1.68.99-3.42,1.25-4.74,1.25-1.07,0-1.87-.17-2.09-.23-.26-.07-.53.02-.69.23-.16.21-.18.5-.04.73h0s.81,1.43.81,3.44c0,1.01-.19,2.18-.78,3.44-.59,1.26-1.57,2.62-3.18,4-2.4,2.05-4.53,2.72-6.31,2.72-1.37,0-2.55-.4-3.49-.95-.94-.54-1.63-1.24-1.96-1.76-.15-.23-.43-.34-.7-.28-.27.07-.46.29-.49.57h0s-.16,1.34-1.05,2.65c-.45.65-1.07,1.31-1.95,1.82-.89.52-2.04.9-3.59,1-.3.02-.6.03-.9.03-2.81,0-5.51-.79-8.05-2.06-.22-1.54-.48-3.2-.77-4.97-1.78-10.87-4.56-24.96-5.29-28.64,1.82-2.98,4.59-7.25,7.92-11.47,4.37-5.52,10.69-13.44,15.33-22.15.51-.95,1.16-2.28,1.97-3.73,1.22-2.18,2.8-4.66,4.73-6.56.96-.95,2.01-1.75,3.13-2.32,1.12-.56,2.32-.89,3.61-.89.62,0,1.25.07,1.92.23,1.26.3,2.32.88,3.23,1.66,1.35,1.18,2.35,2.83,3,4.72.65,1.89.96,4,.96,6.03,0,1.63-.2,3.22-.56,4.59-.36,1.38-.89,2.55-1.52,3.35-.14.18-.18.43-.09.64.08.21.28.37.51.4h0c.08.01,2.19.37,4.49,1.69,1.15.66,2.35,1.55,3.37,2.75,1.03,1.2,1.89,2.71,2.38,4.64.28,1.11.41,2.12.41,3.06,0,1.55-.34,2.88-.92,4.04Z"/>
            <path d="M82.22,82.19c0,5.42,1.39,10.84,3.73,14.96,1.17,2.06,2.58,3.8,4.2,5.04,1.62,1.24,3.46,1.98,5.43,1.98,1.99,0,3.83-.8,5.45-2.12,2.42-1.99,4.36-5.16,5.73-8.87,1.36-3.72,2.14-7.98,2.14-12.19,0-.18,0-.36,0-.54h-.65s.65,0,.65,0c-.09-5.68-1.53-10.14-3.91-13.2-2.37-3.06-5.71-4.7-9.39-4.69-1.83,0-3.56.37-5.12,1.12-2.34,1.13-4.27,3.12-5.67,5.91-1.4,2.8-2.27,6.4-2.53,10.82-.03.59-.05,1.19-.05,1.78ZM83.57,80.49c.33-5.73,1.73-9.92,3.83-12.63,1.05-1.36,2.27-2.35,3.63-3.01,1.37-.66,2.89-.99,4.55-.99,3.3,0,6.2,1.42,8.37,4.19,2.16,2.77,3.55,6.94,3.64,12.42h0c0,.17,0,.35,0,.52,0,5.39-1.34,10.94-3.54,15.09-1.1,2.07-2.41,3.79-3.85,4.97-1.44,1.18-2.99,1.82-4.62,1.83-1.64,0-3.19-.6-4.63-1.71-2.16-1.65-4.04-4.44-5.35-7.8-1.31-3.36-2.07-7.28-2.07-11.17,0-.57.02-1.14.05-1.7Z"/>
            <path d="M86.21,79.79c-.03.4-.07.8-.09,1.22,0,0,0,0,0,0h0c-.02.46-.04.93-.04,1.39,0,4.23.97,8.47,2.61,11.7.82,1.62,1.81,2.99,2.96,3.97,1.15.99,2.48,1.59,3.92,1.59,1.46,0,2.8-.66,3.94-1.71,1.72-1.58,3.07-4.07,4.03-6.97.95-2.91,1.49-6.24,1.49-9.52,0-.14,0-.28,0-.43,0-.45-.03-.89-.05-1.32.13-.11.25-.22.35-.33.23-.26.37-.51.44-.69.07-.17.1-.31.09-.3.09-.16.04-.36-.12-.45-.16-.09-.36-.04-.46.12,0,0-.06.02-.2.11-.12.07-.31.18-.54.32-.23.14-.5.31-.83.49-.33.17-.74.33-1.2.44-.29.09-.5.12-.83.25-.31.11-.59.23-.89.37-.58.28-1.14.61-1.69.9-.55.3-1.11.54-1.7.7-.58.16-1.25.22-1.85.22h-.52c-.18-.02-.31-.04-.46-.05-.3-.03-.62-.09-.91-.17-.6-.15-1.15-.4-1.7-.7-.55-.3-1.11-.63-1.69-.9-.56-.28-1.2-.48-1.7-.61-.27-.07-.47-.14-.66-.2-.2-.08-.38-.16-.55-.24-.33-.18-.6-.35-.83-.49-.45-.27-.74-.45-.73-.43-.09-.16-.29-.22-.46-.13-.16.09-.22.29-.13.46,0,.01.02.13.1.31.07.18.21.43.45.69.12.13.27.27.44.4ZM98.62,97.01c-.98.9-2,1.36-3.06,1.37-1.07,0-2.09-.44-3.07-1.28-.98-.84-1.88-2.09-2.65-3.59.62-1.09,1.44-1.99,2.4-2.62.98-.64,2.09-1,3.28-1,1.17,0,2.26.35,3.23.97.95.61,1.77,1.49,2.4,2.56-.74,1.5-1.6,2.74-2.53,3.59ZM87.42,81.09h0c.01-.21.03-.41.04-.62.25.1.51.19.74.25.51.15.95.3,1.46.56.5.25,1.02.58,1.61.91.59.33,1.28.65,2.01.84.37.1.74.17,1.13.22.41.05.75.06,1.1.07.8,0,1.53-.09,2.27-.29.73-.2,1.42-.51,2.01-.84.6-.33,1.12-.66,1.61-.91.25-.13.5-.24.72-.32.2-.09.52-.17.73-.24.29-.08.57-.18.82-.29,0,.21.02.41.02.62,0,.13,0,.27,0,.41,0,3.69-.72,7.48-1.94,10.52-.64-.9-1.43-1.66-2.32-2.23-1.16-.75-2.51-1.18-3.94-1.18-1.45,0-2.82.44-3.99,1.21-.9.59-1.69,1.37-2.34,2.29-.13-.33-.26-.66-.38-1-.91-2.6-1.44-5.65-1.44-8.67,0-.44.01-.88.03-1.32Z"/>
            <path d="M72.56,82.41c.97.7,2.12,1.1,3.38,1.1,1.15,0,2.23-.49,3.15-1.3,1.39-1.22,2.49-3.14,3.27-5.52.11-.34.21-.69.31-1.05,0-.02.01-.04.02-.05.57-1.71.9-3.75.9-5.95,0-.24,0-.47,0-.71,0-.18,0-.35,0-.53,0-4.07-.75-7.77-2.03-10.5-.64-1.37-1.41-2.5-2.33-3.31-.91-.81-1.98-1.3-3.13-1.3-1.15,0-2.22.49-3.12,1.3-1.36,1.22-2.42,3.15-3.22,5.52-.79,2.38-1.31,5.21-1.47,8.25-.03.6-.05,1.19-.05,1.77,0,3.69.64,6.96,1.91,9.37.64,1.21,1.43,2.2,2.41,2.91ZM77.47,70.8c-1.68,0-2.37-1.68-2.19-4.17.16-2.26,1.03-4.04,2.19-4.04,1.17,0,1.96,1.84,1.96,4.1s-.8,4.1-1.96,4.1ZM69.54,70.13c0-.55.02-1.12.05-1.7.21-3.92,1.03-7.46,2.23-9.97.6-1.25,1.3-2.24,2.03-2.9.74-.65,1.48-.97,2.26-.97.78,0,1.53.32,2.27.97.94.83,1.8,2.21,2.47,3.98-.67-.54-1.51-.84-2.43-.84-.84,0-1.62.35-2.29.92-1,.86-1.78,2.2-2.37,3.9-.58,1.7-.96,3.77-1.06,6.07-.02.36-.02.71-.02,1.06,0,2.67.44,5.05,1.28,6.84.42.89.95,1.64,1.61,2.19.65.54,1.45.87,2.32.86.41,0,.81-.08,1.2-.23-.28.35-.56.65-.85.91-.75.66-1.52.97-2.3.97-.99,0-1.84-.3-2.62-.85-1.16-.83-2.11-2.29-2.77-4.23-.66-1.94-1.01-4.34-1.01-6.99Z"/>
            <path d="M108.61,75.65c.32,1.19.72,2.28,1.19,3.25.66,1.37,1.46,2.49,2.38,3.3.92.81,2,1.3,3.15,1.3,1.26,0,2.41-.39,3.38-1.1,1.46-1.06,2.53-2.76,3.24-4.87.72-2.11,1.08-4.64,1.08-7.41,0-.58-.02-1.17-.05-1.77-.22-4.05-1.05-7.74-2.36-10.46-.65-1.36-1.43-2.49-2.33-3.31-.9-.81-1.97-1.31-3.12-1.3-1.15,0-2.23.49-3.13,1.3-1.36,1.22-2.43,3.15-3.18,5.53-.75,2.38-1.17,5.22-1.18,8.28,0,.12,0,.24,0,.36,0,.29,0,.58,0,.87,0,2.22.34,4.29.92,6.02ZM110.89,58.46c.59-1.25,1.28-2.24,2.01-2.89.74-.65,1.49-.97,2.27-.97.78,0,1.52.32,2.26.97,1.1.98,2.11,2.72,2.85,4.96.75,2.24,1.25,4.97,1.4,7.91l.65-.04-.65.04c.03.57.05,1.14.05,1.7,0,3.53-.63,6.62-1.77,8.76-.56,1.07-1.25,1.9-2.02,2.46-.77.55-1.63.85-2.62.85-.78,0-1.54-.32-2.3-.98-.29-.25-.58-.56-.85-.91.38.15.78.23,1.19.23.87,0,1.67-.32,2.32-.86.99-.82,1.69-2.09,2.17-3.63.48-1.55.73-3.39.73-5.39,0-.35,0-.7-.02-1.06-.13-3.08-.75-5.72-1.71-7.65-.48-.97-1.05-1.76-1.72-2.33-.66-.57-1.45-.92-2.29-.92-.92,0-1.75.3-2.43.83.14-.38.3-.75.46-1.1ZM111.81,62.6c1.17,0,2.03,1.78,2.19,4.04.18,2.48-.51,4.17-2.19,4.17-1.17,0-1.96-1.84-1.96-4.1,0-2.27.8-4.1,1.96-4.1Z"/>
            <polygon points="60.94 136.01 60.94 136.01 60.94 136.01 60.94 136.01"/>
            <polygon points="108.19 103.22 108.19 103.22 108.19 103.22 108.19 103.22"/>
          </g>
        </g>
      </g>
    </g>
  </g>
  <g id="list-type">
    <g>
      <g>
        <path class="cls-17" d="M65.46,186.14c-7.14,0-11.78-.2-15.22-1.61-1.22.88-2.68,1.56-4.3,1.56-3.74,0-6.9-3.27-6.9-7.14,0-2.96,1.86-4.6,2.56-5.22.07-.06.14-.12.21-.19-.46-.32-.88-.71-1.24-1.16-.69-.85-1.51-2.32-1.51-4.5,0-2.03.71-3.77,1.91-4.99-.74-.9-1.39-2.14-1.39-3.96,0-3.83,3.36-7.2,7.2-7.2,1.62,0,2.86.5,3.86,1.19,1.21-1.06,2.86-1.67,4.76-1.67,1.33,0,2.55.31,3.57.86.98-.65,2.15-1.01,3.5-1.05.05,0,.1,0,.15,0,2.16,0,4.09.92,5.37,2.36h.25c3.59,0,6.3,2.85,6.3,6.63,0,1.39-.36,2.65-1,3.7.02.18.02.36.02.53,0,.46-.04.91-.13,1.35.64.86,1.32,2.23,1.32,4.21,0,1.94-.71,3.63-1.9,4.82,1.03,1.17,1.62,2.72,1.62,4.5s-.73,4.29-2.77,5.75c-.04.03-.09.06-.13.09-1.71,1.14-3.46,1.14-6.11,1.14h0Z"/>
        <path class="cls-17" d="M94.21,186.52c-1.55,0-2.86-.51-3.96-1.27-1.05.56-2.09.83-3.16.83-1.01,0-1.98-.23-2.85-.63-.56.11-1.06.18-1.47.23-3.09.43-5.62.53-5.96.53-.65,0-1.28-.1-1.86-.28-.66.17-1.29.23-1.83.23-3.95,0-7.17-3.03-7.17-6.76,0-.96.25-1.81.53-2.59.83-2.37.83-5,.83-8.98v-4.83c0-3.98,1.86-6.45,5.29-7.1.91-2.53,3.37-4.24,6.41-4.24,1.71,0,3.06.45,4.11,1.14h1.8c.18,0,.37,0,.54.02,1.14-.79,2.58-1.24,4.2-1.24,1.54,0,2.91.41,4.03,1.12.09,0,.19,0,.28,0,2.26,0,4.12,1.05,5.52,3.11,1.63,2.4,1.81,3.91,1.81,4.84,0,.44-.05.87-.14,1.28.32.84.49,1.77.49,2.76,0,1.2-.26,2.31-.74,3.25.04.28.06.56.06.85,0,.59-.13,1.42-.43,2.45.92,1.06,1.46,2.45,1.46,4,0,1.11-.3,2.92-.55,4.24-1.17,6.36-5.46,7.05-7.24,7.05h-.01Z"/>
        <path class="cls-17" d="M111.08,186.6c-2.22,0-4.11-.83-5.37-2.2-1.84.92-3.76,1.55-5.51,1.55-3.84,0-6.74-3.11-6.74-7.22,0-1.3.32-2.47.92-3.45-.38-.88-.59-1.86-.59-2.92,0-.63.07-1.24.22-1.81-.39-.89-.6-1.88-.59-2.94,0-1.2.27-2.3.77-3.25-.41-.76-.69-1.71-.69-2.88,0-2.28,1.18-4.35,2.97-5.58.08-.17.16-.34.23-.51.02-.05.04-.1.07-.15,1.06-2.25,3.2-3.59,5.71-3.59,1.44,0,2.78.45,3.86,1.22,1.17-1.05,2.75-1.62,4.57-1.62,1.62,0,3.08.43,4.25,1.17.85-.53,1.94-.88,3.34-.88,2.96,0,5.41,1.76,6.28,4.27,1.67,1.18,2.79,3.08,2.79,5.18,0,.43-.03.82-.1,1.2.43.77.73,1.7.87,2.82.16,1.35.31,2.73.31,3.75,0,.86-.17,1.67-.47,2.4.06.39.09.79.09,1.2,0,1.01-.19,1.95-.54,2.8.67,1.03,1.03,2.27,1.03,3.63,0,4-2.97,7.14-6.76,7.14-1.64,0-3.59-.64-5.52-1.6-1.25,1.42-3.16,2.27-5.41,2.27Z"/>
        <path class="cls-17" d="M129.27,185.87c-5.07,0-8.09-3.03-8.09-8.09v-17.63c0-5.08,3.03-8.12,8.09-8.12h17.79c5.07,0,8.09,3.04,8.09,8.12v17.63c0,5.07-3.03,8.09-8.09,8.09h-17.79Z"/>
      </g>
      <path class="cls-19" d="M147.06,145.04h-17.79c-2.17,0-4.02.53-5.48,1.5-1.36-1.24-3.21-1.99-5.28-1.99-1.34,0-2.44.28-3.33.72-1.22-.65-2.67-1.02-4.26-1.02-1.8,0-3.38.49-4.65,1.39-1.11-.63-2.41-.99-3.79-.99-1.94,0-3.67.7-4.99,1.94-1.25-.69-2.51-.91-3.52-.91h-.05c-1.21-.71-2.67-1.11-4.26-1.11-1.67,0-3.19.45-4.44,1.23-.1,0-.21,0-.31,0h-1.49c-1.15-.7-2.62-1.14-4.42-1.14-2.75,0-5.06,1.24-6.44,3.18-1.15-.86-2.58-1.38-4.16-1.42-1.45-1.45-3.51-2.36-5.8-2.36-.06,0-.12,0-.18,0-1.08.03-2.33.26-3.52.92-1.05-.47-2.23-.74-3.51-.74-1.84,0-3.49.54-4.81,1.47-.99-.56-2.26-.98-3.82-.98-4.37,0-8.2,3.83-8.2,8.2,0,1.67.5,2.95,1.13,3.92-1.04,1.34-1.65,3.08-1.65,5.03,0,1.96.6,3.74,1.73,5.14.16.2.33.38.5.56-.94.95-2.26,2.68-2.26,5.37,0,4.41,3.61,8.14,7.9,8.14,1.66,0,3.16-.6,4.42-1.42,3.52,1.29,8.17,1.48,15.1,1.48h0c1.91,0,3.44-.01,4.86-.45.88.31,1.82.48,2.81.48.66,0,1.26-.07,1.82-.19.59.16,1.22.24,1.87.24.35,0,2.95-.1,6.09-.54.32-.04.73-.1,1.21-.19.92.38,1.93.6,2.97.6s2.07-.23,3.08-.68c1.14.68,2.47,1.11,4.03,1.12h.01c.71,0,2.18-.12,3.69-.91.72.22,1.49.34,2.29.34,1.66,0,3.49-.51,5.3-1.33,1.41,1.25,3.35,1.99,5.58,1.99s4.17-.78,5.6-2.07c1.84.84,3.7,1.4,5.33,1.4,1.19,0,2.31-.28,3.31-.76,1.16.46,2.48.71,3.95.71h17.79c5.61,0,9.09-3.48,9.09-9.09v-17.63c0-5.71-3.4-9.12-9.09-9.12Z"/>
      <text class="cls-10" transform="translate(43.28 173.29)"><tspan x="0" y="0"></tspan></text>
    </g>
  </g>
</svg>