<?xml version="1.0" encoding="UTF-8"?>
<svg id="_內容" data-name="內容" xmlns="http://www.w3.org/2000/svg" xmlns:xlink="http://www.w3.org/1999/xlink" viewBox="0 0 170 180">
  <defs>
    <style>
      .cls-1 {
        fill: none;
      }

      .cls-2 {
        fill: #ee92ba;
      }

      .cls-3 {
        fill: #ed848c;
      }

      .cls-4 {
        opacity: .3;
      }

      .cls-4, .cls-5 {
        fill: #fff;
      }

      .cls-6 {
        clip-path: url(#clippath-1);
      }

      .cls-7 {
        fill: #f09aa8;
      }

      .cls-8 {
        fill: #f6c8dd;
      }

      .cls-9 {
        fill: #a9a89f;
      }

      .cls-10 {
        fill: #e63556;
      }

      .cls-11 {
        fill: #dd7a8d;
      }

      .cls-12 {
        clip-path: url(#clippath);
      }
    </style>
    <clipPath id="clippath">
      <path class="cls-1" d="M9.5,75.93c0,21.91,2.42,44.41,16.78,58.77,14.36,14.36,36.86,16.79,58.77,16.8,21.91,0,44.41-2.42,58.77-16.78,14.36-14.36,16.79-36.86,16.8-58.77,0-21.91-2.42-44.41-16.78-58.77C129.48,2.81,106.98.38,85.07.38c-21.91,0-44.41,2.42-58.77,16.78-14.36,14.36-16.79,36.86-16.8,58.77Z"/>
    </clipPath>
    <clipPath id="clippath-1">
      <path class="cls-1" d="M9.53,72.37c0,23.27,2.42,47.17,16.78,62.42,14.36,15.25,36.86,17.83,58.77,17.84,21.91,0,44.41-2.58,58.77-17.82,14.36-15.25,16.79-39.15,16.8-62.42,0-23.27-2.42-47.17-16.78-62.42S107.01-7.87,85.1-7.87c-21.91,0-44.41,2.58-58.77,17.82-14.36,15.25-16.79,39.15-16.8,62.42Z"/>
    </clipPath>
  </defs>
  <path class="cls-11" d="M9.53,87.29c0,21.91,2.42,44.41,16.78,58.77,14.36,14.36,36.86,16.79,58.77,16.8s44.41-2.42,58.77-16.78c14.36-14.36,16.79-36.86,16.8-58.77s-2.42-44.41-16.78-58.77c-14.36-14.36-36.86-16.79-58.77-16.8-21.91,0-44.41,2.42-58.77,16.78-14.36,14.36-16.79,36.86-16.8,58.77Z"/>
  <path class="cls-7" d="M9.16,75.95c0,21.91,2.42,44.41,16.78,58.77,14.36,14.36,36.86,16.79,58.77,16.8s44.41-2.42,58.77-16.78c14.36-14.36,16.79-36.86,16.8-58.77,0-21.91-2.42-44.41-16.78-58.77C129.14,2.84,106.63.41,84.73.4S40.31,2.83,25.95,17.18c-14.36,14.36-16.79,36.86-16.8,58.77Z"/>
  <circle class="cls-5" cx="85.71" cy="89.16" r="59.56"/>
  <g class="cls-12">
    <path class="cls-4" d="M93.91,6.72c-.2,1.55-.74,2.85-1.67,3.91-1.2,1.36-2.54,2.59-3.84,3.86-.26.25-.57.46-.89.62-1.38.73-2.76,1.44-4.15,2.14-.67.34-1.37.48-2.14.27-.48-.36-.56-.95-.77-1.47-.29-.72-.54-1.46-.87-2.17-.37-.81-.65-1.63-.8-2.51-.25-1.54-.53-3.07-.77-4.61-.07-.45-.04-.92-.06-1.42,1.09-.54,2.2-.73,3.34-.8,1.98-.13,3.94.04,5.89.41,1.43.27,2.86.56,4.28.87.56.12,1.11.28,1.65.45.24.08.45.25.78.44Z"/>
    <path class="cls-4" d="M30.57,58.67c-.33-1.53-.26-2.94.27-4.24.67-1.68,1.53-3.29,2.33-4.92.16-.32.39-.62.63-.89,1.06-1.14,2.12-2.28,3.2-3.41.51-.54,1.13-.91,1.93-.97.57.18.84.71,1.22,1.13.52.58,1,1.2,1.54,1.76.62.63,1.16,1.32,1.59,2.1.75,1.37,1.53,2.72,2.27,4.09.22.4.35.86.53,1.31-.85.87-1.83,1.42-2.88,1.87-1.82.78-3.73,1.28-5.69,1.58-1.44.22-2.88.42-4.32.61-.57.07-1.14.11-1.71.13-.25,0-.5-.08-.89-.15Z"/>
    <path class="cls-4" d="M140.3,81.12c.48-1.36,1.22-2.43,2.26-3.21,1.34-1,2.79-1.85,4.21-2.74.28-.18.6-.3.92-.39,1.38-.39,2.77-.76,4.16-1.13.66-.17,1.33-.17,1.98.17.37.41.32.97.41,1.48.12.71.2,1.43.36,2.12.18.8.27,1.6.23,2.42-.07,1.44-.11,2.87-.2,4.31-.02.42-.14.84-.22,1.29-1.09.28-2.13.23-3.17.08-1.81-.27-3.55-.8-5.24-1.51-1.24-.52-2.47-1.06-3.69-1.61-.48-.22-.95-.46-1.4-.73-.2-.12-.36-.31-.62-.55Z"/>
    <path class="cls-4" d="M28.75,128.17c.2-1.55.74-2.85,1.67-3.91,1.2-1.36,2.54-2.59,3.84-3.86.26-.25.57-.46.89-.62,1.38-.73,2.76-1.44,4.15-2.14.67-.34,1.37-.48,2.14-.27.48.36.56.95.77,1.47.29.72.54,1.46.87,2.17.37.81.65,1.63.8,2.51.25,1.54.53,3.07.77,4.61.07.45.04.92.06,1.42-1.09.54-2.2.73-3.34.8-1.98.13-3.94-.04-5.89-.41-1.43-.27-2.86-.56-4.28-.87-.56-.12-1.11-.28-1.65-.45-.24-.08-.45-.25-.78-.44Z"/>
    <path class="cls-4" d="M61.1,13.22c.33,1.53.26,2.94-.27,4.24-.67,1.68-1.53,3.29-2.33,4.92-.16.32-.39.62-.63.89-1.06,1.14-2.12,2.28-3.2,3.41-.51.54-1.13.91-1.93.97-.57-.18-.84-.71-1.22-1.13-.52-.58-1-1.2-1.54-1.76-.62-.63-1.16-1.32-1.59-2.1-.75-1.37-1.53-2.72-2.27-4.09-.22-.4-.35-.86-.53-1.31.85-.87,1.83-1.42,2.88-1.87,1.82-.78,3.73-1.28,5.69-1.58,1.44-.22,2.88-.42,4.32-.61.57-.07,1.14-.11,1.71-.13.25,0,.5.08.89.15Z"/>
    <path class="cls-4" d="M125.77,128.56c.94-.6,1.9-.91,2.91-.88,1.3.03,2.59.2,3.88.33.26.03.51.1.75.2,1.03.42,2.06.85,3.08,1.29.49.21.89.53,1.13,1.05.03.43-.27.74-.45,1.1-.26.49-.56.97-.79,1.47-.27.58-.6,1.11-1.01,1.59-.73.84-1.44,1.7-2.18,2.54-.22.25-.49.45-.75.68-.8-.35-1.41-.87-1.98-1.47-.98-1.03-1.79-2.18-2.48-3.42-.51-.91-1-1.82-1.49-2.74-.19-.36-.36-.73-.51-1.11-.07-.17-.07-.36-.12-.63Z"/>
    <path class="cls-4" d="M113.11,60.13c-.88-1.29-1.34-2.63-1.35-4.03,0-1.81.18-3.63.3-5.44.03-.36.13-.72.25-1.06.55-1.46,1.11-2.91,1.68-4.36.27-.69.7-1.27,1.42-1.63.6-.05,1.05.34,1.55.59.7.35,1.37.74,2.09,1.05.81.35,1.57.79,2.26,1.35,1.21.98,2.44,1.94,3.64,2.94.35.29.64.66.99,1.02-.46,1.13-1.16,2.01-1.97,2.82-1.4,1.41-2.98,2.59-4.68,3.61-1.25.75-2.51,1.47-3.77,2.19-.5.28-1.01.53-1.53.76-.23.1-.5.11-.88.19Z"/>
    <path class="cls-4" d="M129.1,13.22c.33,1.53.26,2.94-.27,4.24-.67,1.68-1.53,3.29-2.33,4.92-.16.32-.39.62-.63.89-1.06,1.14-2.12,2.28-3.2,3.41-.51.54-1.13.91-1.93.97-.57-.18-.84-.71-1.22-1.13-.52-.58-1-1.2-1.54-1.76-.62-.63-1.16-1.32-1.59-2.1-.75-1.37-1.53-2.72-2.27-4.09-.22-.4-.35-.86-.53-1.31.85-.87,1.83-1.42,2.88-1.87,1.82-.78,3.73-1.28,5.69-1.58,1.44-.22,2.88-.42,4.32-.61.57-.07,1.14-.11,1.71-.13.25,0,.5.08.89.15Z"/>
    <path class="cls-4" d="M134.66,40.92c-1.1-1.11-1.8-2.33-2.07-3.71-.34-1.78-.49-3.6-.7-5.4-.04-.36,0-.73.05-1.09.27-1.53.56-3.07.85-4.59.14-.73.46-1.37,1.09-1.86.58-.16,1.09.14,1.63.29.75.21,1.49.47,2.24.65.87.2,1.69.48,2.47.91,1.37.74,2.75,1.46,4.12,2.22.4.22.75.53,1.16.82-.24,1.19-.77,2.19-1.41,3.13-1.11,1.65-2.45,3.09-3.93,4.4-1.09.96-2.19,1.91-3.31,2.85-.44.37-.9.71-1.37,1.03-.21.14-.47.2-.83.35Z"/>
    <path class="cls-4" d="M142.44,52.96c1.17-.34,2.28-.36,3.32-.02,1.35.43,2.65,1.01,3.96,1.55.26.11.51.27.73.44.95.76,1.89,1.53,2.83,2.31.45.37.77.83.86,1.45-.11.46-.51.7-.81,1.01-.43.43-.88.84-1.29,1.3-.46.52-.97.98-1.55,1.35-1.02.66-2.04,1.34-3.07,1.99-.3.19-.65.32-1,.48-.73-.61-1.21-1.35-1.62-2.15-.71-1.38-1.2-2.84-1.54-4.35-.25-1.11-.49-2.22-.71-3.34-.09-.44-.15-.88-.19-1.32-.02-.2.04-.4.07-.7Z"/>
    <path class="cls-4" d="M150.46,118.57c-1.55.21-2.95.02-4.21-.61-1.62-.81-3.16-1.79-4.72-2.72-.31-.18-.59-.44-.83-.7-1.06-1.15-2.1-2.3-3.13-3.47-.5-.56-.81-1.2-.82-2,.22-.56.78-.78,1.22-1.12.62-.47,1.28-.9,1.87-1.39.68-.57,1.41-1.05,2.22-1.41,1.42-.64,2.83-1.3,4.26-1.93.42-.18.88-.28,1.35-.42.8.91,1.27,1.94,1.63,3.03.63,1.88.97,3.82,1.12,5.8.11,1.45.19,2.9.26,4.36.03.57.02,1.14-.01,1.71-.01.25-.12.5-.22.87Z"/>
    <path class="cls-4" d="M38.88,31.28c-.2,1.55-.74,2.85-1.67,3.91-1.2,1.36-2.54,2.59-3.84,3.86-.26.25-.57.46-.89.62-1.38.73-2.76,1.44-4.15,2.14-.67.34-1.37.48-2.14.27-.48-.36-.56-.95-.77-1.47-.29-.72-.54-1.46-.87-2.17-.37-.81-.65-1.63-.8-2.51-.25-1.54-.53-3.07-.77-4.61-.07-.45-.04-.92-.06-1.42,1.09-.54,2.2-.73,3.34-.8,1.98-.13,3.94.04,5.89.41,1.43.27,2.86.56,4.28.87.56.12,1.11.28,1.65.45.24.08.45.25.78.44Z"/>
    <path class="cls-4" d="M15.28,63.94c1.46-.56,2.86-.71,4.23-.4,1.77.4,3.49,1,5.23,1.53.34.11.67.29.97.49,1.3.86,2.58,1.74,3.86,2.63.61.42,1.07.97,1.26,1.75-.08.59-.57.94-.93,1.38-.5.6-1.03,1.17-1.49,1.8-.53.71-1.12,1.35-1.82,1.89-1.23.96-2.45,1.93-3.69,2.88-.37.28-.79.48-1.22.73-.99-.7-1.69-1.59-2.3-2.56-1.06-1.68-1.84-3.49-2.45-5.37-.44-1.39-.87-2.78-1.28-4.17-.16-.55-.29-1.11-.39-1.67-.05-.25,0-.51.01-.9Z"/>
    <path class="cls-4" d="M19.85,108.38c-.88-1.29-1.35-2.62-1.36-4.03-.01-1.81.17-3.63.3-5.44.02-.36.12-.72.25-1.06.55-1.46,1.11-2.91,1.68-4.36.27-.69.7-1.27,1.42-1.63.6-.05,1.05.34,1.55.59.7.35,1.38.74,2.09,1.04.82.35,1.57.78,2.26,1.34,1.21.98,2.44,1.94,3.64,2.93.35.29.64.66.99,1.02-.45,1.13-1.16,2.01-1.96,2.82-1.39,1.42-2.97,2.59-4.67,3.61-1.25.75-2.51,1.48-3.77,2.2-.5.28-1.01.53-1.53.76-.23.1-.5.11-.88.2Z"/>
  </g>
  <g class="cls-6">
    <g>
      <g>
        <path class="cls-9" d="M67.42,126.78c-.13-.07-.26-.14-.38-.22,0,0-1.03.8-3,2.78.05.02.1.03.15.07,1.69,1.16,6.26,4.05,10.83,5.07.49.11.81.56.75,1.06-.07.66-.19,1.65-.35,2.89l-.66,4.46c-.06.41-.11.84-.17,1.27.65-.53,1.49-.85,2.4-.85,2.1,0,3.8,1.7,3.8,3.8s-1.7,3.8-3.8,3.8c-1.28,0-2.41-.63-3.09-1.6-.24,1.75-.49,3.55-.74,5.34h9.34c.58-1.36,1.93-2.32,3.5-2.32s2.92.96,3.5,2.32h7.83c-.19-1.39-.39-2.79-.58-4.16-.52.27-1.11.42-1.74.42-2.1,0-3.8-1.7-3.8-3.8,0-2.1,1.7-3.8,3.8-3.8.26,0,.52.03.77.08-.02-.16-.04-.32-.06-.47h0s-.66-4.49-.66-4.49c-.17-1.24-.28-2.23-.35-2.89-.05-.49.27-.95.75-1.06,4.57-1.01,9.13-3.91,10.83-5.06.09-.06.18-.1.28-.13-1.93-1.94-2.94-2.72-2.94-2.72-.13.08-.26.15-.39.22-6.25,3.51-15.78,3.75-17.9,3.75-2.12,0-11.66-.24-17.91-3.76ZM89.79,138.08c0,2.1-1.7,3.8-3.8,3.8-2.1,0-3.8-1.7-3.8-3.8s1.7-3.8,3.8-3.8c2.1,0,3.8,1.7,3.8,3.8Z"/>
        <g>
          <path class="cls-8" d="M108.37,22.78c-2.21-.87-5.12,3.77-6.57,6.2-3.13,5.24-5.2,10.67-6.07,14.13,1.44.43,2.62.84,3.39,1.13,0-.11,0-.18,0-.18.66-.14,1.48-.18,2.27-.09,1.4-2.16,3.22-5.17,4.75-8.1,3.35-6.44,4.45-12.22,2.25-13.09Z"/>
          <path class="cls-8" d="M72.41,18.85c-3.88.02-3.8,9.27-3.36,14.3.33,3.83,1.04,8.07,1.88,11.27,1.86-.65,3.64-1.12,5.27-1.45.13-2.91.24-7.01.2-9.78-.06-4.06-.31-14.35-3.99-14.34Z"/>
          <path class="cls-8" d="M84.14,97.75c-1.39,0-2.51.75-2.51,1.67s1.12,1.67,2.51,1.67,2.51-.75,2.51-1.67-1.12-1.67-2.51-1.67Z"/>
        </g>
        <g>
          <path class="cls-2" d="M110.51,132.7c-.36-.57-1.01-1.16-1.91-1.66-.38-.6-.73-1.14-1.05-1.48-.26-.28-.64-.37-.99-.27-.1.03-.19.07-.28.13-1.69,1.16-6.26,4.05-10.83,5.06-.49.11-.81.56-.75,1.06.07.66.18,1.65.35,2.89l.66,4.49h0c.02.15.04.31.06.47.29,2.17.62,4.58.96,7.09.19,1.37.38,2.77.58,4.16h25.8c-7.85-16.45-12.6-21.93-12.6-21.93Z"/>
          <path class="cls-2" d="M75.01,134.47c-4.57-1.01-9.13-3.91-10.83-5.07-.05-.03-.1-.04-.15-.07-.38-.18-.84-.11-1.13.21-.4.43-.8,1.19-1.23,1.98-.77.45-1.3.88-1.53,1.16,0,0-4.75,5.48-12.61,21.93h25.6c.25-1.79.5-3.59.74-5.34.25-1.79.48-3.53.7-5.14.06-.43.12-.86.17-1.27l.66-4.46c.17-1.24.28-2.23.35-2.89.05-.49-.27-.95-.75-1.06Z"/>
          <path class="cls-2" d="M108.1,63.83c.27-.15,1.69-3.7,1.69-3.7,0,0,4.85.45,4.36-.26-1.37-1.95-4.6-6.08-6.79-8.85.65.08,1.32.16,1.99.24,2.85.31,5.57.5,5.7.38.43-.41,1-7.22.43-7.23-1.37-.01-2.72,0-4.01.05-3.5.12-6.45.4-7.55.51-.47-.57-1.47-.9-2.54-1.01-.79-.08-1.62-.05-2.27.09,0,0,0,.07,0,.18-.77-.29-1.95-.7-3.39-1.13-2.05-.61-4.62-1.24-7.25-1.56-.35-.04-.71-.08-1.06-.11l-.02.83-.18,6.39c.18.56,6.63.87,10.82,1.15-2.75,2.3-7.89,6.66-9.34,8.14-.86.89,4,1.13,4,1.13,0,0,1.39,3.83,1.61,4.05.2.2,6.63-9.5,8.07-12.15,1.31,3.7,5.49,12.98,5.72,12.85Z"/>
        </g>
        <path class="cls-10" d="M84.09,115.07c5.31,0,6.99,3.53,7.39,4.98,4.61-5.25,5.82-14.22,4.57-14.79-1.82-.83-9.96-.97-11.85-.97-1.9,0-10.03.16-11.86.97-1.26.56-.11,9.12,4.25,14.41.02-.04,1.61-4.6,7.51-4.6ZM86.81,104.35l-.09,3.53h-5.12s0-3.53,0-3.53h5.21Z"/>
        <path class="cls-3" d="M78.36,121.47c.19.15.39.31.6.46.04.03.08.06.12.09,1.3.92,3.05,1.76,5.11,1.76,1.69,0,3.16-.57,4.34-1.27.06-.03.11-.07.16-.1.17-.11.34-.22.5-.33.07-.05.14-.1.21-.14.22-.16.43-.32.61-.48.02-.02.04-.04.07-.06.88-.74,1.38-1.36,1.38-1.36,0,0,0,0,0,0-.4-1.45-2.08-4.98-7.39-4.98-5.89,0-7.49,4.56-7.51,4.6h0s.63.84,1.73,1.76c.02.01.03.03.05.04Z"/>
        <g>
          <path class="cls-5" d="M85.99,134.29c-2.1,0-3.8,1.7-3.8,3.8s1.7,3.8,3.8,3.8c2.1,0,3.8-1.7,3.8-3.8s-1.7-3.8-3.8-3.8Z"/>
          <path class="cls-5" d="M85.99,152.3c-1.57,0-2.92.96-3.5,2.32h7c-.58-1.36-1.92-2.32-3.5-2.32Z"/>
          <path class="cls-5" d="M95,143.3c-2.1,0-3.8,1.7-3.8,3.8,0,2.1,1.7,3.8,3.8,3.8.63,0,1.22-.15,1.74-.42-.34-2.51-.67-4.92-.96-7.09-.25-.05-.51-.08-.77-.08Z"/>
          <path class="cls-5" d="M76.98,143.29c-.91,0-1.74.32-2.4.85-.22,1.61-.45,3.34-.7,5.14.69.97,1.82,1.6,3.09,1.6,2.1,0,3.8-1.7,3.8-3.8s-1.7-3.8-3.8-3.8Z"/>
          <path class="cls-5" d="M101.8,28.98c1.45-2.43,4.37-7.08,6.57-6.2,2.2.87,1.11,6.65-2.25,13.09-1.53,2.94-3.34,5.94-4.75,8.1,1.07.11,2.08.44,2.54,1.01,1.1-.11,4.05-.39,7.55-.51,2-3.82,4.17-8.45,5.44-11.94,2.44-6.73,5.11-20.78-4.58-23.1-9.26-2.22-14.21,8.52-17.57,15.83-2.63,5.7-4.84,12.16-6.28,16.3,2.63.31,5.2.94,7.25,1.56.88-3.46,2.94-8.89,6.07-14.13Z"/>
          <path class="cls-5" d="M118.88,63.84c-2.63-5.45-5.96-9.52-9.53-12.58-.67-.07-1.34-.15-1.99-.24,2.19,2.77,5.42,6.89,6.79,8.85.5.71-4.36.26-4.36.26,0,0-1.42,3.54-1.69,3.7-.23.14-4.42-9.15-5.72-12.85-1.44,2.65-7.87,12.35-8.07,12.15-.22-.22-1.61-4.05-1.61-4.05,0,0-4.86-.25-4-1.13,1.45-1.48,6.59-5.84,9.34-8.14-4.18-.28-10.64-.59-10.82-1.15l.18-6.39c-.8-.07-1.49-.11-2.06-.13-.16-5-.64-20.57-.72-22.03-.09-1.74-1.06-16.18-12.67-14.58-9.19,1.27-11.37,11.47-11.34,20.52.01,3.48.47,11.07.76,15.6-1.07-.09-2.21-.07-3.43.1-9.92,1.39-12.64,13.2-8.47,18.72.31.41.68.81,1.08,1.17-.39.71-.78,1.43-1.14,2.19-9.16,18.98-7.28,39,1.57,49.54,4.03,4.8,9.64,9.26,18.71,11.57-.84.57-1.6,1.18-2.26,1.84,6.25,3.52,15.79,3.76,17.91,3.76,2.12,0,11.65-.24,17.9-3.75-.85-.84-1.85-1.61-2.99-2.3,8.1-2.4,13.27-6.6,17.05-11.1,8.85-10.54,10.74-30.55,1.58-49.54ZM84.14,97.75c1.39,0,2.51.75,2.51,1.67s-1.12,1.67-2.51,1.67-2.51-.75-2.51-1.67,1.12-1.67,2.51-1.67ZM69.05,33.15c-.44-5.03-.52-14.28,3.36-14.3,3.68-.01,3.93,10.28,3.99,14.34.04,2.77-.08,6.87-.2,9.78-1.63.33-3.41.8-5.27,1.45-.84-3.2-1.55-7.44-1.88-11.27ZM91.48,120.05s-.5.63-1.38,1.36c-.02.02-.04.04-.07.06-.19.16-.39.32-.61.48-.07.05-.14.1-.21.14-.16.11-.33.22-.5.33-.05.03-.11.07-.16.1-1.18.7-2.66,1.27-4.34,1.27-2.06,0-3.81-.84-5.11-1.76-.04-.03-.08-.06-.12-.09-.21-.15-.41-.31-.6-.46-.02-.01-.03-.03-.05-.04-1.1-.92-1.73-1.76-1.73-1.76h0c-4.36-5.29-5.51-13.86-4.25-14.41,1.83-.81,9.96-.97,11.86-.97,1.89,0,10.03.14,11.85.97,1.25.57.04,9.54-4.57,14.79,0,0,0,0,0,0Z"/>
          <polygon class="cls-5" points="81.6 107.88 86.72 107.88 86.81 104.35 81.6 104.35 81.6 107.88"/>
        </g>
      </g>
      <g>
        <path d="M64.38,136.06c-.2-.11-.44-.03-.55.17,0,0-.16.3-.43.87-.26.57-.66,1.4-1.09,2.5-.43,1.1-.92,2.44-1.41,4-.5,1.55-1.05,3.32-1.61,5.25-.53,1.79-1.07,3.74-1.6,5.8h1.7c.49-1.89.98-3.69,1.45-5.35.55-1.92,1.08-3.67,1.57-5.21.49-1.55.91-2.89,1.24-4.01.32-1.12.57-2.01.72-2.62.15-.61.21-.94.21-.94.03-.17-.05-.35-.21-.44Z"/>
        <path d="M109.56,143.59c-.49-1.56-.98-2.9-1.41-4-.43-1.1-.82-1.92-1.08-2.5-.27-.57-.43-.87-.43-.87-.08-.15-.26-.24-.44-.21-.22.04-.36.26-.32.48,0,0,.07.33.21.94.15.61.4,1.5.72,2.62.33,1.12.75,2.46,1.24,4.01.49,1.54,1.02,3.29,1.57,5.21.48,1.66.97,3.46,1.45,5.35h1.7c-.54-2.06-1.08-4-1.6-5.8-.56-1.93-1.11-3.69-1.61-5.25Z"/>
        <path d="M110.68,131.64c-.29-.36-.59-.7-.9-1.02-.49-.5-1-1.01-1.6-1.61-.37-.37-.85-.55-1.33-.55-1.77-1.76-2.71-2.49-2.74-2.52-.22-.17-.5-.2-.75-.11-.42-.38-.85-.75-1.32-1.09,1.28-.44,2.49-.92,3.63-1.44,5.41-2.48,9.26-5.87,12.23-9.41,5-5.96,7.79-14.74,7.79-24.61,0-8.16-1.91-17.07-6.1-25.77-2.24-4.64-4.99-8.32-7.96-11.22.33.03.65.06.95.08.88.07,1.59.11,2.05.11.14,0,.25,0,.36-.01.06,0,.11-.01.19-.03.04,0,.08-.02.15-.05.06-.03.14-.06.26-.17.14-.14.18-.24.23-.33.08-.16.12-.31.16-.49.15-.6.27-1.52.37-2.53.1-1.01.16-2.09.16-2.96,0-.46-.02-.85-.06-1.18-.03-.17-.05-.32-.13-.5-.04-.09-.09-.2-.21-.32-.06-.06-.14-.13-.25-.18-.11-.05-.24-.09-.37-.09-.28,0-.56,0-.84,0-.63,0-1.25,0-1.87.02,1.83-3.58,3.71-7.66,4.87-10.85,1.14-3.16,2.33-7.84,2.33-12.31,0-2.64-.41-5.21-1.56-7.35-.57-1.07-1.34-2.02-2.32-2.79-.98-.77-2.18-1.35-3.59-1.69-.9-.22-1.76-.32-2.6-.32-2.1,0-3.98.65-5.62,1.71-2.47,1.59-4.44,4.08-6.1,6.77-1.66,2.69-3,5.61-4.15,8.11-1.7,3.69-3.22,7.67-4.48,11.15-.61,1.69-1.16,3.27-1.63,4.63-.15-.02-.31-.03-.46-.04-.22-.02-.43.05-.59.2-.16.14-.26.35-.26.56h0c-.19-.01-.36-.02-.54-.03-.07-2.12-.17-5.44-.28-8.86-.09-2.84-.18-5.73-.26-8.02-.08-2.29-.13-3.98-.16-4.43h0c-.05-.87-.28-4.62-1.82-8.24-.77-1.81-1.87-3.6-3.49-4.96-1.61-1.36-3.74-2.26-6.41-2.25-.59,0-1.2.04-1.85.13-2.42.33-4.42,1.27-6.02,2.62-2.4,2.04-3.89,4.98-4.79,8.23-.9,3.25-1.21,6.84-1.21,10.27,0,.06,0,.12,0,.18,0,2.61.26,7.4.51,11.57.07,1.13.13,2.2.2,3.18-.04,0-.09,0-.13,0-.23,0-.46-.01-.69-.02-.23.02-.46.04-.7.05-.23.02-.47.04-.71.06l-.36.03h-.09s-.02,0-.02,0h-.08s-.04.02-.04.02l-.17.04c-.45.09-.9.19-1.36.28-.46.11-.97.33-1.46.5-1.92.77-3.66,2.05-5,3.73-1.34,1.67-2.26,3.68-2.71,5.79-.43,2.11-.42,4.32.17,6.4l.23.77.33.74c.12.24.2.5.35.73l.44.68.22.34.03.04.07.08.06.07.12.14.48.55s.02.02.03.03c-.29.54-.57,1.08-.84,1.65-4.2,8.69-6.11,17.61-6.11,25.77,0,9.87,2.79,18.66,7.79,24.62,2.97,3.54,6.82,6.93,12.23,9.42,1.63.75,3.4,1.41,5.32,1.98-.22.18-.43.36-.63.55-.24-.08-.52-.04-.72.12-.03.02-.97.76-2.75,2.52-.06,0-.12-.01-.17-.01-.48,0-.96.2-1.3.57-.79.85-1.74,1.92-2.78,3.16h0c-.16.18-4.99,5.85-12.87,22.44h1.74c2.55-5.32,4.76-9.47,6.59-12.64,1.85-3.22,3.3-5.42,4.27-6.82.46-.66.82-1.13,1.06-1.45v-.07c.09-.1.16-.2.24-.31.06-.04.12-.08.17-.14,1.03-1.22,1.97-2.28,2.73-3.11l.15-.07.11.03h0c.87.59,2.45,1.62,4.42,2.64,1.96,1.01,4.3,2.02,6.68,2.55h0c.08.02.14.09.14.18v.02s0,0,0,0c-.07.65-.18,1.63-.35,2.86l-.66,4.48c0,.06,0,.11,0,.17-.36,2.22-.73,5.15-1.22,8.58-.14.99-.29,2.02-.44,3.09h1.65c.13-.99.27-1.95.39-2.87.08-.59.15-1.16.23-1.72.33-2.48.63-4.64.84-6.41.02-.16.04-.32.05-.47.02-.05.04-.09.05-.14h0s.66-4.49.66-4.49h0c.17-1.26.28-2.25.35-2.91h0c0-.07.01-.13.01-.19,0-.81-.55-1.54-1.38-1.72h0c-2.19-.48-4.42-1.43-6.3-2.41-1.46-.76-2.71-1.52-3.58-2.09.39-.38.73-.7,1.02-.97.35-.32.62-.56.82-.73,3.18,1.77,7.06,2.7,10.46,3.22,3.58.54,6.63.6,7.74.6,1.11,0,4.16-.06,7.74-.6,3.4-.51,7.28-1.45,10.46-3.21.35.3.94.83,1.75,1.62-.88.58-2.17,1.38-3.7,2.17-1.88.98-4.12,1.93-6.3,2.41h0c-.82.18-1.38.91-1.38,1.72,0,.06,0,.13.01.19.07.66.19,1.66.35,2.91h0s.66,4.5.66,4.5c0,.05.03.09.05.14,0,.04.01.09.02.13.22,2,.58,4.53.97,7.46.04.33.09.66.13,1,.12.92.25,1.88.39,2.87h1.65c-.15-1.07-.3-2.1-.44-3.09-.5-3.43-.86-6.36-1.22-8.58,0-.06.02-.11,0-.16h0s-.66-4.48-.66-4.48c-.17-1.23-.28-2.21-.35-2.86v-.02c0-.09.06-.17.14-.18h0c2.38-.53,4.72-1.53,6.68-2.55,1.96-1.01,3.55-2.04,4.42-2.63h0s.06-.03.12-.03c.08,0,.17.04.21.08h0c.61.62,1.13,1.12,1.58,1.6.46.48.85.92,1.24,1.45.08.11.19.18.31.24.07.08.13.17.2.25v.15c1.36,1.77,5.6,7.76,11.86,20.83h1.74c-7.79-16.4-12.6-22.13-12.86-22.43-.13-.19-.28-.38-.44-.56ZM114.65,45.19c.09,0,.17,0,.26,0,.01.19.02.43.02.71,0,.97-.09,2.32-.22,3.43-.06.56-.14,1.06-.21,1.42,0,.05-.02.09-.03.13-.46,0-1.24-.06-2.16-.13-1.54-.13-3.5-.33-5.23-.56-.76-.1-1.47-.21-2.08-.32.01-.63.03-1.43.03-2.2,0-.53,0-1.05-.03-1.48,0-.2-.02-.38-.04-.55,1.98-.18,5.75-.47,9.66-.47ZM109.73,55.32c1.18,1.52,2.34,3.03,3.16,4.16-.11,0-.22,0-.34,0-.6,0-1.27-.03-1.8-.07-.26-.02-.49-.03-.64-.05-.16-.01-.25-.02-.25-.02-.35-.03-.67.17-.8.49,0,0-.09.22-.22.55-.2.48-.49,1.19-.77,1.8-.25-.5-.55-1.14-.88-1.85-.86-1.86-1.92-4.27-2.79-6.36-.33-.81-.64-1.56-.89-2.23.39.03.64.05.64.05.21.02.43-.06.58-.2.05-.04.08-.1.12-.16.63.11,1.34.21,2.09.31.85,1.07,1.83,2.32,2.79,3.56ZM91.05,36.61c1.25-3.46,2.76-7.41,4.43-11.03,1.53-3.32,3.37-7.31,5.74-10.41.02-.02.03-.04.05-.07,1.39.13,4.24.63,8.25,2.44,4.09,1.85,7.38,4.17,8.79,5.22-.31,3.5-1.24,7.01-2.13,9.48-1.09,3.01-2.88,6.92-4.65,10.39-.18.36-.36.7-.54,1.05-2.99.12-5.52.34-6.77.46-.02-.01-.03-.03-.05-.04-.43-.34-.95-.55-1.49-.7.17-.27.34-.55.52-.84,1.18-1.9,2.48-4.14,3.63-6.35,1.1-2.12,1.97-4.16,2.56-6.02.59-1.85.92-3.5.92-4.86,0-.74-.1-1.41-.34-1.99-.24-.58-.69-1.08-1.3-1.32-.28-.11-.57-.16-.86-.16-.39,0-.77.09-1.12.24-.61.26-1.17.68-1.7,1.18-.79.75-1.53,1.7-2.19,2.64-.66.95-1.24,1.89-1.68,2.63-1.94,3.25-3.48,6.57-4.58,9.47-.57,1.5-1.03,2.88-1.36,4.09-1.67-.47-3.62-.93-5.64-1.23.45-1.29.95-2.73,1.51-4.29ZM98.69,50.66c.15.21.28.28.39.35.2.11.38.16.6.22.37.09.81.17,1.29.24.07,0,.14.02.21.03-.97,1.64-2.7,4.33-4.26,6.66-.82,1.23-1.59,2.36-2.18,3.18-.08.11-.16.22-.23.32-.17-.43-.36-.93-.53-1.39-.15-.39-.28-.76-.38-1.02-.1-.26-.16-.43-.16-.43-.11-.3-.38-.5-.7-.52,0,0-.06,0-.17,0-.38-.02-1.35-.1-2.18-.23-.2-.03-.39-.07-.56-.11.51-.47,1.19-1.09,1.96-1.77,1.69-1.49,3.82-3.3,5.52-4.73.35-.29.67-.57.98-.83.13,0,.26.02.39.03,0,0,0,.01,0,.02ZM96.69,42.58c.32-1.16.77-2.51,1.33-3.97,1.07-2.82,2.58-6.06,4.46-9.22.66-1.1,1.62-2.65,2.64-3.89.51-.62,1.04-1.16,1.52-1.52.24-.18.47-.31.67-.4.2-.08.37-.12.5-.12.1,0,.19.02.28.05.17.07.3.18.43.48.13.29.22.76.22,1.37,0,1.1-.28,2.63-.85,4.38-.56,1.75-1.39,3.72-2.46,5.77-1.29,2.47-2.79,5.01-4.06,7.03-.14.22-.27.43-.4.63-.15,0-.3-.02-.44-.02-.55,0-1.09.05-1.58.16-.02,0-.04.02-.06.03-.59-.21-1.33-.47-2.19-.74ZM100.12,49.71s0,0,0,0c-.03-1.09-.14-3.71-.19-4.98.19-.02.39-.03.6-.03.71,0,1.47.11,2.03.31.28.1.5.22.64.33.14.11.19.2.21.26,0,0,.02.1.03.22.04.39.05,1.11.05,1.86,0,.78-.01,1.61-.03,2.24,0,.08,0,.17,0,.24-.56-.05-1.32-.13-2.02-.22-.51-.07-.99-.15-1.3-.23ZM88.18,42.31c2.8.31,5.58,1.01,7.71,1.67.98.3,1.81.58,2.46.82.02.55.05,1.35.09,2.18.03.73.06,1.48.08,2.07-1.78-.12-4.04-.25-6.07-.4-1.36-.1-2.62-.21-3.52-.34-.37-.05-.68-.1-.9-.15l.16-5.85ZM62.28,17.09c1.36-.6,4.33-1.69,9.47-2.53,5.02-.82,9.15-.87,10.86-.84.14.41.27.82.38,1.22.67,2.45.81,4.62.84,5.21h0c.02.42.08,2.12.16,4.4.11,3.44.27,8.22.39,12.15.06,1.79.11,3.4.14,4.62-.13,0-.26,0-.37,0-1.18,0-3.78.06-7.12.67.01-.28.02-.57.03-.87.08-2.2.14-4.7.14-6.76,0-.42,0-.81,0-1.19-.03-2.04-.1-5.65-.65-8.81-.27-1.58-.66-3.06-1.26-4.21-.3-.58-.67-1.08-1.14-1.47-.47-.38-1.07-.63-1.72-.62h-.01s0,0,0,0h0c-.47,0-.92.11-1.32.31-.7.36-1.22.96-1.61,1.66-.58,1.06-.92,2.4-1.13,3.87-.21,1.47-.29,3.07-.29,4.62,0,1.7.09,3.34.21,4.69.24,2.72.66,5.64,1.19,8.26.17.85.35,1.66.54,2.43-.14.05-.27.11-.41.16-.1-.08-.2-.16-.31-.24-1.03-.77-2.32-1.51-3.82-2.07-.74-.31-1.56-.5-2.4-.7-.31-.05-.63-.09-.95-.14-.29-4.57-.71-11.6-.72-14.87,0-.06,0-.12,0-.18,0-2.95.25-6,.89-8.78ZM75.62,34.37c0,2.04-.06,4.53-.14,6.71-.02.43-.03.84-.05,1.25-1.25.27-2.57.62-3.95,1.07-.17-.7-.34-1.45-.49-2.22-.51-2.56-.93-5.43-1.16-8.09-.11-1.31-.2-2.91-.2-4.55,0-2.28.18-4.65.68-6.36.25-.85.57-1.53.93-1.94.18-.21.36-.35.55-.44.19-.09.38-.14.62-.14h0s0,0,0,0c.27,0,.48.08.73.28.21.17.44.44.65.81.37.64.69,1.57.94,2.62.37,1.59.59,3.48.71,5.25.12,1.78.16,3.44.17,4.6,0,.37,0,.76,0,1.17ZM49.32,58.48l-.27-.62-.18-.66c-.49-1.76-.5-3.71-.1-5.56.38-1.85,1.18-3.62,2.32-5.07,1.13-1.45,2.65-2.57,4.24-3.23.41-.14.76-.32,1.2-.43.46-.1.91-.2,1.35-.29l.17-.04h.02s0,0,0,0h.08s.32-.03.32-.03c.21-.02.43-.04.64-.06.21-.02.42-.04.63-.06.21,0,.41.01.62.02,1.65-.01,3.18.33,4.53.83,1.35.49,2.51,1.14,3.46,1.84.95.69,1.73,1.37,2.35,1.95.63.57,1.11,1.05,1.43,1.38.32.33.49.5.49.5l.02.02c.11.12.29.16.45.09.21-.09.3-.33.21-.53,0,0-.03-.06-.08-.18-.05-.12-.14-.3-.26-.51-.24-.44-.63-1.05-1.23-1.76-.22-.27-.49-.55-.78-.83,6.13-2.18,11.42-2.33,13.2-2.33.53,0,1.37.02,2.44.09l-.15,5.64c0,.09,0,.17.04.26.07.22.19.34.28.42.19.15.33.2.48.26.28.1.6.16.99.23,1.36.22,3.58.39,5.85.54.66.04,1.32.09,1.97.13-.49.42-1.01.86-1.54,1.31-1.26,1.08-2.59,2.21-3.73,3.22-1.14,1-2.09,1.86-2.62,2.41h0c-.08.08-.16.18-.22.3-.06.12-.11.28-.11.45,0,.24.09.45.2.59.21.27.41.37.62.46.36.16.75.25,1.18.34.82.16,1.76.24,2.33.29.14.37.34.91.55,1.47.19.5.39,1,.55,1.4.08.2.16.38.23.52.03.07.07.14.1.2l.06.1s.05.08.12.15h0c.08.08.18.14.28.18.1.04.2.05.28.05.26,0,.35-.08.42-.12.13-.08.17-.13.23-.18.1-.1.18-.2.29-.34.39-.5,1.03-1.4,1.79-2.51,1.14-1.67,2.56-3.82,3.76-5.71.53-.83,1.01-1.59,1.41-2.26.72,1.82,1.71,4.15,2.64,6.23.62,1.4,1.22,2.68,1.68,3.62.12.25.23.47.33.67-.01.02-.02.04-.04.06-.15.23-.3.47-.49.7-.17.24-.37.46-.59.68-.42.45-.94.84-1.5,1.2-.29.15-.59.32-.9.45l-.46.16c-.15.06-.29.12-.5.16l-.58.13-.29.06-.22.02-1.11.11c-.37.06-.74,0-1.1,0h-.55s-.53-.1-.53-.1c-.35-.05-.7-.09-1.02-.22-.32-.11-.66-.18-.95-.34-.29-.15-.6-.26-.85-.46-.26-.18-.53-.33-.74-.55-.23-.2-.45-.39-.63-.62-.19-.21-.37-.42-.52-.65-.16-.22-.3-.43-.41-.66-.13-.21-.23-.42-.32-.63-.09-.2-.17-.39-.24-.57-.07-.18-.16-.34-.22-.49-.15-.29-.27-.53-.37-.68-.1-.16-.16-.24-.16-.24-.05-.07-.12-.13-.2-.17-.23-.09-.49.01-.58.24v.03s-.05.1-.08.32c-.02.21-.04.51.01.89.05.37.17.82.39,1.3.08.21.18.43.3.65-.16.14-.38.33-.65.59-.27.27-.59.61-.97.97-.38.37-.84.75-1.37,1.12-.27.17-.56.36-.86.53-.32.15-.62.34-.97.46-.35.13-.69.29-1.07.38-.19.05-.38.11-.57.16-.2.04-.39.07-.59.11-.2.03-.4.08-.6.1-.2.02-.4.03-.6.05-.38.05-.85.04-1.31.03-.84,0-1.76-.13-2.63-.26-.87-.16-1.73-.36-2.53-.65-.79-.3-1.53-.68-2.15-1.15-.62-.46-1.14-1-1.52-1.59-.38-.59-.63-1.21-.79-1.81-.32-1.22-.2-2.31-.2-3.06,0-.38,0-.69-.02-.9-.01-.22-.04-.32-.03-.33.1-.15.07-.36-.07-.48-.16-.13-.39-.12-.53.04l-.17.2s-.37.42-.6,1.27c-.11.43-.19.96-.19,1.58,0,.13,0,.26,0,.4-.02,0-.04,0-.05,0h-.04s-.24.09-.68.25c-.22.09-.48.19-.79.32-.31.11-.67.24-1.08.39-.2.07-.41.17-.63.24-.23.06-.46.14-.7.22-.24.08-.5.16-.76.25-.27.07-.55.14-.83.21-1.15.3-2.48.47-3.93.51-1.45.05-3.03-.13-4.63-.53-1.59-.42-3.22-1.11-4.61-2.17-.34-.27-.62-.53-.95-.83l-.47-.55-.12-.14-.06-.07-.02-.03-.17-.28-.35-.56c-.13-.18-.19-.4-.28-.6ZM63.26,121.86c-5.17-2.38-8.82-5.59-11.68-9-4.7-5.58-7.42-14.02-7.42-23.6,0-7.91,1.86-16.6,5.95-25.08.21-.43.43-.85.65-1.26,1.63,1.21,3.43,1.95,5.18,2.39.43.1.85.19,1.27.27-.27.3-.52.59-.73.85-.25.35-.51.61-.56.88-.03.14-.02.26,0,.36.01.09.04.16.04.16.06.18.21.32.41.35l.29.05s.06,0,.14,0c.09,0,.2-.04.3-.09.11-.05.2-.15.29-.27.09-.12.21-.24.34-.38.45-.48,1.08-1.07,1.75-1.64.53.03,1.04.04,1.54.02,1.58-.06,3.03-.26,4.27-.59.31-.08.61-.16.9-.23.29-.09.56-.2.82-.29.26-.1.51-.19.75-.28.23-.1.45-.22.65-.32.4-.22.78-.4,1.07-.59.3-.2.54-.38.74-.53.14-.1.24-.19.33-.26.03.25.07.5.13.77.17.75.47,1.56.95,2.33.47.77,1.12,1.49,1.89,2.08.77.59,1.66,1.05,2.58,1.41.92.35,1.88.58,2.85.77.98.14,1.9.26,2.9.26.46,0,.9.02,1.42-.04.25-.02.49-.04.74-.07.24-.03.47-.09.7-.13.23-.05.46-.09.68-.14.22-.07.44-.14.66-.2.44-.12.84-.3,1.24-.47.4-.15.76-.39,1.12-.57.35-.21.67-.43.98-.63.6-.45,1.13-.89,1.55-1.33.44-.42.76-.84.99-1.22.07-.12.13-.23.18-.34.14.21.3.41.47.62.21.29.48.54.76.8.26.28.59.49.92.73.32.25.69.41,1.07.6.37.21.77.31,1.18.44.4.15.82.21,1.24.28l.64.1c.21.01.42.02.64.02.42,0,.86.06,1.28,0,.42-.04.84-.09,1.26-.13l.16-.02h.08s.02-.01.02-.01h.07s.04-.02.04-.02l.29-.07.57-.13c.18-.03.4-.12.61-.19.21-.08.42-.16.63-.23.4-.18.76-.38,1.12-.58.69-.46,1.32-.96,1.81-1.52.26-.28.49-.55.69-.84.02-.03.04-.06.07-.1.25.2.51.39.76.6.79.65,1.54,1.34,2.05,1.9.12.14.24.27.34.39.09.12.18.22.29.27.11.05.21.09.3.09.08.02.14,0,.14,0l.29-.05c.18-.03.35-.16.41-.35,0,0,.02-.07.04-.16.02-.1.03-.22,0-.36-.06-.27-.31-.53-.56-.88-.27-.33-.58-.72-.95-1.1-.37-.38-.78-.76-1.21-1.12-.19-.15-.38-.3-.58-.45,0-.02.02-.03.03-.05.27-.54.62-1.35.91-2.04.11-.27.21-.51.3-.72.56.04,1.45.1,2.25.1.46,0,.89-.02,1.27-.07.19-.03.36-.07.57-.16.1-.05.22-.11.34-.25.12-.13.24-.37.24-.61,0-.24-.09-.43-.18-.55-1.11-1.58-3.35-4.48-5.33-7-.02-.02-.03-.04-.05-.07,3.27,2.93,6.33,6.78,8.77,11.83,4.09,8.48,5.95,17.17,5.95,25.09,0,9.58-2.73,18.02-7.42,23.6-2.87,3.41-6.51,6.62-11.69,9-5.17,2.37-11.88,3.92-20.88,3.92-9,0-15.7-1.55-20.87-3.92ZM92.84,129.17c-3.47.52-6.45.58-7.5.58-1.06,0-4.04-.06-7.5-.58-2.97-.44-6.28-1.23-9.04-2.56.33-.28.69-.55,1.06-.81,4.06,1,8.76,1.57,14.28,1.57,6.31,0,11.57-.74,15.99-2.02.63.4,1.21.82,1.74,1.27-2.75,1.33-6.07,2.12-9.03,2.56Z"/>
        <path d="M73.52,87.87c0-3.51-.36-6.48-1.28-8.69-.03-.06-.06-.12-.09-.18-.13-.49-.34-1.06-.63-1.67-.34-.71-.78-1.5-1.4-2.29-.62-.78-1.43-1.57-2.5-2.13-.53-.28-1.12-.5-1.74-.63-.62-.12-1.27-.17-1.91-.13-.33.03-.62.05-.98.13l-.43.09c-.15.03-.33.1-.49.14-.67.21-1.26.49-1.83.85-1.14.71-2.1,1.67-2.88,2.72-1.4,1.91-2.25,4.08-2.79,6.18-.35-.02-.79-.05-1.23-.09-.48-.04-.96-.11-1.32-.19-.18-.03-.32-.09-.43-.09-.11,0-.2.05-.2.05h-.02c-.18.1-.26.33-.17.51,0,0,.04.08.13.16.1.07.26.12.44.2.38.14.89.29,1.41.41.39.07.79.12,1.14.13-.45,2.2-.56,4.29-.49,6.08.03.95.12,1.81.22,2.58.1.76.24,1.42.4,1.95.17.53.34.93.49,1.2.14.27.23.4.23.4.07.11.19.18.32.19.23.02.44-.16.45-.39v-.02s.01-.16,0-.45c-.01-.29-.04-.7-.09-1.22-.11-1.04-.38-2.5-.4-4.28-.04-1.78.13-3.86.63-6.02.5-2.14,1.34-4.39,2.71-6.22.67-.92,1.47-1.72,2.38-2.29.44-.28.94-.52,1.4-.67.12-.04.21-.08.35-.11l.43-.09c.2-.04.5-.07.74-.1.5-.03.99,0,1.46.08.46.09.9.25,1.3.45.61.31,1.14.73,1.59,1.2-.33-.07-.67-.12-1.02-.12-.98,0-1.91.39-2.69,1.04-1.18.97-2.11,2.5-2.8,4.43-.69,1.93-1.13,4.27-1.25,6.88-.02.4-.03.8-.03,1.19,0,3.02.52,5.73,1.52,7.76.5,1.02,1.13,1.87,1.91,2.49.77.62,1.71.98,2.73.98,1.03,0,1.99-.42,2.81-1.09,1.22-1.02,2.18-2.61,2.85-4.55.67-1.95,1.06-4.26,1.06-6.74ZM66.29,86.85c-1.12,0-2.03-1.74-2.03-3.88s.91-3.88,2.03-3.88,2.03,1.74,2.03,3.88c0,2.14-.91,3.88-2.03,3.88Z"/>
        <path d="M99.16,99.17c.81.68,1.78,1.09,2.81,1.09,1.01,0,1.96-.36,2.73-.98,1.16-.93,2-2.37,2.56-4.13.57-1.76.86-3.85.86-6.12,0-.39,0-.79-.03-1.19-.16-3.48-.88-6.48-2.02-8.67-.57-1.1-1.24-1.99-2.03-2.64-.78-.65-1.71-1.04-2.69-1.04-.35,0-.69.05-1.02.12.45-.47.98-.89,1.59-1.2.41-.2.84-.35,1.3-.45.47-.08.95-.11,1.46-.08.24.02.53.05.74.1l.43.09c.14.03.23.08.35.11.46.14.96.38,1.4.67.91.57,1.71,1.37,2.38,2.29,1.37,1.83,2.2,4.08,2.7,6.22.5,2.15.67,4.24.63,6.02-.01,1.78-.29,3.24-.4,4.28-.05.52-.07.94-.09,1.22,0,.29,0,.45,0,.45v.02c.01.13.08.25.19.32.2.13.46.07.59-.12,0,0,.09-.14.23-.4.14-.27.31-.67.49-1.2.16-.53.3-1.19.4-1.95.1-.76.19-1.63.22-2.58.07-1.79-.04-3.89-.49-6.08.34-.02.74-.06,1.14-.14.52-.11,1.03-.27,1.41-.41.19-.07.34-.12.44-.19.1-.07.14-.15.14-.15v-.03c.09-.18,0-.4-.18-.48h-.02s-.08-.04-.19-.04c-.11,0-.25.06-.43.09-.36.08-.84.15-1.32.19-.44.04-.88.07-1.23.08-.54-2.1-1.39-4.28-2.79-6.18-.78-1.05-1.74-2.01-2.88-2.72-.58-.36-1.16-.64-1.83-.85-.16-.05-.35-.11-.49-.14l-.43-.09c-.37-.07-.65-.09-.98-.13-.64-.04-1.29,0-1.91.13-.62.13-1.21.35-1.74.63-1.07.57-1.88,1.35-2.5,2.13-.62.79-1.06,1.57-1.4,2.29-.29.6-.49,1.14-.63,1.63-.27.61-.5,1.29-.68,2.02-.49,1.93-.69,4.26-.69,6.89,0,3.31.68,6.32,1.83,8.56.58,1.12,1.27,2.06,2.08,2.73ZM100.56,79.1c1.12,0,2.03,1.74,2.03,3.88,0,2.14-.91,3.88-2.03,3.88-1.12,0-2.03-1.74-2.03-3.88,0-2.14.91-3.88,2.03-3.88Z"/>
        <path d="M82.41,101.52c.51.23,1.1.35,1.73.35.83,0,1.6-.22,2.21-.62.3-.2.57-.45.77-.76.2-.31.32-.68.32-1.07,0-.39-.12-.76-.32-1.07-.3-.46-.74-.8-1.25-1.03-.51-.23-1.1-.35-1.73-.35-.83,0-1.6.22-2.21.62-.3.2-.57.45-.77.76-.2.31-.32.68-.32,1.07,0,.39.12.76.32,1.07.3.46.74.8,1.25,1.03ZM82.49,99.19c.08-.13.28-.31.57-.44.29-.13.67-.22,1.08-.22.55,0,1.04.16,1.34.36.15.1.25.21.31.3.06.09.07.16.07.23,0,.07-.02.14-.07.23-.08.14-.28.31-.57.44-.29.13-.67.22-1.08.22-.55,0-1.04-.15-1.34-.36-.15-.1-.25-.21-.31-.3-.06-.09-.07-.16-.07-.23,0-.07.02-.14.07-.23Z"/>
        <path d="M113.45,106.35c.06-.06.08-.15.08-.15h0c.02-.1-.01-.2-.1-.26,0,0-.07-.05-.17-.05-.1,0-.21.06-.35.12-.28.13-.63.33-.96.57-.31.25-.6.53-.81.75-.1.11-.2.19-.23.28-.03.09-.01.17-.01.17.02.09.1.16.2.18h.01s.08.01.16-.02c.08-.04.15-.13.25-.22.2-.19.48-.44.78-.65.29-.23.59-.44.83-.56.12-.07.23-.1.29-.16Z"/>
        <path d="M114.94,108.1c-.1,0-.21.06-.35.12-.28.13-.63.33-.96.57-.31.25-.6.53-.81.75-.1.11-.2.19-.23.28-.03.09-.01.17-.01.17.02.09.1.16.2.18h.01s.08.01.16-.02c.08-.04.15-.13.25-.22.2-.19.48-.44.79-.65.29-.23.59-.43.83-.56.12-.07.23-.1.29-.16.06-.06.08-.15.08-.15h0c.02-.1-.01-.2-.1-.26,0,0-.07-.05-.17-.05Z"/>
        <path d="M60.72,107.86s-.08-.06-.19-.15c-.06-.05-.12-.1-.21-.16-.24-.18-.57-.4-.93-.59-.36-.17-.75-.31-1.05-.38-.12-.03-.22-.05-.3-.05-.07-.01-.13-.04-.2-.05-.14-.02-.28.08-.3.22-.02.14.08.28.22.3.08.01.17.04.25.06.05.02.12.03.18.05.26.08.6.22.92.4.34.15.66.35.89.5.08.05.14.09.2.13.05.03.09.07.12.09l.05.04c.11.09.28.08.37-.04s.08-.28-.04-.37h0Z"/>
        <path d="M59.48,110.33s-.08-.06-.19-.15c-.06-.05-.12-.1-.21-.16-.24-.18-.57-.4-.93-.59-.36-.17-.75-.31-1.04-.38-.12-.03-.22-.05-.3-.05-.07-.01-.13-.04-.2-.05-.14-.02-.28.08-.3.22-.02.14.08.28.22.3.08.01.17.04.25.06.05.02.12.03.18.05.26.08.6.22.92.4.33.15.66.35.89.5.08.05.14.09.2.13.05.03.09.07.12.09l.05.04c.11.09.28.08.37-.04.09-.11.08-.28-.04-.37h0Z"/>
        <polygon points="115.59 52.21 115.59 52.21 115.59 52.21 115.59 52.21"/>
        <polygon points="95.93 104.37 95.93 104.37 95.93 104.37 95.93 104.37"/>
        <path d="M84.23,124.57c2.36-.09,4.39-.95,6.05-2.25,2.5-1.95,4.23-4.84,5.36-7.69,1.12-2.86,1.65-5.67,1.65-7.6,0-.43-.03-.82-.08-1.17h0c-.06-.36-.23-.67-.44-.92-.22-.25-.5-.45-.84-.56-.68-.22-1.59-.36-2.65-.48-3.18-.35-7.65-.4-9.08-.4-.98,0-3.37.06-5.78.2-1.21.07-2.41.16-3.45.26-.52.05-1,.11-1.41.18-.42.07-.77.14-1.07.23-.26.08-.5.21-.7.38-.3.26-.48.61-.57.94-.09.33-.12.64-.13.96,0,.12,0,.24,0,.36,0,1.25.24,2.9.73,4.72.74,2.72,2.05,5.81,4.06,8.31,1.01,1.25,2.19,2.34,3.57,3.15,1.38.81,2.97,1.32,4.73,1.38h.06ZM84.2,105.07c.39,0,1.04,0,1.81.02l-.05,2.01h-3.56s0-1.99,0-1.99c.78-.02,1.42-.03,1.81-.03ZM76.46,118.2c-.92-1.31-1.68-2.77-2.26-4.24-.53-1.34-.93-2.68-1.18-3.89-.26-1.2-.38-2.28-.38-3.06,0-.1,0-.2,0-.3.01-.36.06-.61.11-.7l.05-.08s.05-.04.13-.06c.18-.06.48-.12.86-.18,1.32-.21,3.53-.37,5.59-.47.49-.02.96-.05,1.42-.06v2.73c0,.43.35.79.79.79h5.12c.43,0,.77-.34.79-.77l.07-2.78c.69.02,1.43.05,2.18.08,1.17.06,2.34.14,3.35.25,1.01.11,1.87.26,2.34.41h0s.13.1.13.1l.08.15c.04.23.06.54.06.9,0,1.1-.21,2.67-.67,4.38-.63,2.37-1.74,5.01-3.33,7.16-.26-.46-.61-.99-1.1-1.53-.62-.69-1.44-1.38-2.52-1.9-1.08-.52-2.41-.86-3.99-.86h0c-1.58,0-2.9.31-3.98.79-1.62.71-2.69,1.79-3.34,2.68-.12.16-.21.31-.3.45ZM79.09,121.05c-.57-.44-1.1-.96-1.59-1.51.21-.41.61-1.07,1.27-1.71,1.03-.99,2.65-1.97,5.32-1.97h0s0,0,0,0c1.37,0,2.45.29,3.31.7,1.3.62,2.15,1.56,2.67,2.35.25.38.43.73.54.97-.74.78-1.55,1.45-2.45,1.96-1.18.68-2.49,1.09-3.98,1.15-1.98-.08-3.65-.81-5.1-1.94Z"/>
        <polygon points="84.09 114.28 84.09 114.28 84.09 114.28 84.09 114.28"/>
      </g>
    </g>
  </g>
  <g>
    <g>
      <path class="cls-11" d="M7.73,180.77c-3.93,0-7.25-3.22-7.25-7.03,0-1.89.7-3.02,1.5-4.33.93-1.53,1.32-4.18,1.32-9.14v-5.53c0-5.2,2.87-8.06,8.06-8.06h12.2c1.07,0,3.9,0,5.98,2.08,2.08,2.08,2.08,4.92,2.08,5.98v16.79c0,5.92-3.33,8.93-9.89,8.93-4.44,0-6.68-1.51-7.78-3.3-1.96,3.15-4.72,3.63-6.23,3.63Z"/>
      <path class="cls-11" d="M37.77,181.02c-4.03,0-6.95-2.75-6.95-6.55v-5.16c-3.07-.61-5.18-3.28-5.18-6.79,0-2.07.73-3.85,1.95-5.09-.58-.87-1.17-2.21-1.16-4.07,0-3.98,2.72-6.87,6.46-6.87h9.57c1.11,0,2.12.25,3.01.7.56-.12,1.15-.19,1.77-.19.51,0,1.01.04,1.48.13,1.18-.91,2.73-1.43,4.48-1.43,4.03,0,6.96,2.76,6.96,6.57v19.58c0,5.85-3.19,8.82-9.47,8.82h0c-1.23,0-2.76,0-4.31-.6-1.1-.43-2.02-1.1-2.72-1.94-1.2,1.78-3.32,2.9-5.88,2.9Z"/>
      <path class="cls-11" d="M69.1,180.86c-5.49,0-7.63-2.19-8.32-4.61h-1.65c-3.59,0-6.3-2.84-6.3-6.6,0-1.39.37-2.65,1.01-3.69-.2-.63-.3-1.31-.3-2.03v-2.14c0-1.76.6-3.34,1.64-4.56-.17-3.53-.17-3.61-.17-3.82,0-5.34,4.4-6.43,6.06-6.83.12-.03.31-.09.54-.15,1.9-.54,2.83-.78,3.8-.78.75,0,1.47.14,2.14.39.39-.08.79-.12,1.19-.12.62,0,1.17.08,1.68.21.58-.2,1.24-.32,2-.32,1.01,0,1.96.24,2.8.67.16-.01.31-.02.48-.02h3.56c3.82,0,6.81,2.97,6.81,6.76,0,.15,0,.22-.15,3.83.95,1.15,1.56,2.77,1.56,4.95v1.92c0,.7-.1,1.36-.28,1.97.53.84,1.02,2.08,1.02,3.75,0,3.82-2.64,6.6-6.27,6.6h-4.73c-1.17,2.97-3.98,4.61-8.09,4.61h0Z"/>
      <path class="cls-11" d="M90.6,180.49c-4.71,0-7.52-2.81-7.52-7.52v-6.48c0-.11,0-.23,0-.34-.52-.4-1-.89-1.4-1.46-.85-1.22-1.32-2.75-1.32-4.33,0-1.34.33-2.49.98-3.44-.52-.89-.9-2.07-.9-3.61,0-3.87,2.66-6.68,6.33-6.68h8.27c.46,0,1.3,0,2.26.23.55-.15,1.14-.23,1.75-.23h8.11c.94,0,3.43,0,5.35,1.92,1.92,1.92,1.92,4.42,1.92,5.36v5.91c0,1.46-.28,4.06-2,5.95.02.24.02.48.02.72v6.48c0,4.71-2.81,7.52-7.52,7.52,0,0-14.35,0-14.35,0Z"/>
      <path class="cls-11" d="M118.85,180.98c-1.18,0-3.14-.17-4.81-1.09-.09,0-.17,0-.26,0-3.61,0-6.9-3.22-6.9-6.76,0-1.45.51-2.89,1.4-3.96,0,0,.01-.02.02-.02-.17-.85-.17-1.56-.17-1.93v-1.33c0-.15,0-.3,0-.45-.76-1.09-1.2-2.45-1.2-3.97,0-1.55.46-2.94,1.26-4.04,0-.24,0-.44,0-.59v-3.39c0-4.56,2.72-7.28,7.28-7.28h8.13c2.29,0,4.12.69,5.37,1.95,1.48-1.33,2.84-2.44,5.29-2.44,3.79,0,7.11,3.3,7.11,7.06,0,1.24-.42,2.44-1.12,3.56.94,1.2,1.5,2.7,1.5,4.3,0,1.03-.28,2.01-.77,2.94,1.05,1.25,1.69,2.84,1.69,4.52,0,5.78-9.76,12.83-14.57,12.83h0c-1.5,0-2.89-.51-4.03-1.37-1.15.87-2.79,1.45-5.12,1.45h-.09Z"/>
      <path class="cls-11" d="M144.82,180.33c-4.71,0-7.52-2.81-7.52-7.52v-6.89c-1.85-1.16-3.03-3.28-3.03-5.8,0-1.81.57-3.4,1.56-4.58-.08-.44-.12-.91-.12-1.39,0-3.87,2.65-6.68,6.3-6.68h4.82c1.29-1.11,3.05-1.76,5.08-1.76,2.21,0,3.9.7,5.1,1.76h4.8c1.94,0,3.73.85,4.9,2.32.65.82,1.43,2.24,1.42,4.34,0,.5-.04.98-.13,1.44.97,1.18,1.54,2.75,1.54,4.55,0,2.57-1.23,4.73-3.15,5.87v6.82c0,4.71-2.81,7.52-7.52,7.52h-14.05Z"/>
    </g>
    <path class="cls-7" d="M169.04,149.33c.05-.39.08-.79.08-1.2,0-2.39-.89-4.02-1.64-4.96-1.36-1.71-3.44-2.7-5.69-2.7h-4.42c-1.43-1.12-3.32-1.76-5.48-1.76s-4.03.64-5.46,1.76h-4.44c-.83,0-1.61.14-2.35.38-1.46-1.33-3.37-2.17-5.4-2.17-2.41,0-3.95.98-5.29,2.11-1.38-1.05-3.2-1.62-5.37-1.62h-8.13c-1.79,0-3.33.4-4.59,1.12-1.58-.65-3.07-.66-3.7-.66h-8.11c-.61,0-1.2.07-1.76.21-.99-.21-1.82-.21-2.25-.21h-8.27c-1.3,0-2.51.32-3.54.9-1.16-.67-2.52-1.06-3.98-1.06h-3.56c-.09,0-.18,0-.27,0-.91-.42-1.93-.66-3.01-.66-.76,0-1.44.11-2.04.28-.5-.11-1.05-.17-1.64-.17-.38,0-.75.03-1.11.09-.7-.23-1.45-.36-2.23-.36-1.09,0-2.13.26-4.08.82-.21.06-.39.11-.5.14-.55.14-1.47.37-2.45.82-1.37-1.09-3.16-1.73-5.17-1.73-1.79,0-3.4.51-4.7,1.38-.41-.05-.83-.08-1.26-.08-.57,0-1.13.05-1.66.14-.94-.43-1.99-.66-3.11-.66h-9.57c-1.61,0-3.08.49-4.27,1.34-2.01-1.13-4.13-1.15-5.05-1.15h-12.2c-5.76,0-9.06,3.3-9.06,9.06v5.53c0,5.91-.6,7.68-1.17,8.62-.81,1.32-1.65,2.68-1.65,4.86,0,4.43,3.7,8.03,8.25,8.03,1.52,0,4.14-.42,6.26-2.96,1.41,1.49,3.78,2.64,7.75,2.64,4.67,0,7.37-1.51,8.92-3.49,1.28,2.45,3.92,4.06,7.1,4.06,2.41,0,4.5-.92,5.94-2.42.66.58,1.43,1.06,2.3,1.4,1.72.67,3.43.67,4.67.67h0c2.86,0,7.13-.7,9.22-4.42h.17c.95,2.35,3.34,4.61,9.03,4.61h0c4.23,0,7.28-1.66,8.74-4.61h4.08c.35,0,.69-.03,1.03-.08,1.3,2.73,3.99,4.31,7.64,4.31,0,0,14.35,0,14.35,0,2.1,0,3.88-.53,5.27-1.5,1.08.57,2.3.9,3.56.9h.05c1.9.95,4.01,1.08,5.02,1.08h.09c2.22,0,3.88-.49,5.12-1.24,1.18.73,2.56,1.16,4.03,1.16h0c2.55,0,6.26-1.74,9.42-4.25,1.4,2.34,3.94,3.69,7.31,3.69,0,0,14.05,0,14.05,0,7.91,0,8.52-6.52,8.52-8.52v-6.27c1.93-1.37,3.15-3.69,3.15-6.42,0-1.84-.55-3.49-1.49-4.79Z"/>
    <g>
      <path class="cls-5" d="M22.64,161.78h-10.79c-.38,2.66-1.06,4.83-2.03,6.56-.57,1-1.19,1.44-2.09,1.44-1.19,0-2.25-.95-2.25-2.03,0-.46.11-.65.76-1.71,1.49-2.44,2.06-5.64,2.06-11.77v-5.53c0-2.44.62-3.06,3.06-3.06h12.2c2.44,0,3.06.63,3.06,3.07v16.79c0,3.69-2.04,3.93-4.91,3.93-2.9,0-3.74-.49-3.74-2.12,0-1.17.57-1.87,1.55-1.87.33,0,1.95.11,2.3.11.62,0,.81-.27.81-1.11v-2.69ZM22.64,158.33v-2.82h-10.38c0,.84-.03,1.92-.11,2.82h10.49ZM22.64,152.07v-2.06c0-.43-.16-.6-.6-.6h-9.19c-.43,0-.6.16-.6.6v2.06s10.38,0,10.38,0Z"/>
      <path class="cls-5" d="M39.72,149.2v5.37s3.39,0,3.39,0c1,0,1.57.68,1.57,1.95s-.57,1.92-1.57,1.92h-3.39v10.03c0,.98-.71,1.55-1.95,1.55s-1.95-.54-1.95-1.55v-10.03s-3.63,0-3.63,0c-1,0-1.55-.71-1.55-1.92s.54-1.95,1.55-1.95h3.63s0-5.37,0-5.37h-2.93c-.95,0-1.46-.65-1.46-1.84,0-1.19.52-1.87,1.46-1.87h9.57c.95,0,1.49.68,1.49,1.87,0,1.19-.54,1.84-1.49,1.84h-2.74ZM45.31,147.52c0-.98.68-1.52,1.92-1.52s1.93.54,1.93,1.52v14.72c0,1-.68,1.55-1.93,1.55s-1.92-.54-1.92-1.55v-14.72ZM51.24,146.27c0-1,.71-1.57,1.95-1.57,1.25,0,1.95.57,1.95,1.57v19.58c0,3.01-.95,3.82-4.48,3.82-1.9,0-3.55-.03-3.55-2.01,0-1.19.65-2.06,1.55-2.06.27,0,1.76.14,1.95.14.49,0,.62-.22.62-.95v-18.52Z"/>
      <path class="cls-5" d="M68.73,162.03c.22-.79.9-1.19,2.06-1.19.35,0,.6.05.87.13.6-.22,1.17-.49,1.71-.76h-9.82c-.73,0-1.11-.49-1.11-1.41,0-.92.38-1.41,1.11-1.41h13.21c1.14,0,1.84.76,1.84,1.93,0,1.06-.52,1.57-2.82,2.71h6.15c.81,0,1.27.57,1.27,1.63,0,1.03-.43,1.6-1.27,1.6h-9.11v1.44c0,1.9-.43,3.17-3.72,3.17-2.09,0-3.61,0-3.61-1.76,0-1.08.54-1.74,1.44-1.74.16,0,.9.08,1.06.08.68,0,.68-.3.68-1.19h-9.54c-.84,0-1.3-.57-1.3-1.6,0-1.03.46-1.63,1.3-1.63h9.6ZM67.26,153.7c-.16-.22-.27-.49-.27-.73,0-.54.16-.62,1.71-1.3-.79-.49-.95-.6-.95-1.08,0-.16.05-.33.16-.49-.6-.08-1.03-.6-1.03-1.22,0-.54.19-.65,1.9-1.6-1.19-.46-1.19-.87-1.19-1.14,0-.68.52-1.22,1.14-1.22.52,0,.9.19,2.14.89.79-.79,1-1,1.55-1,.62,0,1.17.49,1.17,1.11,0,.33-.22.71-.68,1.09,1.06.68,1.33.84,1.33,1.27,0,.49-.38,1.06-.81,1.25.3.3.41.49.41.79,0,.49-.24.87-.98,1.38,1,.73,1.22.87,1.22,1.36,0,.22-.05.41-.19.65h3.34c0-.14.03-.57.03-.87h-1.55c-.46,0-.71-.33-.71-.87,0-.57.24-.89.71-.89h1.63c0-.24.03-.49.03-.68h-1.57c-.52,0-.79-.35-.79-.98s.27-.95.79-.95l1.65-.03c0-.62-.05-.73-.32-.73h-1.41c-.57,0-.9-.41-.9-1.14s.33-1.11.9-1.11h3.55c1.06,0,1.82.73,1.82,1.76,0,.05,0,.14-.27,6.51,1.25.08,1.68.68,1.68,2.28v1.93c0,.98-.71,1.52-1.9,1.52s-1.87-.54-1.87-1.52v-.92c0-.41-.05-.46-.43-.46h-15.56c-.38,0-.43.05-.43.46v.92c0,.98-.68,1.49-1.87,1.49s-1.87-.52-1.87-1.49v-2.14c0-1.08.65-1.82,1.76-2.03-.3-6.16-.3-6.24-.3-6.35,0-1.25.27-1.49,2.25-1.98.46-.11,2.63-.79,3.15-.79.71,0,1.3.73,1.3,1.57,0,.35-.14.65-.35.9-.14.13-.33.19-2.01.71-.68.22-.76.24-.7.65h2.03c.49,0,.79.35.79.98s-.3.95-.79.95h-1.98c0,.19,0,.46.03.68h2.01c.46,0,.71.33.7.9,0,.54-.27.87-.71.87h-1.95c.03.24.03.57.03.87h3.47ZM72.2,149.39c-.22-.13-1.06-.76-1.25-.87-.11.08-1.19.81-1.52.98.54.24,1.38.84,1.46.87l1.3-.98ZM71.76,153.7c-.33-.22-.95-.68-.98-.71-.49.35-.95.57-1.33.71h2.3Z"/>
      <path class="cls-5" d="M95.4,157.96c.19-.33.38-.71.54-1.08-.46.16-.98.22-1.68.22-2.44,0-3.01-.33-3.01-1.71,0-.16,0-.27.03-.43-.84.43-3.66,1.46-4.45,1.46-.84,0-1.46-.92-1.46-2.06,0-.79.33-1.06,1.87-1.46.84-.22,1.25-.35,2.28-.81-1.44-.52-1.68-.62-2.22-.79-.6-.19-.79-.41-.79-1,0-.51.19-.97.49-1.3-.54,0-1.55,0-1.54-1.68,0-1.08.46-1.68,1.33-1.68h8.27c1.82,0,2.28.46,2.28,2.28v6.43c0,.62-.11,1.22-.25,1.55,1.33-.11,2.49.79,2.49,1.6,0,.16-.03.3-.11.49h5.48c1.95,0,2.52.57,2.52,2.52v6.48c0,1.95-.57,2.52-2.52,2.52h-14.34c-1.95,0-2.52-.57-2.52-2.52v-6.48c0-1.95.57-2.52,2.52-2.52h4.8ZM88.87,148.99c1.87.57,2.33.71,2.33,1.52,0,.33-.11.76-.22,1,.16-.05.27-.08.38-.08.84,0,1.49.87,1.49,1.98,0,.11,0,.16-.03.3.24.05.35.05.41.05.3,0,.38-.19.38-.79v-3.39c0-.49-.14-.6-.6-.6h-4.15ZM102.99,166.31c.6,0,.6-.11.6-1.3h-11.66c0,1.19,0,1.3.6,1.3h10.47ZM103.59,162.25c0-1.14,0-1.28-.6-1.28h-10.47c-.6,0-.6.13-.6,1.27h11.66ZM109.45,153.82c0,2.41-.73,3.2-3.04,3.2-2.28,0-2.9-.35-2.9-1.63,0-.19.03-.33.08-.57-.87.38-3.04,1.25-3.96,1.25-.79,0-1.44-.87-1.44-1.92,0-.68.33-1.06,1.11-1.25,1.38-.35,2.12-.62,2.44-.76-.89-.35-1.55-.6-2.06-.79-.6-.19-.76-.41-.76-.98s.19-1,.57-1.38c-.84,0-1.76,0-1.76-1.68,0-1.08.46-1.68,1.33-1.68h8.11c1.82,0,2.28.46,2.28,2.28v5.91ZM101.07,148.99c2.55.73,2.55,1.08,2.55,1.65,0,.27-.05.49-.16.84.92-.05,1.54.9,1.54,1.68,0,.19-.03.35-.08.54.11,0,.22.03.35.03.22,0,.38-.3.38-.68v-3.47c0-.49-.14-.6-.6-.6h-3.99Z"/>
      <path class="cls-5" d="M116.08,166.91c-.98,1.41-1.63,1.98-2.3,1.98-.87,0-1.9-.95-1.9-1.76,0-.27.11-.6.24-.76.43-.51,1.08-1.33,1.65-2.09.24-.33.65-.54,1.11-.54.89,0,1.84.87,1.84,1.68,0,.43-.14.73-.65,1.49ZM121.34,153.11v.79h4.45c.81,0,1.27.57,1.27,1.57,0,1-.46,1.57-1.27,1.57h-12.58c-.81,0-1.27-.57-1.27-1.58,0-1,.46-1.57,1.27-1.57h4.47v-.79h-2.22c-1.82,0-2.28-.46-2.28-2.28v-3.39c0-1.82.46-2.28,2.28-2.28h8.13c1.82,0,2.28.46,2.28,2.28v3.39c0,1.82-.46,2.28-2.28,2.28h-2.25ZM121.7,163.39v4.04c0,2.55-1.27,2.55-2.85,2.55-2.28,0-2.82-.33-2.82-1.68,0-.98.35-1.6.92-1.6.19,0,.46.05.65.05.24,0,.35-.05.35-.43v-2.93h-2.66c-1.71,0-2.17-.46-2.17-2.17v-1.33c0-1.68.46-2.14,2.17-2.14h8.3c1.71,0,2.17.46,2.17,2.14v1.33c0,1.71-.46,2.17-2.17,2.17h-1.9ZM122.43,148.34c0-.38,0-.6-.08-.71-.05-.11-.22-.11-.52-.11h-4.61c-.6,0-.6.05-.6.81h5.8ZM121.83,150.92c.6,0,.6-.08.6-.81h-5.8c0,.76,0,.79.6.81h4.61ZM117.25,159.92c-.43,0-.43.16-.43.71,0,.33.11.43.43.43h4.45c.43,0,.43-.16.43-.71,0-.32-.11-.43-.43-.43h-4.45ZM125.25,164.88c.52.87.7,1.36.7,1.74,0,.79-.87,1.46-1.87,1.46-.79,0-.92-.24-1.9-2.17-.14-.24-.19-.46-.19-.71,0-.73.92-1.41,1.9-1.41.6,0,.79.14,1.36,1.08ZM137.67,162.06c0,2.55-7.02,7.83-9.57,7.83-1.06,0-1.98-1.11-1.98-2.41,0-1.09.14-1.25,2.06-2.09,2.25-1,3.9-2.3,5.86-4.55.6-.71.95-.92,1.55-.92,1.03,0,2.09,1.06,2.09,2.14ZM136.37,146.74c0,2.14-6.56,5.96-8.46,5.96-.95,0-1.71-.98-1.71-2.2,0-.92.46-1.41,1.9-2.03,1.27-.52,3.15-1.68,3.96-2.41,1.36-1.22,1.57-1.38,2.2-1.38,1,0,2.11,1.08,2.11,2.06ZM136.75,154.61c0,2.22-7.05,6.02-8.6,6.02-1.06,0-1.9-.98-1.9-2.2,0-1.06.33-1.36,2.39-2.2,1.63-.68,3.12-1.63,4.26-2.71.84-.84,1.17-1,1.76-1,1.08,0,2.09,1,2.09,2.09Z"/>
      <path class="cls-5" d="M149.57,146.47c.05-1.17.87-1.76,2.33-1.76s2.3.6,2.36,1.76h7.54c.87,0,1.33.6,1.33,1.66,0,1.08-.46,1.68-1.33,1.68h-2.11c-.35.89-.68,1.76-1.03,2.52h4.45c.92,0,1.44.65,1.44,1.79s-.54,1.76-1.44,1.76h-22.4c-.92,0-1.44-.65-1.44-1.76s.52-1.79,1.44-1.79h4.58c-.33-.76-.65-1.52-1.19-2.52h-2.09c-.84,0-1.3-.6-1.3-1.65,0-1.08.46-1.68,1.3-1.68h7.56ZM142.3,159.43c0-1.98.57-2.52,2.52-2.52h14.05c1.98,0,2.52.54,2.52,2.52v7.38c0,1.98-.54,2.52-2.52,2.52h-14.05c-1.95,0-2.52-.54-2.52-2.52v-7.38ZM157.37,164.42h-10.95s0,1.06,0,1.06c0,.49.11.6.6.6h9.76c.49,0,.6-.11.6-.6v-1.06ZM157.37,161.66v-.98c0-.49-.11-.6-.6-.6h-9.76c-.49,0-.6.11-.6.59v.98h10.95ZM148.43,149.81c.46.84.84,1.74,1.19,2.52h4.69c.46-.89.73-1.54,1.11-2.52h-7Z"/>
    </g>
  </g>
</svg>