<?xml version="1.0" encoding="UTF-8"?>
<svg id="_內容" data-name="內容" xmlns="http://www.w3.org/2000/svg" xmlns:xlink="http://www.w3.org/1999/xlink" viewBox="0 0 170 180">
  <defs>
    <style>
      .cls-1 {
        fill: none;
      }

      .cls-2 {
        fill: #55b779;
      }

      .cls-3 {
        fill: #f2a19b;
      }

      .cls-4 {
        fill: #008ac7;
      }

      .cls-5 {
        fill: #ffe800;
      }

      .cls-6 {
        fill: #61605f;
      }

      .cls-7 {
        opacity: .3;
      }

      .cls-7, .cls-8 {
        fill: #fff;
      }

      .cls-9 {
        fill: #e3002c;
      }

      .cls-10 {
        fill: #e5003b;
      }

      .cls-11 {
        clip-path: url(#clippath-1);
      }

      .cls-12 {
        fill: #231815;
      }

      .cls-13 {
        fill: #00479c;
      }

      .cls-14 {
        fill: #e95753;
      }

      .cls-15 {
        fill: #4aaf64;
      }

      .cls-16 {
        fill: #f5ab18;
      }

      .cls-17 {
        fill: #75cc92;
      }

      .cls-18 {
        clip-path: url(#clippath);
      }
    </style>
    <clipPath id="clippath">
      <path class="cls-1" d="M10.5,77.93c0,21.91,2.42,44.41,16.78,58.77,14.36,14.36,36.86,16.79,58.77,16.8,21.91,0,44.41-2.42,58.77-16.78,14.36-14.36,16.79-36.86,16.8-58.77,0-21.91-2.42-44.41-16.78-58.77C130.48,4.81,107.98,2.38,86.07,2.38c-21.91,0-44.41,2.42-58.77,16.78S10.5,56.02,10.5,77.93Z"/>
    </clipPath>
    <clipPath id="clippath-1">
      <path class="cls-1" d="M2.12,78.01c0,21.91,2.71,44.41,18.76,58.77,16.05,14.36,41.21,16.79,65.7,16.8,24.49,0,49.65-2.42,65.7-16.78,16.05-14.36,18.77-36.86,18.77-58.77,0-21.91-2.71-44.41-18.76-58.77C136.25,4.9,111.09,2.46,86.6,2.46c-24.49,0-49.65,2.42-65.7,16.78C4.85,33.59,2.13,56.1,2.12,78.01Z"/>
    </clipPath>
  </defs>
  <g>
    <path class="cls-15" d="M10.73,89.34c0,21.91,2.42,44.41,16.78,58.77,14.36,14.36,36.86,16.79,58.77,16.8s44.41-2.42,58.77-16.78c14.36-14.36,16.79-36.86,16.8-58.77,0-21.91-2.42-44.41-16.78-58.77-14.36-14.36-36.86-16.79-58.77-16.8-21.91,0-44.41,2.42-58.77,16.78-14.36,14.36-16.79,36.86-16.8,58.77Z"/>
    <path class="cls-17" d="M10.36,78.01c0,21.91,2.42,44.41,16.78,58.77,14.36,14.36,36.86,16.79,58.77,16.8,21.91,0,44.41-2.42,58.77-16.78,14.36-14.36,16.79-36.86,16.8-58.77,0-21.91-2.42-44.41-16.78-58.77C130.34,4.9,107.83,2.46,85.92,2.46c-21.91,0-44.41,2.42-58.77,16.78-14.36,14.36-16.79,36.86-16.8,58.77Z"/>
    <circle class="cls-8" cx="86.9" cy="91.22" r="59.56"/>
    <g class="cls-18">
      <path class="cls-7" d="M94.91,8.72c-.2,1.55-.74,2.85-1.67,3.91-1.2,1.36-2.54,2.59-3.84,3.86-.26.25-.57.46-.89.62-1.38.73-2.76,1.44-4.15,2.14-.67.34-1.37.48-2.14.27-.48-.36-.56-.95-.77-1.47-.29-.72-.54-1.46-.87-2.17-.37-.81-.65-1.63-.8-2.51-.25-1.54-.53-3.07-.77-4.61-.07-.45-.04-.92-.06-1.42,1.09-.54,2.2-.73,3.34-.8,1.98-.13,3.94.04,5.89.41,1.43.27,2.86.56,4.28.87.56.12,1.11.28,1.65.45.24.08.45.25.78.44Z"/>
      <path class="cls-7" d="M31.57,60.67c-.33-1.53-.26-2.94.27-4.24.67-1.68,1.53-3.29,2.33-4.92.16-.32.39-.62.63-.89,1.06-1.14,2.12-2.28,3.2-3.41.51-.54,1.13-.91,1.93-.97.57.18.84.71,1.22,1.13.52.58,1,1.2,1.54,1.76.62.63,1.16,1.32,1.59,2.1.75,1.37,1.53,2.72,2.27,4.09.22.4.35.86.53,1.31-.85.87-1.83,1.42-2.88,1.87-1.82.78-3.73,1.28-5.69,1.58-1.44.22-2.88.42-4.32.61-.57.07-1.14.11-1.71.13-.25,0-.5-.08-.89-.15Z"/>
      <path class="cls-7" d="M141.3,83.12c.48-1.36,1.22-2.43,2.26-3.21,1.34-1,2.79-1.85,4.21-2.74.28-.18.6-.3.92-.39,1.38-.39,2.77-.76,4.16-1.13.66-.17,1.33-.17,1.98.17.37.41.32.97.41,1.48.12.71.2,1.43.36,2.12.18.8.27,1.6.23,2.42-.07,1.44-.11,2.87-.2,4.31-.02.42-.14.84-.22,1.29-1.09.28-2.13.23-3.17.08-1.81-.27-3.55-.8-5.24-1.51-1.24-.52-2.47-1.06-3.69-1.61-.48-.22-.95-.46-1.4-.73-.2-.12-.36-.31-.62-.55Z"/>
      <path class="cls-7" d="M29.75,130.17c.2-1.55.74-2.85,1.67-3.91,1.2-1.36,2.54-2.59,3.84-3.86.26-.25.57-.46.89-.62,1.38-.73,2.76-1.44,4.15-2.14.67-.34,1.37-.48,2.14-.27.48.36.56.95.77,1.47.29.72.54,1.46.87,2.17.37.81.65,1.63.8,2.51.25,1.54.53,3.07.77,4.61.07.45.04.92.06,1.42-1.09.54-2.2.73-3.34.8-1.98.13-3.94-.04-5.89-.41-1.43-.27-2.86-.56-4.28-.87-.56-.12-1.11-.28-1.65-.45-.24-.08-.45-.25-.78-.44Z"/>
      <path class="cls-7" d="M62.1,15.22c.33,1.53.26,2.94-.27,4.24-.67,1.68-1.53,3.29-2.33,4.92-.16.32-.39.62-.63.89-1.06,1.14-2.12,2.28-3.2,3.41-.51.54-1.13.91-1.93.97-.57-.18-.84-.71-1.22-1.13-.52-.58-1-1.2-1.54-1.76-.62-.63-1.16-1.32-1.59-2.1-.75-1.37-1.53-2.72-2.27-4.09-.22-.4-.35-.86-.53-1.31.85-.87,1.83-1.42,2.88-1.87,1.82-.78,3.73-1.28,5.69-1.58,1.44-.22,2.88-.42,4.32-.61.57-.07,1.14-.11,1.71-.13.25,0,.5.08.89.15Z"/>
      <path class="cls-7" d="M126.77,130.56c.94-.6,1.9-.91,2.91-.88,1.3.03,2.59.2,3.88.33.26.03.51.1.75.2,1.03.42,2.06.85,3.08,1.29.49.21.89.53,1.13,1.05.03.43-.27.74-.45,1.1-.26.49-.56.97-.79,1.47-.27.58-.6,1.11-1.01,1.59-.73.84-1.44,1.7-2.18,2.54-.22.25-.49.45-.75.68-.8-.35-1.41-.87-1.98-1.47-.98-1.03-1.79-2.18-2.48-3.42-.51-.91-1-1.82-1.49-2.74-.19-.36-.36-.73-.51-1.11-.07-.17-.07-.36-.12-.63Z"/>
      <path class="cls-7" d="M114.11,62.13c-.88-1.29-1.34-2.63-1.35-4.03,0-1.81.18-3.63.3-5.44.03-.36.13-.72.25-1.06.55-1.46,1.11-2.91,1.68-4.36.27-.69.7-1.27,1.42-1.63.6-.05,1.05.34,1.55.59.7.35,1.37.74,2.09,1.05.81.35,1.57.79,2.26,1.35,1.21.98,2.44,1.94,3.64,2.94.35.29.64.66.99,1.02-.46,1.13-1.16,2.01-1.97,2.82-1.4,1.41-2.98,2.59-4.68,3.61-1.25.75-2.51,1.47-3.77,2.19-.5.28-1.01.53-1.53.76-.23.1-.5.11-.88.19Z"/>
      <path class="cls-7" d="M130.1,15.22c.33,1.53.26,2.94-.27,4.24-.67,1.68-1.53,3.29-2.33,4.92-.16.32-.39.62-.63.89-1.06,1.14-2.12,2.28-3.2,3.41-.51.54-1.13.91-1.93.97-.57-.18-.84-.71-1.22-1.13-.52-.58-1-1.2-1.54-1.76-.62-.63-1.16-1.32-1.59-2.1-.75-1.37-1.53-2.72-2.27-4.09-.22-.4-.35-.86-.53-1.31.85-.87,1.83-1.42,2.88-1.87,1.82-.78,3.73-1.28,5.69-1.58,1.44-.22,2.88-.42,4.32-.61.57-.07,1.14-.11,1.71-.13.25,0,.5.08.89.15Z"/>
      <path class="cls-7" d="M135.66,42.92c-1.1-1.11-1.8-2.33-2.07-3.71-.34-1.78-.49-3.6-.7-5.4-.04-.36,0-.73.05-1.09.27-1.53.56-3.07.85-4.59.14-.73.46-1.37,1.09-1.86.58-.16,1.09.14,1.63.29.75.21,1.49.47,2.24.65.87.2,1.69.48,2.47.91,1.37.74,2.75,1.46,4.12,2.22.4.22.75.53,1.16.82-.24,1.19-.77,2.19-1.41,3.13-1.11,1.65-2.45,3.09-3.93,4.4-1.09.96-2.19,1.91-3.31,2.85-.44.37-.9.71-1.37,1.03-.21.14-.47.2-.83.35Z"/>
      <path class="cls-7" d="M143.44,54.96c1.17-.34,2.28-.36,3.32-.02,1.35.43,2.65,1.01,3.96,1.55.26.11.51.27.73.44.95.76,1.89,1.53,2.83,2.31.45.37.77.83.86,1.45-.11.46-.51.7-.81,1.01-.43.43-.88.84-1.29,1.3-.46.52-.97.98-1.55,1.35-1.02.66-2.04,1.34-3.07,1.99-.3.19-.65.32-1,.48-.73-.61-1.21-1.35-1.62-2.15-.71-1.38-1.2-2.84-1.54-4.35-.25-1.11-.49-2.22-.71-3.34-.09-.44-.15-.88-.19-1.32-.02-.2.04-.4.07-.7Z"/>
      <path class="cls-7" d="M151.46,120.57c-1.55.21-2.95.02-4.21-.61-1.62-.81-3.16-1.79-4.72-2.72-.31-.18-.59-.44-.83-.7-1.06-1.15-2.1-2.3-3.13-3.47-.5-.56-.81-1.2-.82-2,.22-.56.78-.78,1.22-1.12.62-.47,1.28-.9,1.87-1.39.68-.57,1.41-1.05,2.22-1.41,1.42-.64,2.83-1.3,4.26-1.93.42-.18.88-.28,1.35-.42.8.91,1.27,1.94,1.63,3.03.63,1.88.97,3.82,1.12,5.8.11,1.45.19,2.9.26,4.36.03.57.02,1.14-.01,1.71-.01.25-.12.5-.22.87Z"/>
      <path class="cls-7" d="M39.88,33.28c-.2,1.55-.74,2.85-1.67,3.91-1.2,1.36-2.54,2.59-3.84,3.86-.26.25-.57.46-.89.62-1.38.73-2.76,1.44-4.15,2.14-.67.34-1.37.48-2.14.27-.48-.36-.56-.95-.77-1.47-.29-.72-.54-1.46-.87-2.17-.37-.81-.65-1.63-.8-2.51-.25-1.54-.53-3.07-.77-4.61-.07-.45-.04-.92-.06-1.42,1.09-.54,2.2-.73,3.34-.8,1.98-.13,3.94.04,5.89.41,1.43.27,2.86.56,4.28.87.56.12,1.11.28,1.65.45.24.08.45.25.78.44Z"/>
      <path class="cls-7" d="M16.28,65.94c1.46-.56,2.86-.71,4.23-.4,1.77.4,3.49,1,5.23,1.53.34.11.67.29.97.49,1.3.86,2.58,1.74,3.86,2.63.61.42,1.07.97,1.26,1.75-.08.59-.57.94-.93,1.38-.5.6-1.03,1.17-1.49,1.8-.53.71-1.12,1.35-1.82,1.89-1.23.96-2.45,1.93-3.69,2.88-.37.28-.79.48-1.22.73-.99-.7-1.69-1.59-2.3-2.56-1.06-1.68-1.84-3.49-2.45-5.37-.44-1.39-.87-2.78-1.28-4.17-.16-.55-.29-1.11-.39-1.67-.05-.25,0-.51.01-.9Z"/>
      <path class="cls-7" d="M20.85,110.38c-.88-1.29-1.35-2.62-1.36-4.03-.01-1.81.17-3.63.3-5.44.02-.36.12-.72.25-1.06.55-1.46,1.11-2.91,1.68-4.36.27-.69.7-1.27,1.42-1.63.6-.05,1.05.34,1.55.59.7.35,1.38.74,2.09,1.04.82.35,1.57.78,2.26,1.34,1.21.98,2.44,1.94,3.64,2.93.35.29.64.66.99,1.02-.45,1.13-1.16,2.01-1.96,2.82-1.39,1.42-2.97,2.59-4.67,3.61-1.25.75-2.51,1.48-3.77,2.2-.5.28-1.01.53-1.53.76-.23.1-.5.11-.88.2Z"/>
    </g>
    <g class="cls-11">
      <g>
        <path class="cls-4" d="M123.13,149.9c-.13.11-.3.22-.49.33,6.92,7.88,12.33,9.12,20.56,5.12-4.02-2.52-8.86-5.22-12.78-7.39-2.47-1.37-4.59-2.54-5.9-3.32-.22,2.72-.66,4.65-1.4,5.26"/>
        <path class="cls-2" d="M124.35,54.25c-.06-.37-.13-.73-.2-1.09-.78-3.91-2.06-7.51-3.88-10.67-.12-.2-.23-.4-.35-.6-1.78-2.92-4.04-5.44-6.83-7.48-5.02-3.66-11.75-5.75-20.48-5.66-31.59.37-32.53,34.05-28.63,55.06-6.37-10.48-16.21-22.93-21.3-34.84-3.87-9.05-9.76-18.98-18.22-15.64-8.47,3.34-8.81,17.95-5.38,22.39-11.15.65-21.18,19.52-2.58,25-11.68,4.4-6.88,26.15,6.75,22.61-7.32,10.01,10.24,21.64,16.07,13.57.97,6.48,9.55,10.02,17.45,6.19,1.97-9.69,6.05-26.08,8.05-33.94.07-.14.14-.27.2-.41.05.2.1.4.14.6,1.06,3.75,5.29,7.06,10.01,9.38,2.2.97,5.12,1.53,8.48,2.22-3.8-6.31-4.08-20.27-4.26-28.38-.7.14-1.22,2.53-1.58,1.53-1.86-5.16.53-14.18,4.22-17.1,5.96-4.72,15.37-3.59,19.28,5.05,1.58,3.5,1.86,7.91,1.65,12.86l-.06-.03c0,2.66-.26,5.01-.48,6.62-1,7.32-3.33,14.46-6.78,18.72.77-.15,1.06.41,1.74.38,1.47-.08,3.11-.53,3.62.09,9.32-2.09,16-5.54,17.99-7.15.15-.12.27-.22.36-.32,3.27-9.06,5.28-18.33,5.66-26.92.18-4.21-.03-8.25-.68-12.02"/>
        <path class="cls-2" d="M142.18,122.05c24.97-27.16-5.49-43.79-23.07-28.15.76,3.31,1.83,7.72,2.92,12.41,2.48,10.69,5.06,22.79,4.3,26.42.05.33-.6.68-1.8,1.03.17,3.16.22,6.15.13,8.7,1.39.09,2.91.15,4.57.19,2.06.06,4.24-.23,6.38-.78,11.9-3.04,22.73-14.21,6.58-19.83"/>
        <path class="cls-16" d="M108.73,158.41l-.23-.04c.27-1.53.45-3.19.54-4.9-1.68.26-3.03.45-3.67.56-.55.09-1.42.04-2.45-.09-.1,1.12-.24,2.19-.4,3.18-1.22-.22-2.32-.36-3.07-.3-1.73.14-2.81.68-3.53,1.37-3.49.03-5.23,2.23-5.23,4.3,0,2.71,3.96,4.28,6.84,2.99,6.1-.42,10.76,1.08,16.63,4.7,3.21,3.96,7.62,4.3,8.97,2.03l.11-.2c2.56.55,5.33-.3,5.33-3.65,0-8.33-16.59-9.37-19.83-9.95"/>
        <path class="cls-16" d="M85.05,158.18c-.72-.69-1.8-1.23-3.53-1.37-.75-.06-1.85.08-3.07.3-.16-1-.28-2.09-.37-3.23-1.87.13-3.45.07-4.12-.27-.34-.17-1.06-.39-2-.66.05,1.89.2,3.73.49,5.41l-.24.05c-3.24.57-19.83,1.61-19.83,9.95,0,3.35,2.78,4.2,5.33,3.65l.11.2c1.35,2.26,5.76,1.92,8.97-2.03,5.87-3.62,10.54-5.12,16.63-4.7,2.88,1.28,6.84-.28,6.84-2.99,0-2.06-1.74-4.26-5.23-4.3"/>
        <path class="cls-6" d="M124.53,144.63c.05-.68.09-1.41.12-2.18.09-2.54.04-5.54-.13-8.7-5.05,1.47-19.84,2.86-32.5,2.69-12.56,0-25.36-1.28-32.16-3.97-.27,6.5-.36,12.77.45,14.94.99,2.63,7.99,4.48,11.64,5.54.93.27,1.66.49,1.99.66.67.34,2.24.4,4.12.27,2.72-.19,6.07-.78,8.28-1.51,3.72-1.24,1.26-4.1,3.72-4.96l3.72,4.55s5.51,1.5,9.12,1.98c1.03.13,1.9.18,2.45.09.65-.11,1.99-.3,3.67-.56,4.43-.69,11.19-1.86,13.61-3.24.19-.11.36-.22.49-.33.73-.62,1.18-2.54,1.4-5.26"/>
        <path class="cls-13" d="M101.02,100.92c9.32-2.09,16-5.54,17.99-7.16.03.13.06.26.09.39.76,3.31,1.83,7.72,2.92,12.41,2.48,10.69,5.06,22.79,4.3,26.42.05.33-.6.68-1.8,1.03-5.05,1.46-19.84,2.86-32.5,2.69-12.56,0-25.36-1.28-32.16-3.97-1.93-.76-3.38-1.64-4.2-2.64.06-1.22.47-3.65,1.11-6.76,1.97-9.69,6.05-26.08,8.05-33.94.06-.14.14-.27.2-.41.05.2.1.4.15.59,1.06,3.75,5.29,7.06,10.01,9.38,1.86.74,7.82,2.43,7.82,2.43,0,0,3.94,3.6,6.75,3.15,2.81-.45,5.85-3.6,5.85-3.6"/>
        <path class="cls-4" d="M125.03,66.27c4.82-4.74,6.74-13.51,6.14-18.41-1.44,2.05-3.95,4.39-6.82,6.39.65,3.77.87,7.81.68,12.02"/>
        <path class="cls-10" d="M119.92,41.89c2.93-5.62,2.91-13.55,1.47-17.85-1.39,3.17-4.63,7.3-8.3,10.37,2.79,2.04,5.06,4.56,6.83,7.48"/>
        <path class="cls-8" d="M78.54,58.99c1.93-23.21-12.1-20.36-13.6.99-1.27,18.09,11.8,20.69,13.6-.99"/>
        <path class="cls-8" d="M119.74,62.52c2.35-22.86-13.18-27.73-15.42-2.79-1.82,20.25,13.43,22.18,15.42,2.79"/>
        <path class="cls-5" d="M135.6,141.88c-2.14.55-4.32.83-6.38.78-1.66-.05-3.18-.1-4.57-.19-.03.77-.07,1.5-.12,2.18,1.31.78,3.42,1.95,5.9,3.32,7.24,3.22,12.15,2.03,17.8-3.65-4-.91-8.6-1.73-12.63-2.43"/>
        <path class="cls-5" d="M127.93,33.55c-1.39,2.77-4.31,6.2-7.66,8.94,1.82,3.17,3.1,6.77,3.88,10.67,4.43-5.33,5.13-14.71,3.78-19.62"/>
        <path class="cls-5" d="M101.32,62.02c-3.91-8.63-13.32-9.77-19.28-5.05-3.69,2.92-6.08,11.94-4.22,17.1.36,1,.88-1.39,1.58-1.53.19,8.11.46,22.08,4.26,28.38,1.21,2,2.77,3.23,4.79,3.26,2.76.04,5.18-1.48,7.2-3.98,3.45-4.26,5.78-11.4,6.77-18.72.22-1.62.49-3.97.48-6.62l.06.03c.21-4.96-.07-9.37-1.65-12.86"/>
        <path class="cls-14" d="M95.67,72.27c-3.28,2.95-9.03,4.15-12.87,2.7.25,6.24.85,17.22,1.79,20.78,1.41-3.76,5.75-5.38,9.55-2.96,3.02-8.9,3.33-16.03,3.07-20.29-.58-.41-1.09-.64-1.54-.24"/>
        <path class="cls-3" d="M84.59,95.76c.51,1.99,1.3,3.52,2.52,3.96,2.76,1.01,5.43-2.39,7.03-6.92-3.8-2.42-8.14-.8-9.55,2.96"/>
        <path class="cls-8" d="M126.04,123.09c-.18-1.14-.41-2.37-.68-3.68-15.55,2.2-49.44,3.24-67.84-2.14-.26,1.05-.51,2.06-.73,2.99,17.65,6,52.87,5.07,69.24,2.84"/>
        <path class="cls-8" d="M126.04,131.5c-.18-1.13-.41-2.37-.69-3.68-15.72,2.2-49.99,3.24-68.59-2.14-.27,1.05-.51,2.06-.73,2.99,17.84,6,53.46,5.07,70.01,2.84"/>
        <path class="cls-8" d="M59.45,109.95c-.28,1.03-.55,2.05-.81,3.04,17.57,5.18,49.45,4.46,65.82,2.46-.28-1.2-.58-2.41-.89-3.65-15.66,1.96-46.08,2.75-64.12-1.85"/>
        <path class="cls-12" d="M150.91,110.04c.94-2.48,1.52-5.15,1.43-7.86-.08-2.7-.9-5.41-2.43-7.67-1.52-2.27-3.67-4.05-6.07-5.26-2.4-1.22-5.05-1.88-7.72-2.07-2.67-.18-5.36.12-7.92.86-2.56.73-4.99,1.9-7.18,3.42,0,0-.14.1-.38.27,2.98-8.73,4.69-17.3,5.07-25.12,1.31-1.34,2.33-2.88,3.1-4.31,2.71-5.08,3.5-11.1,3.08-14.53-.04-.3-.25-.54-.54-.61-.29-.07-.59.04-.76.28-1.13,1.6-2.93,3.37-5.01,5,.83-1.23,1.55-2.65,2.13-4.26,1.94-5.43,1.84-11.49.92-14.83-.08-.29-.33-.5-.62-.52-.3-.03-.58.13-.71.39-1.16,2.29-3.41,5.06-6.02,7.45.26-.64.5-1.3.71-2,1.64-5.52,1.2-11.58.09-14.86-.09-.28-.35-.48-.65-.49-.31-.01-.57.16-.69.43-1.27,2.9-4.16,6.62-7.37,9.47-.1.09-.21.18-.31.27-5.2-3.61-11.89-5.47-19.94-5.47-.17,0-.34,0-.51,0-8.25.1-14.99,2.46-20.03,7.02-.17.15-.33.31-.5.47-.5.3-.95.65-1.36,1.02,0,0-.35.31-.79.82-.21.26-.46.57-.68.91-.06.08-.31.42-.58.88-.23.37-.46.83-.64,1.28-2.03,3.14-3.59,6.85-4.66,11.11-2.55,10.13-1.83,21.07-.68,28.85-.7-1.1-1.42-2.19-2.15-3.28-.99-1.5-2.02-3.02-3.07-4.57-5.28-7.82-10.74-15.91-14.13-23.84-2.47-5.78-4.93-9.93-7.53-12.67-3.6-3.82-7.56-4.96-11.62-3.35-3.96,1.56-6.73,5.69-7.6,11.34-.64,4.15-.12,8.5,1.27,11.13-5.24.89-10.32,5.54-11.92,11.08-1.88,6.53,1.34,11.89,8.64,14.62-4.92,2.89-6.24,9.15-4.89,14.34,1.46,5.62,5.65,9.26,10.66,9.26.47,0,.94-.03,1.42-.09-2.56,4.98.07,10.07,4.15,13.13,2.42,1.81,5.27,2.85,7.83,2.85,2.07,0,3.84-.66,5.2-1.91,1.36,4.12,5.8,6.98,11.11,6.98,1.29,0,2.59-.17,3.88-.5.53-.14,1.16-.33,1.86-.6-.52,2.66-.8,4.51-.85,5.52-.01.18.05.36.16.49.81.98,2.15,1.87,4.02,2.66-.06,1.38-.1,2.74-.13,4.06-.13,5.73.08,9.11.65,10.65.6,1.6,2.86,3.02,7.11,4.46,1.5.51,3.03.95,4.25,1.3l.25.07c0,.14.02.66.08,1.39.04.42.08.92.14,1.43.02.14.06.72.17,1.45-.33.05-.73.1-1.2.16-2.26.29-6.04.79-9.57,1.85-6.11,1.85-9.21,4.73-9.21,8.58,0,2.79,1.78,4.53,4.64,4.53.17,0,.35,0,.52-.02.18-.01.36-.04.54-.07l.13.18c.54.67,1.33,1.07,2.1,1.24.78.17,1.56.14,2.29,0,1.47-.3,2.77-1.03,3.87-1.94.55-.46,1.05-.97,1.5-1.51l.02-.03h0l.19-.11.42-.26.85-.5c1.15-.65,2.31-1.25,3.51-1.77,2.39-1.04,4.92-1.71,7.5-1.89.65-.04,1.3-.07,1.95-.06.33,0,.65.01.98.02l.49.03h.09s.01,0,.01,0l.16.07c1.44.54,3.01.51,4.43.02.71-.25,1.39-.63,1.97-1.18.25-.23.46-.5.64-.8.18.3.4.57.64.8.58.55,1.26.93,1.97,1.18,1.42.49,2.99.51,4.43-.02l.16-.07h.1s.49-.04.49-.04c.33-.01.65-.02.98-.02.65,0,1.3.02,1.94.06,2.59.18,5.12.85,7.5,1.89,1.2.52,2.36,1.12,3.51,1.77l.86.5.42.26.19.11.03.03c.45.54.95,1.05,1.5,1.51,1.1.91,2.4,1.64,3.87,1.94.73.14,1.51.18,2.28,0,.77-.16,1.56-.57,2.1-1.24l.13-.17c.18.03.36.05.54.07.18.01.35.02.53.02,2.86,0,4.63-1.73,4.63-4.53,0-3.84-3.1-6.73-9.21-8.58-3.53-1.06-7.31-1.56-9.57-1.85-.46-.06-.85-.11-1.18-.16.12-.72.17-1.3.19-1.43.07-.52.12-1.01.16-1.43.03-.32.05-.59.06-.82,1.42-.22,3.03-.49,4.66-.8,3.87-.73,6.53-1.45,8.09-2.17,3.2,3.56,6.02,5.63,8.9,6.57,1.23.4,2.45.59,3.75.59,2.51,0,5.18-.73,8.4-2.29.24-.11.39-.35.4-.61.01-.26-.12-.51-.34-.65-2.29-1.44-4.85-2.94-7.38-4.37.45.04.9.07,1.34.07h.27c3.76-.08,7.13-1.82,10.91-5.62.18-.19.25-.46.18-.71-.07-.25-.28-.44-.53-.5-3.03-.69-6.45-1.34-9.72-1.92,4.39-1.61,8.37-4.22,10.6-7.23,1.73-2.33,2.22-4.69,1.42-6.82-.9-2.4-3.34-4.37-7.26-5.89,1.33-1.5,2.59-3.07,3.74-4.74,1.49-2.16,2.8-4.48,3.75-6.96M141.15,122.1l-.97,1.01-.99,1.02c-.18.19-1.55,1.43-2.58,2.49-1.1,1.12-1.27,1.59-1.09,1.79.17.19.66.11,1.93-.85,1.19-.9,2.52-2.24,2.71-2.43.38-.36.73-.7,1.04-1,.61-.61,1-1.03,1-1.03l.18-.2c4.65,1.7,6.38,3.7,6.96,5.25.78,2.09-.24,4.12-1.23,5.46-3.41,4.6-11.65,8.34-18.36,8.34-.17,0-.34,0-.51,0-1.39-.04-2.67-.09-3.84-.15.03-1.08.03-2.3,0-3.67-.02-1.22-.07-2.51-.13-3.84.8-.28,1.32-.57,1.55-.86.17-.22.22-.44.22-.61.49-2.56-.35-8.67-2.64-19.23-1.06-4.89-2.25-9.87-3.29-14.27-.45-1.9-.86-3.63-1.22-5.15.3-.24.58-.48.84-.67.65-.5,1.11-.81,1.11-.81,2.05-1.43,4.34-2.54,6.75-3.22,2.4-.69,4.93-.97,7.42-.8,2.49.17,4.95.8,7.16,1.92,2.21,1.11,4.16,2.74,5.53,4.77,1.37,2.03,2.11,4.46,2.19,6.92.09,2.47-.44,4.95-1.34,7.29-.9,2.35-2.14,4.57-3.58,6.66-1.44,2.09-3.08,4.05-4.83,5.91M131.25,149.23c3.33,1.85,7.11,3.98,10.44,6.02-3.92,1.71-6.92,2.03-9.87,1.07-2.59-.84-5.16-2.73-8.11-5.97.37-.35,1.05-1.23,1.42-4.52,1.14.66,2.61,1.47,4.29,2.4l1.82,1.01ZM108.12,156.18c-.02.26-.29,2.04-.52,3.44-.12.74-.18,1.23-.16,1.56.02.32.11.45.24.49.12.04.27-.03.47-.28.19-.25.43-.7.68-1.48.08-.23.15-.48.21-.73.35.05.77.11,1.28.18,2.22.29,5.93.77,9.34,1.8,5.43,1.64,8.19,4.06,8.19,7.19,0,2.69-2,3.08-3.19,3.08-.14,0-.28,0-.42-.01h0c.05-.22.1-.43.13-.65.11-.77.05-1.55-.16-2.28-.41-1.48-1.38-2.7-2.49-3.61,0,0-.49-.42-1.29-.9-.4-.23-.88-.48-1.39-.7-.13-.06-.65-.31-1.34-.56-.69-.25-1.56-.49-2.33-.62-.83-.14-1.36-.14-1.69-.1-.33.04-.46.15-.49.27-.03.13.05.28.34.45.29.17.78.36,1.53.6.72.23,1.51.49,2.15.72.64.24,1.12.44,1.24.5.46.22.88.46,1.23.67.7.43,1.11.79,1.11.79.95.77,1.71,1.76,2.02,2.88.15.55.2,1.13.12,1.69-.07.55-.28,1.11-.59,1.48-.3.37-.77.63-1.3.74-.53.12-1.12.1-1.7-.01-1.16-.23-2.27-.84-3.23-1.63-.48-.4-.92-.84-1.32-1.33l-.13-.16-.2-.15-.24-.15-.44-.26-.88-.51c-1.18-.67-2.39-1.3-3.65-1.84-2.51-1.1-5.22-1.82-7.97-2.01-.69-.05-1.37-.07-2.06-.07-.34,0-.69.01-1.03.03l-.51.03h-.15s-.24.04-.24.04l-.2.08-.1.04c-1.07.41-2.34.4-3.44.01-1.1-.37-2.04-1.2-2.16-2.17-.03-.24-.02-.52.03-.78.05-.27.13-.53.24-.78.23-.5.58-.94,1.02-1.29,0,0,.38-.33,1.09-.62.35-.15.79-.27,1.26-.34.12-.02.62-.07,1.27-.04.65.02,1.46.13,2.18.27.77.14,1.28.24,1.61.23.33,0,.48-.09.52-.21.04-.12-.02-.28-.28-.49-.26-.2-.72-.48-1.53-.75-.2-.07-.42-.13-.64-.19.4-.11.83-.18,1.31-.22.58-.05,1.41.04,2.25.18l-.03.25c-.07.65-.1,1.08-.05,1.36.04.28.14.4.27.43.13.03.27-.02.44-.25.17-.22.37-.62.57-1.28.38-1.25.52-2.86.55-3.09.02-.14.03-.27.05-.4.43.04.81.06,1.14.06s.57-.02.8-.06c.33-.05.85-.13,1.51-.23.38-.06.81-.12,1.27-.19l-.03.47c-.03.41-.07.88-.11,1.39M87.39,164.91c-1.1.39-2.37.4-3.44-.01l-.1-.04-.2-.08-.24-.03h-.16s-.51-.04-.51-.04c-.34-.02-.68-.02-1.03-.03-.69,0-1.38.01-2.06.07-2.75.19-5.47.91-7.97,2.01-1.26.54-2.47,1.17-3.65,1.84l-.88.51-.44.26-.24.15-.2.15-.13.16c-.4.48-.84.93-1.32,1.33-.95.79-2.06,1.4-3.23,1.63-.58.12-1.17.13-1.7.01-.53-.12-.99-.37-1.29-.74-.3-.36-.51-.93-.59-1.48-.08-.56-.04-1.14.12-1.69.31-1.12,1.06-2.1,2.02-2.88,0,0,.41-.36,1.12-.79.35-.22.77-.45,1.23-.67.12-.05.6-.26,1.24-.5.64-.24,1.44-.49,2.15-.72.76-.25,1.25-.43,1.53-.6.29-.17.37-.32.34-.45-.03-.13-.16-.23-.49-.27-.33-.04-.86-.04-1.69.1-.77.13-1.64.37-2.33.62-.69.25-1.21.5-1.34.56-.51.22-.99.47-1.39.71-.8.47-1.29.9-1.29.9-1.11.9-2.08,2.12-2.49,3.6-.2.73-.27,1.51-.16,2.28.04.22.08.43.14.64h-.01c-.14.01-.28.02-.41.02-1.19,0-3.19-.4-3.19-3.08,0-3.13,2.76-5.56,8.19-7.19,3.41-1.03,7.12-1.51,9.34-1.8.51-.07.94-.12,1.28-.18.06.25.13.5.21.73.24.77.49,1.23.68,1.48.19.26.34.32.47.28.12-.04.22-.17.24-.49.02-.33-.04-.82-.16-1.56-.23-1.4-.47-3.19-.49-3.45-.04-.5-.07-.98-.09-1.39l-.04-.86c.42.13.75.24.92.33.55.27,1.46.41,2.78.41.32,0,.67-.01,1.02-.03.02.16.04.31.05.48.02.22.14,1.84.52,3.1.2.67.4,1.06.57,1.29.17.22.32.28.44.25.13-.03.23-.15.27-.43.04-.28.02-.71-.06-1.35l-.03-.25c.7-.11,1.38-.19,1.92-.19.11,0,.22,0,.33.01.48.04.91.11,1.31.22-.22.06-.44.12-.64.19-.82.27-1.27.55-1.53.75-.26.21-.33.36-.28.49.04.12.19.21.52.21.34,0,.85-.09,1.61-.23.72-.14,1.52-.25,2.18-.27.65-.03,1.15.03,1.27.04.48.08.91.2,1.27.34.71.29,1.08.63,1.08.63.44.34.8.78,1.03,1.28.12.25.2.51.24.78.05.27.06.55.03.78-.11.98-1.06,1.8-2.15,2.17M61,147.17c-.5-1.34-.69-4.65-.56-10.11.03-1.16.07-2.35.11-3.55,2.26.8,5.1,1.48,8.53,2.05,1.45.24,3,.45,4.63.64-.04.18-.08.38-.12.63-.17,1.14-.17,2.59-.18,2.79l-.05,1.11-.04,1.1c-.05,2-.07,4-.09,6v1.1s.02,1.11.02,1.11c0,.19-.04,1.48.06,2.59-.51-.16-1.15-.34-1.91-.56-1.21-.35-2.72-.78-4.18-1.28-4.61-1.56-5.93-2.82-6.22-3.6M83.16,101.47s2.21,3.38,5.39,3.43c3.18.06,6.72-3.32,6.72-3.32l6.82-.43c4.1-.98,7.44-2.15,9.8-3.1,2.98-1.2,5.25-2.4,6.67-3.33.34,1.46.73,3.11,1.16,4.9,1.04,4.39,2.22,9.37,3.28,14.24,2.21,10.17,3.09,16.46,2.63,18.7-.54.38-3.3,1.23-10.56,2.04-1.73.19-3.55.36-5.4.51-.09-.1-.18-.14-.28-.14-.11,0-.21.05-.31.18-4.94.38-10.15.58-14.94.58-.7,0-1.4,0-2.11-.01-8.36,0-16.43-.57-22.72-1.61-8.35-1.38-11.64-3.19-12.91-4.54.19-2.35,1.44-8.52,3.64-17.91,1.65-7.07,3.61-14.98,5.04-20.62,1.03,2.03,2.93,4.03,5.6,5.87.94.65,1.97,1.26,3.06,1.84,2.99,1.46,9.42,2.7,9.42,2.7M50.06,123.95c-5.19,0-9.4-3.01-10.03-7.16-.04-.29-.26-.52-.54-.59l-.17-.02c-.23,0-.45.11-.58.3-1.44,1.99-3.5,2.41-4.99,2.41-2.25,0-4.79-.94-6.96-2.56-3.9-2.93-6.33-7.95-2.95-12.57.18-.25.18-.58.02-.83-.17-.25-.48-.37-.78-.29-.93.24-1.85.36-2.72.36-5.26,0-8.24-4.22-9.27-8.18-1.33-5.11.19-11.36,5.68-13.42.29-.11.48-.39.46-.7-.01-.31-.22-.58-.52-.67-7.64-2.25-11.15-7.26-9.38-13.41,1.56-5.41,6.74-9.87,11.79-10.17.27-.02.5-.18.62-.42.11-.24.08-.53-.08-.74-1.62-2.09-2.3-6.74-1.63-11.06.79-5.13,3.24-8.85,6.71-10.22,1.02-.4,2.05-.61,3.03-.61,2.39,0,4.75,1.21,7.01,3.61,2.48,2.62,4.85,6.63,7.26,12.25,3.45,8.06,8.95,16.21,14.26,24.09,1.04,1.54,2.07,3.06,3.06,4.56,1.37,2.06,2.72,4.13,3.97,6.17.35,1.87.69,3.42.96,4.57l-.1.2-.04.11c-1.45,5.68-3.66,14.55-5.49,22.39-1.06,4.53-1.89,8.27-2.5,11.23-.98.45-1.86.74-2.56.92-1.17.3-2.35.46-3.52.46M121.17,26.06c.65,3.22.71,7.87-.58,12.2-.19.63-.42,1.29-.69,1.95-.43-.59-.77-.94-.77-.94-.18-.21-.38-.41-.58-.6-1.28-1.61-2.73-3.05-4.32-4.3l.08-.07c2.8-2.48,5.3-5.51,6.86-8.24M127.6,35.55c.47,3.25.27,7.89-1.25,12.15-.44,1.24-1.04,2.55-1.83,3.77-.2-.85-.42-1.69-.67-2.5-.57-1.84-1.25-3.56-2.04-5.16-.1-.31-.21-.62-.33-.88-.05-.13-.11-.25-.16-.36,2.53-2.16,4.78-4.68,6.3-7.02M130.56,49.79c-.01,3.28-.89,7.85-3.02,11.83-.48.89-1.06,1.83-1.76,2.72.05-3.43-.17-6.71-.65-9.76,2.1-1.49,4-3.17,5.43-4.79M86.36,76.31c1.44.01,2.86-.2,4.24-.58,1.38-.38,2.7-.94,3.93-1.71,0,0,.55-.32,1.29-.93l.37-.32h.02s.19.05.19.05l.11.06c.07,1.44.08,3.24-.07,5.35-.32,4.39-1.23,8.93-2.72,13.5-1.77-.87-3.73-1.04-5.48-.46-1.34.44-2.48,1.29-3.32,2.41-.48-3.13-.84-8.13-1.07-12.16-.12-1.99-.21-3.9-.28-5.56.92.23,1.87.33,2.8.34M93.25,93.12c-.76,2-1.72,3.66-2.72,4.73-1.09,1.16-2.14,1.58-3.18,1.2-.42-.15-.81-.52-1.15-1.09-.33-.54-.61-1.26-.86-2.15.64-1.52,1.85-2.66,3.35-3.16,1.45-.48,3.08-.31,4.56.47M80.18,74.24c.57.52,1.22.92,1.91,1.23h.01c.07,1.84.18,3.99.3,6.14.29,5.05.78,11.64,1.49,14.33.29,1.12.65,2.05,1.08,2.75.52.86,1.16,1.44,1.89,1.7.41.15.82.22,1.24.22,1.2,0,2.37-.6,3.49-1.79,1.24-1.32,2.37-3.33,3.24-5.79h0s0,0,0,0c1.68-4.98,2.71-9.92,3.05-14.69.12-1.64.14-3.1.11-4.36.15.1.3.21.48.3.4.23.88.43,1.4.47.55.04,1.01-.12,1.29-.3.26-.17.41-.3.54-.42.24-.24.28-.4.23-.52-.05-.12-.21-.18-.55-.14-.16.02-.4.08-.64.14-.21.05-.44.07-.72,0-.53-.11-1.17-.6-1.72-1.04-.28-.22-.55-.43-.78-.59-.23-.16-.43-.26-.52-.3-.16-.08-.35-.16-.58-.19-.22-.04-.5-.02-.74.07-.12.04-.23.1-.32.17l-.21.17-.25.21c-.65.53-1.14.82-1.14.82-2.18,1.36-4.81,2.08-7.39,2.07-1.28-.01-2.57-.22-3.7-.72-.57-.25-1.08-.57-1.52-.98-.11-.1-.21-.2-.31-.31l-.15-.17-.19-.25c-.2-.28-.43-.5-.72-.59-.24-.08-.5-.06-.73.04l-.13.06-.12.08c-.21.16-.4.39-.54.62l-.06.1v-.07s-.05-.18-.05-.18l-.04-.24c-.22-1.26-.24-2.59-.14-3.89.22-2.62.91-5.24,2.08-7.58.59-1.16,1.31-2.27,2.22-3.08.95-.81,2.1-1.49,3.28-1.96,2.39-.95,5.1-1.11,7.56-.38,2.47.71,4.63,2.32,6.13,4.43.75,1.05,1.37,2.22,1.82,3.43.45,1.22.74,2.51.94,3.82,0,0,.09.58.17,1.45.05.44.09.94.13,1.48.02.27.04,2.21.1,3.76.01.34.03.62.05.87l-.25-.12c.02,1.07-.01,2.18-.09,3.31-.1,1.47-.26,2.74-.38,3.56-.82,6.03-2.5,11.53-4.7,15.49-1.68,3.01-4.51,6.59-8.47,6.59h-.08c-4.01-.05-6.59-5.83-7.68-17.17-.4-4.22-.54-8.59-.63-12.07l.02.02ZM77.22,57.79c-.16,2.33-.98,3.51-1.72,3.55-.75.03-1.41-1.08-1.29-3.32.15-2.64,1.01-4.14,1.77-4.25.76-.11,1.44,1.15,1.24,4.02M76.39,48.3c-.7-.75-1.56-1.08-2.45-.95-3,.45-5.4,5.88-5.82,13.2-.25,4.4.49,7.76,2.09,9.45.67.72,1.48,1.09,2.33,1.09h.13c.85-.04,1.74-.47,2.55-1.33-1.34,2.65-2.96,3.91-4.42,3.91h-.16c-.84-.06-1.67-.52-2.4-1.35-2-2.27-2.96-6.87-2.58-12.31.71-10.17,4.38-16.11,7.47-16.54.12-.02.23-.02.34-.02.73,0,1.41.34,2.03,1,1.17,1.27,1.94,3.52,2.3,6.49-.35-1.14-.82-2.04-1.4-2.66M97.27,99.23c.35-.52.69-1.07,1.01-1.65,2.29-4.11,4.02-9.79,4.87-16,.12-.84.28-2.14.39-3.66.09-1.36.12-2.68.08-3.94l.02-.19c.17-1.57.06-3.58.04-3.86-.01-.56-.05-1.08-.09-1.54-.08-.91-.18-1.52-.18-1.52-.2-1.39-.52-2.77-1.01-4.11-.5-1.34-1.17-2.61-2-3.78-.84-1.16-1.86-2.21-3.03-3.06-1.17-.85-2.48-1.5-3.87-1.91-2.78-.82-5.82-.64-8.49.42-1.34.54-2.58,1.26-3.71,2.22-.86.77-1.51,1.67-2.06,2.61l.02-.21c.62-7.46-.34-12.99-2.7-15.56-1.03-1.11-2.3-1.62-3.63-1.43-3.63.5-7.9,6.31-8.71,17.87-.41,5.89.66,10.76,2.93,13.36.99,1.12,2.16,1.76,3.4,1.83h.25c1.85,0,3.99-1.33,5.68-4.61.02.67.09,1.35.21,2.02l.05.27.03.13.05.19c.05.22.15.61.25.9.06.15.1.33.17.43l.1.18.05.08.06.05.22.18c.08.04.16.07.29.09.25.02.37-.03.56-.13.08-.05.16-.12.24-.22.08,3.43.23,7.65.62,11.76.54,5.6,1.44,9.9,2.73,12.93l1.07,2.1c.28.46.58.87.89,1.24.82.67,1.11,1.06,1.11,1.06.98.74,2.07,1.12,3.29,1.14h.1c.33,0,.65-.03.97-.07,0,0,1.85.05,4.31-1.82.77-.59,2.28-2.17,2.31-2.17l1.14-1.61ZM95.66,100.2s-3.66,3.64-7.2,3.98c-3.55.35-5-3.83-6.24-4.28-1.24-.45-6.92-1.95-6.92-1.95-1.37-.68-2.65-1.43-3.8-2.21-3.05-2.1-5-4.38-5.62-6.58-1.23-4.89-4.94-22.04-1.11-37.26,1.61-6.42,4.31-11.48,8.07-15.15.33-.2.67-.36,1.02-.47.78-.24,1.6-.21,2.28.14,0,0,.31.14.69.49.19.17.4.4.59.68.05.07.22.36.4.78.18.42.35.96.49,1.46.14.53.25.89.39,1.11.13.22.27.28.4.27.13-.01.25-.1.34-.34.08-.23.16-.62.11-1.25-.04-.59-.2-1.26-.42-1.78-.21-.53-.47-.9-.53-1-.22-.38-.5-.71-.76-.97-.54-.52-1.03-.73-1.03-.73-.47-.24-1.01-.39-1.55-.43,4.55-3.39,10.36-5.14,17.39-5.22.16,0,.33,0,.49,0,8.66,0,15.68,2.24,20.85,6.58-.66-.15-1.35-.22-2.03-.18,0,0-.64,0-1.53.26-.44.13-.94.33-1.43.6-.12.07-.64.32-1.22.77-.58.44-1.2,1.06-1.66,1.68-.49.66-.69,1.13-.78,1.43-.09.3-.05.46.06.54.1.08.27.07.53-.11.27-.17.62-.53,1.14-1.04.49-.49,1.06-1.01,1.56-1.37.49-.37.91-.6,1.01-.66.41-.2.82-.36,1.18-.45.71-.19,1.21-.2,1.21-.2,1.12-.07,2.26.22,3.29.75.75.39,1.45.9,2.08,1.49,1.29,1.61,2.41,3.41,3.35,5.39.06.17.12.35.17.51l.27.87c.07.24.15.44.22.58.11.22.22.32.32.35.27.7.51,1.41.74,2.15,3.48,11.31,2.12,27.12-3.71,43.39-.8.72-3.3,2.27-7.4,3.93-2.41.97-5.86,2.18-10.12,3.16-2.47.09-5.57.32-5.57.32M89.14,158.76s-.53-.47-1.46-.82c-.47-.18-1.02-.32-1.61-.38-.09-.01-.36-.05-.73-.07-.94-.8-2.18-1.27-3.78-1.39-.62-.05-1.42,0-2.54.18l-.16-1.3-.03-.44c.2-.02.41-.04.62-.06,2.58-.28,5.31-.82,7.12-1.43,2.14-.71,2.62-1.95,2.82-3.19.02-.1.03-.21.05-.31.09-.63.16-.99.44-1.23l3.35,4.09c.09.11.22.2.37.24.02,0,2.32.63,4.89,1.2,1.41.31,2.62.54,3.65.7l-.04.42c-.01.12-.08.65-.17,1.31-1.12-.18-1.93-.24-2.55-.19-1.6.12-2.84.59-3.78,1.39-.37.02-.64.05-.73.07-.59.07-1.14.21-1.6.38-.93.36-1.46.84-1.46.84-.55.42-1.01.97-1.34,1.6-.33-.63-.79-1.18-1.34-1.61M106.78,153.08c-.66.1-1.19.18-1.53.24-.15.02-.34.04-.56.04-1.15,0-3.18-.31-5.88-.91-2.07-.46-3.97-.95-4.6-1.12l-3.57-4.37c-.19-.24-.51-.33-.8-.22-1.51.53-1.69,1.73-1.82,2.61-.01.09-.03.2-.04.29-.14.86-.36,1.56-1.85,2.05-1.73.58-4.34,1.1-6.82,1.36-1.07.11-2.07.17-2.89.17-1,0-1.56-.08-1.86-.16.01-.08.02-.17.03-.26.11-1.14.06-2.58.06-2.79l.03-1.1v-1.09c.02-1.99.04-3.98.09-5.97l.03-1.09v-1.1c.02-.2.11-1.64.06-2.78,0-.22-.02-.4-.05-.57,5.22.56,11.15.86,17.22.86.7.01,1.41.01,2.12.01,4.68,0,9.75-.2,14.59-.55-.08.94-.07,1.98-.08,2.14l-.05.97-.04.95c-.08,1.74-.2,3.48-.4,5.19l-.12.94-.13.94c-.03.17-.29,1.38-.49,2.29-.06.24-.1.44-.13.6-.03.17-.06.32-.05.44,0,.23.09.36.2.41.12.06.27.05.45-.08.1-.07.2-.16.32-.31.13-.16.25-.37.38-.63.47-.99.65-2.29.68-2.47.07-.35.13-.69.18-.98.09-.58.13-.97.13-.97.21-1.77.33-3.54.41-5.3,0,0,.02-.39.04-.97v-.98c.01-.17.08-1.3,0-2.27,1.78-.14,3.53-.31,5.2-.49,3.79-.42,6.67-.88,8.63-1.36.06,1.2.09,2.35.11,3.45.16,9.51-1.05,11.01-1.29,11.21-.64.54-2.66,1.41-8.56,2.53-2.78.53-5.52.94-7.34,1.21M130.79,147.33l-.66-.37c-1.98-1.1-3.67-2.03-4.85-2.72.02-.32.04-.66.06-1.02,1.21.07,2.49.11,3.85.15.18,0,.37,0,.56,0,1.91,0,3.9-.28,5.88-.77,3.59.62,7.57,1.34,11.13,2.1-3.11,2.88-5.91,4.21-8.96,4.27-2.08.05-4.34-.48-7.01-1.66"/>
        <path class="cls-12" d="M103.6,59.67c-.97,10.83,2.89,16.42,6.89,17.03.26.04.53.06.8.06,3.84,0,8.16-4.38,9.17-14.17,1.27-12.38-2.49-19.09-6.53-20.09-.36-.09-.73-.13-1.1-.13-3.7,0-8.08,4.54-9.22,17.3M113.58,43.9c3.47.86,6.56,7.65,5.45,18.54-.91,8.85-4.65,12.88-7.74,12.88-.19,0-.39-.02-.58-.04-2.02-.31-3.99-2.28-5.04-5.96,1.02,2.33,2.59,3.57,4.23,3.78.17.02.34.03.51.03,2.85,0,5.98-3.2,6.57-10.36.73-8.9-2.13-13.67-5.09-14.33-.25-.06-.51-.08-.76-.08-1.77,0-3.71,1.37-5.04,4.83,1.57-6.43,4.29-9.38,6.73-9.38.25,0,.51.03.76.09M115.38,60.29c-.2,2.46-1.27,3.59-2.24,3.46-.97-.13-1.85-1.51-1.67-4.08.22-3.16,1.31-4.45,2.3-4.23.98.22,1.85,1.96,1.62,4.85"/>
        <path class="cls-9" d="M85.71,108.33l-10.01,1.24-1.69-10.69,8.82,1.96s.98,1.88,2.22,2.56c.95.52.87.84,2.15,1.28l-.37,3.09-1.12.56Z"/>
        <path class="cls-9" d="M86.06,104.27l.43,4.74,3.71.11.5-4.51s-1.14.2-2.49.2-2.15-.54-2.15-.54"/>
        <path class="cls-9" d="M90.43,108.44l12.37,2.02,1.35-10.24-7.92.67s-2.25,1.93-3.03,2.49c-.79.56-3.22,1.45-3.22,1.45l.45,3.6Z"/>
        <polygon class="cls-8" points="85.37 106.08 75.47 105.97 74.91 102.48 85.6 103.72 85.37 106.08"/>
        <polygon class="cls-8" points="103.26 107.32 91.11 106.08 91.22 103.95 92.57 103.61 103.71 103.38 103.26 107.32"/>
        <path class="cls-12" d="M75.7,110.22c-.31,0-.59-.23-.64-.55l-1.69-10.69c-.04-.21.04-.43.19-.57.16-.15.37-.21.58-.17l9,1.91c.35.07.58.42.5.77-.07.35-.42.57-.77.5l-8.07-1.72,1.44,9.13,9.39-1.16c.36-.04.68.21.73.56.04.36-.21.68-.57.73l-10.01,1.24h-.08Z"/>
        <path class="cls-12" d="M85.6,104.37h-.08s-10.69-1.24-10.69-1.24c-.36-.04-.61-.36-.57-.72.04-.36.37-.61.72-.57l10.69,1.24c.36.04.61.36.57.72-.04.33-.32.58-.65.58"/>
        <path class="cls-12" d="M85.37,106.73h0l-9.9-.11c-.36,0-.65-.3-.64-.66,0-.36.3-.65.66-.64l9.9.11c.36,0,.65.3.64.66,0,.36-.3.64-.65.64"/>
        <path class="cls-12" d="M90.21,109.77h-.02l-3.72-.11c-.32,0-.59-.25-.63-.57l-.68-5.82c-.04-.36.21-.68.57-.72.35-.04.68.22.72.57l.61,5.26,2.53.08.4-4.44c.03-.36.35-.62.7-.59.36.03.62.35.59.7l-.45,5.05c-.03.34-.31.59-.65.59"/>
        <path class="cls-12" d="M102.81,111.12h-.1s-12.37-2.03-12.37-2.03c-.36-.06-.59-.39-.54-.75.06-.36.39-.6.75-.54l11.71,1.92,1.15-8.74-8.84,1.03c-.36.04-.68-.22-.72-.57-.04-.36.22-.68.57-.72l9.67-1.13c.2-.02.4.05.54.19.14.14.21.34.18.54l-1.35,10.24c-.02.17-.12.33-.26.44-.11.08-.25.13-.39.13"/>
        <path class="cls-12" d="M91.18,104.32c-.35,0-.64-.28-.65-.64,0-.36.28-.66.64-.67l12.52-.28h.01c.36,0,.65.28.66.63,0,.36-.28.66-.64.67l-12.52.28h-.01Z"/>
        <path class="cls-12" d="M103.26,107.97h-.07s-12.15-1.24-12.15-1.24c-.36-.04-.62-.36-.58-.71.04-.36.36-.61.71-.58l12.15,1.24c.36.04.62.36.58.71-.04.34-.32.59-.65.59"/>
      </g>
    </g>
  </g>
  <g>
    <g>
      <path class="cls-15" d="M54.55,180.59c-7.14,0-11.78-.2-15.22-1.61-1.22.88-2.68,1.55-4.3,1.55-3.74,0-6.9-3.27-6.9-7.14,0-2.96,1.86-4.6,2.56-5.22.08-.06.15-.13.22-.19-1.69-1.21-2.76-3.25-2.75-5.66,0-2.03.71-3.77,1.91-4.99-.74-.9-1.39-2.14-1.39-3.96,0-3.83,3.36-7.2,7.2-7.2,1.62,0,2.86.5,3.86,1.19,1.21-1.06,2.86-1.67,4.76-1.67,1.33,0,2.54.31,3.57.86.98-.66,2.15-1.01,3.5-1.05.05,0,.1,0,.14,0,2.16,0,4.09.92,5.37,2.36h.25c3.59,0,6.3,2.85,6.3,6.63,0,1.39-.36,2.65-1,3.7.02.18.02.36.02.53,0,.46-.04.91-.13,1.35.64.86,1.32,2.23,1.32,4.21,0,1.94-.71,3.63-1.9,4.82,1.03,1.17,1.62,2.72,1.62,4.5s-.73,4.29-2.77,5.75c-.04.03-.09.06-.13.09-1.71,1.14-3.46,1.14-6.11,1.14h0Z"/>
      <path class="cls-15" d="M83.3,180.97c-1.55,0-2.86-.51-3.96-1.27-1.05.56-2.09.83-3.16.83-1.01,0-1.98-.23-2.85-.63-.56.11-1.06.18-1.47.23-3.1.43-5.62.53-5.96.53-.65,0-1.28-.1-1.86-.28-.66.17-1.29.23-1.83.23-3.95,0-7.17-3.03-7.17-6.76,0-.96.25-1.81.53-2.59.83-2.37.83-5,.83-8.98v-4.83c0-3.98,1.86-6.44,5.29-7.1.91-2.53,3.37-4.24,6.41-4.24,1.71,0,3.06.45,4.11,1.14h1.8c.18,0,.37,0,.54.02,1.14-.79,2.58-1.24,4.2-1.24,1.5,0,2.87.41,3.98,1.12.11,0,.22,0,.33,0,2.26,0,4.12,1.05,5.52,3.11,1.63,2.4,1.81,3.91,1.81,4.84,0,.44-.05.87-.14,1.28.32.84.49,1.77.49,2.76,0,1.2-.26,2.31-.74,3.25.04.28.06.56.06.85,0,.59-.13,1.42-.43,2.45.92,1.06,1.46,2.45,1.46,4,0,1.1-.3,2.91-.55,4.24-1.17,6.36-5.46,7.05-7.24,7.05h-.01Z"/>
      <path class="cls-15" d="M100.17,181.06c-2.22,0-4.11-.83-5.37-2.2-1.84.92-3.76,1.55-5.5,1.55-3.84,0-6.74-3.11-6.74-7.22,0-1.3.32-2.47.92-3.45-.38-.87-.59-1.86-.59-2.92,0-.63.07-1.24.22-1.81-.39-.89-.6-1.88-.59-2.94,0-1.2.27-2.3.77-3.25-.41-.77-.69-1.71-.69-2.88,0-2.28,1.18-4.35,2.97-5.58.08-.17.16-.34.23-.51.02-.05.05-.1.07-.16,1.07-2.25,3.2-3.59,5.71-3.59,1.44,0,2.78.45,3.86,1.22,1.17-1.05,2.75-1.62,4.57-1.62,1.62,0,3.08.43,4.25,1.17.85-.53,1.94-.88,3.34-.88,2.96,0,5.41,1.76,6.28,4.27,1.67,1.18,2.79,3.08,2.79,5.18,0,.43-.03.82-.1,1.2.43.77.73,1.7.87,2.82.16,1.35.31,2.73.31,3.75,0,.86-.17,1.67-.47,2.4.06.39.09.79.09,1.2,0,1.01-.19,1.95-.54,2.8.66,1.03,1.03,2.26,1.03,3.63,0,4-2.97,7.14-6.76,7.14-1.64,0-3.59-.64-5.52-1.6-1.25,1.42-3.16,2.27-5.41,2.27Z"/>
      <path class="cls-15" d="M118.36,180.33c-5.07,0-8.09-3.03-8.09-8.09v-17.63c0-5.08,3.03-8.12,8.09-8.12h17.79c5.07,0,8.09,3.04,8.09,8.12v17.62c0,5.07-3.03,8.09-8.09,8.09h-17.79Z"/>
    </g>
    <path class="cls-17" d="M136.15,139.49h-17.79c-2.17,0-4.02.53-5.48,1.5-1.36-1.24-3.21-1.99-5.28-1.99-1.34,0-2.44.28-3.33.72-1.22-.65-2.67-1.02-4.26-1.02-1.8,0-3.38.49-4.65,1.39-1.11-.63-2.41-.99-3.79-.99-1.94,0-3.67.7-4.99,1.94-1.25-.69-2.51-.91-3.52-.91h-.05c-1.22-.71-2.67-1.11-4.26-1.11s-3.19.45-4.44,1.23c-.1,0-.21,0-.31,0h-1.49c-1.15-.7-2.62-1.14-4.42-1.14-2.75,0-5.06,1.24-6.44,3.18-1.15-.86-2.58-1.38-4.16-1.42-1.45-1.45-3.51-2.36-5.8-2.36-.06,0-.11,0-.17,0-1.09.03-2.34.26-3.53.92-1.05-.47-2.23-.74-3.51-.74-1.84,0-3.49.54-4.81,1.47-.99-.56-2.26-.98-3.82-.98-4.37,0-8.2,3.83-8.2,8.2,0,1.67.5,2.95,1.13,3.92-1.04,1.34-1.65,3.08-1.65,5.03,0,2.29.84,4.29,2.24,5.69-.94.95-2.27,2.68-2.27,5.38,0,4.41,3.62,8.14,7.9,8.14,1.66,0,3.15-.6,4.42-1.42,3.52,1.29,8.17,1.48,15.1,1.48h0c1.91,0,3.44-.01,4.86-.45.88.31,1.82.48,2.81.48.66,0,1.26-.07,1.82-.19.59.16,1.22.24,1.87.24.34,0,2.94-.1,6.09-.54.32-.04.73-.1,1.21-.19.92.38,1.93.6,2.97.6s2.07-.23,3.08-.68c1.14.68,2.47,1.11,4.03,1.12h.01c.71,0,2.18-.12,3.7-.91.72.22,1.49.34,2.29.34,1.66,0,3.49-.51,5.29-1.33,1.41,1.25,3.35,1.99,5.58,1.99s4.17-.78,5.6-2.07c1.84.84,3.7,1.4,5.33,1.4,1.19,0,2.31-.28,3.31-.76,1.16.46,2.48.71,3.95.71h17.79c5.61,0,9.09-3.48,9.09-9.09v-17.62c0-5.71-3.4-9.12-9.09-9.12Z"/>
    <g>
      <path class="cls-8" d="M39.83,162.73c-.05-.52.05-.87.43-2.12.57-2.01.76-3.33,1-7.24.05-.87.05-1.73.08-2.58-.79,0-1.27,0-1.63-.6-.43.87-1.14,1.36-1.98,1.36-.73,0-1.06-.22-1.76-1.17-.35-.43-1.08-1.27-1.33-1.52-.87-.79-.98-.95-.98-1.49,0-1.06,1.11-2.2,2.2-2.2.68,0,1.11.24,1.95,1.17.6.62,1.46,1.63,1.71,2.03.16-.68.62-1.06,1.33-1.06h1.74s0-1.11,0-1.11c0-.98.68-1.52,1.9-1.52s1.87.54,1.87,1.52v1.11h.89c.79,0,1.22.41,1.36,1.3,1.03-1.71,1.11-1.84,1.33-2.44.46-1.3.84-1.65,1.76-1.68,1.03,0,1.95.71,1.95,1.46,0,.27-.05.52-.22.9h3.88c.81,0,1.3.6,1.3,1.63s-.46,1.65-1.3,1.65h-5.56c-.22.41-.43.81-.73,1.19h4.69c.84,0,1.93,0,1.93,1.38,0,.43,0,1.11-2.12,3.42.03.14.03.16.03.49h1.98c.79,0,1.3.52,1.3,1.66,0,1.11-.51,1.63-1.3,1.63h-1.98v2.36c0,2.85-1.79,2.85-3.2,2.85-1.98,0-2.55-.41-2.55-1.71,0-.9.46-1.6,1.03-1.6.22,0,.46.05.62.05.33,0,.46,0,.46-.95v-1h-1.65c-.84,0-1.3-.6-1.3-1.63s.46-1.65,1.3-1.65h1.65c0-.49,0-1.38,1.03-1.6.27-.38.35-.49.35-.6,0-.08-.6-.08-.62-.08h-1.54c-.73,0-1.19-.54-1.19-1.46,0-.3.03-.54.14-.84-.16.03-.24.05-.35.05-.89,0-1.79-.65-1.95-1.38-.19.05-.3.08-.52.08h-2.71c0,.46,0,.95-.03,1.44h1.98c1.74,0,2.28.54,2.28,2.33,0,.3-.08,3.77-.33,7.7-.16,2.06-.84,2.9-2.36,2.9-2.25,0-2.85-.35-2.85-1.55,0-.98.46-1.65,1.11-1.65.22,0,.38.03.46.03.35,0,.43-.24.52-1.54.11-1.33.22-4.26.22-4.5,0-.38-.11-.38-1.19-.38-.22,2.79-.43,4.42-.92,6.13-.54,2.03-.79,2.33-1.82,2.33-.43,0-.76-.11-1.19-.38,2.17,2.41,5.58,2.41,12.36,2.41,1.41-.03,2.96-.19,3.93-.19,1.22,0,1.84.6,1.84,1.74,0,.68-.3,1.41-.68,1.68-.41.27-1.25.3-3.33.3-11.09,0-13.75-.68-15.89-3.07-.08.16-2.22,3.01-3.63,3.01-.98,0-1.9-1-1.9-2.14,0-.54.19-.87.87-1.46.76-.65,1.41-1.35,2.09-2.28v-4.91c0-.43-.14-.6-.6-.6h-.87c-.92,0-1.46-.65-1.46-1.82,0-1.19.52-1.84,1.46-1.84h2.79c1.82,0,2.28.46,2.28,2.31v5.67s.13.27.13.27Z"/>
      <path class="cls-8" d="M65.85,153.86c-.52.03-.71-.27-.71-.81,0-.79.33-.81,1.55-.87v-.76h-1.08c-.49,0-.6.11-.6.57v7.19c0,3.63-.41,6.05-.68,7.56-.38,2.12-.95,2.88-2.12,2.88s-2.17-.81-2.17-1.76c0-.16.08-.46.24-.92,1.11-3.2,1.11-6.32,1.11-10.66v-4.83c0-1.9.38-2.28,2.28-2.28h2.63v-2.6c0-.92.65-1.46,1.79-1.46.81,0,1.65.14,1.9,1.14h4.01c.57,0,.9.41.9,1.11s-.33,1.11-.9,1.11h-3.99s0,.7,0,.7h2.93c2.28,0,2.28.62,2.28,2.96,0,.79-.54,1.19-1.49,1.19-1.52,0-1.52-.89-1.52-1.33,0-.46-.11-.57-.57-.57h-1.63v.62l1.19-.05c.51,0,.7.24.7.84,0,.51-.19.71-.81.73l-1.08.05c0,.71,0,.92.68.92.27,0,.65,0,.95-.03.16,0,.24-.05.38-.49.08-.35.41-.54.9-.54.76,0,1.41.46,1.41,1s-.33,1.41-.68,1.65c-.41.3-1.06.38-3.01.38-3.96,0-3.96-.19-3.96-2.71l-.84.05ZM74.5,163.14c0,1.22-.43,1.65-1.66,1.65.19.14.27.27.27.46s-.08.57-.19.84c.76.05,1.22.65,1.22,1.52,0,1-.35,1.22-2.96,1.57-2.9.41-5.21.49-5.29.49-.73,0-1.25-.65-1.25-1.52,0-1.44.84-1.44,2.39-1.44-.27-.79-.33-1.03-.33-1.25,0-.27.11-.52.38-.71-.73-.03-1.3-.27-1.3-1.63v-1.36c0-1.25.43-1.65,1.76-1.65h5.23c1.27,0,1.71.43,1.71,1.71v1.3ZM66.23,159.39c-.6,0-.9-.38-.9-1.11s.33-1.08.9-1.08h8.16c.57,0,.87.41.87,1.09,0,.73-.3,1.11-.87,1.11h-8.16ZM68.83,164.79c.19.16.3.41.46.95.05.24.14.6.19.79.3-.05.54-.05.81-.08.27-.92.54-1.44.79-1.65h-2.25ZM69.27,161.97c-.43,0-.43.11-.43.6,0,.35.08.43.43.43h1.74c.43,0,.43-.11.43-.6,0-.35-.08-.43-.43-.43h-1.74ZM80.85,155.22c.08,1.3.11,2.36.33,3.36.13-.33.22-.57.3-.87.41-1.6.76-2.06,1.63-2.06,1.03,0,1.98.76,1.98,1.57,0,.27-.41,2.55-2.66,6.07.22.62.54,1.17.76,1.46.27-1.92.33-2.25,1.49-2.25.92,0,1.44.43,1.44,1.17,0,.49-.16,1.73-.46,3.31-.38,2.06-1.08,2.98-2.33,2.98-.43,0-1.57,0-3.47-3.34-.71.76-1.19,1.38-1.9,1.98s-1.3.92-1.76.92c-1.03,0-1.98-.95-1.98-1.98,0-.57.35-.95,1.54-1.84.71-.57,1.74-1.49,2.63-2.6-.65-2.28-1.14-4.83-1.27-7.46l-.81.11c-.84.08-1.44-.73-1.44-1.79s.49-1.71,1.27-1.79l.79-.11c-.05-.6-.05-1.27-.05-2.06v-3.44c0-.98.68-1.54,1.9-1.54s1.93.57,1.93,1.55v5.07s3.5-.41,3.5-.41c.95-.11,1.57.68,1.57,1.9,0,1.03-.38,1.55-1.19,1.65l-3.71.43ZM83.51,150.61c-.84,0-1.03-.35-1.9-2.03-.19-.35-.33-.79-.33-1.06,0-.71.87-1.38,1.79-1.38.57,0,.92.24,1.38.92.57.84.95,1.63.95,2.03,0,.79-.92,1.52-1.9,1.52Z"/>
      <path class="cls-8" d="M89.65,157.8c-.16.03-.38.05-.54.05-1,0-1.6-.68-1.6-1.79,0-1.41.98-1.54,1.3-1.57.38-.41.81-1,1.3-1.71-.38-.41-1.19-1.19-1.49-1.44-.87-.65-1.03-.87-1.03-1.41,0-.87.71-1.65,1.57-1.74.41-.65.87-1.54,1.22-2.36.24-.51.6-.73,1.19-.73.81,0,1.55.62,1.55,1.3,0,.54-.49,1.46-1.79,3.42.22.24.3.33.46.46.16-.22.24-.38.38-.6.76-1.44.98-1.63,1.68-1.63.79,0,1.41.57,1.41,1.3,0,.22-.14.6-.38.95-.79,1.27-2.14,3.23-2.71,3.93l1.33-.13c-.05-.27-.14-.6-.14-.9,0-.51.54-.92,1.19-.92.52,0,.84.3.98.98.16.71.33,1.79.35,2.3v-6.21c0-2.12.76-2.2,2.09-2.3.08-.22.13-.38.35-1.22.24-.84.68-1.14,1.68-1.14,1.22,0,2.09.52,2.09,1.22,0,.41-.16.76-.3,1.14,1.3,0,2.6,0,2.68,1.49.33-.33.68-.49,1.14-.49.22-.46.33-.81.46-1.22.46-1.6.65-1.84,1.52-1.84.92,0,1.63.57,1.63,1.33,0,1.11-1.17,3.28-1.36,3.58.14.16.22.3.35.46.33-.65.73-1.57,1-1.93.22-.3.46-.41.79-.41.81,0,1.65.71,1.65,1.41,0,.65-.27,1.14-1.44,3.06-.52.84-.92,1.46-1.25,1.92l1.17-.16c-.05-.22-.13-.43-.13-.73,0-.51.54-.9,1.27-.9s1.06.35,1.19,1.44c.11.92.27,2.33.27,3.12,0,.73-.46,1.11-1.33,1.11s-.89-.3-1.03-1.03l-3.93.52c-.27.03-.46.05-.62.05-.65,0-1.22-.43-1.38-1.06-.3.98-.87,1.17-2.28,1.17v1.14h8.81c.89,0,1.38.62,1.38,1.71s-.49,1.71-1.38,1.71h-5.4c1.87,1.38,3.42,2.2,6.07,3.15.87.3,1.19.73,1.19,1.57,0,1.25-.73,2.14-1.76,2.14-1.98,0-6.75-2.71-8.92-5.13v4.18c0,1.03-.73,1.63-2.01,1.63s-2.03-.57-2.03-1.63v-4.07c-2.71,2.74-6.81,5.04-8.84,5.04-1.03,0-1.74-.89-1.74-2.22,0-.87.3-1.22,1.19-1.46.49-.11,1.36-.43,2.58-.97,1.52-.65,2.85-1.68,3.53-2.22h-5.61c-.87,0-1.36-.62-1.36-1.71s.49-1.71,1.36-1.71h8.89s0-1.14,0-1.14c-.95,0-1.87-.11-2.14-1.06.05,1-.46,1.41-1.28,1.41-.76,0-.81-.41-.9-1.14l-4.17.62ZM101.48,151.24c0-1.11,0-1.25-.6-1.25h-1.52c-.57,0-.57.14-.57,1.25h2.68ZM100.88,154.93c.6,0,.6-.14.6-1.25h-2.68c0,1.11,0,1.25.57,1.25h1.52ZM104.54,155.47c.19-.57.51-.79,1.06-.79.22-.3.51-.73,1.11-1.68-.38-.54-.95-1.25-2.17-2.58v5.04Z"/>
      <path class="cls-8" d="M115.27,148.61c0-2.36.76-3.12,3.09-3.12h17.79c2.33,0,3.09.76,3.09,3.12v17.62c0,2.33-.76,3.09-3.09,3.09h-17.79c-2.33,0-3.09-.76-3.09-3.09v-17.62ZM133.66,158.67c0,.43-.19.92-.49,1.22.65.05,1.27.68,1.27,1.25,0,.38-.11.54-.84,1.27.92.19,1.22.57,1.22,1.38,0,.95-.62,1.63-1.52,1.63-.43,0-1.98-.24-4.45-2.03v1.08c0,.73-.33,1.17-1.11,1.41h6.75c.62,0,.84-.22.84-.84v-15.35c0-.62-.21-.84-.84-.84h-6.21c.43.19.68.46.81.92h4.2c.62,0,.95.43.95,1.19s-.33,1.19-.95,1.19h-4.15v.7h4.64c.65,0,1,.46,1,1.25s-.35,1.25-1,1.25h-13.18c-.62,0-.98-.44-.98-1.25s.35-1.25.98-1.25h4.66v-.7h-3.99c-.62,0-.98-.43-.98-1.19s.35-1.19.98-1.19h4.04c.14-.46.38-.73.81-.92h-6.18c-.62,0-.84.21-.84.84v15.35c0,.62.21.84.84.84h6.24c-.76-.22-1.11-.65-1.11-1.41v-1.6c-1.25,1.25-3.12,2.36-3.99,2.36-.79,0-1.44-.81-1.44-1.76,0-.73.27-1.06,1.08-1.38,1.14-.43,1.95-.92,2.77-1.65h-.98c-1.38,0-1.79-.38-1.79-1.79v-.81c0-1.41.41-1.79,1.79-1.79h9.33c1.41,0,1.79.38,1.79,1.79v.84ZM124.76,157.8c-.33,0-.33.19-.33.46,0,.22.11.32.33.33h5.07c.33,0,.33-.19.33-.46,0-.22-.11-.33-.33-.33h-5.07ZM129.59,160.43c.46.41.84.71,1.27.95.38-.27.76-.62,1.06-.98-.3.03-.43.03-.51.03h-1.82Z"/>
    </g>
  </g>
</svg>