<?xml version="1.0" encoding="UTF-8"?>
<svg id="_內容" data-name="內容" xmlns="http://www.w3.org/2000/svg" viewBox="0 0 24 24">
  <defs>
    <style>
      .cls-1 {
        fill: #fff;
      }

      .cls-2 {
        fill: #fbb03b;
      }

      .cls-2, .cls-3 {
        fill-rule: evenodd;
      }

      .cls-3 {
        fill: #fcede4;
      }
    </style>
  </defs>
  <circle class="cls-1" cx="12" cy="12" r="12"/>
  <g>
    <path class="cls-3" d="M12,20.99c3.92,0,7.15-3.23,7.15-7.22s-3.23-7.15-7.15-7.15-7.22,3.23-7.22,7.15,3.23,7.22,7.22,7.22Z"/>
    <g>
      <path class="cls-2" d="M8.33,15.16c.32,0,.57-.25.57-.57s-.25-.57-.57-.57-.57.25-.57.57.25.57.57.57Z"/>
      <path class="cls-2" d="M15.61,15.16c.32,0,.57-.25.57-.57s-.25-.57-.57-.57c-.25,0-.51.25-.51.57s.25.57.51.57Z"/>
    </g>
    <path class="cls-2" d="M12,5.86c4.3,0,7.91,3.54,7.91,7.91s-3.61,7.91-7.91,7.91v-1.77c3.35,0,6.08-2.72,6.08-6.14s-2.72-6.08-6.08-6.08v-1.84ZM12,21.68c-4.37,0-7.91-3.54-7.91-7.91s3.54-7.91,7.91-7.91v1.84c-3.42,0-6.14,2.72-6.14,6.08s2.72,6.14,6.14,6.14v1.77Z"/>
    <path class="cls-2" d="M11.56,10.1c.25-4.05,2.66-6.52,6.14-7.78-2.28,2.28-4.37,4.81-6.14,7.78Z"/>
  </g>
</svg>