<?xml version="1.0" encoding="UTF-8"?>
<svg id="_內容" data-name="內容" xmlns="http://www.w3.org/2000/svg" viewBox="0 0 24 24">
  <defs>
    <style>
      .cls-1 {
        fill: #fff;
        fill-rule: evenodd;
      }

      .cls-2 {
        fill: #c9a681;
      }
    </style>
  </defs>
  <circle class="cls-2" cx="12" cy="12" r="12"/>
  <g>
    <g>
      <path class="cls-1" d="M8.75,14.8c.28,0,.5-.22.5-.5s-.22-.5-.5-.5-.5.22-.5.5.22.5.5.5Z"/>
      <path class="cls-1" d="M15.19,14.8c.28,0,.5-.22.5-.5s-.22-.5-.5-.5c-.22,0-.45.22-.45.5s.22.5.45.5Z"/>
    </g>
    <path class="cls-1" d="M12,6.57c3.81,0,7,3.14,7,7s-3.19,7-7,7v-1.57c2.97,0,5.38-2.41,5.38-5.43s-2.41-5.38-5.38-5.38v-1.62ZM12,20.57c-3.86,0-7-3.14-7-7s3.14-7,7-7v1.62c-3.02,0-5.43,2.41-5.43,5.38s2.41,5.43,5.43,5.43v1.57Z"/>
    <path class="cls-1" d="M11.61,10.32c.22-3.58,2.35-5.77,5.43-6.89-2.02,2.02-3.86,4.26-5.43,6.89Z"/>
  </g>
</svg>